<svg width="200" height="146" viewBox="0 0 200 146" fill="none" xmlns="http://www.w3.org/2000/svg">
<g clip-path="url(#clip0_366_17712)">
<path d="M157.19 13.7352C156.685 10.0296 156.051 6.05117 153.438 3.37621C152.608 2.52744 151.616 1.85541 150.52 1.40061C149.424 0.945817 148.247 0.717682 147.06 0.729963C145.874 0.742244 144.702 0.99469 143.616 1.47207C142.529 1.94946 141.551 2.6419 140.739 3.50764C138.837 5.53722 137.996 8.38707 137.92 11.1678C137.843 13.9486 138.462 16.6985 139.149 19.3942C142.785 19.4669 146.394 18.7565 149.731 17.3114C150.549 16.9122 151.397 16.5791 152.268 16.3153C153.15 16.0909 153.778 16.6556 154.598 17.0493L155.048 16.1873C155.417 16.8731 156.558 16.6698 156.972 16.0104C157.386 15.3511 157.295 14.5066 157.19 13.7352Z" fill="#09342A"/>
<path d="M142.004 29.3808L143.057 24.003L135.163 20.5857L121.052 13.825C120.953 13.1976 120.667 12.6149 120.23 12.154C119.793 11.693 119.227 11.3755 118.606 11.2434C117.985 11.1113 117.338 11.1709 116.752 11.4143C116.165 11.6577 115.666 12.0734 115.321 12.6064C114.976 13.1395 114.801 13.7647 114.819 14.3994C114.837 15.0342 115.047 15.6485 115.422 16.1612C115.797 16.6738 116.318 17.0606 116.917 17.2705C117.517 17.4803 118.166 17.5032 118.778 17.3362L132.215 25.6282L142.004 29.3808Z" fill="#ECA1A1"/>
<path d="M136.705 28.4714L142.422 22.627L142.535 22.6613C142.606 22.6829 149.71 24.8484 154.238 27.0489C154.75 27.2787 155.206 27.6173 155.573 28.0412C155.941 28.4651 156.211 28.9641 156.366 29.5033C156.591 30.2583 156.591 31.0627 156.366 31.8177C156.141 32.5728 155.7 33.2455 155.097 33.7534C154.478 34.3077 153.712 34.672 152.891 34.8027C152.071 34.9333 151.23 34.8249 150.469 34.4903L136.705 28.4714Z" fill="#1CA686"/>
<path d="M136.688 54.1655L152.764 58.4613L156.01 43.2743L141.255 38.707L136.688 54.1655Z" fill="#ECA1A1"/>
<path d="M154.563 50.0434L138.859 46.4318L135.851 39.143C135.607 38.1026 135.666 37.0138 136.023 36.0062C136.379 34.9986 137.018 34.1147 137.862 33.4597L143.6 28.6154L146.676 24.6861L146.341 22.6038C146.281 22.1876 146.369 21.7636 146.588 21.405C146.808 21.0463 147.146 20.7757 147.544 20.6398L151.643 19.1697C152.096 19.0002 152.597 19.0093 153.044 19.1951C153.49 19.3808 153.85 19.7295 154.049 20.1703L154.484 21.1757C154.484 21.1757 156.338 22.048 157.383 22.5387C157.921 22.7833 158.401 23.1386 158.792 23.5816C159.183 24.0245 159.476 24.545 159.651 25.109C161.251 30.2787 160.82 35.8638 158.446 40.7267L154.563 50.0434Z" fill="#1CA686"/>
<path d="M14.8969 127.416L7.30356 125.384C6.18707 121.41 6.05762 117.223 6.92646 113.188C10.2392 119.736 19.1362 120.971 24.4068 126.077C26.0385 127.683 27.288 129.635 28.0627 131.788C28.8374 133.942 29.1175 136.243 28.8823 138.52L30.7013 143.789C27.0091 143.643 23.3925 142.699 20.1005 141.02C16.8086 139.342 13.9197 136.97 11.6328 134.067C10.366 132.427 9.31085 130.633 8.49231 128.728C11.6696 128.263 14.8969 127.416 14.8969 127.416Z" fill="#1CA686"/>
<path d="M109.235 145.27H34.8106C32.816 145.268 30.9038 144.475 29.4934 143.064C28.0831 141.654 27.2897 139.742 27.2875 137.747V39.2009C27.2897 37.2063 28.0831 35.2941 29.4934 33.8837C30.9038 32.4733 32.816 31.68 34.8106 31.6777H109.235C111.23 31.68 113.142 32.4733 114.552 33.8837C115.963 35.2941 116.756 37.2063 116.758 39.2009V137.747C116.756 139.742 115.963 141.654 114.552 143.064C113.142 144.475 111.23 145.268 109.235 145.27Z" fill="#D1D6D5"/>
<path d="M80.8293 139.17H40.042C38.2259 139.168 36.4848 138.446 35.2006 137.162C33.9164 135.877 33.1941 134.136 33.192 132.32V44.6274C33.1941 42.8112 33.9164 41.0701 35.2006 39.7859C36.4848 38.5017 38.2259 37.7794 40.042 37.7773H104.003C105.82 37.7794 107.561 38.5017 108.845 39.7859C110.129 41.0701 110.851 42.8112 110.853 44.6274V109.146C110.844 117.106 107.678 124.738 102.05 130.366C96.421 135.995 88.7894 139.161 80.8293 139.17Z" fill="#FBFEFD"/>
<path d="M97.6229 54.613H46.4226C46.2033 54.6133 45.9862 54.5704 45.7835 54.4867C45.5808 54.4031 45.3965 54.2803 45.2413 54.1254C45.086 53.9706 44.9628 53.7867 44.8786 53.5842C44.7945 53.3817 44.751 53.1646 44.7507 52.9453C44.7505 52.726 44.7934 52.5089 44.877 52.3062C44.9607 52.1035 45.0835 51.9192 45.2383 51.764C45.3932 51.6087 45.5771 51.4855 45.7796 51.4013C45.9821 51.3172 46.1992 51.2737 46.4184 51.2734H97.6229C98.0657 51.2729 98.4907 51.4483 98.8042 51.761C99.1177 52.0738 99.2942 52.4983 99.2948 52.9412C99.2953 53.384 99.1199 53.809 98.8072 54.1225C98.4944 54.436 98.0699 54.6125 97.627 54.613H97.6229Z" fill="#1CA686"/>
<path d="M97.6228 61.2109H46.4226C45.9797 61.2109 45.555 61.0349 45.2418 60.7218C44.9286 60.4086 44.7527 59.9839 44.7527 59.541C44.7527 59.0981 44.9286 58.6734 45.2418 58.3602C45.555 58.047 45.9797 57.8711 46.4226 57.8711H97.6228C98.0657 57.8711 98.4905 58.047 98.8036 58.3602C99.1168 58.6734 99.2927 59.0981 99.2927 59.541C99.2927 59.9839 99.1168 60.4086 98.8036 60.7218C98.4905 61.0349 98.0657 61.2109 97.6228 61.2109Z" fill="#1CA686"/>
<path d="M68.6167 67.8095H46.4226C45.9797 67.8095 45.555 67.6336 45.2418 67.3204C44.9286 67.0072 44.7527 66.5825 44.7527 66.1396C44.7527 65.6967 44.9286 65.272 45.2418 64.9588C45.555 64.6457 45.9797 64.4697 46.4226 64.4697H68.6167C69.0595 64.4697 69.4843 64.6457 69.7975 64.9588C70.1106 65.272 70.2865 65.6967 70.2865 66.1396C70.2865 66.5825 70.1106 67.0072 69.7975 67.3204C69.4843 67.6336 69.0595 67.8095 68.6167 67.8095Z" fill="#1CA686"/>
<path d="M97.6229 81.6287H46.4226C45.9798 81.6292 45.5548 81.4538 45.2413 81.1411C44.9277 80.8283 44.7513 80.4038 44.7507 79.961C44.7502 79.5181 44.9256 79.0932 45.2383 78.7796C45.5511 78.4661 45.9756 78.2896 46.4184 78.2891H97.6229C98.0657 78.2885 98.4907 78.4639 98.8042 78.7767C99.1177 79.0894 99.2942 79.5139 99.2948 79.9568C99.2953 80.3996 99.1199 80.8246 98.8072 81.1381C98.4944 81.4517 98.0699 81.6281 97.627 81.6287H97.6229Z" fill="#D1D6D5"/>
<path d="M97.6228 88.2265H46.4226C45.9797 88.2265 45.555 88.0506 45.2418 87.7374C44.9286 87.4242 44.7527 86.9995 44.7527 86.5566C44.7527 86.1137 44.9286 85.689 45.2418 85.3758C45.555 85.0627 45.9797 84.8867 46.4226 84.8867H97.6228C98.0657 84.8867 98.4905 85.0627 98.8036 85.3758C99.1168 85.689 99.2927 86.1137 99.2927 86.5566C99.2927 86.9995 99.1168 87.4242 98.8036 87.7374C98.4905 88.0506 98.0657 88.2265 97.6228 88.2265Z" fill="#D1D6D5"/>
<path d="M68.6167 94.8251H46.4226C45.9797 94.8251 45.555 94.6492 45.2418 94.336C44.9286 94.0229 44.7527 93.5981 44.7527 93.1552C44.7527 92.7124 44.9286 92.2876 45.2418 91.9745C45.555 91.6613 45.9797 91.4854 46.4226 91.4854H68.6167C69.0595 91.4854 69.4843 91.6613 69.7975 91.9745C70.1106 92.2876 70.2865 92.7124 70.2865 93.1552C70.2865 93.5981 70.1106 94.0229 69.7975 94.336C69.4843 94.6492 69.0595 94.8251 68.6167 94.8251Z" fill="#D1D6D5"/>
<path d="M97.6229 108.644H46.4226C45.9798 108.645 45.5548 108.469 45.2413 108.157C44.9277 107.844 44.7513 107.419 44.7507 106.977C44.7502 106.534 44.9256 106.109 45.2383 105.795C45.5511 105.482 45.9756 105.305 46.4184 105.305H97.6229C98.0657 105.304 98.4907 105.48 98.8042 105.792C99.1177 106.105 99.2942 106.53 99.2948 106.972C99.2953 107.415 99.1199 107.84 98.8072 108.154C98.4944 108.467 98.0699 108.644 97.627 108.644H97.6229Z" fill="#D1D6D5"/>
<path d="M97.6228 115.242H46.4226C45.9797 115.242 45.555 115.066 45.2418 114.753C44.9286 114.44 44.7527 114.015 44.7527 113.572C44.7527 113.129 44.9286 112.705 45.2418 112.391C45.555 112.078 45.9797 111.902 46.4226 111.902H97.6228C98.0657 111.902 98.4905 112.078 98.8036 112.391C99.1168 112.705 99.2927 113.129 99.2927 113.572C99.2927 114.015 99.1168 114.44 98.8036 114.753C98.4905 115.066 98.0657 115.242 97.6228 115.242Z" fill="#D1D6D5"/>
<path d="M68.6166 121.841H46.4226C45.9802 121.84 45.5563 121.664 45.2438 121.351C44.9314 121.037 44.7559 120.613 44.7559 120.171C44.7559 119.729 44.9314 119.304 45.2438 118.991C45.5563 118.678 45.9802 118.502 46.4226 118.501H68.6166C69.059 118.502 69.4829 118.678 69.7954 118.991C70.1078 119.304 70.2833 119.729 70.2833 120.171C70.2833 120.613 70.1078 121.037 69.7954 121.351C69.4829 121.664 69.059 121.84 68.6166 121.841Z" fill="#D1D6D5"/>
<path d="M113.083 55.3023C125.072 55.3023 134.791 45.5831 134.791 33.594C134.791 21.6049 125.072 11.8857 113.083 11.8857C101.094 11.8857 91.3746 21.6049 91.3746 33.594C91.3746 45.5831 101.094 55.3023 113.083 55.3023Z" fill="#1CA686"/>
<path opacity="0.16" d="M113.083 52.2954C107.591 52.2947 102.303 50.212 98.2858 46.4672C94.2684 42.7223 91.82 37.5938 91.4341 32.1152C91.3989 32.6206 91.3746 33.129 91.3746 33.6433C91.3768 39.3993 93.6649 44.9188 97.7357 48.9881C101.807 53.0575 107.327 55.3434 113.083 55.3434C118.839 55.3434 124.359 53.0575 128.43 48.9881C132.501 44.9188 134.789 39.3993 134.791 33.6433C134.791 33.129 134.767 32.6206 134.732 32.1152C134.346 37.5938 131.897 42.7223 127.88 46.4672C123.863 50.212 118.575 52.2947 113.083 52.2954Z" fill="#020D0B"/>
<path d="M113.083 44.2019C112.362 44.201 111.671 43.9143 111.162 43.4047C110.652 42.895 110.365 42.204 110.364 41.4832V25.7527C110.364 25.3955 110.434 25.0417 110.571 24.7115C110.707 24.3813 110.907 24.0813 111.16 23.8285C111.412 23.5758 111.712 23.3753 112.042 23.2385C112.372 23.1017 112.726 23.0312 113.083 23.0312C113.44 23.0312 113.794 23.1017 114.124 23.2385C114.454 23.3753 114.754 23.5758 115.006 23.8285C115.259 24.0813 115.459 24.3813 115.595 24.7115C115.732 25.0417 115.802 25.3955 115.802 25.7527V41.4832C115.801 42.204 115.514 42.895 115.004 43.4047C114.495 43.9143 113.804 44.201 113.083 44.2019Z" fill="#FBFEFD"/>
<path d="M102.499 33.6191C102.5 32.8983 102.787 32.2073 103.296 31.6976C103.806 31.1879 104.497 30.9012 105.218 30.9004H120.948C121.305 30.9 121.659 30.97 121.989 31.1065C122.32 31.243 122.62 31.4431 122.872 31.6956C123.125 31.9481 123.326 32.2479 123.462 32.578C123.599 32.908 123.67 33.2617 123.67 33.619C123.67 33.9762 123.599 34.33 123.462 34.66C123.326 34.99 123.125 35.2899 122.872 35.5423C122.62 35.7948 122.32 35.995 121.989 36.1315C121.659 36.2679 121.305 36.338 120.948 36.3376H105.218C104.497 36.3368 103.806 36.0501 103.296 35.5405C102.787 35.0308 102.5 34.3398 102.499 33.6191Z" fill="#FBFEFD"/>
<path d="M145.716 38.2311L141.096 35.2832L135.027 41.3785L123.571 52.0368C122.951 51.8987 122.304 51.9521 121.715 52.1898C121.126 52.4275 120.624 52.8384 120.273 53.3681C119.923 53.8978 119.742 54.5213 119.754 55.1562C119.766 55.7911 119.97 56.4074 120.34 56.9236C120.71 57.4399 121.227 57.8317 121.825 58.0473C122.422 58.2629 123.071 58.2921 123.685 58.131C124.299 57.9699 124.85 57.6261 125.264 57.1451C125.679 56.6642 125.938 56.0687 126.007 55.4374L138.641 45.9679L145.716 38.2311Z" fill="#ECA1A1"/>
<path d="M142.93 42.8299L139.583 35.3706L139.657 35.2779C139.703 35.2198 144.318 29.4016 148.023 25.9929C148.424 25.6007 148.906 25.3007 149.435 25.1138C149.964 24.927 150.527 24.8577 151.086 24.911C151.871 24.9778 152.619 25.2723 153.239 25.7584C153.859 26.2444 154.324 26.9008 154.576 27.6472C154.866 28.4262 154.924 29.2721 154.746 30.0837C154.567 30.8953 154.158 31.6382 153.568 32.2237L142.93 42.8299Z" fill="#1CA686"/>
<path d="M145.953 18.3117C149.964 18.3117 153.216 15.0602 153.216 11.0494C153.216 7.03854 149.964 3.78711 145.953 3.78711C141.942 3.78711 138.691 7.03854 138.691 11.0494C138.691 15.0602 141.942 18.3117 145.953 18.3117Z" fill="#ECA1A1"/>
<path d="M134.67 140.068H131.668L130.239 128.488H134.67V140.068Z" fill="#ECA1A1"/>
<path d="M136.255 145.27H134.102L133.718 143.237L132.733 145.27H127.023C126.749 145.27 126.483 145.182 126.262 145.02C126.042 144.858 125.879 144.63 125.797 144.368C125.716 144.107 125.72 143.826 125.809 143.568C125.899 143.309 126.068 143.085 126.294 142.93L130.854 139.781V137.726L135.65 138.012L136.255 145.27Z" fill="#09342A"/>
<path d="M172.298 137.518L169.509 138.628L163.898 128.398L168.015 126.759L172.298 137.518Z" fill="#ECA1A1"/>
<path d="M175.694 141.765L173.694 142.561L172.585 140.815L172.422 143.067L167.117 145.179C166.863 145.28 166.583 145.298 166.318 145.229C166.053 145.159 165.817 145.007 165.645 144.795C165.472 144.582 165.373 144.32 165.36 144.046C165.347 143.773 165.422 143.503 165.574 143.275L168.646 138.662L167.886 136.753L172.448 135.245L175.694 141.765Z" fill="#09342A"/>
<path d="M135.828 134.749H129.618L131.334 105.573L130.08 85.7969L130.082 85.781L134.762 57.4328C135.13 55.1973 136.125 53.1122 137.631 51.4197L137.688 51.3555L153.348 55.2232L154.923 58.8135C160.299 62.0112 161.997 80.0433 162.067 80.8114L164.343 103.29L169.911 130.841L165.99 132.952L165.924 132.821L153.546 108.206L145.728 82.2484L140.722 105.611L135.828 134.749Z" fill="#09342A"/>
<path d="M154.947 11.3907C154.69 9.70267 154.422 8.00048 153.818 6.41101C153.214 4.82154 152.241 3.33276 150.845 2.43234C148.635 1.00676 145.773 1.2817 143.295 2.10174C141.379 2.73592 139.508 3.69982 138.157 5.24944C136.805 6.79908 136.046 9.01023 136.549 11.0364C139.192 10.4119 141.836 9.78738 144.479 9.16285L144.19 9.36731C145.058 9.80009 145.816 10.4249 146.406 11.1944C146.996 11.9638 147.404 12.8576 147.597 13.808C147.786 14.77 147.759 15.7619 147.518 16.712C147.276 17.6622 146.827 18.5468 146.202 19.3019C148.004 18.6624 149.807 18.0229 151.61 17.3834C152.723 16.9887 153.913 16.5338 154.573 15.5214C155.338 14.3475 155.161 12.7916 154.947 11.3907Z" fill="#09342A"/>
<path d="M0.380729 145.2H199.619C199.72 145.2 199.817 145.16 199.888 145.088C199.96 145.017 200 144.92 200 144.819C200 144.718 199.96 144.621 199.888 144.55C199.817 144.479 199.72 144.438 199.619 144.438H0.380729C0.279752 144.438 0.182916 144.479 0.111514 144.55C0.0401121 144.621 0 144.718 0 144.819C0 144.92 0.0401121 145.017 0.111514 145.088C0.182916 145.16 0.279752 145.2 0.380729 145.2Z" fill="#B1B9B7"/>
</g>
<defs>
<clipPath id="clip0_366_17712">
<rect width="200" height="144.541" fill="white" transform="translate(0 0.729492)"/>
</clipPath>
</defs>
</svg>
