<svg width="200" height="125" viewBox="0 0 200 125" fill="none" xmlns="http://www.w3.org/2000/svg">
<g clip-path="url(#clip0_353_15743)">
<path opacity="0.1" d="M200 79.9433C200.003 83.2764 199.6 86.5974 198.799 89.8328C198.53 90.9218 198.217 91.9893 197.86 93.0353C197.423 94.3248 196.917 95.59 196.345 96.8254C196.057 97.4491 195.752 98.0615 195.43 98.6627C195.435 102.081 194.732 105.462 193.364 108.595C190.889 114.214 186.48 118.757 180.937 121.398C177.467 123.053 173.675 123.923 169.83 123.945H37.9662C32.0989 123.958 26.3327 122.417 21.254 119.479C20.5035 119.044 19.7722 118.581 19.0601 118.09C17.5141 117.022 16.0615 115.825 14.7182 114.511C12.8996 112.732 11.2974 110.744 9.94498 108.589C6.76757 103.544 5.08435 97.7021 5.09025 91.7397C1.87244 86.0937 -0.00390625 79.3303 -0.00390625 72.0627C-0.00390625 62.8932 2.97787 54.5286 7.87676 48.1965C8.89808 46.8736 10.0168 45.6289 11.2236 44.4727C12.4144 43.3286 13.6942 42.281 15.051 41.3398C16.1362 40.5854 17.2708 39.9046 18.4471 39.3021C18.9379 39.0508 19.4303 38.8165 19.9312 38.5974C20.371 38.4022 20.8159 38.2205 21.2659 38.049C21.8059 37.8429 22.3527 37.6545 22.9062 37.4835C23.4598 37.3126 24.006 37.162 24.5448 37.0318C25.3373 36.8383 26.1433 36.6809 26.9629 36.5598C27.6421 36.4596 28.3213 36.39 29.0005 36.3356C29.5405 36.2971 30.085 36.2745 30.6341 36.2677H30.9312C31.5357 36.2677 32.1368 36.2915 32.7328 36.3322C32.7957 36.2066 32.8636 36.0792 32.9264 35.9536C33.1642 35.5019 33.4104 35.0502 33.6583 34.607V34.5951C33.7007 34.5187 33.7432 34.4423 33.7873 34.3676C33.9877 34.0059 34.1966 33.6476 34.4105 33.2927C34.509 33.1229 34.6058 32.9633 34.706 32.802C34.7281 32.7629 34.7501 32.7256 34.7756 32.6865C34.8775 32.5167 34.9811 32.3469 35.0863 32.1771C35.6105 31.3405 36.1556 30.517 36.7216 29.7064C36.7708 29.6368 36.8167 29.5689 36.8659 29.501C36.9542 29.3753 37.0357 29.2514 37.1342 29.1274C37.3685 28.7997 37.6097 28.4703 37.8525 28.1459C38.0223 27.9167 38.1921 27.6875 38.3755 27.4667C38.817 26.8962 39.2703 26.329 39.7339 25.7687C40.1975 25.2083 40.6865 24.6445 41.1807 24.0927C41.2486 24.0163 41.3165 23.9416 41.3878 23.8651L42.1129 23.0755C42.1485 23.0382 42.1791 23.0042 42.2131 22.9703C42.2997 22.8769 42.3829 22.7835 42.4763 22.6918C42.8651 22.2809 43.2642 21.875 43.6649 21.4743C45.7118 19.4404 47.8925 17.5457 50.1922 15.8028C50.2822 15.7315 50.3739 15.6635 50.4639 15.5956C50.8952 15.2696 51.3333 14.9487 51.7714 14.6328C54.1815 12.9047 56.7004 11.3336 59.3125 9.92922C59.4925 9.82734 59.6758 9.73055 59.8609 9.63376C62.2033 8.39541 64.612 7.28661 67.076 6.31237C68.4185 5.78145 69.7849 5.28562 71.1751 4.82488C72.0954 4.52432 73.0191 4.23735 73.9548 3.97585C75.4015 3.56039 76.8664 3.18569 78.3493 2.85174C82.7183 1.87143 87.1629 1.26586 91.6349 1.04162C92.9933 0.970298 94.3671 0.93464 95.7561 0.93464C102.458 0.925767 109.134 1.77026 115.623 3.44776C115.69 3.54915 115.782 3.6318 115.89 3.68794C115.998 3.74409 116.118 3.77187 116.24 3.76869H116.81C117.058 3.83491 117.304 3.90453 117.552 3.97585C118.937 4.37546 120.301 4.81073 121.646 5.28165L121.986 5.40391C125.305 6.5842 128.535 8.00294 131.649 9.64904C134.457 11.13 137.16 12.8002 139.741 14.6481C140.138 14.9334 140.53 15.2215 140.916 15.5124C141.384 15.2102 141.861 14.9221 142.346 14.6481C144.217 13.583 146.204 12.7364 148.268 12.1248C152.584 10.8476 157.151 10.669 161.554 11.6052C167.2 12.8023 172.311 15.7739 176.439 20.0004C178.121 21.7241 179.618 23.618 180.908 25.6515C181.002 25.7975 181.095 25.9453 181.185 26.0947C182.292 27.9006 183.243 29.7974 184.028 31.7645C184.056 31.8358 184.085 31.9054 184.111 31.9767C184.836 33.8176 185.42 35.7107 185.86 37.6397C185.88 37.7365 185.904 37.835 185.924 37.9335C186.335 39.8004 186.614 41.6939 186.76 43.5999C186.76 43.6678 186.76 43.7374 186.773 43.8071C186.845 44.7931 186.881 45.7898 186.882 46.7973C186.882 47.6973 186.852 48.5905 186.795 49.4752C186.795 49.572 186.782 49.6738 186.773 49.7723C186.758 50.0304 186.736 50.2817 186.714 50.5415C188.011 51.587 189.225 52.7316 190.344 53.9648C190.839 54.5048 191.318 55.0657 191.781 55.6476C193.192 57.4148 194.431 59.3122 195.483 61.314C198.349 66.7444 200 73.1188 200 79.9433Z" fill="#1CA686"/>
<path opacity="0.1" d="M180.812 113.366C180.812 117.226 176.812 120.837 169.831 123.948H37.967C31.8659 123.948 26.1519 121.741 21.2547 117.891C20.0237 116.431 19.375 114.918 19.375 113.364C19.375 109.262 23.8986 105.433 31.7198 102.196L31.9406 102.108C34.1481 101.203 36.6153 100.349 39.3118 99.5456C39.3798 99.5252 39.4494 99.5065 39.5173 99.4827C41.6568 98.8545 43.9328 98.259 46.3452 97.6964C46.4216 97.6794 46.4963 97.6607 46.5727 97.6472C47.5032 97.4264 48.4525 97.2209 49.422 97.0155L49.7956 96.9374C56.851 95.4736 64.8709 94.3122 73.5683 93.5243H73.5785C74.7966 93.4111 76.0277 93.3098 77.2718 93.2203C78.6557 93.11 80.0566 93.0166 81.4728 92.93C82.5544 92.8603 83.6497 92.8009 84.7483 92.7466C84.7523 92.7448 84.7567 92.744 84.7611 92.744C84.7654 92.744 84.7698 92.7448 84.7738 92.7466C89.7304 92.497 94.8517 92.3662 100.089 92.3662C113.038 92.3662 125.277 93.1609 136.123 94.5737C136.133 94.5719 136.143 94.5719 136.153 94.5737C137.821 94.791 139.458 95.0203 141.054 95.2648C141.511 95.3361 141.966 95.4074 142.412 95.4804C144.214 95.7714 145.968 96.0787 147.676 96.4025C167.764 100.221 180.812 106.401 180.812 113.366Z" fill="#1CA686"/>
<path d="M147.985 42.242C147.985 42.242 146.189 41.5135 140.473 44.1336C134.758 46.7537 134.044 46.4226 132.565 46.0286C131.086 45.6347 130.261 45.5328 128.675 43.344C128.675 43.344 127.556 37.2803 126.468 36.3395C125.379 35.3988 120.784 36.8761 120.784 36.8761C120.784 36.8761 115.267 38.1412 114.216 30.7631C114.216 30.7631 114.962 25.2071 113.946 23.5023C113.946 23.5023 115.998 24.3852 119.38 22.9589C122.763 21.5325 125.471 24.4956 125.471 24.4956C125.471 24.4956 126.32 26.7031 126.235 28.0208C126.15 29.3385 126.687 29.8326 128.3 29.1958C128.3 29.1958 129.093 28.0683 127.97 26.2039C126.848 24.3394 126.047 22.9521 126.359 21.5053C126.671 20.0586 127.573 18.0498 130.468 17.0463C133.364 16.0427 137.295 15.8576 139.181 15.0646C141.068 14.2716 141.533 13.7656 141.533 13.7656C141.533 13.7656 140.371 14.9288 143.107 19.8616C145.843 24.7945 144.099 26.934 144.099 26.934C144.099 26.934 142.643 30.4031 136.218 30.1213C136.218 30.1213 130.027 30.3471 133.403 32.9723C133.403 32.9723 135.564 32.5325 138.796 31.5052C142.027 30.4779 144.36 34.7179 144.939 37.6674C145.518 40.6169 147.985 42.242 147.985 42.242Z" fill="#1CA686"/>
<path d="M139.663 17.5014L139.697 17.4912C139.945 18.4319 137.179 22.2152 134.813 25.2224L134.786 25.2004C138.121 20.9654 139.855 18.2299 139.663 17.5014Z" fill="#444053"/>
<path d="M134.834 25.1426L134.849 25.1799C132.959 27.581 130.584 30.4439 128.682 32.5716C128.5 32.7736 128.32 32.9859 128.147 33.2032L128.093 33.1591C128.263 32.9417 128.448 32.7278 128.629 32.5257C130.529 30.4065 132.942 27.5453 134.834 25.1426Z" fill="#444053"/>
<path d="M128.138 33.1045L128.176 33.169C124.715 37.4906 124.486 44.2064 124.477 44.259L123.747 43.41C123.756 43.3556 124.654 37.4566 128.138 33.1045Z" fill="#444053"/>
<path d="M143.979 39.898C143.979 39.898 139.904 37.7755 136.718 38.5396C133.533 39.3037 126.369 35.8397 126.369 35.8397C126.369 35.8397 123.329 34.6052 122.718 33.1975C122.718 33.1975 120.631 30.9901 120.51 29.8507C120.39 28.7113 118.361 25.8399 117.036 25.7295" stroke="#444053" stroke-width="0.169805" stroke-miterlimit="10"/>
<path d="M143.381 41.9411C143.381 41.9411 141.326 40.5555 141.565 38.9424" stroke="#444053" stroke-width="0.169805" stroke-miterlimit="10"/>
<path d="M140.228 43.7289C140.228 43.7289 137.289 42.6625 137.002 38.4785" stroke="#444053" stroke-width="0.169805" stroke-miterlimit="10"/>
<path d="M135.489 44.8128C135.489 44.8128 132.68 42.4831 133.612 38.4111" stroke="#444053" stroke-width="0.169805" stroke-miterlimit="10"/>
<path d="M129.785 43.6749C129.785 43.6749 127.917 39.7524 129.58 37.2002" stroke="#444053" stroke-width="0.169805" stroke-miterlimit="10"/>
<path d="M144.018 37.3125C144.018 37.3125 141.894 37.9917 142.349 39.1056" stroke="#444053" stroke-width="0.169805" stroke-miterlimit="10"/>
<path d="M141.454 33.4629C141.454 33.4629 138.61 34.3646 138.544 38.3872" stroke="#444053" stroke-width="0.169805" stroke-miterlimit="10"/>
<path d="M137.487 32.5254C137.487 32.5254 134.898 35.7211 135.088 38.6248" stroke="#444053" stroke-width="0.169805" stroke-miterlimit="10"/>
<path d="M132.954 33.7783C132.954 33.7783 130.383 36.2371 130.711 37.604" stroke="#444053" stroke-width="0.169805" stroke-miterlimit="10"/>
<path d="M131.403 32.9108C131.403 32.9108 128.992 33.3421 128.654 32.5508" stroke="#444053" stroke-width="0.169805" stroke-miterlimit="10"/>
<path d="M128.271 30C128.271 30 129.488 31.6132 129.799 31.2515" stroke="#444053" stroke-width="0.169805" stroke-miterlimit="10"/>
<path d="M140.347 28.9803C140.347 28.9803 134.268 29.4218 132.893 27.5879" stroke="#444053" stroke-width="0.169805" stroke-miterlimit="10"/>
<path d="M126.999 21.8701C126.999 21.8701 129.85 27.9916 131.923 28.771" stroke="#444053" stroke-width="0.169805" stroke-miterlimit="10"/>
<path d="M129.984 18.9551C129.984 18.9551 131.735 24.5858 133.905 26.3433" stroke="#444053" stroke-width="0.169805" stroke-miterlimit="10"/>
<path d="M142.905 24.3324C142.905 24.3324 138.282 26.3157 135.508 24.3086" stroke="#444053" stroke-width="0.127354" stroke-miterlimit="10"/>
<path d="M134.101 17.7539C134.101 17.7539 135.157 21.8921 136.58 22.8922" stroke="#444053" stroke-width="0.127354" stroke-miterlimit="10"/>
<path d="M142.207 19.6953C142.207 19.6953 139.609 20.6802 138.641 19.9262" stroke="#444053" stroke-width="0.127354" stroke-miterlimit="10"/>
<path d="M126.045 31.3516C126.045 31.3516 126.045 34.9599 125.063 35.2163" stroke="#444053" stroke-width="0.169805" stroke-miterlimit="10"/>
<path d="M118.015 36.027C118.015 36.027 121.92 36.3666 123.715 34.3477" stroke="#444053" stroke-width="0.169805" stroke-miterlimit="10"/>
<path d="M125.039 27.0898C125.039 27.0898 124.095 30.7491 121.49 31.7357" stroke="#444053" stroke-width="0.169805" stroke-miterlimit="10"/>
<path d="M115.675 32.1726C115.675 32.1726 118.436 33.132 120.811 30.6885" stroke="#444053" stroke-width="0.169805" stroke-miterlimit="10"/>
<path d="M121.968 23.9434C121.968 23.9434 121.708 27.0508 120.019 28.506" stroke="#444053" stroke-width="0.169805" stroke-miterlimit="10"/>
<path d="M115.78 27.436C115.78 27.436 118.071 27.4512 118.608 26.7041" stroke="#444053" stroke-width="0.169805" stroke-miterlimit="10"/>
<path d="M132.348 39.2363H67.1084V72.1684H132.348V39.2363Z" fill="#33323D"/>
<path d="M152.877 82.1729H46.7861V103.85H152.877V82.1729Z" fill="#33323D"/>
<path d="M72.111 87.5918H126.512L137.35 124.068H60.6475L72.111 87.5918Z" fill="white"/>
<path d="M43.7637 69.249V80.5054V82.8759V103.849H64.086V83.8404H135.577V103.849H155.9V82.8759V80.5054V69.249H43.7637Z" fill="#504F60"/>
<path opacity="0.1" d="M155.9 69.249H43.7637V80.5037H155.9V69.249Z" fill="#33323D"/>
<path opacity="0.8" d="M149.856 76.5459C150.777 76.5459 151.523 75.7994 151.523 74.8784C151.523 73.9575 150.777 73.2109 149.856 73.2109C148.935 73.2109 148.188 73.9575 148.188 74.8784C148.188 75.7994 148.935 76.5459 149.856 76.5459Z" fill="#8CCF4D"/>
<path opacity="0.8" d="M142.353 76.5459C143.274 76.5459 144.021 75.7994 144.021 74.8784C144.021 73.9575 143.274 73.2109 142.353 73.2109C141.432 73.2109 140.686 73.9575 140.686 74.8784C140.686 75.7994 141.432 76.5459 142.353 76.5459Z" fill="#FA5959"/>
<path d="M129.951 31.3145H69.5059V67.1637H129.951V31.3145Z" fill="white"/>
<path d="M139.147 83.6389C139.275 85.0262 138.227 86.3727 138.533 87.7312C138.597 88.0216 138.723 88.2966 138.769 88.5802C138.894 89.3868 138.414 90.1509 137.954 90.8267L134.009 96.6307C133.851 96.8853 133.661 97.1192 133.445 97.3269C132.69 98.0061 131.559 97.928 130.569 98.1284C129.873 98.2695 129.215 98.5591 128.641 98.9774C128.616 98.9972 128.6 99.0257 128.595 99.0573C128.59 99.0888 128.598 99.1209 128.616 99.1472C128.779 99.3711 128.996 99.5505 129.246 99.6692C129.496 99.7878 129.772 99.8419 130.049 99.8264C130.153 99.9623 130.049 100.166 129.906 100.261C129.694 100.407 129.397 100.446 129.361 100.806C129.346 100.931 129.371 101.058 129.433 101.168C129.592 101.411 129.84 101.583 130.124 101.647C131.482 102.064 132.965 101.331 133.987 100.332C135.009 99.334 135.743 98.074 136.746 97.0569C137.301 96.4948 137.935 96.0126 138.505 95.4675C139.646 94.3808 140.543 93.058 141.392 91.7318C141.672 91.3472 141.884 90.9169 142.017 90.46C142.122 90.0083 142.075 89.5311 142.197 89.0828C142.357 88.497 142.786 88.03 143.143 87.5376C143.844 86.5731 144.311 85.3947 144.218 84.206C144.124 83.0174 143.391 81.8474 142.27 81.4433C141.922 81.3049 141.54 81.2817 141.178 81.3771C140.718 81.518 140.38 81.8984 140.066 82.2618L139.317 83.1261C139.13 83.3174 138.982 83.5428 138.881 83.79C138.832 83.9146 138.821 84.0506 138.849 84.1814C138.876 84.3122 138.941 84.4322 139.035 84.527" fill="#FBBEBE"/>
<path opacity="0.05" d="M139.147 83.6389C139.275 85.0262 138.227 86.3727 138.533 87.7312C138.597 88.0216 138.723 88.2966 138.769 88.5802C138.894 89.3868 138.414 90.1509 137.954 90.8267L134.009 96.6307C133.851 96.8853 133.661 97.1192 133.445 97.3269C132.69 98.0061 131.559 97.928 130.569 98.1284C129.873 98.2695 129.215 98.5591 128.641 98.9774C128.616 98.9972 128.6 99.0257 128.595 99.0573C128.59 99.0888 128.598 99.1209 128.616 99.1472C128.779 99.3711 128.996 99.5505 129.246 99.6692C129.496 99.7878 129.772 99.8419 130.049 99.8264C130.153 99.9623 130.049 100.166 129.906 100.261C129.694 100.407 129.397 100.446 129.361 100.806C129.346 100.931 129.371 101.058 129.433 101.168C129.592 101.411 129.84 101.583 130.124 101.647C131.482 102.064 132.965 101.331 133.987 100.332C135.009 99.334 135.743 98.074 136.746 97.0569C137.301 96.4948 137.935 96.0126 138.505 95.4675C139.646 94.3808 140.543 93.058 141.392 91.7318C141.672 91.3472 141.884 90.9169 142.017 90.46C142.122 90.0083 142.075 89.5311 142.197 89.0828C142.357 88.497 142.786 88.03 143.143 87.5376C143.844 86.5731 144.311 85.3947 144.218 84.206C144.124 83.0174 143.391 81.8474 142.27 81.4433C141.922 81.3049 141.54 81.2817 141.178 81.3771C140.718 81.518 140.38 81.8984 140.066 82.2618L139.317 83.1261C139.13 83.3174 138.982 83.5428 138.881 83.79C138.832 83.9146 138.821 84.0506 138.849 84.1814C138.876 84.3122 138.941 84.4322 139.035 84.527" fill="black"/>
<path d="M142.133 119.347C141.271 119.872 140.198 119.906 139.196 119.782C139.026 119.763 138.844 119.751 138.741 119.875C138.591 120.057 138.768 120.322 138.95 120.468C139.541 120.911 140.236 121.196 140.968 121.298C141.622 121.389 142.282 121.433 142.942 121.429C144.742 121.459 146.552 121.49 148.335 121.23C148.438 121.222 148.538 121.193 148.628 121.143C148.744 121.063 148.823 120.941 148.851 120.804C148.975 120.342 148.739 119.843 148.384 119.522C148.029 119.201 147.572 119.021 147.126 118.843L145.56 118.233C145.192 118.089 144.602 117.71 144.202 117.739C143.47 117.798 142.755 118.984 142.133 119.347Z" fill="#3F3D56"/>
<path opacity="0.05" d="M142.133 119.347C141.271 119.872 140.198 119.906 139.196 119.782C139.026 119.763 138.844 119.751 138.741 119.875C138.591 120.057 138.768 120.322 138.95 120.468C139.541 120.911 140.236 121.196 140.968 121.298C141.622 121.389 142.282 121.433 142.942 121.429C144.742 121.459 146.552 121.49 148.335 121.23C148.438 121.222 148.538 121.193 148.628 121.143C148.744 121.063 148.823 120.941 148.851 120.804C148.975 120.342 148.739 119.843 148.384 119.522C148.029 119.201 147.572 119.021 147.126 118.843L145.56 118.233C145.192 118.089 144.602 117.71 144.202 117.739C143.47 117.798 142.755 118.984 142.133 119.347Z" fill="black"/>
<path d="M143.225 98.5537C142.575 99.4214 141.899 100.422 142.06 101.496C142.147 102.075 142.471 102.587 142.709 103.121C143.007 103.857 143.227 104.622 143.366 105.404C143.611 106.54 143.855 107.679 144.005 108.832C144.174 110.134 143.376 113.902 143.302 115.215C143.283 115.531 143.247 115.874 143.026 116.101C142.94 116.191 142.824 116.271 142.787 116.382C142.763 116.494 142.781 116.611 142.838 116.711C143.206 117.541 143.959 118.158 144.794 118.511C145.63 118.864 147.662 119.47 148.569 119.503C148.689 119.517 148.811 119.501 148.924 119.455C149.046 119.382 149.142 119.272 149.199 119.141C149.854 117.889 149.224 113.434 149.235 112.019C149.235 110.831 149.522 109.669 149.471 108.491C149.428 107.545 149.175 106.623 149.083 105.679C148.932 104.132 149.216 102.58 149.501 101.052C149.718 99.8816 149.936 98.7099 150.214 97.5518C150.384 96.8471 150.581 96.134 150.97 95.5142C151.277 95.0268 151.695 94.621 152.047 94.1557C153.021 92.8787 153.453 91.2696 153.25 89.6763C153.23 89.52 150.989 90.2451 150.793 90.33C149.989 90.6721 149.249 91.1487 148.605 91.7394C148.095 92.2318 147.679 92.8924 147.224 93.4459C146.582 94.2271 145.949 95.0144 145.324 95.8079C144.614 96.7192 143.915 97.6345 143.225 98.5537Z" fill="#464353"/>
<path opacity="0.05" d="M143.225 98.4983C142.575 99.366 141.899 100.366 142.06 101.443C142.147 102.02 142.471 102.531 142.709 103.066C143.006 103.802 143.227 104.567 143.366 105.348C143.611 106.484 143.855 107.624 144.005 108.777C144.174 110.079 143.376 113.849 143.302 115.161C143.283 115.475 143.247 115.82 143.026 116.046C142.94 116.136 142.824 116.216 142.787 116.326C142.761 116.442 142.779 116.563 142.838 116.666C143.206 117.494 143.959 118.113 144.794 118.464C145.63 118.816 147.662 119.143 148.569 119.172C148.689 119.187 148.811 119.17 148.924 119.125C149.046 119.051 149.142 118.941 149.199 118.81C149.854 117.559 149.224 113.387 149.235 111.974C149.235 110.785 149.522 109.622 149.471 108.444C149.428 107.498 149.175 106.576 149.083 105.632C148.932 104.085 149.216 102.533 149.501 101.006C149.718 99.8347 149.936 98.6631 150.214 97.505C150.384 96.8003 150.581 96.0871 150.97 95.4673C151.277 94.9817 151.695 94.5741 152.047 94.1191C153.02 92.8415 153.452 91.2329 153.25 89.6396C153.23 89.4817 150.989 90.2068 150.793 90.2934C149.988 90.6357 149.248 91.1136 148.605 91.7061C148.095 92.2003 147.679 92.8591 147.224 93.4042C146.582 94.1853 145.949 94.9732 145.324 95.7679C144.614 96.6735 143.915 97.5837 143.225 98.4983Z" fill="black"/>
<path d="M135.976 79.4495C137.995 79.4495 139.632 77.8127 139.632 75.7936C139.632 73.7745 137.995 72.1377 135.976 72.1377C133.957 72.1377 132.32 73.7745 132.32 75.7936C132.32 77.8127 133.957 79.4495 135.976 79.4495Z" fill="#FBBEBE"/>
<path d="M139.267 75.6403C139.605 76.1794 140.048 76.6452 140.569 77.0098C141.09 77.3745 141.68 77.6306 142.302 77.7628L142.027 78.7596C141.551 80.4797 141.008 82.2983 139.689 83.4904C139.833 82.9079 139.646 82.2814 139.317 81.7804C138.964 81.2931 138.547 80.8566 138.075 80.4831L135.971 78.6526C135.909 78.6063 135.855 78.5487 135.814 78.4828C135.763 78.3541 135.763 78.2108 135.814 78.0821C136.082 77.2483 136.848 76.7236 137.467 76.1633C137.779 75.8713 138.058 75.5462 138.3 75.1937C138.731 74.5943 138.991 75.1937 139.267 75.6403Z" fill="#FBBEBE"/>
<path d="M131.159 72.1192L131.078 71.44C131.655 71.5894 132.202 71.1004 132.57 70.5909C132.939 70.0815 133.282 69.4838 133.844 69.2733C134.523 69.0152 135.25 69.4278 135.902 69.7674C136.633 70.1742 137.436 70.4365 138.266 70.54C138.398 70.5445 138.529 70.5662 138.656 70.6045C139.081 70.7557 139.283 71.2838 139.344 71.7711C139.405 72.2584 139.388 72.7679 139.599 73.1992C139.757 73.5252 140.03 73.768 140.196 74.0889C140.643 74.9549 140.212 76.1368 140.684 76.9858L139.512 75.9109C139.403 75.8125 139.252 75.7106 139.135 75.7938C139.018 75.877 139.035 76.0026 138.996 76.1164C138.882 76.456 138.466 76.5511 138.162 76.4204C137.858 76.2896 137.639 76.0009 137.417 75.7411C136.899 75.1298 136.282 74.5933 135.549 74.3318C135.231 74.21 134.892 74.1575 134.552 74.1777C134.213 74.1979 133.882 74.2904 133.581 74.4489C133.034 74.758 132.633 75.4779 131.964 75.5034C131.046 75.5374 130.664 73.8274 130.237 73.1516C130.392 73.0342 130.502 72.8661 130.546 72.6765C130.59 72.4869 130.566 72.2879 130.478 72.1141C130.553 72.0852 131.147 72.0088 131.159 72.1192Z" fill="#464353"/>
<path d="M146.397 119.318C145.675 119.963 144.737 120.312 143.769 120.298C143.523 120.298 143.181 120.346 143.18 120.592C143.184 120.665 143.209 120.736 143.251 120.796C143.558 121.305 144.041 121.683 144.609 121.859C145.136 122.018 145.7 121.991 146.25 121.964L147.854 121.881C148.157 121.864 148.461 121.848 148.763 121.811C149.065 121.774 149.391 121.711 149.707 121.665C150.481 121.554 151.263 121.517 152.044 121.555C152.251 121.563 152.49 121.555 152.619 121.398C152.748 121.242 152.679 120.96 152.631 120.734C152.536 120.269 152.631 119.782 152.543 119.315C152.388 118.495 151.684 117.868 150.906 117.571C150.184 117.296 148.904 116.982 148.22 117.438C147.486 117.931 147.044 118.732 146.397 119.318Z" fill="#3F3D56"/>
<path d="M147.987 91.8754C148.129 92.5546 148.78 93.064 148.8 93.7433C148.815 94.2934 148.421 94.7621 148.139 95.2291C147.87 95.7183 147.643 96.2296 147.46 96.7573C146.924 98.1271 146.26 99.4433 145.477 100.688C145.1 101.284 144.679 101.933 144.765 102.634C144.825 102.962 144.94 103.276 145.105 103.565L146.234 105.808C146.482 106.256 146.676 106.732 146.812 107.226C146.908 107.652 146.918 108.094 146.981 108.528C147.16 109.904 147.805 111.289 147.424 112.622C147.391 112.738 147.272 112.877 147.182 112.792C147.554 113.488 147.861 114.191 147.825 114.981C147.81 115.395 147.683 115.83 147.837 116.214C147.925 116.363 147.982 116.528 148.007 116.699C148.007 116.811 147.954 116.918 147.942 117.039C147.912 117.356 148.202 117.621 148.506 117.718C148.81 117.815 149.138 117.811 149.443 117.903C150.033 118.073 150.45 118.582 150.955 118.936C151.465 119.29 152.069 119.486 152.69 119.501C152.778 119.51 152.867 119.493 152.945 119.45C152.989 119.411 153.025 119.364 153.05 119.31C153.074 119.257 153.087 119.198 153.088 119.139C153.115 118.858 153.072 118.575 152.964 118.314C152.855 118.053 152.684 117.823 152.466 117.643C152.371 117.583 152.292 117.5 152.237 117.402C152.208 117.315 152.201 117.223 152.215 117.132C152.306 115.898 152.284 114.657 152.148 113.427C152.087 113.037 152.067 112.642 152.089 112.249C152.123 111.921 152.222 111.595 152.184 111.267C152.147 110.939 151.982 110.644 151.884 110.328C151.714 109.768 151.758 109.167 151.739 108.579C151.709 107.56 151.476 106.562 151.243 105.57C151.153 105.181 151.052 104.772 150.775 104.483C150.54 104.239 150.162 104.003 150.25 103.677C150.298 103.556 150.371 103.447 150.464 103.356C150.574 103.219 150.654 103.061 150.7 102.892C150.747 102.723 150.758 102.546 150.734 102.373C150.833 102.399 150.939 102.39 151.032 102.346C151.125 102.303 151.2 102.228 151.243 102.135C153.079 101.271 154.563 99.5387 155.217 97.6165C155.254 97.4748 155.311 97.3392 155.387 97.2141C155.556 96.9764 155.852 96.8745 156.113 96.742C156.935 96.3294 157.504 95.5534 158.025 94.7944C158.329 94.3529 158.632 93.8978 158.762 93.3799C158.834 93.0451 158.868 92.7034 158.864 92.361L158.91 90.5917C158.919 90.4774 158.908 90.3623 158.876 90.2521C158.833 90.1465 158.768 90.051 158.686 89.9719C158.188 89.4416 157.534 89.0846 156.818 88.9531C156.336 88.8665 155.843 88.8834 155.356 88.8427C154.41 88.7646 153.476 88.4725 152.531 88.5404C151.043 88.6491 149.72 89.6798 149.019 90.9958C148.773 91.4662 148.515 91.8754 147.987 91.8754Z" fill="#464353"/>
<path d="M139.734 80.3693C139.755 80.6421 139.719 80.9164 139.627 81.1741C139.511 81.4221 139.219 81.6139 138.966 81.5138C139.043 81.3439 138.839 81.1419 138.651 81.164C138.557 81.1847 138.471 81.2279 138.398 81.2897C138.325 81.3515 138.268 81.4302 138.233 81.5189C138.106 81.7712 138.064 82.0575 138.112 82.3356C138.172 82.6752 138.372 83.0148 138.319 83.3544C138.277 83.6431 138.065 83.9318 138.178 84.2035C138.252 84.3255 138.343 84.4355 138.45 84.5295C138.599 84.7125 138.673 84.9459 138.655 85.1814C138.637 85.4168 138.529 85.6364 138.353 85.7945L141.203 85.8506C141.099 86.3277 141.311 86.8151 141.556 87.2379C142.24 88.4 143.184 89.388 144.314 90.1245C145.444 90.8609 146.728 91.3259 148.068 91.483C147.996 91.5257 147.934 91.5839 147.887 91.6534C147.839 91.7228 147.808 91.8019 147.795 91.8848C147.782 91.9678 147.788 92.0526 147.811 92.1331C147.835 92.2137 147.876 92.288 147.932 92.3507C148.163 92.58 148.555 92.5511 148.846 92.4017C149.136 92.2522 149.365 92.006 149.63 91.8158C150.097 91.4829 150.669 91.3286 151.24 91.3811C151.596 91.4151 151.943 91.5306 152.301 91.5509C153.357 91.607 154.264 90.848 155.274 90.5321C156.015 90.3046 156.852 90.3046 157.482 89.8427C157.75 89.644 157.969 89.318 157.891 88.9937C157.825 88.8075 157.72 88.6374 157.584 88.4945C157.226 88.0326 157.015 87.4756 156.76 86.9509C156.252 85.9109 155.554 84.9756 154.701 84.1933C154.058 83.6301 153.377 83.112 152.663 82.643C152.489 82.5133 152.304 82.3996 152.109 82.3033C151.85 82.2189 151.597 82.1162 151.352 81.996C151.012 81.7854 150.824 81.4136 150.567 81.113C150.002 80.4542 149.134 80.1502 148.438 79.6323C147.971 79.2927 147.56 78.8274 147.002 78.6593C146.732 78.5778 146.443 78.571 146.171 78.4895C145.556 78.3027 145.108 77.756 144.504 77.5352C144.025 77.3654 143.498 77.4062 142.992 77.3433C142.436 77.2743 141.904 77.0722 141.442 76.7541C141.289 76.6305 141.117 76.5319 140.933 76.462C140.17 76.2294 140.107 77.6507 140.036 78.1448C139.922 78.9005 139.734 79.6272 139.734 80.3693Z" fill="#1CA686"/>
<path d="M140.478 85.1414C140.606 86.5287 139.558 87.8735 139.864 89.2337C139.928 89.524 140.054 89.7991 140.1 90.0827C140.227 90.8893 139.745 91.6534 139.285 92.3275L135.34 98.1179C135.182 98.3725 134.992 98.6064 134.776 98.8141C134.021 99.4933 132.89 99.4152 131.9 99.6156C131.204 99.757 130.547 100.047 129.972 100.465C129.947 100.484 129.931 100.513 129.926 100.544C129.921 100.576 129.929 100.608 129.947 100.634C130.11 100.859 130.326 101.038 130.577 101.157C130.827 101.276 131.103 101.33 131.38 101.314C131.484 101.451 131.38 101.653 131.238 101.748C131.025 101.896 130.728 101.935 130.692 102.295C130.678 102.42 130.702 102.547 130.764 102.657C130.924 102.899 131.171 103.071 131.455 103.136C132.813 103.553 134.296 102.82 135.318 101.821C136.34 100.823 137.074 99.5629 138.079 98.5458C138.634 97.9837 139.268 97.5015 139.836 96.9564C140.979 95.8696 141.866 94.5469 142.723 93.2207C143.003 92.8359 143.215 92.4056 143.348 91.9488C143.453 91.4972 143.406 91.02 143.528 90.5717C143.688 89.9859 144.117 89.5172 144.474 89.0265C145.175 88.062 145.642 86.8836 145.549 85.6949C145.455 84.5063 144.722 83.3363 143.601 82.9322C143.254 82.793 142.871 82.7698 142.509 82.866C142.051 83.0069 141.711 83.3873 141.397 83.7507L140.648 84.615C140.461 84.8059 140.314 85.0314 140.213 85.2789C140.165 85.4031 140.153 85.5387 140.181 85.6692C140.208 85.7998 140.272 85.9196 140.366 86.0141" fill="#FBBEBE"/>
<path d="M142.475 79.4405C141.955 79.4711 141.385 79.522 141.018 79.8922C140.865 80.0622 140.741 80.2561 140.651 80.4662C140.296 81.1912 139.95 81.9486 139.925 82.7551C139.903 83.4004 140.094 84.0304 140.188 84.6688C140.269 85.1986 140.062 85.7386 140.018 86.2752C140.662 86.0782 141.511 85.8099 142.095 85.4771C142.477 85.2267 142.884 85.0151 143.309 84.8454C143.929 84.64 144.97 84.9932 145.554 85.2835C145.586 84.8692 145.277 84.1509 145.309 83.7366C145.314 83.5632 145.345 83.3915 145.401 83.2272C145.489 83.0532 145.593 82.8877 145.712 82.7331C145.937 82.3686 146.041 81.942 146.008 81.5148C145.975 81.0876 145.808 80.6818 145.53 80.3558C145.009 79.7683 144.19 79.5475 143.411 79.4575C142.919 79.4001 142.424 79.3825 141.93 79.4049" fill="#1CA686"/>
<path d="M65.5445 67.5615L62.1959 62.7051C62.1959 62.7051 62.1331 61.5029 61.914 61.2227C61.695 60.9425 61.8665 60.3176 61.8665 60.3176C61.8665 60.3176 62.1025 59.978 61.8988 59.9423C61.695 59.9067 61.8665 59.146 61.8665 59.146L61.8512 57.9284C61.8512 57.9284 62.0397 56.7568 61.8835 56.4766C61.8373 56.4006 61.8142 56.3128 61.8169 56.2239C61.8197 56.135 61.8481 56.0488 61.8988 55.9757C61.8988 55.9757 62.0855 55.305 61.8988 55.1267C61.712 54.9484 61.7578 53.9092 61.8037 53.0805C61.8495 52.2519 61.4759 51.7849 61.4759 51.6609C61.4759 51.537 60.2398 50.3178 60.2398 50.2074C60.2398 50.097 59.457 49.6453 58.9866 49.5282C58.5162 49.411 58.2836 49.3091 58.2989 49.2463C58.3142 49.1835 57.5636 48.9356 57.5636 48.9356C57.5636 48.9356 56.9065 48.888 56.6552 48.5603C56.4039 48.2326 55.6363 48.1375 55.6177 48.1341L55.6024 48.0696C55.6024 48.0458 55.5939 48.022 55.5888 47.9982C55.6508 47.8994 55.7075 47.7974 55.7586 47.6926L55.8027 47.5975C56.0778 47.5993 56.3465 47.5156 56.572 47.3581C56.683 47.2661 56.7736 47.152 56.8382 47.0231C56.9028 46.8942 56.94 46.7532 56.9472 46.6092C56.9606 46.3206 56.8973 46.0335 56.7638 45.7772C56.6263 45.497 56.4242 45.2049 56.4956 44.8993C56.5261 44.7685 56.6042 44.6531 56.645 44.524C56.7058 44.2721 56.6656 44.0063 56.5329 43.7837C56.414 43.5578 56.2493 43.3575 56.1169 43.1384C55.9489 42.858 55.8365 42.5478 55.7858 42.2249C55.7763 42.053 55.7355 41.8844 55.6652 41.7273C55.5941 41.6166 55.5004 41.5223 55.3901 41.4506C54.9001 41.101 54.3089 40.922 53.7074 40.9411C53.2811 40.9547 52.8583 41.0702 52.4338 41.0175C52.1809 40.9741 51.9321 40.9093 51.6901 40.824C51.1654 40.6677 50.5592 40.6049 50.1024 40.9055C49.6456 41.206 49.4639 41.797 49.1532 42.2639C48.8798 42.6714 48.474 43.0145 48.2702 43.4526C48.2702 43.4526 48.2702 43.4356 48.2702 43.4288C48.2189 43.5285 48.1796 43.634 48.153 43.7429C48.0947 44.0889 48.1186 44.4437 48.2226 44.7787C48.2456 44.9591 48.336 45.1241 48.4757 45.2406C48.6302 45.3408 48.8424 45.317 49.0224 45.3493L49.002 45.4376C48.8188 46.3153 48.9721 47.2299 49.4317 47.9999C49.8912 48.7699 50.6234 49.339 51.4829 49.5944C51.4829 49.6267 51.4829 49.6572 51.4829 49.6895C51.4825 49.7792 51.4769 49.8688 51.4659 49.9578C51.4659 49.9578 49.8918 49.6335 49.469 49.8525C49.0462 50.0716 48.2175 50.2431 48.0919 50.3619C47.9662 50.4808 47.6538 50.3942 47.3719 51.1278C47.09 51.8613 47.0595 52.6102 46.6927 52.9549C46.3259 53.2996 46.1459 53.5322 46.1289 53.7818C46.112 54.0314 46.1765 54.0942 46.0356 54.1724C45.8946 54.2505 45.6959 54.5782 45.7537 54.7038C45.7753 54.7897 45.7706 54.8801 45.7404 54.9634C45.7101 55.0466 45.6556 55.1189 45.5839 55.1708C45.5096 55.223 45.4503 55.2937 45.4119 55.3759C45.3734 55.4582 45.3572 55.549 45.3648 55.6395C45.3648 55.6395 45.2697 55.9791 45.0507 56.0623C44.8316 56.1455 44.6907 56.6549 44.6907 56.6549L43.9809 57.47L42.5749 55.9146C42.4693 55.7983 42.322 55.7286 42.1651 55.7206C42.0082 55.7127 41.8546 55.7671 41.7378 55.8721L41.0467 56.4936C40.7804 56.5583 40.5396 56.7014 40.3556 56.9045C40.2058 57.0599 40.0845 57.2404 39.9973 57.4377L39.6203 57.7773C39.5012 57.9249 39.4283 58.1043 39.4108 58.2931C39.3933 58.4819 39.4319 58.6717 39.5218 58.8386L40.4235 59.8354V59.8439C40.1041 59.872 39.8005 59.9956 39.5524 60.1987C38.2075 61.3874 38.1939 62.4792 38.3943 62.9785C38.5947 63.4777 40.3029 65.3982 40.3029 65.3982C40.3029 65.3982 41.2946 66.687 42.726 67.3713L42.7159 67.3832C42.6864 67.4139 42.6586 67.4462 42.6327 67.48L42.6089 67.5106L42.5868 67.5411L42.5613 67.5785C42.5545 67.5883 42.5483 67.5985 42.5427 67.609L42.5155 67.6532C42.5092 67.663 42.5035 67.6732 42.4985 67.6838C42.4866 67.7041 42.4764 67.7245 42.4662 67.7449C42.4625 67.7515 42.4591 67.7583 42.4561 67.7653C42.4425 67.7924 42.4289 67.8196 42.417 67.8502L42.4034 67.8807C42.3949 67.9011 42.3881 67.9215 42.3796 67.9436C42.3744 67.9569 42.3698 67.9705 42.3661 67.9843L42.3457 68.0454C42.3402 68.0598 42.3356 68.0746 42.3321 68.0896C42.3321 68.1117 42.3185 68.1337 42.3134 68.1575C42.3083 68.1813 42.3049 68.1847 42.3015 68.2C42.2981 68.2153 42.2846 68.273 42.2778 68.312C42.2778 68.3256 42.2778 68.3409 42.2693 68.3562C42.2608 68.3715 42.2608 68.4088 42.2557 68.436C42.2506 68.4632 42.2557 68.4734 42.2557 68.4937L42.2455 68.5701V68.6313C42.2455 68.6601 42.2455 68.689 42.237 68.7196C42.2285 68.7501 42.237 68.7552 42.237 68.7739C42.237 68.8232 42.237 68.8724 42.237 68.925C42.2064 70.7521 42.3134 71.017 42.3134 71.017C42.3833 71.1858 42.4972 71.3327 42.6433 71.4423C42.7893 71.552 42.9622 71.6203 43.1438 71.6402C43.2328 71.6472 43.3225 71.6426 43.4104 71.6266C44.2254 71.4857 46.1272 71.158 46.8065 71.287C47.2123 71.3617 47.9611 71.2497 48.4943 71.1495L48.6353 71.1223L48.7321 71.4331L49.0411 71.3482L49.3043 71.4993L49.4741 71.5961C49.7832 72.6421 51.0363 72.2855 51.0363 72.2855L51.3335 72.4553L54.3543 72.5334C54.6934 72.7377 55.0517 72.9084 55.4241 73.0428C55.4733 73.0589 55.5239 73.0702 55.5752 73.0768C55.8576 73.0998 56.1412 73.1049 56.4242 73.0921C56.6552 73.0921 56.8335 73.0768 56.8335 73.0768C56.8335 73.0768 56.8029 72.2566 56.7588 71.338C57.6951 71.3148 58.6295 71.2383 59.5571 71.1087C61.1703 70.8269 61.8427 69.3597 62.0906 68.5752C62.1648 68.8957 62.2176 69.2207 62.2486 69.5482C62.3145 69.8362 62.3984 70.1198 62.4999 70.3972C62.5863 70.619 62.7005 70.8289 62.8395 71.0221C64.0281 70.6163 63.3081 70.0033 63.0585 69.7418C62.8089 69.4803 63.2283 69.2579 63.2283 69.2579C63.2283 69.2579 63.5578 69.0388 63.5255 68.8367C63.4932 68.6347 63.4779 68.4156 64.5443 68.4309C65.6107 68.4462 65.5445 67.5615 65.5445 67.5615ZM49.019 57.5922C49.0326 57.6805 49.1888 58.6433 49.3145 58.8963C49.352 59.0634 49.364 59.2351 49.3501 59.4058C48.7202 59.3548 48.063 59.3276 48.063 59.3276C48.0815 59.3506 48.0932 59.3782 48.097 59.4075L47.9968 59.3854L47.8542 59.3514L49.0156 57.5837L49.019 57.5922ZM46.7165 61.2532L47.8083 61.423L47.9 61.4366C47.8691 61.6049 47.8504 61.7751 47.844 61.946C47.844 61.963 47.8678 61.9817 47.9034 62.0038C47.8882 62.0895 47.8814 62.1765 47.883 62.2636C47.9 62.3485 48.4094 62.5353 48.9953 62.6898C48.9868 62.722 48.98 62.7526 48.9715 62.7798C48.4536 62.5081 47.6402 62.3807 47.5468 62.1787C47.4534 61.9766 44.6822 61.0087 44.6822 61.0087L44.4071 60.8712L45.1356 61.0087L45.3359 60.9883C45.7899 61.1065 46.251 61.195 46.7165 61.2532Z" fill="url(#paint0_linear_353_15743)"/>
<path d="M61.9823 68.2405C61.9823 68.2405 61.5493 70.8623 59.3469 71.2494C57.1446 71.6366 49.792 71.5602 49.792 71.5602C49.792 71.5602 45.5876 70.954 44.0678 67.4033C42.5481 63.8527 41.57 62.4382 42.8792 62.3771C44.1884 62.316 51.2099 64.7544 51.6123 64.7815C52.0147 64.8087 62.3712 59.3834 61.9823 68.2405Z" fill="#65617D"/>
<path opacity="0.05" d="M61.9823 68.2405C61.9823 68.2405 61.5493 70.8623 59.3469 71.2494C57.1446 71.6366 49.792 71.5602 49.792 71.5602C49.792 71.5602 45.5876 70.954 44.0678 67.4033C42.5481 63.8527 41.57 62.4382 42.8792 62.3771C44.1884 62.316 51.2099 64.7544 51.6123 64.7815C52.0147 64.8087 62.3712 59.3834 61.9823 68.2405Z" fill="black"/>
<path d="M42.2661 71.1595C42.3344 71.3274 42.4468 71.4736 42.5915 71.5828C42.7362 71.6919 42.9078 71.7598 43.088 71.7792C43.1771 71.7848 43.2666 71.7796 43.3545 71.764C44.1611 71.6247 46.0528 71.2987 46.7201 71.4244C47.1208 71.4974 47.8629 71.387 48.391 71.2885C48.7425 71.2223 49.0006 71.1595 49.0006 71.1595C49.0006 71.1595 48.3791 69.0963 48.3027 69.0352C48.2263 68.9741 45.5094 67.3371 45.5094 67.3371L43.3596 67.1826C43.0702 67.2259 42.8087 67.3792 42.6295 67.6105C42.4036 67.8856 42.2084 68.3356 42.1948 69.0743C42.1591 70.8929 42.2661 71.1595 42.2661 71.1595Z" fill="#3F3D56"/>
<path opacity="0.05" d="M42.2661 71.16C42.3343 71.3279 42.4468 71.4742 42.5915 71.5833C42.7362 71.6924 42.9077 71.7603 43.0879 71.7798C42.8774 71.508 42.6824 71.2246 42.5038 70.9308L42.5157 69.4263C42.473 69.0137 42.5275 68.5967 42.675 68.209C42.8224 67.8212 43.0586 67.4734 43.3647 67.1934C43.3647 67.1934 42.2321 67.2698 42.1999 69.085C42.1676 70.9002 42.2661 71.16 42.2661 71.16Z" fill="black"/>
<path opacity="0.1" d="M51.5901 67.8689L53.5921 66.3016L56.7403 63.1992L55.8913 63.1602C55.7639 63.2417 55.4073 63.4998 55.3938 63.8088C55.3785 64.1875 54.5447 63.836 54.1083 64.0516C53.6719 64.2673 51.5494 66.9893 51.1775 66.9706C50.8056 66.9519 50.5102 66.7821 50.3539 67.047L50.3438 67.064L51.5901 67.8689Z" fill="black"/>
<path opacity="0.1" d="M42.624 67.6144C42.6953 67.6483 42.7684 67.6823 42.8414 67.7129C44.3611 68.3649 46.2375 69.7302 46.3784 69.9781C46.4633 70.1292 47.5518 70.7897 48.3906 71.2856C48.7421 71.2194 49.0002 71.1565 49.0002 71.1565C49.0002 71.1565 48.3787 69.0934 48.3023 69.0323C48.2259 68.9711 45.509 67.3342 45.509 67.3342L43.3593 67.1797C43.067 67.2234 42.8032 67.3794 42.624 67.6144Z" fill="black"/>
<path d="M38.4067 63.1684C38.607 63.6643 40.2983 65.5729 40.2983 65.5729C40.2983 65.5729 41.3681 66.9687 42.8895 67.6105C44.411 68.2524 46.2856 69.6278 46.4249 69.8757C46.5149 70.0354 47.7273 70.7655 48.5797 71.2665L48.7716 71.3785L49.1944 71.6247L49.4185 71.7521C49.4185 71.7521 49.9382 71.3361 50.4561 70.9167C50.974 70.4972 51.4749 70.0863 51.4749 70.0676C51.4749 70.0489 51.6922 69.4937 51.6447 69.4631C51.5971 69.4326 51.5139 69.2322 51.317 68.9826C51.1091 68.7058 50.8385 68.4823 50.5274 68.3305C50.0773 68.0992 49.7184 67.7229 49.5085 67.2624C49.5085 67.2624 49.4406 67.2132 49.3387 67.147C49.1275 67.0018 48.8916 66.8965 48.6425 66.8362C48.3029 66.7938 47.6645 66.0959 47.6645 66.0959C47.4162 65.9343 47.2091 65.7168 47.06 65.4608C46.8901 65.1212 44.4908 63.4673 44.2684 63.3145L50.0995 67.0604L51.4953 67.9569L53.4973 66.3913L56.6455 63.289L55.6062 63.2415C54.078 63.1752 51.3611 63.0716 51.0215 63.1498C50.7433 63.2138 50.4567 63.2327 50.1725 63.2058C50.1725 63.2058 49.3982 63.2398 48.8854 62.9698C48.3725 62.6998 47.566 62.5724 47.4726 62.3721C47.3792 62.1717 44.6351 61.2106 44.6351 61.2106C44.6351 61.2106 40.8994 59.2256 39.5631 60.404C38.2267 61.5825 38.2046 62.6692 38.4067 63.1684Z" fill="#65617D"/>
<path d="M50.457 51.783L50.9376 53.3809L51.5591 56.979L53.8396 57.1336L54.4916 56.0468L55.1505 54.9533C55.1505 54.9533 55.5614 53.4997 55.8568 52.0937C56.1166 50.8491 56.2881 49.64 56.0046 49.5093C55.7516 49.3938 55.5868 48.9744 55.4782 48.5227C55.4646 48.4684 55.4527 48.4107 55.4425 48.3529C55.3665 47.9712 55.3154 47.5849 55.2897 47.1965C55.2897 47.1965 50.5131 46.9486 51.1804 48.9184C51.2995 49.2549 51.3603 49.6092 51.3604 49.9661C51.3604 50.0578 51.3604 50.1478 51.3434 50.2327C51.3103 50.5382 51.2145 50.8335 51.062 51.1003C50.9094 51.3671 50.7035 51.5995 50.457 51.783Z" fill="#EE8E9E"/>
<path d="M49.4658 51.5203L49.6356 54.2372L50.0228 56.5482L50.4575 57.6197L50.8463 63.4746C50.8463 63.4746 54.5821 63.9076 55.4956 63.4661C55.563 63.4403 55.6218 63.3962 55.6654 63.3387C56.7641 61.6797 56.4041 56.8742 56.4041 56.8742L56.8218 53.7719L56.5433 52.1621L55.8641 52.0908L55.3445 52.0348C55.3445 52.0348 55.2273 52.1791 55.0575 52.4033C54.5973 53.0095 53.7517 54.2049 53.8094 54.7024C53.8859 55.3816 53.716 56.0829 53.4511 56.1916C53.1863 56.3003 52.9706 56.4871 52.9248 56.3003C52.8587 56.1437 52.8422 55.9707 52.8772 55.8045C52.9248 55.5396 52.6751 54.733 52.6751 54.733C52.6751 54.733 52.2574 53.7872 52.288 53.3847C52.3185 52.9823 52.2421 52.5153 52.1182 52.4067C51.9942 52.298 51.8227 52.1893 51.962 51.6935C52.1012 51.1976 51.3507 50.2314 51.3507 50.2314L49.4658 51.5203Z" fill="#E3E8F4"/>
<path opacity="0.1" d="M54.4053 58.2987L54.5615 62.936L55.4564 63.4336C55.5235 63.4066 55.5822 63.362 55.6262 63.3045C56.7248 61.6455 56.3648 56.84 56.3648 56.84L56.7842 53.7377L56.5041 52.1279L55.8248 52.0566C56.0863 50.8119 56.2561 49.6046 55.9726 49.4722C55.7196 49.3567 55.5548 48.9373 55.4479 48.4873L54.9639 51.7679C54.9639 51.7679 55.0047 52.0634 55.0183 52.3691C55.0384 52.5623 55.0252 52.7576 54.9792 52.9464C54.9165 53.2003 54.9061 53.4643 54.9486 53.7224C54.6685 54.2148 54.5292 55.1284 54.4613 56.0097C54.3696 57.1813 54.4053 58.2987 54.4053 58.2987Z" fill="black"/>
<path d="M55.4617 48.4053C55.4617 48.4053 56.2445 48.5021 56.4924 48.8281C56.7404 49.1541 57.3924 49.2017 57.3924 49.2017C57.3924 49.2017 58.1362 49.4496 58.1209 49.5107C58.1056 49.5718 58.3382 49.6669 58.8001 49.7909C59.262 49.9148 60.0414 50.3648 60.0414 50.4701C60.0414 50.5754 61.2657 51.7878 61.2657 51.9118C61.2657 52.0357 61.6375 52.501 61.5917 53.3228C61.5459 54.1447 61.4983 55.1907 61.6851 55.3605C61.8719 55.5303 61.6851 56.1976 61.6851 56.1976C61.6349 56.2703 61.6068 56.3559 61.6041 56.4441C61.6013 56.5324 61.6242 56.6196 61.6698 56.6952C61.8243 56.9736 61.6375 58.1368 61.6375 58.1368L61.6545 59.3475C61.6545 59.3475 61.4847 60.1066 61.6851 60.1388C61.8855 60.1711 61.6545 60.5107 61.6545 60.5107C61.6545 60.5107 61.4847 61.1305 61.7004 61.4107C61.916 61.6908 61.9789 62.8829 61.9789 62.8829L65.2986 67.707C65.2986 67.707 65.3461 68.5917 64.2916 68.5764C63.2371 68.5612 63.2507 68.7785 63.283 68.9789C63.3152 69.1792 62.9875 69.3983 62.9875 69.3983C62.9875 69.3983 62.5698 69.6156 62.8177 69.8788C63.0656 70.142 63.7788 70.7482 62.6003 71.1507C62.4615 70.9592 62.3474 70.751 62.2607 70.5309C62.1609 70.2572 62.0781 69.9777 62.0128 69.6938C62.0128 69.6938 61.9041 68.5136 61.6868 68.3591C61.4694 68.2046 61.5 67.4591 61.5 67.4591C61.5 67.4591 61.8108 66.8546 61.376 66.6101C60.9413 66.3656 54.645 62.8744 54.645 62.8744L54.4921 58.2353C54.4921 58.2353 54.3835 54.8069 55.0355 53.659C54.9929 53.401 55.0033 53.137 55.0661 52.883C55.1748 52.6046 55.0508 51.7046 55.0508 51.7046L55.4617 48.4053Z" fill="#3F3D56"/>
<path opacity="0.1" d="M51.3967 50.2738C51.3967 50.2738 49.8379 49.9529 49.4185 50.1702C48.9991 50.3876 48.1789 50.5574 48.0601 50.6797C47.9412 50.8019 47.6271 50.7119 47.3469 51.4404C47.0667 52.1689 47.0378 52.9143 46.6795 53.2556C46.3213 53.5969 46.1379 53.8295 46.1226 54.0775C46.1073 54.3254 46.1684 54.3882 46.0292 54.4646C45.89 54.541 45.6896 54.8688 45.749 54.9927C45.8084 55.1167 48.9753 57.8471 48.9753 57.8471C48.9753 57.8471 49.1315 58.8863 49.2708 59.1495C49.41 59.4127 49.1163 63.0432 48.8055 63.2911C48.4948 63.539 50.8924 63.5186 50.8924 63.5186C50.8924 63.5186 51.0011 61.1414 51.0945 61.0123C51.1879 60.8833 51.0317 58.3447 51.0317 58.3447C51.0317 58.3447 51.0164 56.1729 51.2184 55.5989C51.4205 55.025 51.3882 53.1164 51.3882 53.1164C51.3882 53.1164 51.5665 51.9719 51.7839 51.7053C52.0012 51.4387 51.3967 50.2738 51.3967 50.2738Z" fill="black"/>
<path d="M51.3505 50.2277C51.3505 50.2277 49.7917 49.9067 49.3723 50.1224C48.9529 50.338 48.131 50.5112 48.0138 50.6318C47.8967 50.7524 47.5791 50.6624 47.3006 51.3925C47.0222 52.1227 46.9899 52.8647 46.6333 53.206C46.2767 53.5474 46.0899 53.78 46.0747 54.0279C46.0594 54.2758 46.1222 54.3386 45.9813 54.4168C45.8403 54.4949 45.6416 54.8192 45.7028 54.9432C45.7639 55.0671 48.9291 57.7976 48.9291 57.7976C48.9291 57.7976 49.0836 58.8368 49.2245 59.1C49.3655 59.3632 49.0683 62.9936 48.7576 63.2415C48.4468 63.4895 50.853 63.4674 50.853 63.4674C50.853 63.4674 50.9616 61.0901 51.0533 60.9628C51.145 60.8354 50.9922 58.2934 50.9922 58.2934C50.9922 58.2934 50.9769 56.1233 51.179 55.5494C51.3811 54.9754 51.3573 53.0668 51.3573 53.0668C51.3573 53.0668 51.5356 51.9223 51.7529 51.6557C51.9703 51.3891 51.3505 50.2277 51.3505 50.2277Z" fill="#3F3D56"/>
<path opacity="0.1" d="M51.188 48.9146C51.3071 49.2511 51.368 49.6054 51.368 49.9623C52.13 50.1855 52.9446 50.148 53.6828 49.8558C54.421 49.5636 55.0406 49.0334 55.4434 48.3492C55.3673 47.9675 55.3163 47.5812 55.2905 47.1928C55.2905 47.1928 50.5207 46.9432 51.188 48.9146Z" fill="black"/>
<path d="M48.8291 46.4628C48.8285 47.3732 49.1773 48.2491 49.8035 48.9099C50.4298 49.5707 51.2857 49.966 52.1948 50.0142C53.1039 50.0624 53.9969 49.76 54.6895 49.1692C55.3822 48.5783 55.8217 47.7443 55.9174 46.8389C56.0132 45.9336 55.7578 45.026 55.2041 44.3034C54.6503 43.5808 53.8404 43.0982 52.9413 42.9552C52.0422 42.8123 51.1225 43.0198 50.3719 43.535C49.6213 44.0502 49.097 44.8338 48.9072 45.7241C48.8552 45.9669 48.829 46.2145 48.8291 46.4628Z" fill="#EE8E9E"/>
<path d="M46.5481 54.6885L45.699 54.9517C45.7207 55.0373 45.7162 55.1275 45.6859 55.2105C45.6556 55.2935 45.601 55.3654 45.5292 55.4169C45.4554 55.4685 45.3965 55.5387 45.3586 55.6205C45.3207 55.7022 45.3052 55.7925 45.3136 55.8822C45.3136 55.8822 45.2202 56.2218 45.0028 56.3016C44.7855 56.3814 44.6463 56.8909 44.6463 56.8909L43.9331 57.7127C43.9331 57.7127 43.6682 57.9301 43.7157 58.0387C43.7633 58.1474 43.4355 58.178 43.4355 58.178L43.6054 60.939L45.0793 61.2192L45.9945 61.1258L46.7383 60.8473L47.3903 60.4585L47.6841 59.6994L48.9882 57.7127L46.5481 54.6885Z" fill="#3F3D56"/>
<path d="M43.6484 58.3898C43.6484 58.3898 41.7567 55.661 40.3439 57.1332C38.9312 58.6054 40.9179 60.9963 41.3832 60.9182C41.8484 60.84 44.0678 60.7161 44.0678 60.7161L43.6484 58.3898Z" fill="#EE8E9E"/>
<path d="M48.1048 57.2101L39.7485 52.9451C39.6199 52.8794 39.4624 52.9305 39.3967 53.0591L36.1383 59.4431C36.0727 59.5717 36.1237 59.7292 36.2524 59.7949L44.6086 64.0599C44.7372 64.1256 44.8947 64.0745 44.9604 63.9459L48.2188 57.5619C48.2844 57.4333 48.2334 57.2758 48.1048 57.2101Z" fill="#3F3D56"/>
<path d="M47.3276 57.5896L39.9121 53.8047L37.0597 59.3931L44.4752 63.178L47.3276 57.5896Z" fill="#1CA686"/>
<path d="M38.2013 56.5871C38.2763 56.5871 38.3371 56.5263 38.3371 56.4513C38.3371 56.3762 38.2763 56.3154 38.2013 56.3154C38.1262 56.3154 38.0654 56.3762 38.0654 56.4513C38.0654 56.5263 38.1262 56.5871 38.2013 56.5871Z" fill="#E6E8EC"/>
<path d="M46.2278 60.7896C46.3525 60.7896 46.4536 60.6885 46.4536 60.5637C46.4536 60.439 46.3525 60.3379 46.2278 60.3379C46.1031 60.3379 46.002 60.439 46.002 60.5637C46.002 60.6885 46.1031 60.7896 46.2278 60.7896Z" fill="#E6E8EC"/>
<path d="M42.4239 58.9638C42.4069 61.0116 46.6418 61.4463 46.6418 61.4463L47.7235 61.6161L48.2091 61.6925L48.4112 59.6922C48.4112 59.6922 48.1888 59.6583 47.912 59.5937C47.5011 59.4986 46.9696 59.3339 46.8592 59.1013C46.6809 58.7158 42.4358 56.9159 42.4239 58.9638Z" fill="#EE8E9E"/>
<path opacity="0.1" d="M48.9072 45.7245C49.0046 45.7317 49.0964 45.7726 49.167 45.84C49.2859 45.9674 49.2927 46.1932 49.4489 46.2713C49.5073 46.2959 49.5716 46.303 49.634 46.2917C50.0466 46.2339 50.2843 45.7687 50.6817 45.6396C50.9127 45.5803 51.157 45.6012 51.3745 45.6991C51.4629 45.7277 51.5424 45.7786 51.6054 45.8468C51.7379 46.0166 51.6445 46.2713 51.7056 46.4785C51.7905 46.7671 52.1352 46.8809 52.4324 46.9183C52.7295 46.9556 53.0658 46.9777 53.2644 47.2018C53.3302 47.2859 53.3774 47.3829 53.4028 47.4865C53.4283 47.5902 53.4315 47.698 53.4122 47.8029C53.3943 47.876 53.3943 47.9523 53.4122 48.0254C53.4937 48.258 53.8961 48.2224 54.0014 48.039C54.0795 47.9048 54.0557 47.7945 54.2374 47.7571C54.3672 47.7468 54.4975 47.7696 54.6161 47.8233C54.9322 47.9318 55.2651 47.983 55.5993 47.9744C55.8118 47.5212 55.9261 47.0281 55.9347 46.5276C55.9433 46.0271 55.8461 45.5304 55.6493 45.0701C55.4525 44.6098 55.1607 44.1962 54.7929 43.8566C54.4251 43.517 53.9897 43.2589 53.5152 43.0994C53.0407 42.9398 52.5379 42.8823 52.0396 42.9307C51.5414 42.9791 51.0589 43.1322 50.624 43.3801C50.1891 43.628 49.8115 43.965 49.5159 44.369C49.2203 44.773 49.0135 45.235 48.9089 45.7245H48.9072Z" fill="black"/>
<path d="M53.4106 47.9318C53.3928 47.8587 53.3928 47.7824 53.4106 47.7093C53.43 47.6047 53.4268 47.4971 53.4014 47.3937C53.3759 47.2903 53.3287 47.1936 53.2629 47.1099C53.0642 46.8841 52.7297 46.8637 52.4308 46.8247C52.132 46.7856 51.7889 46.6735 51.704 46.3849C51.6429 46.1777 51.7363 45.9247 51.6039 45.7549C51.5418 45.6855 51.462 45.6344 51.3729 45.6072C51.1556 45.5089 50.9113 45.4873 50.6801 45.546C50.2828 45.6751 50.045 46.1403 49.6324 46.1981C49.5701 46.2103 49.5055 46.2031 49.4473 46.1777C49.2911 46.0996 49.2775 45.8737 49.1655 45.7464C48.977 45.5477 48.6187 45.6768 48.3894 45.529C48.2504 45.413 48.1606 45.2486 48.1381 45.0689C48.0354 44.7359 48.0122 44.3835 48.0702 44.0399C48.2044 43.4642 48.7206 43.0686 49.0483 42.5744C49.3556 42.116 49.5288 41.5352 49.989 41.2313C50.4492 40.9273 51.0418 40.9952 51.5631 41.1498C51.8028 41.2353 52.0493 41.3 52.3001 41.3433C52.7195 41.3943 53.1406 41.2805 53.5617 41.2669C54.1586 41.2477 54.745 41.4268 55.2292 41.7763C55.3384 41.8476 55.431 41.9414 55.5009 42.0514C55.5709 42.2075 55.6123 42.3749 55.6232 42.5456C55.6728 42.8662 55.7841 43.1741 55.9509 43.4523C56.0799 43.6714 56.2446 43.8683 56.3618 44.0942C56.4928 44.3156 56.533 44.5791 56.4739 44.8294C56.4331 44.9568 56.355 45.0723 56.3244 45.203C56.2565 45.5053 56.4552 45.7956 56.591 46.0741C56.7232 46.329 56.7859 46.6142 56.7727 46.9011C56.7655 47.044 56.7287 47.1839 56.6647 47.3119C56.6007 47.4399 56.5109 47.5533 56.4009 47.6448C56.1702 47.8048 55.8953 47.8885 55.6147 47.8842C55.2743 47.8946 54.9349 47.8434 54.6128 47.7331C54.494 47.6802 54.3639 47.6574 54.2341 47.6669C54.0525 47.7042 54.0762 47.8146 53.9981 47.9488C53.8945 48.1288 53.4938 48.1644 53.4106 47.9318Z" fill="#3F3D56"/>
<path opacity="0.1" d="M51.4964 67.9606L53.4984 66.395L56.6466 63.2927L55.6074 63.2451C55.4854 63.3554 55.4075 63.5063 55.3883 63.6696C55.373 64.0483 54.5393 63.6951 54.1029 63.9125C53.6665 64.1298 51.5439 66.8501 51.1721 66.8314C50.8002 66.8127 50.5047 66.6429 50.3485 66.9061L50.3383 66.9231C50.2764 66.9945 50.193 67.0439 50.1006 67.064L51.4964 67.9606Z" fill="black"/>
<path d="M47.4639 67.852L48.4691 71.0631L48.627 71.5725L49.1059 71.4417L50.1621 71.1514L54.8623 69.8608C55.4544 69.8352 56.0338 69.681 56.5603 69.4092C57.4489 68.9113 58.4658 68.6896 59.481 68.7724C60.1025 68.8301 60.7936 68.5618 61.3675 67.5022C61.3675 67.5022 62.6699 63.6562 59.3825 62.5541C56.0951 61.4521 55.9372 63.14 55.9372 63.14L55.8913 63.1671C55.7639 63.2486 55.4074 63.5067 55.3938 63.8158C55.3785 64.1944 54.5447 63.8429 54.1083 64.0586C53.6719 64.2743 51.5494 66.9962 51.1775 66.9776C50.8056 66.9589 50.5102 66.7891 50.354 67.054L50.3438 67.0709C50.2283 67.2289 49.8836 67.2662 49.6544 67.2713C49.5831 67.2751 49.5117 67.2751 49.4404 67.2713L49.4098 67.2798L49.1721 67.3511L47.4639 67.852Z" fill="#65617D"/>
<path opacity="0.1" d="M47.7236 61.6181L48.2093 61.6945L48.4113 59.6942C48.4113 59.6942 48.1889 59.6602 47.9121 59.5957C47.9851 59.8759 47.8187 60.9541 47.7236 61.6181Z" fill="black"/>
<path opacity="0.1" d="M60.4081 52.2686C60.4081 52.2686 61.8497 51.8492 61.4931 55.9449C61.2456 58.4447 60.1829 60.7937 58.4689 62.6301C58.4689 62.6301 55.3971 63.9784 54.0166 63.761C52.6361 63.5437 51.6291 63.4978 51.6291 63.4978C51.1942 63.2782 50.7182 63.1516 50.2316 63.1259C49.4573 63.0954 47.8289 62.6165 47.7966 62.4586C47.7644 62.3007 48.2008 60.0236 48.014 59.8538C48.014 59.8538 50.1858 59.9421 50.4031 60.0983C50.6205 60.2545 50.9312 60.1442 51.1639 60.0983C51.3965 60.0525 52.1097 59.4344 53.5208 59.9778C53.5208 59.9778 54.0013 60.0236 54.1881 59.8996C54.3404 59.8287 54.5138 59.8178 54.6737 59.8691C54.7945 59.829 54.9088 59.7718 55.0134 59.6993C55.0592 59.6381 55.4328 59.6993 55.4328 59.6993C55.455 59.7092 55.4791 59.7142 55.5035 59.714C55.5278 59.7138 55.5519 59.7084 55.5739 59.6981C55.596 59.6878 55.6156 59.6728 55.6314 59.6543C55.6471 59.6358 55.6588 59.614 55.6654 59.5906C55.7145 59.464 55.7884 59.3486 55.8828 59.251C55.8828 59.251 56.3005 56.8941 57.0918 56.0094C57.1549 55.9542 57.2035 55.8842 57.2331 55.8057C57.2627 55.7272 57.2725 55.6426 57.2616 55.5594C57.1971 55.3081 58.547 51.7711 60.4081 52.2686Z" fill="black"/>
<path d="M60.3691 51.953C60.3691 51.953 61.8124 51.5352 61.4559 55.6292C61.2089 58.1292 60.1462 60.4784 58.4316 62.3145C58.4316 62.3145 55.3598 63.6644 53.9793 63.4471C52.5988 63.2297 51.5902 63.1788 51.5902 63.1788C51.1559 62.959 50.6805 62.8324 50.1944 62.8069C49.4184 62.7746 47.7899 62.2975 47.7594 62.1396C47.7288 61.9817 48.1618 59.7046 47.9767 59.5331C47.9767 59.5331 50.1485 59.6231 50.3659 59.7793C50.5832 59.9355 50.8923 59.8234 51.1249 59.7793C51.3575 59.7351 52.0707 59.1153 53.4835 59.657C53.4835 59.657 53.964 59.7046 54.1491 59.5806C54.3015 59.5102 54.4745 59.4987 54.6348 59.5483C54.7551 59.5073 54.8694 59.4502 54.9744 59.3785C55.0202 59.3157 55.3921 59.3785 55.3921 59.3785C55.4143 59.3885 55.4385 59.3935 55.4628 59.3933C55.4872 59.3931 55.5112 59.3877 55.5333 59.3774C55.5553 59.3671 55.5749 59.3521 55.5907 59.3336C55.6065 59.315 55.6181 59.2933 55.6247 59.2699C55.6738 59.1433 55.7477 59.0279 55.8421 58.9303C55.8421 58.9303 56.2615 56.5734 57.0528 55.6887C57.116 55.6335 57.1645 55.5635 57.1942 55.485C57.2238 55.4065 57.2336 55.3219 57.2226 55.2387C57.1598 54.9942 58.508 51.4622 60.3691 51.953Z" fill="#3F3D56"/>
<path opacity="0.1" d="M49.167 67.3418L51.2148 69.821L51.2284 69.8074C51.2437 69.7599 51.4458 69.2335 51.3982 69.2012C51.3507 69.1689 50.9958 68.3946 50.2826 68.0686C49.9199 67.8917 49.6152 67.6148 49.4047 67.2705L49.167 67.3418Z" fill="black"/>
<path opacity="0.1" d="M49.1941 71.6328L49.4182 71.7601C49.4182 71.7601 49.9379 71.3441 50.4558 70.9247C50.9737 70.5053 51.4746 70.0943 51.4746 70.0757C51.4746 70.057 51.6919 69.5017 51.6444 69.4712C51.5969 69.4406 51.5136 69.2402 51.3167 68.9906C49.9277 68.6018 50.8073 69.5663 50.9295 69.6104C50.9295 69.6104 49.24 69.2215 49.1466 71.0639C49.1385 71.2548 49.1545 71.4459 49.1941 71.6328Z" fill="black"/>
<path d="M50.9074 72.4131L51.2028 72.5829L54.1965 72.6593C54.5321 72.8634 54.887 73.034 55.2561 73.1687C55.305 73.1833 55.3549 73.1941 55.4055 73.201C55.6834 73.2237 55.9624 73.2288 56.2409 73.2163C56.4702 73.2163 56.6468 73.201 56.6468 73.201C56.6468 73.201 56.5058 69.4262 56.3989 69.0289C56.3479 68.8387 56.0966 68.8794 55.8487 68.9745C55.6628 69.0506 55.4834 69.1414 55.3121 69.2462C55.3121 69.2462 54.042 69.3702 53.8399 69.4789C53.6378 69.5875 53.0639 69.416 52.7073 69.4789C52.3507 69.5417 51.7139 69.0594 51.7139 69.0594C49.9768 68.4855 50.9549 69.5553 51.0789 69.6028C51.0789 69.6028 49.3808 69.214 49.2942 71.0563C49.2076 72.8987 50.9074 72.4131 50.9074 72.4131Z" fill="#3F3D56"/>
<path d="M55.2359 70.9556C55.2682 71.7367 55.8778 72.7063 56.2411 73.2191C56.4704 73.2191 56.647 73.2038 56.647 73.2038C56.647 73.2038 56.506 69.429 56.3991 69.0317C56.3481 68.8415 56.0968 68.8822 55.8489 68.9773C55.5483 69.5411 55.2087 70.3239 55.2359 70.9556Z" fill="#565387"/>
<path opacity="0.1" d="M55.2359 70.9556C55.2682 71.7367 55.8778 72.7063 56.2411 73.2191C56.4704 73.2191 56.647 73.2038 56.647 73.2038C56.647 73.2038 56.506 69.429 56.3991 69.0317C56.3481 68.8415 56.0968 68.8822 55.8489 68.9773C55.5483 69.5411 55.2087 70.3239 55.2359 70.9556Z" fill="black"/>
<path opacity="0.05" d="M54.7233 71.0591C54.9305 71.8131 54.9271 72.6587 55.2565 73.1715C55.3054 73.1861 55.3554 73.1969 55.4059 73.2038C55.6838 73.2265 55.9628 73.2316 56.2414 73.2191C56.4706 73.2191 56.6472 73.2038 56.6472 73.2038C56.6472 73.2038 56.5063 69.429 56.3993 69.0317C56.3483 68.8415 56.097 68.8822 55.8491 68.9773C55.6633 69.0534 55.4838 69.1442 55.3125 69.249C55.3125 69.249 54.4601 70.093 54.7233 71.0591Z" fill="black"/>
<path opacity="0.1" d="M44.3955 63.4062C44.3955 63.4062 45.883 63.8885 47.143 65.6035L44.3955 63.4062Z" fill="black"/>
<g opacity="0.1">
<path d="M56.4791 44.792C56.4791 44.8039 56.4791 44.8141 56.4706 44.826C56.4563 44.8702 56.4387 44.9134 56.418 44.955C56.4343 44.8992 56.4548 44.8448 56.4791 44.792Z" fill="black"/>
<path d="M48.0662 44.04C48.0914 43.9314 48.1302 43.8264 48.1816 43.7275C48.1816 43.753 48.1647 43.7802 48.1579 43.8073C48.1013 44.1511 48.1251 44.5033 48.2275 44.8364C48.25 45.0156 48.3391 45.1799 48.4771 45.2965C48.708 45.4443 49.0663 45.3152 49.2548 45.5139C49.3737 45.6412 49.3805 45.8671 49.5367 45.9452C49.5949 45.9706 49.6595 45.9777 49.7218 45.9656C50.1344 45.9078 50.3721 45.4426 50.7695 45.3135C51.0006 45.254 51.2452 45.2756 51.4623 45.3746C51.5513 45.4019 51.6312 45.453 51.6932 45.5224C51.8257 45.6922 51.7323 45.9452 51.7934 46.1524C51.8783 46.441 52.223 46.5548 52.5202 46.5922C52.8173 46.6295 53.1535 46.6516 53.3522 46.8774C53.418 46.9611 53.4653 47.0578 53.4907 47.1612C53.5162 47.2646 53.5193 47.3722 53.5 47.4768C53.4822 47.5499 53.4822 47.6262 53.5 47.6993C53.5815 47.9319 53.9839 47.8963 54.0892 47.7129C54.1673 47.5787 54.1435 47.4683 54.3252 47.431C54.455 47.4215 54.585 47.4443 54.7039 47.4972C55.026 47.6075 55.3654 47.6587 55.7057 47.6483C55.9864 47.6526 56.2613 47.5689 56.4919 47.4089C56.5927 47.3297 56.675 47.2295 56.733 47.1152C56.6806 47.3231 56.5613 47.5081 56.3934 47.6415C56.1628 47.8015 55.8879 47.8853 55.6072 47.881C55.2669 47.8913 54.9275 47.8401 54.6054 47.7298C54.4865 47.6769 54.3565 47.6542 54.2267 47.6636C54.045 47.701 54.0688 47.8114 53.9924 47.9455C53.8854 48.1289 53.483 48.1645 53.4015 47.9319C53.3845 47.8587 53.3845 47.7826 53.4015 47.7095C53.4209 47.6048 53.4177 47.4972 53.3922 47.3938C53.3668 47.2905 53.3195 47.1937 53.2537 47.1101C53.0551 46.8842 52.7205 46.8638 52.4217 46.8248C52.1228 46.7857 51.7798 46.6737 51.6949 46.385C51.6338 46.1778 51.7272 45.9248 51.5947 45.755C51.5332 45.6859 51.4539 45.6348 51.3655 45.6073C51.1476 45.509 50.9028 45.4875 50.671 45.5462C50.2753 45.6752 50.0359 46.1405 49.6233 46.1982C49.561 46.2104 49.4964 46.2033 49.4382 46.1778C49.282 46.0997 49.2684 45.8739 49.1563 45.7465C48.9678 45.5478 48.6113 45.6769 48.3803 45.5292C48.2413 45.4131 48.1515 45.2487 48.129 45.069C48.028 44.7356 48.0065 44.3832 48.0662 44.04Z" fill="black"/>
</g>
<path opacity="0.1" d="M56.7202 56.4559C56.435 56.8397 56.1106 57.1946 55.8593 57.5987C55.5863 57.9971 55.4537 58.4751 55.4823 58.9572C55.7421 58.6906 55.8627 58.3204 56.0257 57.9859C56.3042 57.4187 56.7185 56.9382 57.07 56.4186C57.1362 56.3184 57.5642 55.7394 57.3485 55.7156C57.1685 55.6901 56.817 56.3252 56.7202 56.4559Z" fill="black"/>
<path d="M58.2481 92.7894C58.4536 93.4483 58.6608 94.1088 58.9172 94.749C59.3791 95.8619 59.9604 96.9215 60.6509 97.9091C61.096 98.5593 61.5744 99.1861 62.084 99.7871C62.7225 100.539 63.4425 101.297 63.6598 102.258C63.7906 102.813 63.7464 103.392 63.8008 103.956C63.8551 104.52 64.0402 105.124 64.5004 105.464C64.8281 105.707 65.2475 105.78 65.6499 105.842C65.9386 105.888 66.2986 105.903 66.448 105.654C66.5003 105.552 66.5276 105.439 66.5278 105.324L66.5975 104.494C66.611 104.314 66.6756 104.085 66.8556 104.076C67.0356 104.068 67.1255 104.307 67.2784 104.416C67.4821 104.559 67.7878 104.416 67.8999 104.2C67.9929 103.967 67.9989 103.708 67.9168 103.47C67.7932 102.998 67.5708 102.556 67.2644 102.176C66.958 101.795 66.5744 101.484 66.139 101.263C65.8366 101.141 65.5466 100.99 65.273 100.813C64.9951 100.571 64.7647 100.28 64.5937 99.9535C63.018 97.3589 61.4337 94.7507 60.3214 91.9268C60.1023 91.4222 59.9543 90.8896 59.8817 90.3442C59.8273 89.789 59.9139 89.2303 59.9496 88.6734C60.0154 87.6728 59.9226 86.6682 59.6745 85.6967C59.6203 85.4416 59.5245 85.1972 59.3909 84.9733C58.9324 84.2788 57.8627 84.1752 57.1835 84.6541C56.9334 84.8465 56.726 85.0888 56.5746 85.3656C56.4232 85.6424 56.331 85.9477 56.3039 86.2621C56.2546 86.8259 56.5789 87.41 56.7437 87.9347C57.2429 89.5546 57.7444 91.1729 58.2481 92.7894Z" fill="#A1616A"/>
<path opacity="0.05" d="M58.2481 92.7894C58.4536 93.4483 58.6608 94.1088 58.9172 94.749C59.3791 95.8619 59.9604 96.9215 60.6509 97.9091C61.096 98.5593 61.5744 99.1861 62.084 99.7871C62.7225 100.539 63.4425 101.297 63.6598 102.258C63.7906 102.813 63.7464 103.392 63.8008 103.956C63.8551 104.52 64.0402 105.124 64.5004 105.464C64.8281 105.707 65.2475 105.78 65.6499 105.842C65.9386 105.888 66.2986 105.903 66.448 105.654C66.5003 105.552 66.5276 105.439 66.5278 105.324L66.5975 104.494C66.611 104.314 66.6756 104.085 66.8556 104.076C67.0356 104.068 67.1255 104.307 67.2784 104.416C67.4821 104.559 67.7878 104.416 67.8999 104.2C67.9929 103.967 67.9989 103.708 67.9168 103.47C67.7932 102.998 67.5708 102.556 67.2644 102.176C66.958 101.795 66.5744 101.484 66.139 101.263C65.8366 101.141 65.5466 100.99 65.273 100.813C64.9951 100.571 64.7647 100.28 64.5937 99.9535C63.018 97.3589 61.4337 94.7507 60.3214 91.9268C60.1023 91.4222 59.9543 90.8896 59.8817 90.3442C59.8273 89.789 59.9139 89.2303 59.9496 88.6734C60.0154 87.6728 59.9226 86.6682 59.6745 85.6967C59.6203 85.4416 59.5245 85.1972 59.3909 84.9733C58.9324 84.2788 57.8627 84.1752 57.1835 84.6541C56.9334 84.8465 56.726 85.0888 56.5746 85.3656C56.4232 85.6424 56.331 85.9477 56.3039 86.2621C56.2546 86.8259 56.5789 87.41 56.7437 87.9347C57.2429 89.5546 57.7444 91.1729 58.2481 92.7894Z" fill="black"/>
<path d="M48.3481 120.532C48.6554 120.638 48.982 120.678 49.3058 120.647C49.3296 120.382 49.6862 120.323 49.9511 120.336C50.0792 120.332 50.2062 120.361 50.3196 120.421C50.3858 120.464 50.4367 120.525 50.5013 120.569C50.6163 120.632 50.7453 120.665 50.8765 120.666L52.2553 120.781C52.87 120.834 53.5102 120.881 54.0858 120.662C54.2005 120.626 54.3024 120.558 54.3796 120.465C54.5358 120.241 54.3796 119.92 54.164 119.757C53.9483 119.594 53.6698 119.521 53.4525 119.355C52.9736 118.99 52.9074 118.307 52.6544 117.76C52.4746 117.416 52.2527 117.095 51.9938 116.804C51.8063 116.555 51.5878 116.331 51.3435 116.137C50.7899 115.738 50.1549 115.747 49.5045 115.689C49.046 115.648 48.6147 115.621 48.2853 116.028C47.8778 116.538 48.0408 117.557 48.0663 118.151C48.0981 118.951 48.1923 119.747 48.3481 120.532Z" fill="#514E7F"/>
<path opacity="0.05" d="M48.3481 120.532C48.6554 120.638 48.982 120.678 49.3058 120.647C49.3296 120.382 49.6862 120.323 49.9511 120.336C50.0792 120.332 50.2062 120.361 50.3196 120.421C50.3858 120.464 50.4367 120.525 50.5013 120.569C50.6163 120.632 50.7453 120.665 50.8765 120.666L52.2553 120.781C52.87 120.834 53.5102 120.881 54.0858 120.662C54.2005 120.626 54.3024 120.558 54.3796 120.465C54.5358 120.241 54.3796 119.92 54.164 119.757C53.9483 119.594 53.6698 119.521 53.4525 119.355C52.9736 118.99 52.9074 118.307 52.6544 117.76C52.4746 117.416 52.2527 117.095 51.9938 116.804C51.8063 116.555 51.5878 116.331 51.3435 116.137C50.7899 115.738 50.1549 115.747 49.5045 115.689C49.046 115.648 48.6147 115.621 48.2853 116.028C47.8778 116.538 48.0408 117.557 48.0663 118.151C48.0981 118.951 48.1923 119.747 48.3481 120.532Z" fill="black"/>
<path d="M48.9054 93.7115C48.4843 93.8473 48.3009 94.372 48.379 94.8084C48.4571 95.2448 48.7186 95.6218 48.9343 96.0089C49.549 97.1076 49.8139 98.3641 50.3301 99.5103C50.7156 100.359 51.2369 101.157 51.6172 102.017C51.9976 102.876 52.2336 103.845 52.0027 104.757C51.8906 105.2 51.6733 105.606 51.5289 106.043C51.3861 106.516 51.2927 107.002 51.2504 107.495C51.0635 109.167 51.0299 110.853 51.1503 112.531C51.1513 112.736 51.1941 112.938 51.2759 113.125C51.3625 113.295 51.5119 113.465 51.4457 113.635C51.4169 113.704 51.354 113.755 51.3235 113.823C51.2352 114.013 51.4118 114.215 51.5731 114.351C51.5443 114.402 51.5055 114.447 51.4592 114.483C51.4128 114.519 51.3597 114.545 51.3031 114.56C51.4188 114.634 51.5077 114.743 51.5566 114.871C51.6056 114.999 51.6119 115.14 51.5748 115.272C51.4321 115.294 51.4236 115.513 51.5136 115.628C51.6036 115.744 51.7463 115.815 51.8108 115.946C51.8488 116.052 51.8446 116.169 51.7992 116.273C51.7537 116.376 51.6704 116.459 51.5663 116.503C51.3541 116.584 51.1227 116.602 50.9006 116.554C50.5241 116.501 50.1522 116.419 49.7884 116.309C49.5982 116.272 49.4279 116.167 49.3088 116.014C49.1896 115.861 49.1296 115.671 49.1398 115.477C49.0557 114.786 49.0301 114.089 49.0634 113.394C49.1228 110.025 49.0634 106.652 48.9173 103.285C48.8579 101.927 48.4504 100.611 47.9257 99.3609C47.6356 98.7222 47.3131 98.0988 46.9595 97.493C46.2021 96.1074 45.5331 94.5724 45.7063 93.0017C45.725 92.8319 45.7861 92.6298 45.9542 92.6026C46.0199 92.5956 46.0863 92.6067 46.1461 92.6349C46.4949 92.7978 46.8325 92.9839 47.1564 93.1919C47.6888 93.504 48.289 93.6823 48.9054 93.7115Z" fill="#464353"/>
<path opacity="0.05" d="M48.9054 93.7115C48.4843 93.8473 48.3009 94.372 48.379 94.8084C48.4571 95.2448 48.7186 95.6218 48.9343 96.0089C49.549 97.1076 49.8139 98.3641 50.3301 99.5103C50.7156 100.359 51.2369 101.157 51.6172 102.017C51.9976 102.876 52.2336 103.845 52.0027 104.757C51.8906 105.2 51.6733 105.606 51.5289 106.043C51.3861 106.516 51.2927 107.002 51.2504 107.495C51.0635 109.167 51.0299 110.853 51.1503 112.531C51.1513 112.736 51.1941 112.938 51.2759 113.125C51.3625 113.295 51.5119 113.465 51.4457 113.635C51.4169 113.704 51.354 113.755 51.3235 113.823C51.2352 114.013 51.4118 114.215 51.5731 114.351C51.5443 114.402 51.5055 114.447 51.4592 114.483C51.4128 114.519 51.3597 114.545 51.3031 114.56C51.4188 114.634 51.5077 114.743 51.5566 114.871C51.6056 114.999 51.6119 115.14 51.5748 115.272C51.4321 115.294 51.4236 115.513 51.5136 115.628C51.6036 115.744 51.7463 115.815 51.8108 115.946C51.8488 116.052 51.8446 116.169 51.7992 116.273C51.7537 116.376 51.6704 116.459 51.5663 116.503C51.3541 116.584 51.1227 116.602 50.9006 116.554C50.5241 116.501 50.1522 116.419 49.7884 116.309C49.5982 116.272 49.4279 116.167 49.3088 116.014C49.1896 115.861 49.1296 115.671 49.1398 115.477C49.0557 114.786 49.0301 114.089 49.0634 113.394C49.1228 110.025 49.0634 106.652 48.9173 103.285C48.8579 101.927 48.4504 100.611 47.9257 99.3609C47.6356 98.7222 47.3131 98.0988 46.9595 97.493C46.2021 96.1074 45.5331 94.5724 45.7063 93.0017C45.725 92.8319 45.7861 92.6298 45.9542 92.6026C46.0199 92.5956 46.0863 92.6067 46.1461 92.6349C46.4949 92.7978 46.8325 92.9839 47.1564 93.1919C47.6888 93.504 48.289 93.6823 48.9054 93.7115Z" fill="black"/>
<path d="M43.2123 89.6157C42.9927 89.4747 42.7394 89.395 42.4787 89.3848C42.1764 89.4 41.9183 89.5987 41.6823 89.7889C41.4026 90.0035 41.1372 90.2361 40.8876 90.4851C40.3708 91.036 40.0108 91.715 39.8448 92.4519C39.6787 93.1888 39.7128 93.9566 39.9435 94.6759C40.1931 95.4247 40.6499 96.0853 41.1016 96.7322L42.0185 98.0499C43.4177 100.059 44.8169 102.068 46.2823 104.029C46.2827 104.077 46.2983 104.124 46.327 104.163C46.3557 104.201 46.3959 104.23 46.442 104.244C46.4946 104.258 46.5608 104.256 46.5931 104.3C46.608 104.328 46.6145 104.359 46.6118 104.39C46.6085 104.536 46.5809 104.679 46.5303 104.815C46.5065 104.86 46.5004 104.912 46.5133 104.961C46.5608 105.071 46.7612 105.009 46.8257 105.112C46.8682 105.18 46.8155 105.268 46.7595 105.326C46.7035 105.384 46.6338 105.448 46.644 105.528C46.6542 105.608 46.7935 105.698 46.7884 105.796C46.7884 105.854 46.7374 105.898 46.7018 105.944C46.6518 106.017 46.6291 106.105 46.6375 106.194C46.6459 106.282 46.6848 106.364 46.7476 106.426C46.8444 107.384 46.3231 108.294 46.2195 109.249C46.0497 110.756 46.7374 112.229 46.8206 113.742C46.8156 113.912 46.8481 114.081 46.9157 114.237C47.0567 114.499 47.4251 114.657 47.4064 114.954C47.3798 115.076 47.3452 115.196 47.3029 115.314C47.274 115.484 47.3555 115.654 47.3589 115.823C47.3623 115.993 47.2112 116.202 47.0516 116.134C47.1716 116.535 47.2785 116.939 47.3725 117.347L50.5818 117.611C50.6164 117.323 50.6067 117.031 50.5529 116.745C50.4867 116.435 50.3475 116.146 50.2745 115.839C50.227 115.687 50.2136 115.527 50.2354 115.37C50.2571 115.213 50.3134 115.063 50.4001 114.93C50.3165 114.931 50.2351 114.903 50.1705 114.85C50.1059 114.796 50.0621 114.722 50.0469 114.64C50.0201 114.474 50.0229 114.305 50.0554 114.141C50.1403 113.304 49.7888 112.478 49.799 111.638C49.8092 110.976 50.0418 110.339 50.159 109.688C50.4103 108.296 50.1488 106.786 50.7686 105.515C51.1439 104.749 51.6635 103.9 51.2423 103.158C51.0352 102.791 50.6684 102.54 50.429 102.193C50.2338 101.866 50.0874 101.512 49.9943 101.142C49.5001 99.6138 48.7004 98.1943 47.9991 96.7407C47.8044 96.3764 47.6599 95.9874 47.5695 95.5844C47.5199 95.2306 47.5017 94.8732 47.5151 94.5163C47.5151 93.8755 47.476 93.2352 47.398 92.5992C47.3821 92.3205 47.3025 92.0492 47.1653 91.8062C47.0268 91.6223 46.8537 91.4672 46.6559 91.3494C45.6031 90.6277 44.35 90.2151 43.2123 89.6157Z" fill="#464353"/>
<path d="M47.0576 121.709C47.3658 121.814 47.6928 121.853 48.017 121.823C48.0408 121.558 48.3957 121.498 48.6606 121.512C48.7887 121.508 48.9157 121.537 49.0291 121.597C49.0953 121.639 49.1462 121.702 49.2125 121.744C49.3272 121.808 49.4564 121.842 49.5877 121.841L50.9649 121.957C51.5812 122.009 52.2197 122.059 52.797 121.838C52.9115 121.802 53.0131 121.734 53.0891 121.641C53.2453 121.417 53.0891 121.098 52.8735 120.935C52.6578 120.772 52.3793 120.697 52.1637 120.53C51.6831 120.165 51.6186 119.484 51.3639 118.938C51.1857 118.592 50.9643 118.27 50.705 117.98C50.5169 117.731 50.2978 117.508 50.053 117.314C49.5011 116.914 48.8644 116.922 48.2157 116.864C47.7555 116.824 47.3242 116.798 46.9965 117.204C46.589 117.713 46.752 118.732 46.7758 119.328C46.8077 120.128 46.9019 120.924 47.0576 121.709Z" fill="#514E7F"/>
<path d="M61.2823 84.0577C63.0378 84.0577 64.461 82.6345 64.461 80.8789C64.461 79.1234 63.0378 77.7002 61.2823 77.7002C59.5267 77.7002 58.1035 79.1234 58.1035 80.8789C58.1035 82.6345 59.5267 84.0577 61.2823 84.0577Z" fill="#A1616A"/>
<path d="M58.2833 81.8234C57.8282 82.2156 57.1745 82.2445 56.5768 82.3057C55.2987 82.437 54.0546 82.797 52.9039 83.3686C52.7446 83.4373 52.6004 83.5365 52.4794 83.6607C52.3761 83.7954 52.3026 83.9505 52.2637 84.1158C52.1544 84.4734 52.1135 84.8484 52.1432 85.2212C52.1848 85.5828 52.2888 85.9344 52.4505 86.2604C52.8917 87.1737 53.5725 87.9502 54.4203 88.5069C54.5697 88.6182 54.7392 88.6995 54.9195 88.7464C55.3372 88.833 55.7413 88.5918 56.154 88.4832C56.5293 88.3853 56.9249 88.3976 57.2934 88.5188C57.633 88.6343 58.0048 88.8448 58.3411 88.7039C58.5562 88.5836 58.7235 88.3929 58.8148 88.1639C59.1396 87.5503 59.4293 86.9187 59.6825 86.2723C59.7735 86.0199 59.8784 85.7728 59.9967 85.5319C60.3651 84.8307 61.0019 84.289 61.3194 83.5605C61.3517 83.5049 61.3712 83.4429 61.3764 83.3789C61.3817 83.3148 61.3727 83.2504 61.35 83.1903C61.2912 83.1091 61.2096 83.0471 61.1157 83.012C60.6461 82.7432 60.2183 82.4074 59.8455 82.0153C59.6367 81.8149 59.2529 81.2732 58.9524 81.2257C58.6144 81.168 58.5126 81.6264 58.2833 81.8234Z" fill="#A1616A"/>
<path d="M58.3585 88.2831C57.99 88.4529 57.5553 88.3799 57.1563 88.2967C56.1272 88.081 55.0863 87.8637 54.1337 87.4188C53.8361 87.3049 53.5782 87.1066 53.3917 86.8483C53.2758 86.6273 53.2054 86.3854 53.1845 86.1368L53.0147 84.9481C52.9536 84.5355 53.0589 84.1534 53.0691 83.7357C53.0755 83.6894 53.0727 83.6423 53.0608 83.5971C53.0488 83.5519 53.028 83.5096 52.9994 83.4725C52.9413 83.4237 52.8662 83.3999 52.7906 83.4063C52.3134 83.4148 52.0248 83.9157 51.6902 84.2553C51.4969 84.4514 51.2658 84.6062 51.011 84.7104C50.7054 84.8361 50.3318 84.9244 50.2044 85.23C50.1535 85.3574 50.1603 85.5017 50.106 85.6291C49.892 86.1385 48.9801 85.9687 48.7475 86.4781C48.6813 86.6207 48.6864 86.799 48.5777 86.9111C48.469 87.0232 48.2653 87.0215 48.0972 87.0486C47.4332 87.1573 47.1123 87.9231 46.5451 88.2848C46.068 88.5905 45.4533 88.5837 44.9388 88.8214C44.6535 88.9538 44.4005 89.161 44.0982 89.2476C43.796 89.3342 43.4547 89.2884 43.1304 89.2968C43.0958 89.2936 43.0609 89.2975 43.0279 89.3083C42.9949 89.3191 42.9644 89.3366 42.9385 89.3597C42.9183 89.3904 42.905 89.4251 42.8994 89.4614C42.8939 89.4978 42.8962 89.5349 42.9062 89.5702C43.0635 90.5743 43.4796 91.5201 44.1135 92.3145C44.7474 93.1089 45.5772 93.7245 46.5214 94.1006C46.631 94.1355 46.735 94.1858 46.8304 94.2501C47.1191 94.4657 47.17 94.9293 47.4977 95.0821C47.616 95.1237 47.7435 95.1318 47.8661 95.1054C47.9887 95.0791 48.1016 95.0193 48.1922 94.9327C48.3731 94.7586 48.5432 94.5737 48.7017 94.3791C49.0009 94.0666 49.3936 93.8598 49.8207 93.7899C50.2146 93.7271 50.6544 93.7729 50.9737 93.5301C51.1042 93.4102 51.2257 93.2808 51.337 93.1429C51.5736 92.9223 51.8543 92.7544 52.1606 92.6505C52.9976 92.3198 53.8822 92.1255 54.7807 92.0749C55.6178 92.029 56.4787 92.1054 57.27 91.8337C57.4755 91.77 57.6649 91.6629 57.8253 91.5196C57.9954 91.3356 58.122 91.1156 58.1955 90.876C58.4809 90.0419 58.5372 89.1464 58.3585 88.2831Z" fill="#1CA686"/>
<path d="M54.2611 83.5979C54.4954 83.5759 54.7314 83.5979 54.9674 83.5979C55.2442 83.5979 55.5176 83.53 55.7944 83.5283C56.2327 83.5355 56.6572 83.6825 57.0061 83.948C57.3549 84.2134 57.6098 84.5834 57.7336 85.0039C57.7569 85.0711 57.761 85.1434 57.7455 85.2128C57.7363 85.247 57.7152 85.2769 57.6859 85.2968C57.6566 85.3168 57.6211 85.3255 57.5858 85.3215C57.494 85.0703 57.3737 84.8305 57.2275 84.6066C56.9644 84.2473 56.5892 83.9857 56.1612 83.8628C55.7344 83.7419 55.2847 83.7256 54.8503 83.8153C54.6686 83.8493 54.492 83.8968 54.3154 83.946L53.4664 84.1804C53.3101 84.2228 53.1522 84.2653 53.0011 84.3213C52.8839 84.3655 52.6836 84.5268 52.5681 84.5336C52.4119 84.5336 52.5375 84.3977 52.6071 84.306C52.7458 84.1169 52.9399 83.9757 53.1624 83.9019C53.5153 83.7574 53.8841 83.6553 54.2611 83.5979Z" fill="#1CA686"/>
<path d="M56.4036 93.1461C56.6091 93.805 56.8145 94.4655 57.0726 95.1057C57.5339 96.2189 58.1153 97.2786 58.8063 98.2657C59.2515 98.916 59.7298 99.5428 60.2395 100.144C60.8763 100.896 61.5877 101.653 61.8153 102.613C61.946 103.17 61.9019 103.749 61.9562 104.311C62.0106 104.873 62.1957 105.479 62.6541 105.819C62.9835 106.06 63.403 106.133 63.8054 106.197C64.0924 106.243 64.4524 106.258 64.6035 106.009C64.6547 105.907 64.682 105.794 64.6833 105.679L64.7512 104.849C64.7665 104.669 64.831 104.44 65.0093 104.431C65.1876 104.423 65.281 104.662 65.4338 104.771C65.6376 104.914 65.9433 104.771 66.0553 104.555C66.1476 104.322 66.1537 104.063 66.0723 103.825C65.9481 103.353 65.7255 102.912 65.4191 102.532C65.1127 102.151 64.7295 101.84 64.2944 101.618C63.9917 101.495 63.7011 101.345 63.4267 101.168C63.1483 100.926 62.9179 100.634 62.7475 100.307C61.17 97.7139 59.5857 95.1057 58.4752 92.2801C58.2562 91.7759 58.1076 91.244 58.0337 90.6992C57.9811 90.144 58.066 89.5853 58.1033 89.0283C58.1692 88.0278 58.0763 87.0232 57.8283 86.0517C57.7741 85.7963 57.6777 85.5518 57.543 85.3283C57.0862 84.6321 56.0147 84.5302 55.3355 85.0091C55.0852 85.2014 54.8776 85.4436 54.7259 85.7204C54.5741 85.9973 54.4816 86.3026 54.4542 86.6171C54.405 87.1809 54.731 87.765 54.894 88.2897C55.3955 89.9108 55.8987 91.5296 56.4036 93.1461Z" fill="#A1616A"/>
<path d="M65.9065 78.6309C65.932 78.3661 65.6943 78.1215 65.4243 77.9517C65.1399 77.806 64.8669 77.6391 64.6075 77.4525C64.3664 77.2436 64.234 76.9719 63.9928 76.7631C63.7187 76.5544 63.4076 76.3994 63.0759 76.3063C62.3703 76.0589 61.6296 75.9265 60.882 75.9141C60.1264 75.9141 59.3538 76.0839 58.7849 76.4693C58.6446 76.5576 58.5233 76.6731 58.4283 76.8089C58.3386 76.972 58.281 77.1506 58.2585 77.3353C58.123 77.9051 57.9395 78.4623 57.71 79.0011C57.474 79.6005 57.2227 80.222 56.6674 80.6856C56.0731 81.1797 55.1647 81.465 54.7724 82.0627C54.729 82.1158 54.6986 82.1783 54.6836 82.2452C54.6686 82.3121 54.6693 82.3816 54.6858 82.4482C54.7418 82.5993 54.9218 82.7029 55.0882 82.798C56.0527 83.3515 56.8848 84.0698 57.3127 84.9273C57.7406 85.7848 57.7287 86.7952 57.1191 87.5848C56.895 87.8768 56.5859 88.2232 56.805 88.517C57.1446 88.9636 58.2806 88.7072 58.5455 89.1792C58.6287 89.3304 58.5794 89.5019 58.5794 89.6666C58.5794 90.1624 59.0566 90.6022 59.6356 90.8314C60.2147 91.0607 60.8854 91.115 61.5374 91.1439C61.7106 90.7548 61.7276 90.3141 61.585 89.9128C61.5416 89.8262 61.5244 89.7288 61.5358 89.6326C61.5844 89.5258 61.6598 89.4333 61.7548 89.3643C62.451 88.7055 62.3033 87.7376 61.8856 86.9548C61.4678 86.172 60.8158 85.4571 60.573 84.6336C60.4524 84.2243 60.4524 83.7642 60.7767 83.4245C60.9629 83.2612 61.1635 83.1151 61.3761 82.9881C61.756 82.7303 62.0485 82.3632 62.215 81.9354C62.4103 81.3937 62.3848 80.7467 62.9519 80.3816C63.497 80.042 64.2628 80.1405 64.8656 79.9079C65.3292 79.7245 65.8692 79.0198 65.9065 78.6309Z" fill="#464353"/>
<path d="M98.831 105.238C96.2415 104.167 95.4808 103.392 95.4808 101.842C95.4808 100.653 96.0038 99.2813 98.2962 99.2813C99.5634 99.2627 100.808 99.617 101.876 100.3L102.621 98.3287C101.757 97.8193 100.538 97.3455 98.7512 97.2861V94.3994H97.2451V97.405C94.5061 97.8516 92.9201 99.7262 92.9201 102.197C92.9201 104.786 94.4484 106.157 97.4913 107.347C99.6954 108.245 100.848 109.257 100.848 110.894C100.848 112.592 99.4203 113.812 97.3062 113.812C95.6404 113.812 93.7522 113.246 92.6807 112.531L91.9658 114.525C93.0084 115.27 94.7948 115.805 96.52 115.836V118.841H99.0824V115.746C102.139 115.236 103.784 113.029 103.784 110.685C103.784 108.036 101.898 106.488 98.831 105.238Z" fill="url(#paint1_linear_353_15743)"/>
<path d="M96.5268 118.161V115.156C94.8016 115.125 93.0153 114.59 91.9727 113.845L92.6875 111.851C93.759 112.566 95.6472 113.132 97.313 113.132C99.4271 113.132 100.848 111.912 100.848 110.214C100.848 108.577 99.6886 107.565 97.4845 106.672C94.4484 105.484 92.9134 104.112 92.9134 101.522C92.9134 99.0514 94.4994 97.1768 97.2383 96.7302V93.7246H98.7445V96.6113C100.531 96.6707 101.75 97.1462 102.614 97.6539L101.869 99.6169C100.801 98.9337 99.5567 98.5794 98.2894 98.598C95.997 98.598 95.474 99.9683 95.474 101.159C95.474 102.706 96.2348 103.48 98.8243 104.555C101.891 105.805 103.778 107.353 103.778 110.002C103.778 112.354 102.141 114.556 99.0756 115.062V118.161H96.5268Z" fill="#1CA686"/>
</g>
<defs>
<linearGradient id="paint0_linear_353_15743" x1="51.9278" y1="73.109" x2="51.9278" y2="40.6932" gradientUnits="userSpaceOnUse">
<stop stop-color="#808080" stop-opacity="0.25"/>
<stop offset="0.54" stop-color="#808080" stop-opacity="0.12"/>
<stop offset="1" stop-color="#808080" stop-opacity="0.1"/>
</linearGradient>
<linearGradient id="paint1_linear_353_15743" x1="91.9726" y1="106.622" x2="103.784" y2="106.622" gradientUnits="userSpaceOnUse">
<stop stop-color="#808080" stop-opacity="0.25"/>
<stop offset="0.54" stop-color="#808080" stop-opacity="0.12"/>
<stop offset="1" stop-color="#808080" stop-opacity="0.1"/>
</linearGradient>
<clipPath id="clip0_353_15743">
<rect width="200" height="123.136" fill="white" transform="translate(0 0.931641)"/>
</clipPath>
</defs>
</svg>
