<svg width="200" height="155" viewBox="0 0 200 155" fill="none" xmlns="http://www.w3.org/2000/svg">
<g clip-path="url(#clip0_346_14297)">
<path d="M39.9612 115.613C39.8002 115.341 39.1039 115.632 38.9759 115.386C38.8484 115.14 39.4953 114.766 39.8649 113.912C39.9316 113.758 40.3516 112.787 40.0407 112.488C39.4513 111.92 36.7542 114.263 35.8103 113.496C35.6032 113.328 35.4585 112.992 34.8316 112.447C34.5822 112.23 34.4313 112.132 34.2854 112.168C34.0783 112.22 34.0619 112.497 33.8398 113.042C33.5068 113.859 33.3098 113.81 33.1157 114.462C32.9717 114.946 33.0046 115.227 32.8351 115.282C32.5952 115.36 32.3745 114.846 32.0705 114.892C31.7603 114.939 31.5727 115.537 31.5135 115.985C31.4023 116.825 31.7108 117.379 31.8818 117.962C32.0676 118.595 32.1778 119.558 31.7488 120.922L27.502 132.887C28.4395 130.432 31.1542 123.701 32.2949 121.2C32.6242 120.478 32.9878 119.746 33.7344 119.457C34.4532 119.179 35.4403 119.345 36.6988 119.042C36.8458 119.006 37.2537 118.902 37.305 118.663C37.3475 118.464 37.1076 118.354 37.1444 118.168C37.1939 117.919 37.6656 117.916 38.2454 117.628C38.6542 117.425 38.9089 117.184 39.1279 116.977C39.1939 116.915 40.1755 115.974 39.9612 115.613Z" fill="#C1C8C6"/>
<path d="M23.2537 121.912C23.074 121.913 23.0157 122.338 22.8579 122.33C22.7007 122.322 22.7038 121.897 22.3912 121.469C22.3348 121.392 21.9795 120.905 21.7428 120.972C21.2941 121.097 21.6659 123.097 21.0172 123.339C20.8749 123.392 20.6682 123.366 20.2196 123.516C20.0412 123.576 19.9496 123.622 19.9254 123.704C19.891 123.821 20.0223 123.909 20.2257 124.175C20.5308 124.574 20.4497 124.657 20.7138 124.94C20.9098 125.15 21.0574 125.215 21.0354 125.314C21.0043 125.455 20.6886 125.415 20.6234 125.577C20.557 125.743 20.7963 126.008 20.9989 126.166C21.379 126.463 21.7401 126.471 22.0754 126.555C22.4399 126.647 22.9445 126.871 23.4899 127.475L28.1373 133.012C27.2027 131.843 24.6826 128.569 23.7842 127.287C23.5248 126.917 23.2703 126.527 23.3438 126.078C23.4146 125.644 23.781 125.208 23.9953 124.503C24.0203 124.42 24.0871 124.19 23.9842 124.096C23.8991 124.018 23.7755 124.104 23.695 124.032C23.587 123.936 23.7216 123.703 23.7478 123.336C23.7662 123.077 23.7214 122.882 23.6828 122.715C23.6712 122.664 23.4928 121.911 23.2537 121.912Z" fill="#C1C8C6"/>
<path d="M26.8377 122.717L26.7295 121.75L26.7789 121.677C27.0078 121.339 27.1244 121.008 27.1258 120.694C27.126 120.644 27.1237 120.594 27.1214 120.543C27.112 120.342 27.1004 120.091 27.231 119.799C27.3042 119.636 27.51 119.259 27.8193 119.306C27.9026 119.318 27.9655 119.356 28.0134 119.401C28.0204 119.389 28.0276 119.378 28.0353 119.366C28.1316 119.219 28.2079 119.156 28.2814 119.095C28.3378 119.049 28.3961 119.001 28.4876 118.887C28.5277 118.837 28.559 118.793 28.5853 118.756C28.6653 118.645 28.7698 118.512 28.9541 118.514C29.151 118.524 29.2541 118.686 29.3224 118.794C29.4444 118.986 29.4997 119.125 29.5363 119.217C29.5496 119.25 29.5648 119.288 29.5725 119.3C29.6359 119.393 30.1517 119.306 30.346 119.274C30.7824 119.201 31.1601 119.138 31.3157 119.414C31.4271 119.611 31.3443 119.871 31.0621 120.208C30.9742 120.313 30.8806 120.393 30.7976 120.455C30.8664 120.496 30.928 120.559 30.9529 120.658C31.0117 120.893 30.8104 121.127 30.3548 121.357C30.2417 121.414 30.0894 121.491 29.876 121.527C29.7754 121.545 29.6849 121.549 29.6075 121.551C29.6058 121.596 29.5953 121.645 29.5681 121.694C29.488 121.841 29.3215 121.911 29.0705 121.895C28.7943 121.88 28.5669 121.827 28.3663 121.781C28.1911 121.741 28.0402 121.707 27.9217 121.715C27.702 121.733 27.5326 121.909 27.3339 122.137L26.8377 122.717Z" fill="#C1C8C6"/>
<path d="M27.34 116.964L26.4329 117.314L26.3495 117.284C25.9638 117.149 25.6143 117.12 25.3102 117.198C25.2619 117.211 25.2142 117.226 25.1656 117.241C24.973 117.301 24.7336 117.376 24.418 117.324C24.2419 117.294 23.8251 117.191 23.7918 116.88C23.782 116.796 23.803 116.726 23.8342 116.668C23.8216 116.664 23.8089 116.66 23.7952 116.655C23.6287 116.6 23.5484 116.542 23.4711 116.486C23.4116 116.443 23.3504 116.399 23.2171 116.339C23.1586 116.313 23.1083 116.294 23.0659 116.278C22.9378 116.229 22.7827 116.162 22.7382 115.983C22.6973 115.79 22.8286 115.649 22.9155 115.556C23.0705 115.389 23.1905 115.3 23.2701 115.241C23.2992 115.22 23.3319 115.196 23.3412 115.185C23.4154 115.1 23.2002 114.624 23.1202 114.444C22.9391 114.04 22.7824 113.691 23.0092 113.47C23.1714 113.313 23.4442 113.327 23.842 113.514C23.9659 113.573 24.0668 113.643 24.1483 113.707C24.1705 113.63 24.2158 113.555 24.3052 113.505C24.5168 113.389 24.7949 113.524 25.1324 113.907C25.2166 114.002 25.3293 114.13 25.4191 114.327C25.4613 114.42 25.4883 114.506 25.5102 114.58C25.5539 114.571 25.6035 114.568 25.6587 114.582C25.8212 114.622 25.9311 114.766 25.9785 115.013C26.0346 115.284 26.0413 115.517 26.0475 115.723C26.0531 115.902 26.0584 116.057 26.0962 116.17C26.1691 116.378 26.3821 116.497 26.6532 116.631L27.34 116.964Z" fill="#C1C8C6"/>
<path d="M26.8377 114.118L26.7295 113.151L26.7789 113.078C27.0078 112.739 27.1244 112.409 27.1258 112.095C27.126 112.045 27.1237 111.995 27.1214 111.944C27.112 111.742 27.1004 111.492 27.231 111.2C27.3042 111.037 27.51 110.66 27.8193 110.707C27.9026 110.718 27.9655 110.757 28.0134 110.801C28.0204 110.79 28.0276 110.779 28.0353 110.767C28.1316 110.62 28.2079 110.557 28.2814 110.496C28.3378 110.45 28.3961 110.402 28.4876 110.288C28.5277 110.238 28.559 110.194 28.5853 110.157C28.6653 110.046 28.7698 109.913 28.9541 109.915C29.151 109.924 29.2541 110.087 29.3224 110.195C29.4444 110.387 29.4997 110.526 29.5363 110.618C29.5496 110.651 29.5648 110.689 29.5725 110.701C29.6359 110.794 30.1517 110.707 30.346 110.675C30.7824 110.602 31.1601 110.539 31.3157 110.815C31.4271 111.011 31.3443 111.272 31.0621 111.609C30.9742 111.714 30.8806 111.794 30.7976 111.856C30.8664 111.897 30.928 111.96 30.9529 112.059C31.0117 112.293 30.8104 112.528 30.3548 112.758C30.2417 112.815 30.0894 112.891 29.876 112.928C29.7754 112.946 29.6849 112.95 29.6075 112.952C29.6058 112.997 29.5953 113.045 29.5681 113.095C29.488 113.242 29.3215 113.312 29.0705 113.296C28.7943 113.281 28.5669 113.228 28.3663 113.182C28.1911 113.142 28.0402 113.108 27.9217 113.116C27.702 113.134 27.5326 113.309 27.3339 113.538L26.8377 114.118Z" fill="#C1C8C6"/>
<path d="M27.8256 132.872L27.6231 132.745L27.3871 132.772C27.3833 132.75 27.3705 132.7 27.3511 132.621C27.2455 132.189 26.9233 130.874 26.6546 128.804C26.4671 127.358 26.3609 125.873 26.339 124.387C26.3171 122.898 26.3875 121.772 26.444 120.866C26.4867 120.183 26.5385 119.533 26.5893 118.899C26.7246 117.207 26.8522 115.608 26.7573 113.838C26.7363 113.443 26.6922 112.62 26.2117 111.745C25.9329 111.238 25.549 110.787 25.0703 110.406L25.368 110.032C25.8963 110.453 26.3211 110.952 26.6306 111.516C27.1634 112.486 27.2114 113.382 27.2345 113.813C27.3311 115.614 27.2021 117.228 27.0654 118.937C27.015 119.568 26.9632 120.216 26.9208 120.896C26.8648 121.793 26.795 122.91 26.8167 124.379C26.8382 125.847 26.9432 127.315 27.1281 128.742C27.3936 130.786 27.7111 132.082 27.8153 132.507C27.8709 132.734 27.8825 132.782 27.8256 132.872Z" fill="#C1C8C6"/>
<path d="M24.1944 111.165C24.1749 111.165 24.155 111.165 24.135 111.164C23.7282 111.142 23.3514 110.898 23.0151 110.44C22.8574 110.224 22.7767 109.979 22.6157 109.488C22.5908 109.413 22.4695 109.029 22.3958 108.502C22.3475 108.157 22.3535 108.013 22.4219 107.885C22.4977 107.744 22.6204 107.645 22.7585 107.578C22.7524 107.532 22.7573 107.485 22.7771 107.437C22.8586 107.238 23.075 107.264 23.1921 107.277C23.2514 107.284 23.3253 107.294 23.4051 107.29C23.5306 107.284 23.598 107.246 23.7002 107.19C23.7979 107.137 23.9194 107.07 24.0997 107.033C24.4552 106.959 24.7531 107.06 24.8513 107.093C25.368 107.265 25.6227 107.667 25.9175 108.132C25.9763 108.225 26.1781 108.565 26.3113 109.03C26.4074 109.366 26.3939 109.515 26.3649 109.626C26.3062 109.855 26.1674 109.985 25.8149 110.273C25.4468 110.575 25.2621 110.726 25.1035 110.818C24.7342 111.032 24.5024 111.165 24.1944 111.165Z" fill="#C1C8C6"/>
<path d="M176.039 115.919C175.878 115.647 175.182 115.938 175.054 115.692C174.926 115.446 175.573 115.072 175.943 114.218C176.01 114.064 176.43 113.093 176.119 112.794C175.529 112.226 172.832 114.569 171.888 113.802C171.681 113.634 171.537 113.298 170.91 112.753C170.66 112.536 170.509 112.438 170.364 112.474C170.156 112.526 170.14 112.803 169.918 113.348C169.585 114.165 169.388 114.116 169.194 114.768C169.05 115.252 169.083 115.534 168.913 115.588C168.673 115.666 168.453 115.153 168.149 115.199C167.838 115.246 167.651 115.843 167.592 116.291C167.48 117.131 167.789 117.685 167.96 118.268C168.146 118.901 168.256 119.864 167.827 121.228L163.58 133.193C164.518 130.738 167.232 124.008 168.373 121.507C168.702 120.784 169.066 120.052 169.813 119.763C170.531 119.485 171.518 119.651 172.777 119.348C172.924 119.312 173.332 119.209 173.383 118.969C173.426 118.77 173.186 118.66 173.223 118.474C173.272 118.225 173.744 118.222 174.324 117.934C174.732 117.732 174.987 117.49 175.206 117.283C175.272 117.221 176.254 116.28 176.039 115.919Z" fill="#C1C8C6"/>
<path d="M159.332 122.218C159.152 122.219 159.094 122.644 158.936 122.636C158.779 122.628 158.782 122.202 158.469 121.774C158.413 121.697 158.058 121.211 157.821 121.277C157.372 121.403 157.744 123.402 157.095 123.644C156.953 123.698 156.746 123.672 156.298 123.822C156.119 123.882 156.028 123.928 156.004 124.01C155.969 124.126 156.1 124.214 156.304 124.481C156.609 124.88 156.528 124.962 156.792 125.246C156.988 125.456 157.136 125.521 157.114 125.62C157.082 125.76 156.767 125.72 156.702 125.883C156.635 126.049 156.874 126.313 157.077 126.471C157.457 126.768 157.818 126.777 158.154 126.861C158.518 126.953 159.023 127.176 159.568 127.78L164.215 133.317C163.281 132.149 160.761 128.874 159.862 127.593C159.603 127.223 159.348 126.833 159.422 126.383C159.493 125.95 159.859 125.514 160.073 124.808C160.098 124.726 160.165 124.496 160.062 124.402C159.977 124.323 159.854 124.409 159.773 124.338C159.665 124.241 159.8 124.009 159.826 123.641C159.844 123.382 159.8 123.188 159.761 123.02C159.749 122.97 159.571 122.217 159.332 122.218Z" fill="#C1C8C6"/>
<path d="M162.916 123.022L162.808 122.056L162.857 121.983C163.086 121.644 163.203 121.313 163.204 120.999C163.204 120.95 163.202 120.9 163.199 120.849C163.19 120.647 163.178 120.397 163.309 120.105C163.382 119.942 163.588 119.565 163.897 119.612C163.981 119.623 164.044 119.661 164.091 119.706C164.098 119.695 164.106 119.684 164.113 119.672C164.21 119.525 164.286 119.462 164.359 119.401C164.416 119.354 164.474 119.306 164.566 119.193C164.606 119.143 164.637 119.099 164.663 119.062C164.743 118.95 164.848 118.818 165.032 118.82C165.229 118.829 165.332 118.992 165.401 119.1C165.523 119.292 165.578 119.431 165.614 119.522C165.628 119.556 165.643 119.594 165.651 119.605C165.714 119.699 166.23 119.612 166.424 119.58C166.861 119.507 167.238 119.444 167.394 119.719C167.505 119.916 167.422 120.176 167.14 120.514C167.052 120.619 166.959 120.699 166.876 120.761C166.944 120.802 167.006 120.865 167.031 120.964C167.09 121.198 166.889 121.433 166.433 121.662C166.32 121.72 166.168 121.796 165.954 121.833C165.854 121.85 165.763 121.855 165.686 121.857C165.684 121.902 165.673 121.95 165.646 122C165.566 122.147 165.4 122.217 165.149 122.2C164.872 122.186 164.645 122.133 164.444 122.087C164.269 122.047 164.118 122.013 164 122.021C163.78 122.038 163.611 122.214 163.412 122.442L162.916 123.022Z" fill="#C1C8C6"/>
<path d="M163.417 117.27L162.51 117.619L162.427 117.59C162.041 117.455 161.691 117.426 161.387 117.504C161.339 117.517 161.291 117.531 161.243 117.547C161.05 117.607 160.811 117.682 160.495 117.629C160.319 117.6 159.902 117.496 159.869 117.185C159.859 117.102 159.88 117.031 159.911 116.974C159.899 116.97 159.886 116.965 159.872 116.961C159.706 116.905 159.626 116.847 159.548 116.792C159.489 116.749 159.428 116.705 159.294 116.645C159.236 116.619 159.185 116.6 159.143 116.584C159.015 116.535 158.86 116.467 158.815 116.288C158.774 116.096 158.906 115.955 158.993 115.861C159.148 115.694 159.268 115.606 159.347 115.547C159.376 115.526 159.409 115.501 159.418 115.491C159.493 115.406 159.277 114.929 159.197 114.749C159.016 114.346 158.86 113.996 159.086 113.776C159.249 113.618 159.521 113.632 159.919 113.82C160.043 113.878 160.144 113.948 160.225 114.013C160.248 113.936 160.293 113.86 160.382 113.811C160.594 113.695 160.872 113.83 161.21 114.213C161.294 114.307 161.406 114.435 161.496 114.632C161.538 114.725 161.565 114.812 161.587 114.886C161.631 114.876 161.681 114.874 161.736 114.888C161.898 114.928 162.008 115.071 162.056 115.318C162.112 115.589 162.118 115.823 162.125 116.028C162.13 116.208 162.136 116.363 162.173 116.475C162.246 116.683 162.459 116.802 162.73 116.937L163.417 117.27Z" fill="#C1C8C6"/>
<path d="M162.916 114.424L162.808 113.457L162.857 113.384C163.086 113.046 163.203 112.715 163.204 112.401C163.204 112.351 163.202 112.301 163.199 112.25C163.19 112.049 163.178 111.798 163.309 111.506C163.382 111.343 163.588 110.966 163.897 111.013C163.981 111.025 164.044 111.063 164.091 111.108C164.098 111.096 164.106 111.085 164.113 111.073C164.21 110.926 164.286 110.863 164.359 110.803C164.416 110.756 164.474 110.708 164.566 110.594C164.606 110.544 164.637 110.5 164.663 110.463C164.743 110.352 164.848 110.219 165.032 110.221C165.229 110.231 165.332 110.393 165.401 110.501C165.523 110.693 165.578 110.832 165.614 110.924C165.628 110.957 165.643 110.995 165.651 111.007C165.714 111.1 166.23 111.013 166.424 110.981C166.861 110.908 167.238 110.845 167.394 111.121C167.505 111.318 167.422 111.578 167.14 111.915C167.052 112.02 166.959 112.1 166.876 112.162C166.944 112.203 167.006 112.266 167.031 112.365C167.09 112.6 166.889 112.834 166.433 113.064C166.32 113.121 166.168 113.198 165.954 113.234C165.854 113.252 165.763 113.256 165.686 113.258C165.684 113.303 165.673 113.352 165.646 113.402C165.566 113.548 165.4 113.618 165.149 113.602C164.872 113.587 164.645 113.534 164.444 113.488C164.269 113.448 164.118 113.414 164 113.422C163.78 113.44 163.611 113.616 163.412 113.844L162.916 114.424Z" fill="#C1C8C6"/>
<path d="M163.904 133.178L163.701 133.051L163.465 133.078C163.461 133.056 163.449 133.006 163.429 132.927C163.324 132.495 163.001 131.18 162.733 129.11C162.545 127.665 162.439 126.179 162.417 124.693C162.395 123.205 162.466 122.078 162.522 121.172C162.565 120.489 162.617 119.839 162.667 119.206C162.803 117.513 162.93 115.914 162.835 114.144C162.814 113.749 162.77 112.927 162.29 112.051C162.011 111.544 161.627 111.093 161.148 110.713L161.446 110.338C161.974 110.759 162.399 111.258 162.709 111.822C163.242 112.792 163.29 113.688 163.313 114.119C163.409 115.92 163.28 117.534 163.144 119.243C163.093 119.875 163.041 120.522 162.999 121.202C162.943 122.099 162.873 123.216 162.895 124.685C162.916 126.154 163.021 127.621 163.206 129.048C163.472 131.093 163.789 132.388 163.893 132.813C163.949 133.04 163.961 133.088 163.904 133.178Z" fill="#C1C8C6"/>
<path d="M160.273 111.471C160.253 111.471 160.233 111.471 160.213 111.469C159.806 111.447 159.43 111.204 159.093 110.746C158.936 110.53 158.855 110.284 158.694 109.794C158.669 109.718 158.548 109.335 158.474 108.807C158.426 108.463 158.432 108.318 158.5 108.191C158.576 108.049 158.699 107.95 158.837 107.884C158.831 107.838 158.835 107.791 158.855 107.743C158.937 107.543 159.153 107.57 159.27 107.582C159.329 107.59 159.403 107.599 159.483 107.595C159.609 107.589 159.676 107.552 159.778 107.496C159.876 107.442 159.998 107.376 160.178 107.339C160.533 107.264 160.831 107.365 160.929 107.398C161.446 107.571 161.701 107.972 161.996 108.437C162.054 108.531 162.256 108.87 162.389 109.336C162.486 109.672 162.472 109.821 162.443 109.932C162.384 110.16 162.245 110.291 161.893 110.579C161.525 110.881 161.34 111.032 161.182 111.124C160.812 111.337 160.58 111.471 160.273 111.471Z" fill="#C1C8C6"/>
<path d="M97.9501 60.5589C109.434 60.5589 118.744 51.2491 118.744 39.765C118.744 28.2809 109.434 18.9712 97.9501 18.9712C86.466 18.9712 77.1562 28.2809 77.1562 39.765C77.1562 51.2491 86.466 60.5589 97.9501 60.5589Z" fill="#DAB66C"/>
<path d="M178.289 132.745C178.289 132.887 178.174 133.002 178.032 133.002H0V132.488H178.032C178.174 132.488 178.289 132.603 178.289 132.745Z" fill="#D1D6D5"/>
<path d="M151.463 132.725C151.463 144.378 152.686 152.907 139.996 153.825C126.369 154.81 128.528 144.378 128.528 132.725C128.528 121.072 126.694 109.485 139.996 111.625C146.248 112.632 151.463 121.072 151.463 132.725Z" fill="#444B49"/>
<path d="M132.198 147.403C133.211 147.403 134.033 140.832 134.033 132.725C134.033 124.619 133.211 118.047 132.198 118.047C131.185 118.047 130.363 124.619 130.363 132.725C130.363 140.832 131.185 147.403 132.198 147.403Z" fill="#D1D6D5"/>
<path d="M59.6152 113.96C59.6152 124.243 60.6946 131.77 49.4956 132.58C37.47 133.449 39.376 124.243 39.376 113.96C39.376 103.676 37.7569 93.4508 49.4956 95.3398C55.0135 96.2277 59.6152 103.676 59.6152 113.96Z" fill="#444B49"/>
<path d="M42.6143 126.913C43.5085 126.913 44.2334 121.114 44.2334 113.96C44.2334 106.806 43.5085 101.007 42.6143 101.007C41.72 101.007 40.9951 106.806 40.9951 113.96C40.9951 121.114 41.72 126.913 42.6143 126.913Z" fill="#D1D6D5"/>
<path d="M77.0029 132.572C77.0029 144.225 78.226 152.754 65.5357 153.672C51.9086 154.657 54.0685 144.225 54.0685 132.572C54.0685 120.919 52.2337 109.332 65.5357 111.473C71.7884 112.479 77.0029 120.919 77.0029 132.572Z" fill="#444B49"/>
<path d="M57.7381 147.251C58.7514 147.251 59.5728 140.679 59.5728 132.573C59.5728 124.466 58.7514 117.895 57.7381 117.895C56.7248 117.895 55.9033 124.466 55.9033 132.573C55.9033 140.679 56.7248 147.251 57.7381 147.251Z" fill="#D1D6D5"/>
<path d="M40.7669 89.3028V96.5358L38.7793 99.8526L39.3909 111.473L39.8857 111.778L39.5438 100.005C43.0277 98.7084 44.167 101.098 43.8249 105.816L43.2133 113.766L52.9986 119.882L54.2218 107.344L58.8087 105.204L63.8542 126.456H148.39C151.875 126.456 154.659 123.557 154.518 120.075L153.451 93.7368L150.573 90.8582L147.906 60.0147C147.241 52.3229 140.719 46.4685 133 46.6348L80.1185 47.7745C77.2496 47.8363 74.4153 48.4139 71.751 49.4796L58.9615 54.5954L50.7064 62.8506L49.482 82.7282L46.3606 82.4568C44.1153 82.2616 42.0676 83.7455 41.554 85.94L40.7669 89.3028Z" fill="#1CA686"/>
<path d="M68.1351 117.894C69.8239 117.894 71.193 116.525 71.193 114.836C71.193 113.147 69.8239 111.778 68.1351 111.778C66.4462 111.778 65.0771 113.147 65.0771 114.836C65.0771 116.525 66.4462 117.894 68.1351 117.894Z" fill="#444B49"/>
<path d="M75.1683 117.894C76.8571 117.894 78.2262 116.525 78.2262 114.836C78.2262 113.147 76.8571 111.778 75.1683 111.778C73.4794 111.778 72.1104 113.147 72.1104 114.836C72.1104 116.525 73.4794 117.894 75.1683 117.894Z" fill="#444B49"/>
<path d="M143.665 117.894C145.354 117.894 146.723 116.525 146.723 114.836C146.723 113.147 145.354 111.778 143.665 111.778C141.976 111.778 140.607 113.147 140.607 114.836C140.607 116.525 141.976 117.894 143.665 117.894Z" fill="#444B49"/>
<path d="M150.699 117.894C152.387 117.894 153.756 116.525 153.756 114.836C153.756 113.147 152.387 111.778 150.699 111.778C149.01 111.778 147.641 113.147 147.641 114.836C147.641 116.525 149.01 117.894 150.699 117.894Z" fill="#444B49"/>
<path d="M145.927 86.114H74.0376C73.4879 86.114 72.9764 85.8951 72.5971 85.4974C72.2179 85.0996 72.0232 84.5782 72.0492 84.0293L73.0994 61.8212C73.1492 60.7713 74.0114 59.9381 75.0623 59.9246L142.943 59.0509C143.946 59.0413 144.815 59.7846 144.943 60.7883L147.902 83.8702C147.975 84.4373 147.8 85.0088 147.422 85.4382C147.044 85.8677 146.499 86.114 145.927 86.114Z" fill="#FBFEFD"/>
<path d="M63.9998 85.0218H59.3353C58.782 85.0218 58.2491 84.7888 57.8736 84.3824C57.4979 83.976 57.3074 83.4265 57.3508 82.8746L58.6934 65.8357C58.767 64.9001 59.4673 64.1539 60.3963 64.0213L65.2164 63.3326C65.82 63.2469 66.4209 63.4372 66.8644 63.8558C67.308 64.2748 67.5329 64.8634 67.4815 65.4711L65.9835 83.1987C65.8957 84.2379 65.0428 85.0218 63.9998 85.0218Z" fill="#FBFEFD"/>
<path d="M53.2725 84.5887C53.2243 84.5887 53.1757 84.5869 53.1272 84.5837L52.5795 84.5445C52.0386 84.5057 51.5481 84.2561 51.1987 83.8413C50.8493 83.4262 50.6867 82.9006 50.7406 82.3607L52.2473 67.2933C52.3366 66.4013 53.0164 65.6753 53.9009 65.5278C54.5037 65.4266 55.1093 65.6046 55.5625 66.0143C56.0158 66.4234 56.2535 67.0078 56.2148 67.6173L55.2556 82.7241C55.2218 83.2578 54.9814 83.7454 54.5785 84.0972C54.2125 84.417 53.7534 84.5887 53.2725 84.5887Z" fill="#FBFEFD"/>
<path d="M45.6879 115.33L44.8946 98.0179C44.8946 98.0179 43.0599 95.5715 41.8367 96.1831C40.6136 96.7947 38.7969 100.196 38.7969 100.196C38.7969 100.196 42.3423 99.9634 42.2424 103.73C42.1425 107.497 42.8498 113.592 42.8498 113.592L45.6879 115.33Z" fill="#136D58"/>
<path d="M53.0732 119.853L53.4574 106.938L57.3472 102.343C57.3472 102.343 62.5457 101.22 62.4355 107.111C62.3254 113.002 64.0072 126.609 64.0072 126.609L60.2059 124.222C60.2059 124.222 59.2675 109.638 56.5153 108.109C53.7632 106.58 54.6806 107.803 54.6806 107.803L53.0732 119.853Z" fill="#136D58"/>
<path d="M49.0221 86.7441L46.0083 85.0219H46.3374C46.8075 85.0219 47.1886 84.6408 47.1886 84.1707V76.6993C47.1886 76.2292 46.8075 75.8481 46.3374 75.8481H43.1471C42.677 75.8481 42.2959 76.2292 42.2959 76.6993V84.1707C42.2959 84.6408 42.677 85.0219 43.1471 85.0219H44.7758L48.7187 87.275L49.0221 86.7441Z" fill="#444B49"/>
<path d="M53.0935 97.9391L50.7425 97.2631C50.1744 97.0997 49.5814 97.4278 49.4181 97.9959C49.2547 98.5639 49.5828 99.1569 50.1509 99.3202L52.5019 99.9963C53.07 100.16 53.663 99.8316 53.8263 99.2635C53.9897 98.6954 53.6616 98.1025 53.0935 97.9391Z" fill="#444B49"/>
<path d="M148.873 76.2301L138.82 75.7962C138.23 75.7707 137.73 76.2287 137.705 76.8193C137.679 77.4098 138.137 77.9092 138.728 77.9347L148.781 78.3686C149.371 78.3941 149.871 77.9361 149.896 77.3455C149.922 76.755 149.464 76.2556 148.873 76.2301Z" fill="#444B49"/>
<path d="M158.352 96.4127L148.3 95.9788C147.709 95.9533 147.21 96.4113 147.184 97.0019C147.159 97.5924 147.617 98.0918 148.207 98.1173L158.26 98.5513C158.851 98.5768 159.35 98.1187 159.376 97.5281C159.401 96.9376 158.943 96.4382 158.352 96.4127Z" fill="#444B49"/>
<path d="M117.368 119.729C130.203 119.729 140.608 109.324 140.608 96.4892C140.608 83.654 130.203 73.249 117.368 73.249C104.533 73.249 94.1279 83.654 94.1279 96.4892C94.1279 109.324 104.533 119.729 117.368 119.729Z" fill="#444B49"/>
<path d="M117.368 110.249C124.968 110.249 131.129 104.088 131.129 96.4887C131.129 88.8889 124.968 82.728 117.368 82.728C109.768 82.728 103.607 88.8889 103.607 96.4887C103.607 104.088 109.768 110.249 117.368 110.249Z" fill="#D1D6D5"/>
<path d="M148.158 50.3349C148.275 51.6915 149.07 52.7308 149.933 52.6562C150.797 52.5816 151.401 51.4216 151.284 50.0645C151.245 49.5218 151.076 48.9964 150.792 48.5322L150.224 42.7905L147.535 43.1146L148.381 48.7405C148.18 49.2466 148.104 49.7933 148.158 50.3349Z" fill="#ECA1A1"/>
<path d="M140.376 17.0976C140.376 17.0976 143.343 16.262 144.483 17.6768C145.623 19.0917 149.877 32.9858 149.877 32.9858L151.198 47.9395L146.986 46.665L145.347 34.872L142.595 28.7562L140.376 17.0976Z" fill="#E37272"/>
<path d="M139.407 8.10205H130.365V16.676H139.407V8.10205Z" fill="#444B49"/>
<path d="M134.79 12.4703C137.225 12.4703 139.199 10.4966 139.199 8.06182C139.199 5.62707 137.225 3.65332 134.79 3.65332C132.356 3.65332 130.382 5.62707 130.382 8.06182C130.382 10.4966 132.356 12.4703 134.79 12.4703Z" fill="#ECA1A1"/>
<path d="M132.704 0.931288C129.887 1.36739 130.021 2.41436 129.119 2.95786C127.529 3.91539 126.902 6.68046 127.741 8.50509C127.966 8.99261 128.439 9.65768 128.209 10.3758C128.033 10.927 127.525 11.2522 127.43 11.3111C126.649 11.7931 127.159 11.2197 126.806 11.6229C126.417 12.0679 127.02 12.6966 126.65 13.4936C126.322 14.2001 125.647 14.1405 125.559 14.5848C125.408 15.3499 127.142 16.8882 128.989 16.7673C130.632 16.6596 131.853 15.27 132.262 13.9613C132.536 13.0846 132.654 11.5767 131.951 10.8434C131.852 10.7406 131.582 10.4916 131.327 10.064C131.125 9.72563 130.86 9.28022 131.015 8.97276C131.181 8.64521 131.651 8.81761 131.951 8.50509C132.357 8.08126 131.874 7.3652 131.951 6.63441C132.08 5.39695 133.833 3.90863 135.692 4.14016C137.8 4.40281 138.574 6.69562 138.654 6.94619C138.82 7.4655 138.816 7.96792 138.81 8.97276C138.8 10.4148 138.794 11.3186 138.342 12.2465C137.692 13.581 136.863 13.4368 136.627 14.4289C136.26 15.9758 137.988 17.5293 138.186 17.7026C139.652 18.9876 141.866 19.374 142.239 18.7938C142.576 18.271 141.099 17.4578 141.148 15.8319C141.19 14.423 142.331 13.9935 142.083 13.0259C141.811 11.9608 140.359 12.2038 139.745 10.9993C139.172 9.8751 140.228 9.25135 140.057 6.94619C140.021 6.45855 139.867 5.05904 138.966 3.67249C138.568 3.06164 138.164 2.44038 137.407 2.11359C136.559 1.74775 134.195 0.700611 132.704 0.931288Z" fill="#444B49"/>
<path d="M130.833 4.82849C130.948 5.79382 132.397 6.2669 133.016 6.38739C133.278 6.43843 134.163 6.61088 135.042 6.2315C135.367 6.09127 135.486 5.96446 135.822 5.91972C136.277 5.85917 136.506 6.03219 137.225 6.2315C138.024 6.45314 138.424 6.56397 138.628 6.38739C138.961 6.09875 138.705 5.15449 138.316 4.51671C137.597 3.33743 136.28 2.97225 135.666 2.80192C134.964 2.60732 133.54 2.21242 132.236 2.95781C132.062 3.05746 130.717 3.84771 130.833 4.82849Z" fill="#444B49"/>
<path d="M152.293 91.5649L154.543 91.618L155.797 81.5092L152.477 81.4307L152.293 91.5649Z" fill="#ECA1A1"/>
<path d="M160.013 96.2591C160.013 96.6392 159.743 96.9474 159.41 96.9474H154.944C154.944 96.9474 154.505 95.1807 152.713 94.4204L152.589 96.9474H150.285L150.564 92.884C150.564 92.884 149.948 90.7101 151.228 89.5989C152.508 88.4876 151.471 88.6423 151.471 88.6423L151.975 86.1274L155.456 86.5368L155.482 90.4847L157.171 94.4032L159.65 95.6274C159.87 95.7364 160.013 95.9846 160.013 96.2591Z" fill="#444B49"/>
<path d="M142.063 71.7662L144.263 71.2926L143.123 61.1704L139.876 61.8692L142.063 71.7662Z" fill="#ECA1A1"/>
<path d="M150.666 74.5286C150.754 74.8982 150.564 75.2608 150.24 75.3385L145.898 76.3811C145.898 76.3811 145.058 74.7658 143.138 74.4448L143.608 76.9309L141.367 77.4687L140.69 73.4525C140.69 73.4525 139.583 71.4825 140.569 70.1032C141.554 68.7238 140.582 69.1163 140.582 69.1163L140.484 66.5533L143.965 66.1387L144.912 69.9714L147.469 73.3873L150.165 73.9992C150.405 74.0536 150.602 74.2617 150.666 74.5286Z" fill="#444B49"/>
<path d="M137.855 13.0078L132.351 13.3136L130.822 16.3715L125.012 19.4294L125.929 34.5083L123.833 42.0926L124.094 44.1986L144.583 43.587L143.359 20.9584L143.665 17.2889L139.69 16.0657L137.855 13.0078Z" fill="#E37272"/>
<path d="M124.248 41.2936C124.248 41.2936 119.661 49.3983 124.248 50.5444C126.288 51.0543 128.45 51.3978 130.221 51.6221C132.341 51.8907 134.293 50.4351 134.645 48.3268L139.537 65.1454L144.43 63.9222L145.347 55.1674L151.292 61.1123L150.546 85.0218L156.05 84.716L161.86 58.7237C161.86 58.7237 162.166 56.889 157.579 54.4426C152.992 51.9963 144.736 44.0457 144.736 44.0457L130.669 39.7646L124.248 41.2936Z" fill="#444B49"/>
<path d="M133.88 46.6448L125.93 41.4463L135.715 31.0494C135.715 31.0494 141.219 28.9088 142.748 37.1652C144.277 45.4216 145.195 52.7606 145.195 52.7606L133.88 46.6448Z" fill="#444B49"/>
<path d="M117.476 31.1253L117.825 28.756C118.079 27.0293 116.933 25.5223 115.38 25.1514V24.1691C115.38 23.3247 114.696 22.6401 113.851 22.6401C113.007 22.6401 112.322 23.3247 112.322 24.1691V25.4794L106.512 26.7118V25.0865C106.512 24.2421 105.828 23.5575 104.983 23.5575C104.139 23.5575 103.454 24.2421 103.454 25.0865V26.6312L102.877 26.4805C101.152 26.0305 99.7891 28.0096 100.862 29.4333C100.876 29.4517 100.89 29.4701 100.904 29.4885C102.336 31.3299 102.746 32.9666 102.746 32.9666L101.723 38.4907L102.888 49.9755C103.038 51.4557 104.312 52.5649 105.799 52.5098L117.111 52.0908C118.596 52.0358 119.786 50.8379 119.826 49.3518C119.97 44.0583 119.987 32.5375 117.476 31.1253Z" fill="#444B49"/>
<path d="M107.349 50.9702C107.19 50.9702 107.056 50.848 107.044 50.6873L106.431 42.5035C106.418 42.3351 106.544 42.1883 106.713 42.1757C106.88 42.1626 107.028 42.2894 107.04 42.4578L107.654 50.6416C107.667 50.81 107.541 50.9568 107.372 50.9693C107.364 50.9699 107.357 50.9702 107.349 50.9702Z" fill="#ECA1A1"/>
<path d="M102.745 33.2725C102.596 33.2725 102.465 33.1631 102.443 33.0111C102.418 32.844 102.534 32.6887 102.701 32.6642L117.48 30.4983C117.647 30.4741 117.802 30.5894 117.826 30.7565C117.851 30.9236 117.735 31.0788 117.568 31.1033L102.79 33.2693C102.774 33.2715 102.76 33.2725 102.745 33.2725Z" fill="#ECA1A1"/>
<path d="M15.9303 121.875C15.8273 121.701 15.3816 121.887 15.2997 121.729C15.218 121.572 15.6321 121.333 15.8687 120.786C15.9114 120.687 16.1802 120.066 15.9812 119.874C15.6039 119.511 13.8775 121.011 13.2733 120.52C13.1407 120.412 13.0481 120.197 12.6468 119.848C12.4872 119.709 12.3906 119.646 12.2972 119.67C12.1646 119.703 12.1541 119.88 12.012 120.229C11.7988 120.752 11.6727 120.721 11.5485 121.138C11.4563 121.448 11.4774 121.628 11.3689 121.663C11.2153 121.713 11.074 121.384 10.8794 121.414C10.6809 121.444 10.5608 121.826 10.5229 122.113C10.4517 122.651 10.6492 123.005 10.7586 123.378C10.8776 123.784 10.9481 124.4 10.6735 125.273L7.95508 132.932C8.55522 131.361 10.2929 127.052 11.0231 125.451C11.2339 124.989 11.4666 124.52 11.9445 124.335C12.4046 124.157 13.0365 124.264 13.8421 124.07C13.9362 124.047 14.1972 123.981 14.2301 123.827C14.2573 123.7 14.1037 123.629 14.1273 123.51C14.1589 123.351 14.4609 123.349 14.832 123.165C15.0937 123.035 15.2567 122.881 15.3969 122.748C15.4392 122.708 16.0675 122.106 15.9303 121.875Z" fill="#C1C8C6"/>
<path d="M5.23551 125.906C5.12052 125.907 5.08321 126.179 4.98219 126.174C4.88153 126.169 4.88353 125.896 4.68343 125.623C4.64734 125.573 4.41994 125.262 4.2684 125.304C3.98117 125.385 4.21916 126.665 3.80395 126.82C3.71282 126.854 3.58056 126.837 3.29342 126.933C3.17919 126.971 3.12056 127.001 3.10506 127.053C3.08305 127.128 3.1671 127.184 3.2973 127.355C3.49257 127.61 3.44068 127.663 3.6097 127.844C3.73518 127.979 3.82967 128.021 3.81559 128.084C3.79567 128.174 3.59358 128.148 3.55188 128.252C3.50933 128.359 3.66251 128.528 3.79219 128.629C4.03555 128.819 4.26665 128.825 4.48132 128.879C4.71462 128.937 5.03759 129.08 5.38673 129.467L8.36154 133.011C7.76333 132.263 6.15018 130.167 5.57509 129.347C5.40908 129.11 5.24615 128.861 5.29323 128.573C5.33856 128.295 5.57307 128.016 5.71025 127.565C5.72628 127.512 5.76901 127.365 5.70312 127.304C5.64865 127.254 5.56956 127.309 5.51801 127.263C5.44886 127.202 5.53503 127.053 5.5518 126.818C5.56361 126.652 5.53492 126.527 5.51024 126.42C5.5028 126.388 5.38859 125.906 5.23551 125.906Z" fill="#C1C8C6"/>
<path d="M7.52924 126.421L7.45996 125.803L7.49162 125.756C7.63809 125.539 7.71275 125.328 7.71364 125.127C7.71379 125.095 7.7123 125.063 7.71081 125.03C7.70483 124.901 7.69737 124.741 7.78098 124.554C7.82787 124.45 7.95956 124.208 8.15755 124.238C8.21085 124.246 8.25117 124.27 8.28178 124.299L8.29581 124.277C8.35748 124.183 8.4063 124.142 8.45334 124.104C8.48947 124.074 8.5268 124.043 8.58533 123.97C8.61101 123.938 8.63102 123.91 8.64789 123.886C8.69911 123.815 8.766 123.73 8.88395 123.731C9.00997 123.737 9.07597 123.842 9.11972 123.911C9.19781 124.034 9.23319 124.122 9.25664 124.181C9.26515 124.203 9.27485 124.227 9.27978 124.234C9.32039 124.294 9.65052 124.238 9.7749 124.218C10.0543 124.171 10.296 124.131 10.3956 124.307C10.467 124.433 10.414 124.6 10.2333 124.816C10.177 124.883 10.1171 124.934 10.064 124.974C10.108 125 10.1474 125.041 10.1634 125.104C10.201 125.254 10.0722 125.404 9.78058 125.551C9.70816 125.588 9.61066 125.637 9.47404 125.66C9.40969 125.671 9.35175 125.674 9.30218 125.676C9.30114 125.704 9.29442 125.735 9.27695 125.767C9.22573 125.861 9.11913 125.906 8.95847 125.895C8.78168 125.886 8.6361 125.852 8.50769 125.823C8.39556 125.797 8.29895 125.775 8.2231 125.78C8.08245 125.792 7.97405 125.904 7.84684 126.05L7.52924 126.421Z" fill="#C1C8C6"/>
<path d="M7.85098 122.739L7.27032 122.963L7.21694 122.945C6.97008 122.858 6.74634 122.839 6.55171 122.889C6.52077 122.897 6.49024 122.907 6.45913 122.917C6.33586 122.955 6.18264 123.003 5.9806 122.97C5.8679 122.951 5.6011 122.884 5.57976 122.685C5.57346 122.632 5.58692 122.587 5.60689 122.55L5.58196 122.542C5.47532 122.506 5.42394 122.469 5.37446 122.433C5.33641 122.406 5.29719 122.378 5.21186 122.34C5.17444 122.323 5.14221 122.311 5.11511 122.3C5.03308 122.269 4.93379 122.226 4.90532 122.111C4.87913 121.988 4.9632 121.898 5.01883 121.838C5.11803 121.731 5.19485 121.674 5.24581 121.637C5.26445 121.623 5.28538 121.608 5.29136 121.601C5.33883 121.546 5.20107 121.241 5.14988 121.126C5.03396 120.868 4.93365 120.644 5.07881 120.503C5.18261 120.402 5.35724 120.411 5.6119 120.531C5.69118 120.568 5.75576 120.613 5.80795 120.655C5.82219 120.605 5.85119 120.557 5.90838 120.526C6.04384 120.451 6.22182 120.538 6.43791 120.782C6.49181 120.843 6.56391 120.925 6.62138 121.051C6.64839 121.111 6.66569 121.166 6.67971 121.214C6.7077 121.207 6.73945 121.206 6.77479 121.215C6.87877 121.24 6.94914 121.332 6.97949 121.49C7.01538 121.664 7.01966 121.813 7.02363 121.945C7.02724 122.06 7.03065 122.159 7.0548 122.231C7.10146 122.364 7.23785 122.44 7.41137 122.526L7.85098 122.739Z" fill="#C1C8C6"/>
<path d="M7.52924 120.917L7.45996 120.299L7.49162 120.252C7.63809 120.035 7.71275 119.823 7.71364 119.622C7.71379 119.59 7.7123 119.558 7.71081 119.526C7.70483 119.397 7.69737 119.236 7.78098 119.049C7.82787 118.945 7.95956 118.704 8.15755 118.734C8.21085 118.741 8.25117 118.766 8.28178 118.794L8.29581 118.772C8.35748 118.678 8.4063 118.638 8.45334 118.599C8.48947 118.569 8.5268 118.539 8.58533 118.466C8.61101 118.434 8.63102 118.406 8.64789 118.382C8.69911 118.311 8.766 118.226 8.88395 118.227C9.00997 118.233 9.07597 118.337 9.11972 118.406C9.19781 118.529 9.23319 118.618 9.25664 118.677C9.26515 118.698 9.27485 118.722 9.27978 118.73C9.32039 118.79 9.65052 118.734 9.7749 118.714C10.0543 118.667 10.296 118.627 10.3956 118.803C10.467 118.929 10.414 119.095 10.2333 119.311C10.177 119.379 10.1171 119.43 10.064 119.47C10.108 119.496 10.1474 119.536 10.1634 119.6C10.201 119.749 10.0722 119.9 9.78058 120.047C9.70816 120.083 9.61066 120.132 9.47404 120.156C9.40969 120.167 9.35175 120.17 9.30218 120.171C9.30114 120.2 9.29442 120.231 9.27695 120.263C9.22573 120.357 9.11913 120.402 8.95847 120.391C8.78168 120.382 8.6361 120.348 8.50769 120.318C8.39556 120.293 8.29895 120.271 8.2231 120.276C8.08245 120.287 7.97405 120.4 7.84684 120.546L7.52924 120.917Z" fill="#C1C8C6"/>
<path d="M8.16212 132.922L8.03251 132.841L7.88141 132.858C7.87902 132.844 7.87081 132.812 7.85841 132.761C7.79077 132.485 7.58457 131.643 7.41257 130.318C7.29252 129.393 7.22458 128.442 7.21055 127.491C7.19651 126.538 7.2416 125.817 7.27774 125.237C7.30506 124.8 7.33821 124.384 7.37076 123.978C7.45736 122.895 7.53903 121.871 7.47826 120.738C7.46482 120.485 7.43661 119.959 7.12902 119.399C6.95059 119.074 6.70483 118.785 6.39844 118.542L6.58896 118.302C6.92715 118.572 7.19905 118.891 7.39719 119.252C7.73822 119.873 7.76898 120.447 7.78376 120.722C7.84557 121.875 7.76301 122.909 7.67551 124.002C7.64326 124.406 7.61011 124.821 7.58294 125.256C7.5471 125.831 7.50246 126.545 7.51634 127.486C7.53008 128.426 7.59727 129.365 7.71568 130.279C7.88559 131.587 8.08881 132.416 8.15555 132.688C8.19109 132.834 8.19855 132.864 8.16212 132.922Z" fill="#C1C8C6"/>
<path d="M5.83753 119.028C5.82499 119.028 5.8123 119.027 5.79946 119.026C5.53906 119.012 5.29792 118.856 5.08261 118.563C4.98167 118.425 4.93001 118.268 4.82699 117.954C4.81101 117.906 4.73337 117.66 4.68618 117.322C4.65528 117.102 4.65916 117.009 4.70291 116.928C4.75143 116.837 4.82997 116.774 4.91837 116.731C4.91448 116.702 4.91762 116.672 4.93031 116.641C4.98242 116.513 5.12098 116.53 5.19594 116.538C5.23386 116.543 5.28119 116.549 5.33226 116.547C5.41259 116.543 5.45574 116.519 5.52114 116.483C5.5837 116.449 5.66149 116.406 5.77691 116.382C6.00446 116.335 6.19514 116.399 6.258 116.421C6.58872 116.531 6.75177 116.788 6.9405 117.086C6.97813 117.145 7.10728 117.363 7.19254 117.661C7.25406 117.876 7.2454 117.971 7.22688 118.042C7.18925 118.188 7.10042 118.272 6.8748 118.457C6.63919 118.65 6.52093 118.747 6.4194 118.805C6.18304 118.942 6.03462 119.028 5.83753 119.028Z" fill="#C1C8C6"/>
<path d="M186.933 87.0366L187.073 76.1094L182.878 74.9556L183.005 87.0383L182.04 95.9668L182.065 95.9762C181.661 96.383 181.332 97.0324 181.193 97.7999C180.938 99.2006 181.405 100.459 182.237 100.61C183.068 100.762 183.949 99.749 184.204 98.3483C184.309 97.7733 184.29 97.2239 184.176 96.7636L184.214 96.7776L186.933 87.0366Z" fill="#ECA1A1"/>
<path d="M179.304 61.3502C179.304 61.3502 181.208 59.8945 182.552 62.0221C183.895 64.1496 187.591 74.8993 187.591 74.8993C187.591 74.8993 188.659 79.8262 188.405 80.5541C188.15 81.2819 187.815 87.6879 187.815 87.6879L182.564 86.7357L182.691 80.5541L177.688 72.5685L179.304 61.3502Z" fill="#C1C8C6"/>
<path d="M144.143 57.3818L151.5 65.4622L155.353 63.4418L147.011 54.6995L141.621 47.5165L141.596 47.5268C141.614 46.9533 141.411 46.2547 140.989 45.5985C140.219 44.4009 139.018 43.8006 138.307 44.2577C137.596 44.7148 137.644 46.0562 138.414 47.2538C138.73 47.7454 139.119 48.1341 139.516 48.3926L139.479 48.4079L144.143 57.3818Z" fill="#ECA1A1"/>
<path d="M167.673 70.9428C167.673 70.9428 167.275 73.306 164.841 72.6688C162.407 72.0315 152.368 66.6994 152.368 66.6994C152.368 66.6994 148.224 63.8288 147.913 63.1233C147.602 62.4178 143.474 57.5075 143.474 57.5075L147.96 54.6191L152.087 59.2227L161.195 61.6424L167.673 70.9428Z" fill="#C1C8C6"/>
<path d="M169.068 55.1732C172.295 55.1732 174.911 52.5573 174.911 49.3303C174.911 46.1033 172.295 43.4873 169.068 43.4873C165.841 43.4873 163.225 46.1033 163.225 49.3303C163.225 52.5573 165.841 55.1732 169.068 55.1732Z" fill="#ECA1A1"/>
<path d="M179.317 151.689L175.691 151.688L173.966 137.701L179.318 137.701L179.317 151.689Z" fill="#ECA1A1"/>
<path d="M166.893 151.607C166.78 151.797 166.721 152.411 166.721 152.632C166.721 153.311 167.272 153.863 167.952 153.863H179.182C179.646 153.863 180.022 153.487 180.022 153.023V152.555C180.022 152.555 180.577 151.15 179.434 149.418C179.434 149.418 178.012 150.774 175.888 148.65L175.261 147.515L170.727 150.831L168.213 151.141C167.664 151.208 167.176 151.13 166.893 151.607Z" fill="#444B49"/>
<path d="M168.921 151.689L165.294 151.688L163.569 137.701L168.922 137.701L168.921 151.689Z" fill="#ECA1A1"/>
<path d="M156.496 151.607C156.383 151.797 156.323 152.411 156.323 152.632C156.323 153.311 156.874 153.863 157.554 153.863H168.785C169.248 153.863 169.624 153.487 169.624 153.023V152.555C169.624 152.555 170.18 151.15 169.036 149.418C169.036 149.418 167.614 150.774 165.49 148.65L164.864 147.515L160.329 150.831L157.816 151.141C157.266 151.208 156.779 151.13 156.496 151.607Z" fill="#444B49"/>
<path d="M181.89 90.9849L158.344 92.208L163.542 145.416L168.741 145.11L170.575 113.002L171.34 101.535L174.458 144.23L179.749 144.193L181.89 90.9849Z" fill="#444B49"/>
<path d="M174.914 56.736L165.996 56.4302L160.025 62.3678V81.8193L157.693 94.0426C157.693 94.0426 173.376 92.5136 176.451 95.5715C179.527 98.6294 185.062 96.4889 185.062 96.4889L182.294 80.3168L181.064 61.6286L174.914 56.736Z" fill="#C1C8C6"/>
<path d="M171.64 55.0546L166.669 53.8803L165.902 50.8666C165.902 50.8666 165.883 49.446 165.213 49.2876C164.542 49.1291 163.359 48.1415 163.359 48.1415L164.505 46.2879C164.505 46.2879 161.743 45.9895 162.572 45.4773C163.401 44.965 163.521 45.1958 163.639 43.959C163.883 41.3999 171.713 41.7735 172.321 43.1776C172.321 43.1776 173.327 43.4152 173.839 44.2444C174.352 45.0735 174.608 45.488 174.943 45.5673C175.278 45.6465 175.455 46.3964 175.455 46.3964C175.455 46.3964 176.638 47.384 176.224 47.6401C175.809 47.8962 175.492 49.2376 175.492 49.2376C175.492 49.2376 176.596 50.5605 174.127 53.5178L172.812 55.6339L171.64 55.0546Z" fill="#444B49"/>
<path d="M178.022 63.6473L178.371 61.2779C178.625 59.5512 177.479 58.0443 175.926 57.6734V56.6911C175.926 55.8467 175.242 55.1621 174.397 55.1621C173.553 55.1621 172.868 55.8467 172.868 56.6911V58.0014L167.058 59.2338V57.6084C167.058 56.764 166.374 56.0795 165.529 56.0795C164.685 56.0795 164 56.764 164 57.6084V59.1532L163.423 59.0025C161.698 58.5525 160.335 60.5316 161.408 61.9553C161.422 61.9737 161.436 61.9921 161.45 62.0105C162.882 63.8519 163.291 65.4886 163.291 65.4886L162.268 71.0127L163.434 82.4975C163.584 83.9777 164.858 85.0868 166.345 85.0318L177.657 84.6128C179.142 84.5578 180.332 83.3599 180.372 81.8738C180.516 76.5803 180.533 65.0595 178.022 63.6473Z" fill="#444B49"/>
<path d="M167.895 83.4922C167.736 83.4922 167.602 83.3699 167.59 83.2093L166.976 75.0255C166.964 74.857 167.09 74.7103 167.259 74.6977C167.425 74.6846 167.574 74.8113 167.586 74.9798L168.2 83.1636C168.213 83.332 168.086 83.4788 167.918 83.4913C167.91 83.4919 167.902 83.4922 167.895 83.4922Z" fill="#ECA1A1"/>
<path d="M163.291 65.7945C163.142 65.7945 163.011 65.6851 162.989 65.5331C162.964 65.366 163.08 65.2107 163.247 65.1862L178.025 63.0203C178.193 62.9961 178.348 63.1114 178.372 63.2785C178.397 63.4455 178.281 63.6008 178.114 63.6253L163.335 65.7912C163.32 65.7935 163.305 65.7945 163.291 65.7945Z" fill="#ECA1A1"/>
<path d="M163.966 83.9818L158.19 70.0381L159.719 70.6497L165.87 83.0041L163.966 83.9818Z" fill="#444B49"/>
<path d="M200 153.845C200 153.987 199.885 154.102 199.743 154.102H21.7109V153.588H199.743C199.885 153.588 200 153.703 200 153.845Z" fill="#D1D6D5"/>
<path d="M136.895 44.8317C137.887 45.7647 139.172 46.0093 139.766 45.378C140.359 44.7468 140.037 43.479 139.044 42.5458C138.653 42.1676 138.177 41.8886 137.656 41.7321L133.404 37.832L131.616 39.8664L135.998 43.4952C136.186 44.006 136.494 44.4643 136.895 44.8317Z" fill="#ECA1A1"/>
<path d="M133.256 24.6255C133.256 24.6255 128.072 18.1675 126.082 18.665C123.636 19.2766 124.247 21.723 121.717 28.2657C121.083 29.9043 120.418 31.4924 121.697 32.6969L125.223 36.018L132.741 42.3565L135.765 39.1906L129.757 31.4428L133.256 24.6255Z" fill="#E37272"/>
</g>
<defs>
<clipPath id="clip0_346_14297">
<rect width="200" height="153.203" fill="white" transform="translate(0 0.898438)"/>
</clipPath>
</defs>
</svg>
