<svg width="200" height="213" viewBox="0 0 200 213" fill="none" xmlns="http://www.w3.org/2000/svg">
<g clip-path="url(#clip0_355_21127)">
<path d="M32.9531 88.771L40.9031 91.3832V79.9443H33.6924L32.9531 88.771Z" fill="#9F616A"/>
<path d="M39.9192 83.1089C44.2929 83.1089 47.8384 79.5634 47.8384 75.1897C47.8384 70.8161 44.2929 67.2705 39.9192 67.2705C35.5456 67.2705 32 70.8161 32 75.1897C32 79.5634 35.5456 83.1089 39.9192 83.1089Z" fill="#9F616A"/>
<path d="M37.9027 75.8099L38.9934 77.1362L40.9672 73.6807C40.9672 73.6807 43.4871 73.8134 43.4871 71.9393C43.4871 70.0653 45.7999 70.0176 45.7999 70.0176C45.7999 70.0176 49.0752 64.301 42.2924 65.8074C42.2924 65.8074 37.5902 62.584 35.2498 65.34C35.2498 65.34 28.0792 68.9515 30.1323 75.2391L33.5419 81.7193L34.3148 80.2527C34.3148 80.2527 33.8477 74.0929 37.9027 75.8099Z" fill="#090814"/>
<path d="M37.1692 197.154H30.7715V206.232H37.1692V197.154Z" fill="#9F616A"/>
<path d="M43.4015 211.725C44.0737 211.725 44.6726 211.709 45.1257 211.667C46.8233 211.511 48.4467 210.255 49.2637 209.522C49.4421 209.361 49.5661 209.149 49.6187 208.915C49.6713 208.68 49.6497 208.436 49.5571 208.214C49.4903 208.054 49.3883 207.912 49.2587 207.797C49.1291 207.682 48.9752 207.598 48.8085 207.551L44.3172 206.268L37.0455 201.36L36.963 201.507C36.5669 202.211 36.2375 202.951 35.9791 203.716C35.9311 203.85 35.9125 203.992 35.9246 204.133C35.9368 204.275 35.9793 204.412 36.0494 204.535C36.1324 204.659 36.249 204.756 36.3855 204.816C36.2529 204.954 35.8417 205.235 34.5706 205.436C32.716 205.73 32.325 203.808 32.3096 203.728L32.2974 203.664L32.2425 203.627C31.3595 203.059 30.8157 202.8 30.6292 202.855C30.513 202.888 30.3175 202.949 29.7889 208.183C29.5327 208.998 29.4741 209.861 29.6178 210.703C29.8897 211.956 35.3648 211.525 36.4614 211.427C36.4919 211.43 40.5922 211.723 43.4 211.723L43.4015 211.725Z" fill="#090814"/>
<path d="M11.4336 190.546L16.3662 194.621L22.1485 187.622L17.2158 183.547L11.4336 190.546Z" fill="#9F616A"/>
<path d="M17.6611 202.812C18.1805 203.24 18.651 203.61 19.0237 203.867C20.4322 204.829 22.4824 204.896 23.576 204.85C23.8162 204.84 24.0473 204.755 24.2373 204.608C24.4274 204.461 24.567 204.258 24.6371 204.028C24.6872 203.862 24.6995 203.687 24.6731 203.516C24.6467 203.344 24.5821 203.181 24.4843 203.038L21.8415 199.185L19.3667 190.771L19.211 190.832C18.457 191.123 17.7318 191.483 17.0446 191.908C16.9227 191.98 16.8179 192.078 16.7372 192.194C16.6565 192.311 16.602 192.443 16.5773 192.583C16.5614 192.732 16.5891 192.883 16.6568 193.017C16.4674 193.038 15.9725 192.992 14.8634 192.339C13.2472 191.385 14.1698 189.653 14.2128 189.58L14.2433 189.522L14.225 189.461C13.9067 188.459 13.6536 187.915 13.4735 187.838C13.3605 187.79 13.174 187.71 9.43126 191.41C8.71326 191.873 8.11703 192.502 7.69277 193.243C7.10311 194.384 11.5973 197.542 12.5048 198.162C12.5263 198.184 15.499 201.022 17.6621 202.812H17.6611Z" fill="#090814"/>
<path d="M47.7499 127.155H25.8037L30.6799 199.696H37.9943L47.7467 127.154L47.7499 127.155Z" fill="#090814"/>
<path d="M43.2796 131.151L47.7494 127.154L45.5159 167.05L20.5206 190.824L14.2871 185.676L28.8518 166.778L43.2796 131.151Z" fill="#090814"/>
<path d="M43.2798 84.4817L32.4425 82.7217L29.0756 88.6061C24.798 96.0875 23.0532 104.751 24.1015 113.305L25.8034 127.155H47.7496L43.2798 84.4817Z" fill="#1CA686"/>
<path d="M65.421 130.585C67.242 131.963 67.9722 134.044 67.0526 135.236C66.133 136.427 63.9088 136.278 62.0878 134.9C61.3512 134.36 60.761 133.645 60.3708 132.819L52.7314 126.885L55.7328 123.256L62.9464 129.492C63.8503 129.648 64.7021 130.024 65.4274 130.586H65.4213L65.421 130.585Z" fill="#9F616A"/>
<path d="M62.3817 127.744L47.8383 112.99L39.1522 96.3293C38.7345 95.5273 38.1568 94.8195 37.4548 94.2495C36.7529 93.6796 35.9415 93.2595 35.0709 93.0153C34.2003 92.7712 33.2888 92.708 32.3928 92.8299C31.4968 92.9517 30.6353 93.2559 29.8615 93.7237C29.0877 94.1914 28.4179 94.8129 27.8937 95.5496C27.3694 96.2863 27.0017 97.1227 26.8132 98.007C26.6248 98.8914 26.6196 99.805 26.7981 100.691C26.9765 101.578 27.3348 102.418 27.8507 103.161L40.3443 121.126L40.3626 121.153L59.4766 132.409L62.3791 127.74H62.3822L62.3817 127.744Z" fill="#1CA686"/>
<path d="M191.933 50.6561H190.771V18.8543C190.771 13.9727 188.832 9.29108 185.38 5.83927C181.928 2.38745 177.247 0.448242 172.365 0.448242H104.99C100.108 0.448242 95.4268 2.38745 91.975 5.83927C88.5232 9.29108 86.584 13.9727 86.584 18.8543V193.318C86.584 198.2 88.5232 202.882 91.975 206.334C95.4268 209.785 100.108 211.725 104.99 211.725H172.365C177.247 211.725 181.928 209.785 185.38 206.334C188.832 202.882 190.771 198.2 190.771 193.318V73.2902H191.933V50.6561Z" fill="#090814"/>
<path d="M173.11 5.2373H164.317C164.722 6.22902 164.876 7.30502 164.767 8.37049C164.658 9.43595 164.288 10.4582 163.69 11.3471C163.093 12.236 162.286 12.9642 161.34 13.4677C160.395 13.9712 159.34 14.2345 158.269 14.2343H119.669C118.597 14.2345 117.543 13.9712 116.597 13.4677C115.652 12.9642 114.845 12.236 114.248 11.3471C113.65 10.4582 113.28 9.43595 113.171 8.37049C113.062 7.30502 113.216 6.22902 113.621 5.2373H105.409C101.763 5.2373 98.2669 6.68549 95.6891 9.26329C93.1113 11.8411 91.6631 15.3373 91.6631 18.9829V193.192C91.6631 196.837 93.1112 200.333 95.6889 202.911C98.2666 205.489 101.763 206.937 105.408 206.937H173.108C174.913 206.937 176.701 206.582 178.368 205.891C180.036 205.2 181.551 204.187 182.828 202.911C184.104 201.635 185.117 200.119 185.808 198.452C186.498 196.784 186.854 194.997 186.854 193.192V18.9829C186.854 15.3376 185.406 11.8416 182.829 9.26386C180.251 6.68611 176.755 5.23773 173.11 5.2373Z" fill="white"/>
<path d="M154.116 87.1401H71.5247C70.7888 87.1393 70.0833 86.8466 69.5629 86.3262C69.0426 85.8059 68.7499 85.1004 68.749 84.3645V72.2688C68.7499 71.5329 69.0426 70.8274 69.5629 70.3071C70.0833 69.7867 70.7888 69.494 71.5247 69.4932H154.116C154.852 69.494 155.558 69.7867 156.078 70.3071C156.598 70.8274 156.891 71.5329 156.892 72.2688V84.3645C156.891 85.1004 156.599 85.806 156.078 86.3264C155.558 86.8468 154.852 87.1395 154.116 87.1404V87.1401Z" fill="#D6D6E3"/>
<path d="M146.092 85.2677H73.3977C72.6618 85.2669 71.9563 84.9742 71.436 84.4538C70.9156 83.9335 70.6229 83.228 70.6221 82.4921V74.1419C70.6229 73.406 70.9156 72.7005 71.436 72.1801C71.9563 71.6598 72.6618 71.3671 73.3977 71.3662H152.244C152.98 71.3671 153.686 71.6598 154.206 72.1802C154.726 72.7005 155.019 73.406 155.02 74.1419V76.3395C155.017 78.7065 154.075 80.9758 152.402 82.6495C150.728 84.3233 148.459 85.2649 146.092 85.2677Z" fill="white"/>
<path d="M121.017 77.4558H87.8216C87.6317 77.4558 87.4495 77.3804 87.3152 77.2461C87.1809 77.1117 87.1055 76.9296 87.1055 76.7396C87.1055 76.5497 87.1809 76.3675 87.3152 76.2332C87.4495 76.0989 87.6317 76.0234 87.8216 76.0234H121.017C121.207 76.0234 121.389 76.0989 121.524 76.2332C121.658 76.3675 121.733 76.5497 121.733 76.7396C121.733 76.9296 121.658 77.1117 121.524 77.2461C121.389 77.3804 121.207 77.4558 121.017 77.4558Z" fill="#1CA686"/>
<path d="M137.819 80.3826H87.8187C87.6288 80.3826 87.4466 80.3071 87.3123 80.1728C87.178 80.0385 87.1025 79.8563 87.1025 79.6664C87.1025 79.4764 87.178 79.2943 87.3123 79.16C87.4466 79.0256 87.6288 78.9502 87.8187 78.9502H137.819C138.009 78.9502 138.192 79.0256 138.326 79.16C138.46 79.2943 138.536 79.4764 138.536 79.6664C138.536 79.8563 138.46 80.0385 138.326 80.1728C138.192 80.3071 138.009 80.3826 137.819 80.3826Z" fill="#D6D6E3"/>
<path d="M154.116 112.804H71.5247C70.7888 112.803 70.0833 112.511 69.5629 111.99C69.0426 111.47 68.7499 110.764 68.749 110.029V97.9329C68.7499 97.197 69.0427 96.4915 69.563 95.9712C70.0833 95.4509 70.7888 95.1581 71.5247 95.1572H154.116C154.852 95.1581 155.558 95.4508 156.078 95.9711C156.598 96.4915 156.891 97.197 156.892 97.9329V110.029C156.891 110.764 156.598 111.47 156.078 111.99C155.558 112.511 154.852 112.803 154.116 112.804Z" fill="#D6D6E3"/>
<path d="M146.092 110.933H73.3977C72.6618 110.932 71.9563 110.639 71.436 110.119C70.9156 109.599 70.6229 108.893 70.6221 108.157V99.8069C70.6229 99.071 70.9156 98.3655 71.436 97.8452C71.9563 97.3248 72.6618 97.0321 73.3977 97.0312H152.244C152.98 97.0322 153.686 97.3249 154.206 97.8452C154.726 98.3656 155.019 99.071 155.02 99.8069V102.005C155.017 104.372 154.075 106.641 152.402 108.315C150.728 109.988 148.459 110.93 146.092 110.933Z" fill="white"/>
<path d="M121.017 103.12H87.8216C87.6317 103.12 87.4495 103.044 87.3152 102.91C87.1809 102.776 87.1055 102.594 87.1055 102.404C87.1055 102.214 87.1809 102.032 87.3152 101.897C87.4495 101.763 87.6317 101.688 87.8216 101.688H121.017C121.207 101.688 121.389 101.763 121.524 101.897C121.658 102.032 121.733 102.214 121.733 102.404C121.733 102.594 121.658 102.776 121.524 102.91C121.389 103.044 121.207 103.12 121.017 103.12Z" fill="#1CA686"/>
<path d="M137.819 106.047H87.8187C87.7247 106.047 87.6315 106.028 87.5447 105.992C87.4578 105.956 87.3788 105.903 87.3123 105.837C87.2458 105.77 87.193 105.691 87.1571 105.605C87.1211 105.518 87.1025 105.424 87.1025 105.33C87.1025 105.236 87.1211 105.143 87.1571 105.056C87.193 104.969 87.2458 104.891 87.3123 104.824C87.3788 104.758 87.4578 104.705 87.5447 104.669C87.6315 104.633 87.7247 104.614 87.8187 104.614H137.819C137.914 104.614 138.007 104.633 138.094 104.669C138.18 104.705 138.259 104.758 138.326 104.824C138.392 104.891 138.445 104.969 138.481 105.056C138.517 105.143 138.536 105.236 138.536 105.33C138.536 105.424 138.517 105.518 138.481 105.605C138.445 105.691 138.392 105.77 138.326 105.837C138.259 105.903 138.18 105.956 138.094 105.992C138.007 106.028 137.914 106.047 137.819 106.047Z" fill="#D6D6E3"/>
<path d="M154.116 138.469H71.5247C70.7888 138.468 70.0833 138.176 69.5629 137.655C69.0426 137.135 68.7499 136.429 68.749 135.694V123.598C68.7499 122.862 69.0426 122.157 69.5629 121.636C70.0833 121.116 70.7888 120.823 71.5247 120.822H154.116C154.852 120.823 155.558 121.116 156.078 121.636C156.598 122.157 156.891 122.862 156.892 123.598V135.694C156.891 136.429 156.598 137.135 156.078 137.655C155.558 138.176 154.852 138.468 154.116 138.469Z" fill="#D6D6E3"/>
<path d="M146.092 136.597H73.3977C72.6618 136.596 71.9563 136.303 71.436 135.783C70.9156 135.263 70.6229 134.557 70.6221 133.821V125.471C70.623 124.735 70.9157 124.03 71.436 123.509C71.9564 122.989 72.6618 122.696 73.3977 122.695H152.244C152.98 122.696 153.686 122.989 154.206 123.509C154.726 124.03 155.019 124.735 155.02 125.471V127.669C155.017 130.036 154.075 132.305 152.402 133.979C150.728 135.652 148.459 136.594 146.092 136.597Z" fill="white"/>
<path d="M121.017 128.785H87.8216C87.7276 128.785 87.6345 128.766 87.5476 128.73C87.4607 128.694 87.3817 128.642 87.3152 128.575C87.2487 128.509 87.196 128.43 87.16 128.343C87.124 128.256 87.1055 128.163 87.1055 128.069C87.1055 127.975 87.124 127.882 87.16 127.795C87.196 127.708 87.2487 127.629 87.3152 127.562C87.3817 127.496 87.4607 127.443 87.5476 127.407C87.6345 127.371 87.7276 127.353 87.8216 127.353H121.017C121.111 127.353 121.204 127.371 121.291 127.407C121.378 127.443 121.457 127.496 121.524 127.562C121.59 127.629 121.643 127.708 121.679 127.795C121.715 127.882 121.733 127.975 121.733 128.069C121.733 128.163 121.715 128.256 121.679 128.343C121.643 128.43 121.59 128.509 121.524 128.575C121.457 128.642 121.378 128.694 121.291 128.73C121.204 128.766 121.111 128.785 121.017 128.785Z" fill="#1CA686"/>
<path d="M137.819 131.712H87.8187C87.6288 131.712 87.4466 131.636 87.3123 131.502C87.178 131.368 87.1025 131.185 87.1025 130.995C87.1025 130.806 87.178 130.623 87.3123 130.489C87.4466 130.355 87.6288 130.279 87.8187 130.279H137.819C138.009 130.279 138.192 130.355 138.326 130.489C138.46 130.623 138.536 130.806 138.536 130.995C138.536 131.185 138.46 131.368 138.326 131.502C138.192 131.636 138.009 131.712 137.819 131.712Z" fill="#D6D6E3"/>
<path d="M150.229 47.9303H128.289C128.02 47.9303 127.757 47.841 127.543 47.6763C127.33 47.5115 127.176 47.2806 127.108 47.0196C127.039 46.7586 127.059 46.4822 127.163 46.2335C127.268 45.9848 127.452 45.7779 127.687 45.6449C128.644 45.1032 129.161 44.117 129.363 42.4478L129.817 38.3464C129.909 36.5177 130.467 34.7427 131.437 33.1899C132.407 31.6371 133.758 30.3578 135.361 29.4733C135.701 27.4661 137.289 25.4414 139.27 25.4414C141.376 25.4414 142.817 27.6123 143.149 29.4688C144.764 30.3621 146.122 31.6543 147.095 33.222C148.068 34.7897 148.623 36.5806 148.707 38.4238L149.158 42.4597C149.359 44.1175 149.874 45.1035 150.831 45.6449C151.066 45.7779 151.25 45.9848 151.355 46.2335C151.46 46.4822 151.479 46.7586 151.41 47.0196C151.342 47.2806 151.189 47.5115 150.975 47.6763C150.761 47.841 150.499 47.9303 150.229 47.9303ZM131.029 45.486H147.489C147.083 44.6205 146.827 43.6925 146.73 42.7414L146.272 38.6159C146.212 37.0839 145.733 35.5977 144.888 34.3184C144.043 33.0391 142.865 32.0154 141.479 31.3585C141.27 31.2595 141.093 31.1031 140.969 30.9076C140.845 30.712 140.78 30.4852 140.78 30.2537C140.78 29.2362 139.92 27.8868 139.271 27.8868C138.617 27.8868 137.751 29.2176 137.739 30.2327C137.743 30.4721 137.677 30.7074 137.548 30.9094C137.42 31.1114 137.235 31.2713 137.016 31.3693C135.647 32.02 134.48 33.0309 133.641 34.2938C132.802 35.5567 132.322 37.024 132.253 38.5387L131.791 42.7297C131.694 43.6849 131.436 44.6167 131.029 45.486Z" fill="black"/>
<path d="M139.259 53.4145C137.845 53.4129 136.489 52.8502 135.488 51.85C134.488 50.8497 133.925 49.4935 133.924 48.0789V46.7075C133.924 46.3834 134.053 46.0725 134.282 45.8433C134.511 45.6141 134.822 45.4854 135.146 45.4854C135.47 45.4854 135.781 45.6141 136.01 45.8433C136.239 46.0725 136.368 46.3834 136.368 46.7075V48.0786C136.368 48.4583 136.443 48.8343 136.588 49.1851C136.734 49.5359 136.947 49.8546 137.215 50.1231C137.483 50.3916 137.802 50.6045 138.153 50.7498C138.504 50.8951 138.88 50.9699 139.259 50.9699C139.639 50.9699 140.015 50.8951 140.366 50.7498C140.717 50.6045 141.035 50.3916 141.304 50.1231C141.572 49.8546 141.785 49.5359 141.931 49.1851C142.076 48.8343 142.151 48.4583 142.151 48.0786V46.7075C142.151 46.3834 142.28 46.0725 142.509 45.8433C142.738 45.6141 143.049 45.4854 143.373 45.4854C143.697 45.4854 144.008 45.6141 144.237 45.8433C144.466 46.0725 144.595 46.3834 144.595 46.7075V48.0786C144.594 49.4933 144.031 50.8495 143.031 51.8499C142.03 52.8502 140.674 53.4129 139.259 53.4145Z" fill="black"/>
<path d="M127.759 184.347C127.807 185.028 128.007 185.689 128.345 186.281C129.101 187.515 130.245 188.464 131.598 188.978C133.243 189.652 135.077 189.672 136.823 189.522C138.445 189.383 140.05 189.06 141.678 188.992C142.936 188.951 144.197 188.981 145.452 189.082C147.888 189.255 150.313 189.575 152.723 189.964C153.376 190.068 154.027 190.18 154.677 190.299C154.738 190.305 154.799 190.316 154.858 190.333C154.87 190.338 154.889 190.333 154.9 190.341C154.92 190.354 154.821 190.31 154.881 190.359C154.964 190.447 155.039 190.543 155.103 190.646L155.993 191.791C156.227 192.152 156.503 192.483 156.816 192.778C157.048 192.957 157.329 193.064 157.622 193.085C157.915 193.105 158.208 193.038 158.463 192.893C158.73 192.724 158.942 192.482 159.076 192.197C159.281 191.821 159.525 191.468 159.804 191.145C160.863 189.91 162.335 189.15 163.566 188.11C164.162 187.627 164.671 187.046 165.07 186.391C165.411 185.798 165.622 185.14 165.692 184.46C165.8 183.066 165.452 181.674 164.702 180.494C163.927 179.231 162.813 178.211 161.487 177.55C159.982 176.828 158.359 176.383 156.696 176.237C154.937 176.071 153.17 176.013 151.404 176.062C149.426 176.084 147.451 176.171 145.48 176.323C143.506 176.476 141.54 176.693 139.581 176.974C137.69 177.213 135.814 177.557 133.961 178.004C132.336 178.426 130.715 179.087 129.502 180.283C128.422 181.349 127.671 182.804 127.759 184.347Z" fill="#D6D6E3"/>
<path d="M136.344 178.795C134.59 179.119 132.754 179.515 131.282 180.475C129.826 181.424 128.941 182.916 129.027 184.277C129.153 186.264 131.266 187.75 133.19 188.139C135.033 188.512 136.953 188.26 138.985 187.992C139.436 187.933 139.9 187.872 140.36 187.819C145.364 187.24 154.758 189.022 155.155 189.098L155.569 189.177L157.755 191.991C158.287 190.885 159.067 189.917 160.036 189.163C160.457 188.827 160.896 188.515 161.321 188.213C162.404 187.443 163.426 186.715 163.991 185.715C165.221 183.539 163.768 180.504 161.695 179.142C159.361 177.607 156.282 177.366 153.304 177.334C152.994 177.331 152.683 177.329 152.373 177.329C147 177.33 141.639 177.82 136.356 178.793L136.344 178.795Z" fill="white"/>
<path d="M134.944 181.2C134.944 181.14 134.956 181.08 134.979 181.024C135.002 180.969 135.036 180.918 135.079 180.875C135.121 180.832 135.172 180.799 135.227 180.775C135.283 180.752 135.343 180.74 135.403 180.74H156.521C156.643 180.74 156.76 180.789 156.846 180.875C156.932 180.961 156.981 181.078 156.981 181.2C156.981 181.322 156.932 181.438 156.846 181.525C156.76 181.611 156.643 181.659 156.521 181.659H135.403C135.282 181.659 135.165 181.611 135.079 181.525C134.993 181.438 134.944 181.322 134.944 181.2Z" fill="#D6D6E3"/>
<path d="M134.944 184.021C134.944 183.96 134.956 183.9 134.979 183.845C135.002 183.789 135.036 183.738 135.079 183.695C135.121 183.653 135.172 183.619 135.227 183.596C135.283 183.573 135.343 183.561 135.403 183.561H156.522C156.644 183.561 156.761 183.609 156.847 183.695C156.933 183.781 156.982 183.898 156.982 184.02C156.982 184.142 156.933 184.259 156.847 184.345C156.761 184.431 156.644 184.479 156.522 184.479H135.403C135.282 184.479 135.165 184.431 135.079 184.345C134.993 184.259 134.944 184.142 134.944 184.021Z" fill="#D6D6E3"/>
<path d="M153.601 186.841C153.601 186.78 153.612 186.721 153.635 186.665C153.658 186.609 153.692 186.559 153.735 186.516C153.777 186.473 153.828 186.439 153.884 186.416C153.939 186.393 153.999 186.381 154.059 186.381H156.521C156.642 186.381 156.759 186.429 156.845 186.515C156.932 186.602 156.98 186.718 156.98 186.84C156.98 186.962 156.932 187.079 156.845 187.165C156.759 187.251 156.642 187.3 156.521 187.3H154.059C153.938 187.3 153.821 187.251 153.735 187.165C153.649 187.079 153.601 186.962 153.601 186.841Z" fill="#D6D6E3"/>
<path d="M119.054 186.158C119.043 186.158 119.031 186.158 119.019 186.158C118.87 186.142 118.729 186.085 118.609 185.995C118.49 185.904 118.397 185.783 118.341 185.644C117.817 184.585 117.141 183.608 116.334 182.745C115.863 182.243 115.371 181.776 114.895 181.324C113.667 180.16 112.51 179.063 111.868 177.548C110.469 174.244 112.117 169.643 114.472 167.578C117.113 165.264 120.587 164.901 123.947 164.853C124.296 164.848 124.646 164.846 124.995 164.846C131.079 164.852 137.141 165.592 143.048 167.047C145.028 167.535 147.101 168.131 148.767 169.58C150.422 171.02 151.429 173.287 151.331 175.356C151.187 178.377 148.786 180.635 146.599 181.224C144.515 181.787 142.349 181.407 140.057 181.004C139.551 180.916 139.028 180.824 138.51 180.744C132.887 179.877 122.323 182.548 121.876 182.663L121.433 182.776L119.712 185.729C119.651 185.853 119.557 185.958 119.442 186.034C119.326 186.11 119.192 186.153 119.054 186.16L119.054 186.158Z" fill="#1CA686"/>
<path d="M144.095 172.49H120.327C120.19 172.49 120.058 172.435 119.961 172.338C119.864 172.241 119.81 172.11 119.81 171.972C119.81 171.835 119.864 171.704 119.961 171.607C120.058 171.51 120.19 171.455 120.327 171.455H144.095C144.233 171.455 144.364 171.51 144.461 171.607C144.558 171.704 144.613 171.835 144.613 171.972C144.613 172.11 144.558 172.241 144.461 172.338C144.364 172.435 144.233 172.49 144.095 172.49Z" fill="white"/>
<path d="M144.096 175.664H120.328C120.191 175.664 120.059 175.61 119.962 175.513C119.865 175.416 119.811 175.284 119.811 175.147C119.811 175.01 119.865 174.878 119.962 174.781C120.059 174.684 120.191 174.63 120.328 174.63H144.097C144.235 174.63 144.366 174.684 144.463 174.781C144.56 174.878 144.615 175.01 144.615 175.147C144.615 175.284 144.56 175.416 144.463 175.513C144.366 175.61 144.235 175.664 144.097 175.664H144.096Z" fill="white"/>
<path d="M123.097 178.838H120.327C120.19 178.838 120.058 178.784 119.961 178.687C119.864 178.59 119.81 178.458 119.81 178.321C119.81 178.184 119.864 178.052 119.961 177.955C120.058 177.858 120.19 177.804 120.327 177.804H123.097C123.165 177.804 123.232 177.817 123.295 177.843C123.358 177.869 123.415 177.907 123.463 177.955C123.511 178.003 123.549 178.06 123.575 178.123C123.601 178.186 123.614 178.253 123.614 178.321C123.614 178.389 123.601 178.456 123.575 178.519C123.549 178.582 123.511 178.639 123.463 178.687C123.415 178.735 123.358 178.773 123.295 178.799C123.232 178.825 123.165 178.838 123.097 178.838Z" fill="white"/>
<path d="M0.000692986 212.206C-0.00943715 212.322 0.0268203 212.438 0.101602 212.528C0.176384 212.618 0.283662 212.675 0.400168 212.687H199.601C199.714 212.666 199.815 212.607 199.888 212.519C199.961 212.431 200.001 212.32 200.001 212.206C200.001 212.091 199.961 211.981 199.888 211.893C199.815 211.805 199.714 211.745 199.601 211.725H0.400168C0.283662 211.736 0.176384 211.793 0.101602 211.883C0.0268203 211.973 -0.00943715 212.089 0.000692986 212.206Z" fill="#F2F2F2"/>
</g>
<defs>
<clipPath id="clip0_355_21127">
<rect width="200" height="212.24" fill="white" transform="translate(0 0.448242)"/>
</clipPath>
</defs>
</svg>
