<svg width="200" height="173" viewBox="0 0 200 173" fill="none" xmlns="http://www.w3.org/2000/svg">
<g clip-path="url(#clip0_366_17014)">
<path d="M153.671 120.239C153.252 120.238 152.849 120.078 152.543 119.791C152.238 119.505 152.052 119.113 152.025 118.694L151.78 114.951C151.751 114.513 151.897 114.082 152.186 113.753C152.475 113.424 152.883 113.222 153.321 113.194L182.652 111.273C183.114 111.242 183.578 111.303 184.017 111.452C184.456 111.601 184.862 111.834 185.211 112.14C185.559 112.445 185.844 112.817 186.049 113.232C186.254 113.648 186.376 114.1 186.406 114.563C186.436 115.025 186.375 115.489 186.226 115.928C186.077 116.367 185.843 116.773 185.537 117.121C185.231 117.469 184.859 117.754 184.444 117.959C184.028 118.164 183.575 118.284 183.113 118.314L153.782 120.235C153.745 120.237 153.708 120.239 153.671 120.239Z" fill="#1CA686"/>
<path d="M159.455 120.721C159.028 120.721 158.618 120.555 158.31 120.258C158.002 119.962 157.821 119.558 157.805 119.131L157.596 113.539C157.588 113.322 157.622 113.106 157.698 112.902C157.773 112.699 157.888 112.512 158.036 112.353C158.183 112.194 158.361 112.066 158.558 111.975C158.755 111.885 158.969 111.834 159.185 111.826L183.305 110.925C183.743 110.908 184.169 111.067 184.491 111.365C184.812 111.663 185.002 112.076 185.018 112.514L185.227 118.106C185.235 118.323 185.2 118.539 185.125 118.743C185.049 118.946 184.935 119.133 184.787 119.292C184.639 119.451 184.462 119.579 184.265 119.67C184.067 119.76 183.854 119.811 183.637 119.819L159.518 120.72C159.497 120.721 159.476 120.721 159.455 120.721Z" fill="#09342A"/>
<path d="M187.721 172.268H183.969C183.531 172.267 183.111 172.093 182.801 171.783C182.491 171.473 182.317 171.053 182.316 170.615V139.346C182.317 138.908 182.491 138.488 182.801 138.178C183.111 137.868 183.531 137.694 183.969 137.693H187.721C188.159 137.694 188.579 137.868 188.888 138.178C189.198 138.488 189.372 138.908 189.373 139.346V170.615C189.372 171.053 189.198 171.473 188.888 171.783C188.579 172.093 188.159 172.267 187.721 172.268Z" fill="#09342A"/>
<path d="M178.758 172.268H175.006C174.568 172.267 174.148 172.093 173.838 171.783C173.528 171.473 173.354 171.053 173.354 170.615V139.346C173.354 138.908 173.528 138.488 173.838 138.178C174.148 137.868 174.568 137.694 175.006 137.693H178.758C179.196 137.694 179.616 137.868 179.925 138.178C180.235 138.488 180.409 138.908 180.41 139.346V170.615C180.409 171.053 180.235 171.473 179.925 171.783C179.616 172.093 179.196 172.267 178.758 172.268Z" fill="#09342A"/>
<path d="M182.022 105.06C189.181 105.06 194.986 99.2557 194.986 92.0959C194.986 84.936 189.181 79.1318 182.022 79.1318C174.862 79.1318 169.058 84.936 169.058 92.0959C169.058 99.2557 174.862 105.06 182.022 105.06Z" fill="#1CA686"/>
<path d="M175.005 96.5222C174.588 96.3852 174.205 96.1605 173.882 95.8632C173.668 95.6509 173.503 95.3944 173.398 95.1116C173.294 94.8289 173.253 94.5268 173.277 94.2264C173.291 94.0124 173.354 93.8044 173.461 93.6187C173.568 93.433 173.717 93.2746 173.896 93.1559C174.359 92.8586 174.979 92.8577 175.611 93.1359L175.587 88.0749L176.095 88.0725L176.123 94.0222L175.732 93.7758C175.277 93.4906 174.629 93.2898 174.17 93.5839C174.057 93.6616 173.963 93.7644 173.896 93.8842C173.829 94.0041 173.791 94.1378 173.784 94.275C173.766 94.4988 173.798 94.7236 173.875 94.9342C173.953 95.1448 174.075 95.3362 174.233 95.4954C174.794 96.0316 175.613 96.1993 176.547 96.3492L176.467 96.8511C175.97 96.7854 175.481 96.6753 175.005 96.5222Z" fill="#09342A"/>
<path d="M170.346 87.8198L170.279 88.3237L172.994 88.6822L173.06 88.1783L170.346 87.8198Z" fill="#09342A"/>
<path d="M178.914 88.9506L178.848 89.4546L181.562 89.8131L181.629 89.3091L178.914 88.9506Z" fill="#09342A"/>
<path d="M190.475 147.735H170.986C170.503 147.735 170.034 147.573 169.654 147.275C169.274 146.978 169.005 146.562 168.888 146.093C168.83 145.836 168.82 145.571 168.86 145.31C168.86 145.31 172.666 123.932 174.55 113.665C174.824 112.168 175.615 110.815 176.784 109.841C177.953 108.868 179.426 108.334 180.948 108.335C184.677 108.335 188.253 109.816 190.889 112.453C193.526 115.089 195.007 118.665 195.007 122.394V143.203C195.007 143.798 194.89 144.387 194.662 144.937C194.435 145.487 194.101 145.987 193.68 146.408C193.259 146.829 192.759 147.162 192.21 147.39C191.66 147.618 191.07 147.735 190.475 147.735Z" fill="#09342A"/>
<path d="M186.717 144.91C186.575 145.196 186.353 145.434 186.078 145.596C185.804 145.758 185.488 145.838 185.169 145.824L181.421 145.667C181.204 145.657 180.991 145.606 180.794 145.514C180.597 145.423 180.42 145.294 180.274 145.134C180.127 144.974 180.013 144.787 179.938 144.583C179.864 144.379 179.83 144.163 179.839 143.946L181.076 114.578C181.096 114.115 181.206 113.661 181.402 113.241C181.597 112.82 181.873 112.443 182.214 112.129C182.555 111.816 182.955 111.572 183.39 111.413C183.825 111.254 184.287 111.182 184.75 111.202C185.213 111.221 185.667 111.332 186.088 111.527C186.508 111.722 186.885 111.998 187.199 112.339C187.512 112.68 187.756 113.08 187.915 113.515C188.074 113.95 188.146 114.412 188.126 114.875L186.889 144.243C186.88 144.475 186.821 144.703 186.717 144.91Z" fill="#1CA686"/>
<path d="M188.635 137.124C188.493 137.409 188.271 137.647 187.996 137.809C187.721 137.971 187.406 138.051 187.087 138.038L180.684 137.768C180.247 137.749 179.834 137.557 179.538 137.235C179.241 136.912 179.085 136.485 179.103 136.048L180.119 111.932C180.128 111.716 180.18 111.503 180.271 111.306C180.362 111.109 180.492 110.932 180.651 110.785C180.811 110.639 180.998 110.525 181.202 110.45C181.406 110.376 181.622 110.342 181.839 110.351L188.242 110.621C188.459 110.63 188.671 110.682 188.868 110.773C189.065 110.864 189.242 110.994 189.389 111.153C189.536 111.313 189.649 111.5 189.724 111.704C189.798 111.908 189.832 112.124 189.823 112.341L188.807 136.456C188.798 136.688 188.739 136.916 188.635 137.124Z" fill="#09342A"/>
<path d="M181.301 83.675C178.504 84.7778 174.279 85.95 172.435 82.6761C172.076 82.0069 171.863 81.2688 171.81 80.5109C171.758 79.7529 171.868 78.9925 172.132 78.2803C172.689 76.7357 173.873 75.4632 175.223 74.564C177.752 72.8796 180.951 72.4211 183.895 73.0721C185.376 73.3944 186.781 73.9982 188.034 74.8506C189.458 75.8271 190.461 77.1452 191.469 78.5247C192.5 79.935 193.667 81.3574 195.36 81.9753C196.745 82.4805 198.481 82.2226 199.461 81.0471C199.69 80.7726 199.865 80.4578 199.979 80.119C200.126 79.6869 199.442 79.5015 199.296 79.9309C198.781 81.4437 196.886 81.7827 195.549 81.293C193.782 80.6465 192.666 78.967 191.607 77.5171C190.595 76.1309 189.475 74.9106 188.012 73.9911C186.697 73.1707 185.241 72.6022 183.718 72.3148C180.653 71.7317 177.351 72.2485 174.753 74.0294C173.321 74.967 172.2 76.3078 171.529 77.8824C170.934 79.3724 170.949 81.0366 171.571 82.5154C171.884 83.2524 172.372 83.9019 172.992 84.4076C173.613 84.9133 174.347 85.2598 175.132 85.4172C176.845 85.7643 178.625 85.3649 180.251 84.8145C180.668 84.6734 181.08 84.5187 181.489 84.3573C181.908 84.1922 181.725 83.5077 181.301 83.675Z" fill="#09342A"/>
<path d="M11.3498 0.732666H100.104C103.114 0.736054 105.999 1.93298 108.127 4.06084C110.254 6.1887 111.451 9.07372 111.455 12.083V60.6387C111.451 63.648 110.254 66.533 108.127 68.6609C105.999 70.7887 103.114 71.9856 100.104 71.989H11.3498C8.34054 71.9856 5.45552 70.7887 3.32766 68.6609C1.19981 66.533 0.00289324 63.648 -0.000488281 60.6387V12.083C0.00289261 9.07372 1.19981 6.1887 3.32766 4.06084C5.45552 1.93298 8.34054 0.736054 11.3498 0.732666Z" fill="#DFE2E1"/>
<path d="M11.3498 4.00024H100.104C102.247 4.00265 104.302 4.855 105.817 6.37029C107.333 7.88559 108.185 9.94008 108.187 12.083V60.6388C108.185 62.7818 107.333 64.8362 105.817 66.3515C104.302 67.8668 102.247 68.7192 100.104 68.7216H11.3498C9.20685 68.7192 7.15238 67.8668 5.6371 66.3515C4.12183 64.8362 3.26949 62.7817 3.26709 60.6388V12.083C3.26949 9.9401 4.12182 7.88562 5.6371 6.37032C7.15238 4.85503 9.20685 4.00267 11.3498 4.00024Z" fill="#FBFEFD"/>
<path d="M12.2158 89.3736C11.948 89.3728 11.6829 89.3192 11.4359 89.2158C11.0671 89.0676 10.7517 88.8115 10.5309 88.4811C10.3101 88.1506 10.1942 87.7612 10.1984 87.3638V70.5784L32.5764 69.8254L13.6206 88.7813C13.4373 88.9681 13.2187 89.1166 12.9776 89.2183C12.7364 89.32 12.4775 89.3727 12.2158 89.3736Z" fill="#DFE2E1"/>
<path d="M88.9888 16.0779H22.2498C19.5777 16.0779 17.4116 18.244 17.4116 20.916V20.9161C17.4116 23.5881 19.5777 25.7542 22.2498 25.7542H88.9888C91.6608 25.7542 93.827 23.5881 93.827 20.916C93.827 18.244 91.6608 16.0779 88.9888 16.0779Z" fill="#DFE2E1"/>
<path d="M89.0967 31.5227H22.3577C19.6856 31.5227 17.5195 33.6888 17.5195 36.3609V36.3609C17.5195 39.0329 19.6856 41.199 22.3577 41.199H89.0967C91.7687 41.199 93.9349 39.0329 93.9349 36.3609C93.9349 33.6888 91.7687 31.5227 89.0967 31.5227Z" fill="#DFE2E1"/>
<path d="M89.2051 46.9675H22.4661C19.794 46.9675 17.6279 49.1336 17.6279 51.8057V51.8057C17.6279 54.4777 19.794 56.6439 22.4661 56.6439H89.2051C91.8771 56.6439 94.0433 54.4777 94.0433 51.8057C94.0433 49.1336 91.8771 46.9675 89.2051 46.9675Z" fill="#DFE2E1"/>
<path d="M151.5 25.4968H62.7458C59.7365 25.5002 56.8515 26.6971 54.7237 28.825C52.5958 30.9529 51.3989 33.8379 51.3955 36.8471V85.4029C51.3989 88.4121 52.5958 91.2971 54.7237 93.425C56.8515 95.5529 59.7365 96.7498 62.7458 96.7532H151.5C154.51 96.7498 157.395 95.5529 159.522 93.425C161.65 91.2971 162.847 88.4121 162.851 85.4029V36.8471C162.847 33.8379 161.65 30.9529 159.522 28.825C157.395 26.6971 154.51 25.5002 151.5 25.4968Z" fill="#DFE2E1"/>
<path d="M151.5 28.7644H62.7454C60.6025 28.7668 58.548 29.6192 57.0327 31.1345C55.5174 32.6497 54.665 34.7042 54.6626 36.8472V85.403C54.665 87.5459 55.5174 89.6004 57.0327 91.1157C58.548 92.631 60.6025 93.4833 62.7454 93.4857H151.5C153.643 93.4833 155.698 92.631 157.213 91.1157C158.728 89.6004 159.58 87.5459 159.583 85.403V36.8472C159.58 34.7043 158.728 32.6498 157.213 31.1345C155.698 29.6192 153.643 28.7668 151.5 28.7644Z" fill="#FBFEFD"/>
<path d="M144.749 113.546L125.793 94.5898L148.171 95.3428V112.128C148.175 112.526 148.059 112.915 147.838 113.245C147.618 113.576 147.302 113.832 146.933 113.98C146.686 114.084 146.421 114.137 146.154 114.138C145.892 114.137 145.633 114.084 145.392 113.983C145.151 113.881 144.932 113.732 144.749 113.546Z" fill="#DFE2E1"/>
<path d="M87.5471 67.2571C90.9338 67.2571 93.6792 64.5117 93.6792 61.125C93.6792 57.7384 90.9338 54.9929 87.5471 54.9929C84.1605 54.9929 81.415 57.7384 81.415 61.125C81.415 64.5117 84.1605 67.2571 87.5471 67.2571Z" fill="#1CA686"/>
<path d="M107.123 67.2571C110.509 67.2571 113.255 64.5117 113.255 61.125C113.255 57.7384 110.509 54.9929 107.123 54.9929C103.736 54.9929 100.991 57.7384 100.991 61.125C100.991 64.5117 103.736 67.2571 107.123 67.2571Z" fill="#1CA686"/>
<path d="M126.698 67.2571C130.085 67.2571 132.831 64.5117 132.831 61.125C132.831 57.7384 130.085 54.9929 126.698 54.9929C123.312 54.9929 120.566 57.7384 120.566 61.125C120.566 64.5117 123.312 67.2571 126.698 67.2571Z" fill="#1CA686"/>
</g>
<defs>
<clipPath id="clip0_366_17014">
<rect width="200" height="171.535" fill="white" transform="translate(0 0.732666)"/>
</clipPath>
</defs>
</svg>
