<svg width="200" height="196" viewBox="0 0 200 196" fill="none" xmlns="http://www.w3.org/2000/svg">
<g clip-path="url(#clip0_356_14673)">
<path d="M126.967 43.9055H73.0761C71.848 43.907 70.6706 44.3955 69.8022 45.2639C68.9339 46.1323 68.4453 47.3096 68.4438 48.5377V168.312L67.8262 168.5L54.6058 172.549C53.9793 172.74 53.3025 172.674 52.7241 172.367C52.1457 172.06 51.713 171.535 51.5208 170.909L12.1962 42.4572C12.0048 41.8306 12.07 41.1537 12.3775 40.5752C12.685 39.9967 13.2096 39.564 13.836 39.3721L34.2086 33.134L93.2696 15.056L113.642 8.81789C113.952 8.72247 114.278 8.68913 114.601 8.71977C114.924 8.75041 115.237 8.84444 115.524 8.99646C115.811 9.14848 116.064 9.35552 116.271 9.60573C116.477 9.85594 116.632 10.1444 116.727 10.4546L126.779 43.2879L126.967 43.9055Z" fill="#D1D6D5"/>
<path d="M138.728 43.2878L126.613 3.71616C126.411 3.05682 126.082 2.44366 125.643 1.91172C125.204 1.37978 124.665 0.939482 124.056 0.615985C123.448 0.292488 122.781 0.0921297 122.095 0.0263678C121.408 -0.039394 120.716 0.0307289 120.057 0.232722L91.414 8.99999L32.3562 27.0811L3.71362 35.8515C2.38304 36.2601 1.26892 37.1799 0.615817 38.409C-0.0372842 39.6382 -0.176012 41.0763 0.23009 42.4076L41.6361 177.647C41.966 178.722 42.6316 179.662 43.5354 180.331C44.4391 181 45.5333 181.361 46.6575 181.362C47.1778 181.362 47.6952 181.284 48.1922 181.131L67.8267 175.121L68.4444 174.93V174.284L67.8267 174.473L48.0101 180.541C46.8356 180.899 45.567 180.776 44.4827 180.2C43.3984 179.624 42.5868 178.642 42.226 177.468L0.823142 42.2254C0.644366 41.6439 0.582058 41.0328 0.639783 40.4272C0.697509 39.8216 0.874129 39.2332 1.15954 38.696C1.44496 38.1587 1.83356 37.683 2.30308 37.2961C2.7726 36.9092 3.31382 36.6187 3.89576 36.4413L32.5384 27.671L91.5963 9.59292L120.239 0.822565C120.68 0.68786 121.139 0.619176 121.601 0.618746C122.591 0.62097 123.555 0.940271 124.351 1.52988C125.146 2.11949 125.732 2.94843 126.023 3.89528L138.082 43.2878L138.274 43.9054H138.916L138.728 43.2878Z" fill="#3F3D56"/>
<path d="M37.8853 39.4731C37.2901 39.4727 36.7106 39.2815 36.232 38.9277C35.7534 38.5738 35.4008 38.0759 35.226 37.507L31.2483 24.5146C31.1414 24.1656 31.1043 23.7989 31.1391 23.4356C31.174 23.0723 31.28 22.7194 31.4513 22.397C31.6225 22.0747 31.8556 21.7892 32.1371 21.557C32.4187 21.3247 32.7433 21.1502 33.0923 21.0434L87.425 4.40946C88.1298 4.19438 88.8912 4.26774 89.542 4.61342C90.1928 4.95911 90.6798 5.54889 90.8963 6.25331L94.8739 19.2459C95.0889 19.9507 95.0154 20.712 94.6698 21.3628C94.3241 22.0136 93.7344 22.5006 93.0301 22.7172L38.6973 39.3511C38.4342 39.4319 38.1605 39.473 37.8853 39.4731Z" fill="#1CA686"/>
<path d="M58.7217 13.8826C62.1328 13.8826 64.898 11.1174 64.898 7.70634C64.898 4.29526 62.1328 1.53003 58.7217 1.53003C55.3106 1.53003 52.5454 4.29526 52.5454 7.70634C52.5454 11.1174 55.3106 13.8826 58.7217 13.8826Z" fill="#1CA686"/>
<path d="M58.7221 11.6175C60.8821 11.6175 62.6331 9.86644 62.6331 7.70644C62.6331 5.54644 60.8821 3.79541 58.7221 3.79541C56.5621 3.79541 54.811 5.54644 54.811 7.70644C54.811 9.86644 56.5621 11.6175 58.7221 11.6175Z" fill="white"/>
<path d="M186.104 179.784H81.7241C81.0281 179.783 80.3609 179.507 79.8688 179.014C79.3767 178.522 79.0999 177.855 79.0991 177.159V52.089C79.0999 51.3931 79.3767 50.7259 79.8688 50.2338C80.3609 49.7417 81.0281 49.4649 81.7241 49.4641H186.104C186.8 49.4649 187.467 49.7417 187.959 50.2338C188.451 50.7259 188.728 51.3931 188.729 52.089V177.159C188.728 177.855 188.451 178.522 187.959 179.014C187.467 179.507 186.8 179.783 186.104 179.784Z" fill="#D1D6D5"/>
<path d="M138.082 43.2878H73.0765C71.6848 43.2898 70.3506 43.8436 69.3665 44.8277C68.3824 45.8118 67.8286 47.146 67.8267 48.5377V174.473L68.4443 174.284V48.5377C68.4458 47.3096 68.9343 46.1323 69.8027 45.2639C70.6711 44.3955 71.8484 43.907 73.0765 43.9055H138.274L138.082 43.2878ZM194.75 43.2878H73.0765C71.6848 43.2898 70.3506 43.8436 69.3665 44.8277C68.3824 45.8118 67.8286 47.146 67.8267 48.5377V189.975C67.8286 191.367 68.3824 192.701 69.3665 193.685C70.3506 194.669 71.6848 195.223 73.0765 195.225H194.75C196.142 195.223 197.476 194.669 198.46 193.685C199.444 192.701 199.998 191.367 200 189.975V48.5377C199.998 47.146 199.444 45.8118 198.46 44.8277C197.476 43.8436 196.142 43.2898 194.75 43.2878ZM199.382 189.975C199.38 191.203 198.892 192.381 198.024 193.249C197.155 194.117 195.978 194.606 194.75 194.607H73.0765C71.8484 194.606 70.6711 194.117 69.8027 193.249C68.9343 192.381 68.4458 191.203 68.4443 189.975V48.5377C68.4458 47.3096 68.9343 46.1323 69.8027 45.2639C70.6711 44.3955 71.8484 43.907 73.0765 43.9055H194.75C195.978 43.907 197.155 44.3955 198.024 45.2639C198.892 46.1323 199.38 47.3096 199.382 48.5377V189.975Z" fill="#3F3D56"/>
<path d="M162.324 56.8758H105.502C104.765 56.875 104.059 56.5819 103.538 56.0608C103.017 55.5398 102.723 54.8333 102.723 54.0965V40.5086C102.723 39.7717 103.017 39.0653 103.538 38.5442C104.059 38.0232 104.765 37.7301 105.502 37.7292H162.324C163.061 37.7301 163.767 38.0232 164.288 38.5442C164.809 39.0653 165.103 39.7717 165.103 40.5086V54.0965C165.103 54.8333 164.809 55.5398 164.288 56.0608C163.767 56.5819 163.061 56.875 162.324 56.8758Z" fill="#1CA686"/>
<path d="M133.913 38.6556C137.324 38.6556 140.089 35.8904 140.089 32.4793C140.089 29.0682 137.324 26.303 133.913 26.303C130.502 26.303 127.737 29.0682 127.737 32.4793C127.737 35.8904 130.502 38.6556 133.913 38.6556Z" fill="#1CA686"/>
<path d="M133.913 36.2412C135.99 36.2412 137.675 34.5569 137.675 32.4792C137.675 30.4016 135.99 28.7173 133.913 28.7173C131.835 28.7173 130.151 30.4016 130.151 32.4792C130.151 34.5569 131.835 36.2412 133.913 36.2412Z" fill="white"/>
</g>
<defs>
<clipPath id="clip0_356_14673">
<rect width="200" height="195.225" fill="white"/>
</clipPath>
</defs>
</svg>
