<svg width="200" height="155" viewBox="0 0 200 155" fill="none" xmlns="http://www.w3.org/2000/svg">
<g clip-path="url(#clip0_366_17044)">
<path d="M181.023 148.106H18.9759C16.1385 148.106 13.3372 147.47 10.7783 146.244C8.21942 145.018 5.96818 143.233 4.19036 141.022C2.41254 138.81 1.15342 136.228 0.505731 133.466C-0.141955 130.703 -0.16171 127.831 0.447917 125.059L7.68606 92.1594H192.313L199.551 125.059C200.161 127.831 200.141 130.703 199.493 133.466C198.846 136.228 197.587 138.81 195.809 141.022C194.031 143.233 191.78 145.018 189.221 146.244C186.662 147.47 183.861 148.106 181.023 148.106ZM8.13125 92.7134L0.988856 125.178C0.397046 127.869 0.416238 130.657 1.04502 133.339C1.67381 136.021 2.89617 138.528 4.62208 140.675C6.34799 142.822 8.5335 144.554 11.0176 145.744C13.5018 146.935 16.2213 147.552 18.9759 147.552H181.023C183.778 147.552 186.497 146.935 188.981 145.744C191.466 144.554 193.651 142.822 195.377 140.675C197.103 138.528 198.325 136.021 198.954 133.339C199.583 130.657 199.602 127.869 199.01 125.178L191.868 92.7134H8.13125Z" fill="#DFE2E1"/>
<path d="M160.447 21.914L168.947 20.6472L167.605 14.7342L162.508 17.3007L151.995 13.3383C151.845 12.9515 151.586 12.6167 151.249 12.3746C150.912 12.1326 150.512 11.9938 150.098 11.9751C149.683 11.9564 149.273 12.0587 148.915 12.2694C148.558 12.4802 148.27 12.7903 148.086 13.162C147.902 13.5337 147.83 13.951 147.879 14.3628C147.928 14.7747 148.096 15.1633 148.362 15.4815C148.628 15.7996 148.981 16.0335 149.378 16.1545C149.775 16.2755 150.198 16.2785 150.596 16.1631L160.447 21.914Z" fill="#ECA1A1"/>
<path d="M177.724 17.4937C177.067 19.985 161.924 22.7951 161.932 22.2561C161.953 20.7244 162.927 17.5103 162.371 16.6765C162.053 16.1997 166.335 14.9812 166.335 14.9812C166.335 14.9812 168.698 14.0715 171.762 12.9612C172.623 12.6313 173.553 12.5244 174.466 12.6505C175.378 12.7766 176.245 13.1317 176.983 13.6826C176.983 13.6826 178.381 15.0025 177.724 17.4937Z" fill="#1CA686"/>
<path d="M31.2319 121.24H25.9695C24.7942 121.24 23.6671 121.706 22.836 122.537C22.005 123.368 21.5381 124.496 21.5381 125.671C21.5381 126.846 22.005 127.973 22.836 128.804C23.6671 129.635 24.7942 130.102 25.9695 130.102H31.2319C32.4072 130.102 33.5343 129.635 34.3654 128.804C35.1964 127.973 35.6633 126.846 35.6633 125.671C35.6633 124.496 35.1964 123.368 34.3654 122.537C33.5343 121.706 32.4072 121.24 31.2319 121.24Z" fill="#DFE2E1"/>
<path d="M48.1274 121.24H42.865C41.6897 121.24 40.5626 121.706 39.7315 122.537C38.9005 123.368 38.4336 124.496 38.4336 125.671C38.4336 126.846 38.9005 127.973 39.7315 128.804C40.5626 129.635 41.6897 130.102 42.865 130.102H48.1274C49.3027 130.102 50.4298 129.635 51.2609 128.804C52.0919 127.973 52.5588 126.846 52.5588 125.671C52.5588 124.496 52.0919 123.368 51.2609 122.537C50.4298 121.706 49.3027 121.24 48.1274 121.24Z" fill="#DFE2E1"/>
<path d="M65.0219 121.24H59.7596C58.5843 121.24 57.4571 121.706 56.6261 122.537C55.795 123.368 55.3281 124.496 55.3281 125.671C55.3281 126.846 55.795 127.973 56.6261 128.804C57.4571 129.635 58.5843 130.102 59.7596 130.102H65.0219C66.1972 130.102 67.3244 129.635 68.1554 128.804C68.9865 127.973 69.4533 126.846 69.4533 125.671C69.4533 124.496 68.9865 123.368 68.1554 122.537C67.3244 121.706 66.1972 121.24 65.0219 121.24Z" fill="#DFE2E1"/>
<path d="M81.9164 121.24H76.6541C75.4788 121.24 74.3517 121.706 73.5206 122.537C72.6895 123.368 72.2227 124.496 72.2227 125.671C72.2227 126.846 72.6895 127.973 73.5206 128.804C74.3517 129.635 75.4788 130.102 76.6541 130.102H81.9164C83.0917 130.102 84.2189 129.635 85.0499 128.804C85.881 127.973 86.3479 126.846 86.3479 125.671C86.3479 124.496 85.881 123.368 85.0499 122.537C84.2189 121.706 83.0917 121.24 81.9164 121.24Z" fill="#DFE2E1"/>
<path d="M98.8119 121.24H93.5496C92.3743 121.24 91.2472 121.706 90.4161 122.537C89.585 123.368 89.1182 124.496 89.1182 125.671C89.1182 126.846 89.585 127.973 90.4161 128.804C91.2472 129.635 92.3743 130.102 93.5496 130.102H98.8119C99.9872 130.102 101.114 129.635 101.945 128.804C102.777 127.973 103.243 126.846 103.243 125.671C103.243 124.496 102.777 123.368 101.945 122.537C101.114 121.706 99.9872 121.24 98.8119 121.24Z" fill="#DFE2E1"/>
<path d="M115.706 121.24H110.444C109.269 121.24 108.142 121.706 107.311 122.537C106.48 123.368 106.013 124.496 106.013 125.671C106.013 126.846 106.48 127.973 107.311 128.804C108.142 129.635 109.269 130.102 110.444 130.102H115.706C116.882 130.102 118.009 129.635 118.84 128.804C119.671 127.973 120.138 126.846 120.138 125.671C120.138 124.496 119.671 123.368 118.84 122.537C118.009 121.706 116.882 121.24 115.706 121.24Z" fill="#DFE2E1"/>
<path d="M132.601 121.24H127.339C126.163 121.24 125.036 121.706 124.205 122.537C123.374 123.368 122.907 124.496 122.907 125.671C122.907 126.846 123.374 127.973 124.205 128.804C125.036 129.635 126.163 130.102 127.339 130.102H132.601C133.776 130.102 134.903 129.635 135.735 128.804C136.566 127.973 137.032 126.846 137.032 125.671C137.032 124.496 136.566 123.368 135.735 122.537C134.903 121.706 133.776 121.24 132.601 121.24Z" fill="#DFE2E1"/>
<path d="M149.497 121.24H144.234C143.059 121.24 141.932 121.706 141.101 122.537C140.27 123.368 139.803 124.496 139.803 125.671C139.803 126.846 140.27 127.973 141.101 128.804C141.932 129.635 143.059 130.102 144.234 130.102H149.497C150.672 130.102 151.799 129.635 152.63 128.804C153.461 127.973 153.928 126.846 153.928 125.671C153.928 124.496 153.461 123.368 152.63 122.537C151.799 121.706 150.672 121.24 149.497 121.24Z" fill="#DFE2E1"/>
<path d="M166.391 121.24H161.129C159.953 121.24 158.826 121.706 157.995 122.537C157.164 123.368 156.697 124.496 156.697 125.671C156.697 126.846 157.164 127.973 157.995 128.804C158.826 129.635 159.953 130.102 161.129 130.102H166.391C167.566 130.102 168.693 129.635 169.525 128.804C170.356 127.973 170.822 126.846 170.822 125.671C170.822 124.496 170.356 123.368 169.525 122.537C168.693 121.706 167.566 121.24 166.391 121.24Z" fill="#DFE2E1"/>
<path d="M31.2319 102.683H25.9695C24.7942 102.683 23.6671 103.15 22.836 103.981C22.005 104.812 21.5381 105.939 21.5381 107.114C21.5381 108.29 22.005 109.417 22.836 110.248C23.6671 111.079 24.7942 111.546 25.9695 111.546H31.2319C32.4072 111.546 33.5343 111.079 34.3654 110.248C35.1964 109.417 35.6633 108.29 35.6633 107.114C35.6633 105.939 35.1964 104.812 34.3654 103.981C33.5343 103.15 32.4072 102.683 31.2319 102.683Z" fill="#DFE2E1"/>
<path d="M48.1274 102.683H42.865C41.6897 102.683 40.5626 103.15 39.7315 103.981C38.9005 104.812 38.4336 105.939 38.4336 107.114C38.4336 108.29 38.9005 109.417 39.7315 110.248C40.5626 111.079 41.6897 111.546 42.865 111.546H48.1274C49.3027 111.546 50.4298 111.079 51.2609 110.248C52.0919 109.417 52.5588 108.29 52.5588 107.114C52.5588 105.939 52.0919 104.812 51.2609 103.981C50.4298 103.15 49.3027 102.683 48.1274 102.683Z" fill="#DFE2E1"/>
<path d="M65.0219 102.683H59.7596C58.5843 102.683 57.4571 103.15 56.6261 103.981C55.795 104.812 55.3281 105.939 55.3281 107.114C55.3281 108.29 55.795 109.417 56.6261 110.248C57.4571 111.079 58.5843 111.546 59.7596 111.546H65.0219C66.1972 111.546 67.3244 111.079 68.1554 110.248C68.9865 109.417 69.4533 108.29 69.4533 107.114C69.4533 105.939 68.9865 104.812 68.1554 103.981C67.3244 103.15 66.1972 102.683 65.0219 102.683Z" fill="#1CA686"/>
<path d="M81.9164 102.683H76.6541C75.4788 102.683 74.3517 103.15 73.5206 103.981C72.6895 104.812 72.2227 105.939 72.2227 107.114C72.2227 108.29 72.6895 109.417 73.5206 110.248C74.3517 111.079 75.4788 111.546 76.6541 111.546H81.9164C83.0917 111.546 84.2189 111.079 85.0499 110.248C85.881 109.417 86.3479 108.29 86.3479 107.114C86.3479 105.939 85.881 104.812 85.0499 103.981C84.2189 103.15 83.0917 102.683 81.9164 102.683Z" fill="#DFE2E1"/>
<path d="M98.8119 102.683H93.5496C92.3743 102.683 91.2472 103.15 90.4161 103.981C89.585 104.812 89.1182 105.939 89.1182 107.114C89.1182 108.29 89.585 109.417 90.4161 110.248C91.2472 111.079 92.3743 111.546 93.5496 111.546H98.8119C99.9872 111.546 101.114 111.079 101.945 110.248C102.777 109.417 103.243 108.29 103.243 107.114C103.243 105.939 102.777 104.812 101.945 103.981C101.114 103.15 99.9872 102.683 98.8119 102.683Z" fill="#DFE2E1"/>
<path d="M115.706 102.683H110.444C109.269 102.683 108.142 103.15 107.311 103.981C106.48 104.812 106.013 105.939 106.013 107.114C106.013 108.29 106.48 109.417 107.311 110.248C108.142 111.079 109.269 111.546 110.444 111.546H115.706C116.882 111.546 118.009 111.079 118.84 110.248C119.671 109.417 120.138 108.29 120.138 107.114C120.138 105.939 119.671 104.812 118.84 103.981C118.009 103.15 116.882 102.683 115.706 102.683Z" fill="#DFE2E1"/>
<path d="M132.601 102.683H127.339C126.163 102.683 125.036 103.15 124.205 103.981C123.374 104.812 122.907 105.939 122.907 107.114C122.907 108.29 123.374 109.417 124.205 110.248C125.036 111.079 126.163 111.546 127.339 111.546H132.601C133.776 111.546 134.903 111.079 135.735 110.248C136.566 109.417 137.032 108.29 137.032 107.114C137.032 105.939 136.566 104.812 135.735 103.981C134.903 103.15 133.776 102.683 132.601 102.683Z" fill="#DFE2E1"/>
<path d="M149.497 102.683H144.234C143.059 102.683 141.932 103.15 141.101 103.981C140.27 104.812 139.803 105.939 139.803 107.114C139.803 108.29 140.27 109.417 141.101 110.248C141.932 111.079 143.059 111.546 144.234 111.546H149.497C150.672 111.546 151.799 111.079 152.63 110.248C153.461 109.417 153.928 108.29 153.928 107.114C153.928 105.939 153.461 104.812 152.63 103.981C151.799 103.15 150.672 102.683 149.497 102.683Z" fill="#DFE2E1"/>
<path d="M166.391 102.683H161.129C159.953 102.683 158.826 103.15 157.995 103.981C157.164 104.812 156.697 105.939 156.697 107.114C156.697 108.29 157.164 109.417 157.995 110.248C158.826 111.079 159.953 111.546 161.129 111.546H166.391C167.566 111.546 168.693 111.079 169.525 110.248C170.356 109.417 170.822 108.29 170.822 107.114C170.822 105.939 170.356 104.812 169.525 103.981C168.693 103.15 167.566 102.683 166.391 102.683Z" fill="#DFE2E1"/>
<path d="M39.1254 112.238H33.8631C32.6878 112.238 31.5606 112.705 30.7296 113.536C29.8985 114.367 29.4316 115.494 29.4316 116.67C29.4316 117.845 29.8985 118.972 30.7296 119.803C31.5606 120.634 32.6878 121.101 33.8631 121.101H39.1254C40.3007 121.101 41.4279 120.634 42.2589 119.803C43.09 118.972 43.5569 117.845 43.5569 116.67C43.5569 115.494 43.09 114.367 42.2589 113.536C41.4279 112.705 40.3007 112.238 39.1254 112.238Z" fill="#DFE2E1"/>
<path d="M56.0209 112.238H50.7586C49.5833 112.238 48.4561 112.705 47.6251 113.536C46.794 114.367 46.3271 115.494 46.3271 116.67C46.3271 117.845 46.794 118.972 47.6251 119.803C48.4561 120.634 49.5833 121.101 50.7586 121.101H56.0209C57.1962 121.101 58.3234 120.634 59.1544 119.803C59.9855 118.972 60.4524 117.845 60.4524 116.67C60.4524 115.494 59.9855 114.367 59.1544 113.536C58.3234 112.705 57.1962 112.238 56.0209 112.238Z" fill="#DFE2E1"/>
<path d="M72.9155 112.238H67.6531C66.4778 112.238 65.3507 112.705 64.5196 113.536C63.6886 114.367 63.2217 115.494 63.2217 116.67C63.2217 117.845 63.6886 118.972 64.5196 119.803C65.3507 120.634 66.4778 121.101 67.6531 121.101H72.9155C74.0907 121.101 75.2179 120.634 76.049 119.803C76.88 118.972 77.3469 117.845 77.3469 116.67C77.3469 115.494 76.88 114.367 76.049 113.536C75.2179 112.705 74.0907 112.238 72.9155 112.238Z" fill="#DFE2E1"/>
<path d="M89.81 112.238H84.5477C83.3724 112.238 82.2452 112.705 81.4141 113.536C80.5831 114.367 80.1162 115.494 80.1162 116.67C80.1162 117.845 80.5831 118.972 81.4141 119.803C82.2452 120.634 83.3724 121.101 84.5477 121.101H89.81C90.9853 121.101 92.1124 120.634 92.9435 119.803C93.7746 118.972 94.2414 117.845 94.2414 116.67C94.2414 115.494 93.7746 114.367 92.9435 113.536C92.1124 112.705 90.9853 112.238 89.81 112.238Z" fill="#DFE2E1"/>
<path d="M106.705 112.238H101.443C100.268 112.238 99.1407 112.705 98.3097 113.536C97.4786 114.367 97.0117 115.494 97.0117 116.67C97.0117 117.845 97.4786 118.972 98.3097 119.803C99.1407 120.634 100.268 121.101 101.443 121.101H106.705C107.881 121.101 109.008 120.634 109.839 119.803C110.67 118.972 111.137 117.845 111.137 116.67C111.137 115.494 110.67 114.367 109.839 113.536C109.008 112.705 107.881 112.238 106.705 112.238Z" fill="#DFE2E1"/>
<path d="M123.6 112.238H118.338C117.162 112.238 116.035 112.705 115.204 113.536C114.373 114.367 113.906 115.494 113.906 116.67C113.906 117.845 114.373 118.972 115.204 119.803C116.035 120.634 117.162 121.101 118.338 121.101H123.6C124.775 121.101 125.902 120.634 126.734 119.803C127.565 118.972 128.031 117.845 128.031 116.67C128.031 115.494 127.565 114.367 126.734 113.536C125.902 112.705 124.775 112.238 123.6 112.238Z" fill="#DFE2E1"/>
<path d="M140.495 112.238H135.232C134.057 112.238 132.93 112.705 132.099 113.536C131.268 114.367 130.801 115.494 130.801 116.67C130.801 117.845 131.268 118.972 132.099 119.803C132.93 120.634 134.057 121.101 135.232 121.101H140.495C141.67 121.101 142.797 120.634 143.628 119.803C144.459 118.972 144.926 117.845 144.926 116.67C144.926 115.494 144.459 114.367 143.628 113.536C142.797 112.705 141.67 112.238 140.495 112.238Z" fill="#DFE2E1"/>
<path d="M157.39 112.238H152.128C150.952 112.238 149.825 112.705 148.994 113.536C148.163 114.367 147.696 115.494 147.696 116.67C147.696 117.845 148.163 118.972 148.994 119.803C149.825 120.634 150.952 121.101 152.128 121.101H157.39C158.565 121.101 159.693 120.634 160.524 119.803C161.355 118.972 161.822 117.845 161.822 116.67C161.822 115.494 161.355 114.367 160.524 113.536C159.693 112.705 158.565 112.238 157.39 112.238Z" fill="#DFE2E1"/>
<path d="M174.285 112.238H169.022C167.847 112.238 166.72 112.705 165.889 113.536C165.058 114.367 164.591 115.494 164.591 116.67C164.591 117.845 165.058 118.972 165.889 119.803C166.72 120.634 167.847 121.101 169.022 121.101H174.285C175.46 121.101 176.587 120.634 177.418 119.803C178.249 118.972 178.716 117.845 178.716 116.67C178.716 115.494 178.249 114.367 177.418 113.536C176.587 112.705 175.46 112.238 174.285 112.238Z" fill="#DFE2E1"/>
<path d="M154.795 92.4352H45.4594C43.7251 92.4332 42.0624 91.7434 40.8361 90.5171C39.6097 89.2907 38.9199 87.6281 38.918 85.8938L38.9251 85.8313C42.7932 69.0949 42.7917 48.1137 38.9205 19.8022L38.918 19.7646C38.9199 18.0303 39.6098 16.3676 40.8361 15.1413C42.0624 13.9149 43.7251 13.2251 45.4594 13.2231H154.795C156.529 13.2251 158.192 13.9149 159.418 15.1413C160.645 16.3676 161.335 18.0303 161.337 19.7646L161.33 19.8225C156.652 41.5783 156.652 64.0801 161.33 85.8359L161.337 85.8938C161.335 87.6281 160.645 89.2908 159.418 90.5171C158.192 91.7434 156.529 92.4332 154.795 92.4352Z" fill="#FBFEFD"/>
<path d="M154.795 92.4352H45.4594C43.7251 92.4332 42.0624 91.7434 40.8361 90.5171C39.6097 89.2907 38.9199 87.6281 38.918 85.8938L38.9251 85.8313C42.7932 69.0949 42.7917 48.1137 38.9205 19.8022L38.918 19.7646C38.9199 18.0303 39.6098 16.3676 40.8361 15.1413C42.0624 13.9149 43.7251 13.2251 45.4594 13.2231H154.795C156.529 13.2251 158.192 13.9149 159.418 15.1413C160.645 16.3676 161.335 18.0303 161.337 19.7646L161.33 19.8225C156.652 41.5783 156.652 64.0801 161.33 85.8359L161.337 85.8938C161.335 87.6281 160.645 89.2908 159.418 90.5171C158.192 91.7434 156.529 92.4332 154.795 92.4352ZM39.472 85.9249C39.4821 87.5069 40.1171 89.0207 41.2386 90.1365C42.3602 91.2523 43.8773 91.8794 45.4594 91.8812H154.795C156.378 91.8794 157.895 91.252 159.017 90.1358C160.138 89.0195 160.773 87.5051 160.782 85.9227C156.096 64.1092 156.096 41.5491 160.782 19.7356C160.773 18.1532 160.138 16.6388 159.017 15.5226C157.895 14.4063 156.378 13.7789 154.795 13.7771H45.4594C43.8752 13.7789 42.3561 14.4077 41.2342 15.5262C40.1122 16.6446 39.4787 18.1617 39.4719 19.7459C43.3474 48.0984 43.3477 69.1302 39.472 85.9249Z" fill="#DFE2E1"/>
<path d="M143.334 32.7492H54.9819C54.5045 32.7492 54.0465 32.5596 53.7089 32.2219C53.3713 31.8843 53.1816 31.4264 53.1816 30.949C53.1816 30.4715 53.3713 30.0136 53.7089 29.676C54.0465 29.3384 54.5045 29.1487 54.9819 29.1487H143.334C143.811 29.1487 144.269 29.3384 144.607 29.676C144.944 30.0136 145.134 30.4715 145.134 30.949C145.134 31.4264 144.944 31.8843 144.607 32.2219C144.269 32.5596 143.811 32.7492 143.334 32.7492Z" fill="#DFE2E1"/>
<path d="M143.334 41.4736H54.9819C54.5045 41.4736 54.0465 41.2839 53.7089 40.9463C53.3713 40.6087 53.1816 40.1508 53.1816 39.6733C53.1816 39.1959 53.3713 38.738 53.7089 38.4003C54.0465 38.0627 54.5045 37.873 54.9819 37.873H143.334C143.811 37.873 144.269 38.0627 144.607 38.4003C144.944 38.738 145.134 39.1959 145.134 39.6733C145.134 40.1508 144.944 40.6087 144.607 40.9463C144.269 41.2839 143.811 41.4736 143.334 41.4736Z" fill="#DFE2E1"/>
<path d="M143.334 50.198H54.9819C54.5045 50.198 54.0465 50.0083 53.7089 49.6707C53.3713 49.3331 53.1816 48.8751 53.1816 48.3977C53.1816 47.9202 53.3713 47.4623 53.7089 47.1247C54.0465 46.7871 54.5045 46.5974 54.9819 46.5974H143.334C143.811 46.5974 144.269 46.7871 144.607 47.1247C144.944 47.4623 145.134 47.9202 145.134 48.3977C145.134 48.8751 144.944 49.3331 144.607 49.6707C144.269 50.0083 143.811 50.198 143.334 50.198Z" fill="#DFE2E1"/>
<path d="M143.334 58.9223H54.9819C54.5045 58.9223 54.0465 58.7327 53.7089 58.395C53.3713 58.0574 53.1816 57.5995 53.1816 57.1221C53.1816 56.6446 53.3713 56.1867 53.7089 55.8491C54.0465 55.5114 54.5045 55.3218 54.9819 55.3218H143.334C143.811 55.3218 144.269 55.5114 144.607 55.8491C144.944 56.1867 145.134 56.6446 145.134 57.1221C145.134 57.5995 144.944 58.0574 144.607 58.395C144.269 58.7327 143.811 58.9223 143.334 58.9223Z" fill="#DFE2E1"/>
<path d="M143.334 67.6469H54.9819C54.5045 67.6469 54.0465 67.4573 53.7089 67.1196C53.3713 66.782 53.1816 66.3241 53.1816 65.8467C53.1816 65.3692 53.3713 64.9113 53.7089 64.5737C54.0465 64.2361 54.5045 64.0464 54.9819 64.0464H143.334C143.811 64.0464 144.269 64.2361 144.607 64.5737C144.944 64.9113 145.134 65.3692 145.134 65.8467C145.134 66.3241 144.944 66.782 144.607 67.1196C144.269 67.4573 143.811 67.6469 143.334 67.6469Z" fill="#DFE2E1"/>
<path d="M94.5879 76.3713H54.9819C54.5045 76.3713 54.0465 76.1816 53.7089 75.844C53.3713 75.5064 53.1816 75.0485 53.1816 74.571C53.1816 74.0936 53.3713 73.6357 53.7089 73.298C54.0465 72.9604 54.5045 72.7708 54.9819 72.7708H94.5879C95.0654 72.7708 95.5233 72.9604 95.8609 73.298C96.1985 73.6357 96.3882 74.0936 96.3882 74.571C96.3882 75.0485 96.1985 75.5064 95.8609 75.844C95.5233 76.1816 95.0654 76.3713 94.5879 76.3713Z" fill="#1CA686"/>
<path d="M99.6234 90.0811H92.3328C92.2222 90.0801 92.1133 90.0542 92.0141 90.0053C91.9149 89.9564 91.828 89.8858 91.7598 89.7987C91.6794 89.6962 91.6227 89.5772 91.594 89.4501C91.5652 89.3231 91.565 89.1912 91.5935 89.0641L95.0243 73.5413C95.0515 73.3671 95.1395 73.2082 95.2725 73.0925C95.4056 72.9769 95.5753 72.912 95.7516 72.9093C95.9279 72.9066 96.0995 72.9663 96.236 73.0778C96.3726 73.1894 96.4653 73.3456 96.4978 73.5189L100.358 89.0414C100.39 89.1698 100.393 89.3038 100.366 89.4335C100.339 89.5632 100.284 89.6852 100.203 89.7903C100.135 89.8798 100.048 89.9526 99.9471 90.003C99.8466 90.0534 99.7358 90.0801 99.6234 90.0811Z" fill="#DFE2E1"/>
<path d="M191.249 95.8973H9.00563C8.01398 95.8973 7.06295 95.5033 6.36174 94.8021C5.66054 94.1009 5.2666 93.1499 5.2666 92.1582C5.2666 91.1666 5.66054 90.2155 6.36174 89.5143C7.06295 88.8131 8.01398 88.4192 9.00563 88.4192H191.249C192.24 88.4192 193.191 88.8131 193.893 89.5143C194.594 90.2155 194.988 91.1666 194.988 92.1582C194.988 93.1499 194.594 94.1009 193.893 94.8021C193.191 95.5033 192.24 95.8973 191.249 95.8973Z" fill="#DFE2E1"/>
<path d="M168.171 86.534L165.512 86.5338L164.247 76.2764L168.172 76.2766L168.171 86.534Z" fill="#ECA1A1"/>
<path d="M168.849 89.1116L160.274 89.1113V89.0028C160.274 88.1177 160.626 87.2688 161.252 86.6429C161.878 86.017 162.727 85.6654 163.612 85.6653L165.178 84.4771L168.101 85.6655L168.849 85.6655L168.849 89.1116Z" fill="#09342A"/>
<path d="M192.2 83.0763L189.82 84.2625L184.111 75.6467L187.624 73.896L192.2 83.0763Z" fill="#ECA1A1"/>
<path d="M193.956 85.0808L186.282 88.9057L186.233 88.8086C185.838 88.0164 185.774 87.0998 186.055 86.2604C186.336 85.4211 186.939 84.7277 187.731 84.3328L188.603 82.5705L191.749 82.3305L192.419 81.9966L193.956 85.0808Z" fill="#09342A"/>
<path d="M166.993 39.9482L181.657 40.4615L182.753 42.4978C182.753 42.4978 183.902 50.8287 183.313 51.4168C182.725 52.0049 182.431 52.0049 182.725 53.0341C183.019 54.0634 183.78 63.8973 183.78 63.8973C183.78 63.8973 189.837 76.4622 190.131 77.1973C190.425 77.9325 190.719 77.6384 190.425 77.9325C190.165 78.2134 189.92 78.5078 189.69 78.8147H184.898C184.898 78.8147 182.317 72.3053 179.955 69.7874C177.869 67.5643 176.548 64.7329 176.185 61.7061L174.197 52.299L169.934 66.7082C169.934 66.7082 169.198 80.9703 169.345 81.7055L169.492 82.4406L163.844 82.5037C163.844 82.5037 163.255 81.2644 163.549 80.8233C163.844 80.3822 163.826 80.5026 163.467 79.7808C163.108 79.0589 163.255 77.8358 163.255 77.8358C163.255 77.8358 165.376 48.9172 165.376 48.4761C165.387 48.2492 165.345 48.0227 165.253 47.8147V47.2159L165.817 45.0944L166.993 39.9482Z" fill="#09342A"/>
<path d="M173.315 13.3423C172.361 13.9097 171.79 14.9523 171.462 16.0132C170.855 17.9774 170.49 20.0082 170.375 22.0608L170.028 28.2056C169.856 32.1713 168.753 36.0408 166.808 39.5013C166.664 39.7647 166.582 40.0576 166.568 40.3576C166.554 40.6577 166.608 40.957 166.727 41.2327C166.846 41.5084 167.027 41.7533 167.255 41.9488C167.483 42.1443 167.753 42.2852 168.043 42.3608C173.358 43.7554 183.424 42.0044 183.424 42.0044C183.424 42.0044 183.853 41.8615 183.424 41.4328C182.995 41.0041 182.033 38.8603 182.033 38.8603L183.177 31.3498L184.606 16.2006C182.891 14.0569 179.442 12.7931 179.442 12.7931L178.551 11.189L174.095 11.5454L173.315 13.3423Z" fill="#1CA686"/>
<path d="M176.144 10.2568C178.508 10.2568 180.425 8.34028 180.425 5.97616C180.425 3.61205 178.508 1.69556 176.144 1.69556C173.78 1.69556 171.863 3.61205 171.863 5.97616C171.863 8.34028 173.78 10.2568 176.144 10.2568Z" fill="#ECA1A1"/>
<path d="M181.418 5.72207C181.227 6.58937 180.882 7.41546 180.4 8.1613C180.272 8.41561 180.08 8.63274 179.844 8.79183C179.725 8.86853 179.582 8.90089 179.441 8.88328C179.3 8.86566 179.17 8.79918 179.073 8.69541L178.969 8.61057C179.173 8.48473 179.355 8.32647 179.509 8.14201C179.585 8.04944 179.637 7.94008 179.663 7.82304C179.688 7.70599 179.685 7.58463 179.653 7.46905C179.616 7.35506 179.537 7.25984 179.431 7.20339C179.325 7.14694 179.202 7.13366 179.086 7.16633C178.836 7.26467 178.683 7.62718 178.421 7.57126C178.209 7.52498 178.165 7.24539 178.165 7.02557C178.172 5.87633 177.617 4.24311 177.187 4.29325C176.753 4.317 176.318 4.25878 175.905 4.12163C175.491 3.98425 175.055 3.92858 174.621 3.95772C174.59 3.96159 174.559 3.96737 174.526 3.97315C174.456 3.75481 174.361 3.54568 174.241 3.35033C174.254 3.58614 174.243 3.82272 174.206 4.05607C173.86 4.19862 173.503 4.3115 173.138 4.39351C172.741 4.44943 171.867 5.63723 171.827 5.51575C171.757 5.2974 171.661 5.08828 171.541 4.89293C171.555 5.12874 171.543 5.36532 171.507 5.59866C171.505 5.6083 171.505 5.61602 171.503 5.62566C171.31 5.36919 171.192 5.05683 171.258 5.29593C170.612 3.83433 170.862 2.78729 171.879 1.55514C172.077 1.2902 172.339 1.07988 172.64 0.943878C172.791 0.877546 172.957 0.851218 173.121 0.867431C173.285 0.883643 173.442 0.94185 173.577 1.03644C173.992 0.656449 174.5 0.394207 175.05 0.276898C175.6 0.159589 176.172 0.191479 176.705 0.369265C177.764 0.737565 178.579 0.953528 178.741 2.0642C179.183 2.0159 179.629 2.09345 180.029 2.28793C180.428 2.4824 180.765 2.78585 180.999 3.16329C181.456 3.93326 181.605 4.84687 181.418 5.72207Z" fill="#09342A"/>
<path d="M185.986 33.5382L185.993 24.9441L179.946 25.3955L181.729 30.8158L176.252 40.6263C175.848 40.7171 175.478 40.9237 175.189 41.2209C174.899 41.5181 174.703 41.8931 174.623 42.3001C174.543 42.707 174.583 43.1285 174.739 43.513C174.894 43.8975 175.158 44.2285 175.499 44.4655C175.839 44.7026 176.241 44.8355 176.656 44.848C177.07 44.8606 177.479 44.7523 177.833 44.5362C178.188 44.3202 178.471 44.0058 178.65 43.6315C178.828 43.2571 178.894 42.8388 178.839 42.4278L185.986 33.5382Z" fill="#ECA1A1"/>
<path d="M184.175 15.7972C186.542 16.8163 187.076 32.2086 186.544 32.1213C185.033 31.873 181.999 30.4337 181.092 30.8601C180.573 31.1039 180.003 26.6885 180.003 26.6885C180.003 26.6885 179.453 24.2163 178.809 21.0215C178.61 20.1217 178.643 19.1862 178.903 18.3021C179.163 17.418 179.642 16.6141 180.296 15.9652C180.296 15.9652 181.809 14.7781 184.175 15.7972Z" fill="#1CA686"/>
<path d="M38.0376 110.768C37.8809 110.625 37.7575 110.449 37.6761 110.253C37.5946 110.057 37.557 109.846 37.5661 109.634C37.5751 109.422 37.6305 109.215 37.7283 109.027C37.8262 108.839 37.9641 108.674 38.1324 108.545L36.5078 103.651L39.0955 104.347L40.2415 108.887C40.4397 109.184 40.522 109.544 40.4729 109.897C40.4238 110.251 40.2466 110.574 39.9749 110.806C39.7033 111.038 39.356 111.162 38.999 111.155C38.6419 111.148 38.2999 111.01 38.0376 110.768Z" fill="#ECA1A1"/>
<path d="M42.7272 84.1801C43.1565 84.4262 45.6969 83.8163 46.193 83.9898C45.9191 85.6608 47.4066 85.0337 45.7913 87.2282C44.1761 89.4226 40.9227 96.0022 40.1836 98.4613C39.4446 100.92 40.1761 104.386 40.0654 105.551C40.0119 106.227 40.0152 106.905 40.0754 107.58C39.2026 107.569 38.3424 107.75 37.4561 107.634C36.5109 104.96 35.8753 101.152 35.4438 99.0484C35.0122 96.9443 34.9964 97.8341 35.1943 96.782C35.3923 95.7299 35.4402 96.4944 35.2323 95.4879C35.0244 94.4814 35.8653 93.2168 36.6422 92.4957C36.9772 91.5322 37.4101 90.6338 37.7418 89.6803C40.1721 87.5602 40.3319 86.3355 42.7272 84.1801Z" fill="#1CA686"/>
<path d="M65.4752 107.666C65.2652 107.696 65.0512 107.679 64.8482 107.618C64.6452 107.556 64.4582 107.451 64.3004 107.309C64.1425 107.167 64.0176 106.993 63.9345 106.798C63.8514 106.603 63.8121 106.392 63.8193 106.18L59.0088 104.323L61.1902 102.768L65.4239 104.769C65.7793 104.804 66.1091 104.969 66.351 105.232C66.5928 105.495 66.7299 105.837 66.7362 106.194C66.7426 106.551 66.6177 106.898 66.3853 107.17C66.1529 107.441 65.829 107.617 65.4752 107.666Z" fill="#ECA1A1"/>
<path d="M47.9297 87.146C48.3926 86.971 49.5364 84.6221 49.9857 84.3494C51.1016 85.6229 51.563 84.0759 52.2305 86.7177C52.898 89.3595 55.9098 96.0531 57.3385 98.1866C58.7673 100.32 61.9077 101.958 62.7371 102.784C63.2244 103.255 63.7504 103.683 64.3095 104.066C63.7463 104.733 63.3394 105.512 62.6867 106.123C60.0211 105.152 56.6779 103.223 54.7792 102.219C52.8805 101.215 53.5574 101.793 52.871 100.971C52.1845 100.15 52.8052 100.599 51.896 100.119C50.9868 99.6402 50.545 98.1873 50.4821 97.1291C49.9511 96.2581 49.5327 95.3528 49.0074 94.4908C48.9153 91.267 48.0713 90.3652 47.9297 87.146Z" fill="#1CA686"/>
<path d="M51.5494 101.683L53.9502 112.396L38.5664 111.439L42.7497 100.918L51.5494 101.683Z" fill="#ECA1A1"/>
<path d="M48.9876 151.129L50.7156 151.129L51.5376 144.463H48.9873L48.9876 151.129Z" fill="#ECA1A1"/>
<path d="M48.4021 150.276L51.1338 150.113V151.284L53.7309 153.077C53.8591 153.166 53.9558 153.293 54.0066 153.44C54.0574 153.588 54.0598 153.748 54.0134 153.896C53.967 154.045 53.8743 154.175 53.7487 154.268C53.6231 154.36 53.4713 154.41 53.3154 154.41H50.0633L49.5027 153.252L49.2838 154.41H48.0576L48.4021 150.276Z" fill="#09342A"/>
<path d="M32.6553 150.269L34.3439 150.635L36.5605 144.296L34.0681 143.755L32.6553 150.269Z" fill="#ECA1A1"/>
<path d="M32.2637 149.312L34.9679 149.732L34.7198 150.875L36.8776 153.179C36.9842 153.293 37.0516 153.437 37.07 153.592C37.0885 153.747 37.0569 153.904 36.9801 154.039C36.9032 154.175 36.7849 154.282 36.6426 154.346C36.5003 154.41 36.3414 154.426 36.1891 154.393L33.0108 153.704L32.7084 152.453L32.2491 153.538L31.0508 153.278L32.2637 149.312Z" fill="#09342A"/>
<path d="M54.3431 121.355C53.1304 128.02 52.8272 130.898 52.8272 130.898C52.8272 130.898 53.7367 131.958 53.1304 132.565C52.524 133.171 53.1304 134.382 53.1304 134.382L51.7669 149.076L50.6693 148.898L48.0253 148.473L47.0716 148.319L47.678 134.534C47.678 134.534 47.0716 133.322 47.3748 133.018C47.678 132.715 47.0716 130.898 47.0716 130.898L46.3145 116.507L41.6176 132.261C41.6176 132.261 42.0732 132.868 41.6176 133.322C41.1637 133.776 40.2558 136.049 40.2558 136.049L37.4627 145.822L37.2256 146.652L35.7689 146.379L34.1835 146.081L33.8922 146.027L33.3739 145.929L33.0402 145.866L32.9267 145.846L32.3779 145.742L32.5439 145.005L32.6303 144.618L34.9932 134.123L35.0474 133.881L35.105 133.625C35.105 133.625 34.8018 132.868 35.2557 132.412C35.3885 132.273 35.4855 132.104 35.5383 131.919C35.5911 131.735 35.5982 131.54 35.5589 131.352C35.544 131.336 35.5304 131.319 35.5182 131.301C35.4646 131.227 35.4276 131.143 35.4098 131.054C35.3888 130.911 35.4056 130.766 35.4585 130.632C35.5114 130.498 35.5986 130.381 35.7113 130.291C35.7977 130.2 35.8701 130.096 35.9264 129.983C36.3872 129.111 36.6192 127.263 36.6192 127.263C36.6192 127.263 37.0291 112.627 38.3706 110.391C38.4417 110.274 39.8658 108.03 39.9404 107.985C41.4546 107.077 53.2521 108.331 53.2521 108.331C53.2521 108.331 53.9666 110.25 53.9988 110.45C54.1733 111.573 55.3713 115.701 54.3431 121.355Z" fill="#09342A"/>
<path d="M50.758 86.1003C50.758 86.1003 51.0132 84.7753 48.5603 82.3223C47.2617 81.8895 45.0116 82.1417 44.2316 82.3223C40.6243 87.0839 41.2702 86.2438 40.3312 88.9042C40.0833 89.5027 39.9947 90.1552 40.0742 90.798C40.5071 92.9624 41.2098 104.073 41.0655 104.65C40.9212 105.227 39.9112 105.948 40.9212 105.948C41.9313 105.948 54.9565 105.72 54.6679 105.287C54.3794 104.855 50.758 86.1003 50.758 86.1003Z" fill="#1CA686"/>
<path d="M46.6889 81.4902C48.9738 81.4902 50.8261 79.6379 50.8261 77.353C50.8261 75.0681 48.9738 73.2158 46.6889 73.2158C44.404 73.2158 42.5518 75.0681 42.5518 77.353C42.5518 79.6379 44.404 81.4902 46.6889 81.4902Z" fill="#ECA1A1"/>
<path d="M43.1848 78.9174C43.1622 79.4191 42.8477 79.8517 42.6049 80.291C42.1815 81.0749 41.9556 81.9502 41.9468 82.841C41.9379 83.7319 42.1464 84.6115 42.5541 85.4037C42.8918 86.0442 43.3593 86.6159 43.6273 87.2886C43.7562 87.5727 43.8216 87.8816 43.8187 88.1936C43.8158 88.5056 43.7447 88.8132 43.6105 89.0949C42.8853 88.3972 42.5315 88.7656 41.708 88.1565C42.0318 89.0641 41.7558 89.0936 42.0809 90.0002C40.6833 90.3992 39.2852 90.7993 37.8865 91.2005C38.7452 90.5035 39.3516 89.5442 39.6128 88.4695C39.8741 87.3949 39.7756 86.2642 39.3327 85.2509C38.8214 84.1545 37.9076 83.2508 37.5749 82.0859C37.3938 81.4555 37.397 80.7863 37.5843 80.1577C37.7715 79.529 38.1349 78.9671 38.6314 78.5385C39.1279 78.1098 39.7368 77.8324 40.3861 77.7389C41.0353 77.6454 41.6978 77.7399 42.295 78.011C42.7652 77.8767 43.2075 78.4237 43.1848 78.9174Z" fill="#09342A"/>
<path d="M48.3808 72.7159C47.8244 71.5002 46.3565 71.7476 45.0292 71.9079C44.3664 72.0102 43.7385 72.2725 43.2 72.6721C42.6614 73.0718 42.2284 73.5967 41.9385 74.2014C41.3712 75.427 41.2627 76.8155 41.6328 78.1143C41.8314 78.9989 42.3053 79.7978 42.9864 80.3962C43.6874 80.9599 46.9826 82.2931 47.2569 81.1451C46.914 82.6428 46.0218 83.4956 47.043 84.6435C47.5719 83.0546 49.8086 81.5455 50.3375 79.9566C50.4171 79.7174 50.0901 76.9065 50.1698 76.6673C50.3376 76.1631 50.5057 75.6581 50.6269 75.1408C50.7793 74.491 50.8379 73.7458 50.4342 73.2142C50.0306 72.6826 49.0136 72.6619 48.8096 73.2974" fill="#09342A"/>
<path d="M47.7149 77.7755L47.5381 76.6497C47.6583 75.2495 47.4621 73.0223 48.381 72.7161L48.943 73.278C48.5875 73.3965 47.9114 75.4904 47.7149 77.7755Z" fill="#ECA1A1"/>
<path d="M88.0163 154.465C88.0164 154.508 88.008 154.551 87.9915 154.591C87.975 154.631 87.9507 154.667 87.9201 154.698C87.8894 154.729 87.853 154.753 87.813 154.769C87.7729 154.786 87.73 154.794 87.6867 154.794H10.0561C9.96873 154.794 9.88491 154.759 9.8231 154.698C9.76129 154.636 9.72656 154.552 9.72656 154.465C9.72656 154.377 9.76129 154.293 9.8231 154.232C9.88491 154.17 9.96873 154.135 10.0561 154.135H87.6867C87.73 154.135 87.7729 154.143 87.813 154.16C87.853 154.176 87.8894 154.201 87.9201 154.231C87.9507 154.262 87.975 154.298 87.9915 154.338C88.008 154.378 88.0164 154.421 88.0163 154.465Z" fill="#DFE2E1"/>
<path d="M128.654 133.981H71.5994C70.4241 133.981 69.297 134.448 68.4659 135.279C67.6349 136.11 67.168 137.237 67.168 138.413C67.168 139.588 67.6349 140.715 68.4659 141.546C69.297 142.377 70.4241 142.844 71.5994 142.844H128.654C129.83 142.844 130.957 142.377 131.788 141.546C132.619 140.715 133.086 139.588 133.086 138.413C133.086 137.237 132.619 136.11 131.788 135.279C130.957 134.448 129.83 133.981 128.654 133.981Z" fill="#DFE2E1"/>
</g>
<defs>
<clipPath id="clip0_366_17044">
<rect width="200" height="154.588" fill="white" transform="translate(0 0.205811)"/>
</clipPath>
</defs>
</svg>
