<svg width="200" height="148" viewBox="0 0 200 148" fill="none" xmlns="http://www.w3.org/2000/svg">
<g clip-path="url(#clip0_367_17008)">
<path opacity="0.1" d="M2.15332 70.9664C5.31144 83.1717 11.9913 93.7224 22.5475 98.8368C44.4925 109.466 93.9844 103.984 130.922 97.6914C150.029 94.4369 166.823 85.4553 179.023 72.8155L2.15332 70.9664Z" fill="#1CA686"/>
<path opacity="0.1" d="M195.852 13.5148H175.585C174.623 13.5148 173.834 12.802 173.834 11.9311C173.834 11.0603 174.623 10.3457 175.585 10.3457H179.09C178.126 10.3457 177.339 9.63301 177.339 8.76029C177.339 7.88758 178.126 7.17669 179.09 7.17669H176.588C175.625 7.17669 174.836 6.46397 174.836 5.59126C174.836 4.71855 175.625 4.00765 176.588 4.00765H187.166C184.819 3.0204 182.075 2.31859 178.914 1.94951C150.069 -1.40134 139.771 0.814986 136.138 3.09313C131.61 5.96807 126.58 7.96292 121.313 8.97302C103.517 12.2948 70.2357 16.2911 40.0708 7.70031C25.0783 3.42221 13.9349 10.6421 7.25684 22.711H199.372C199.121 19.2037 198.37 15.9638 196.992 13.1293C196.665 13.3813 196.264 13.517 195.852 13.5148Z" fill="#1CA686"/>
<path opacity="0.1" d="M0.435183 45.4905C-0.343265 52.5889 -0.0786477 59.763 1.22062 66.7847L179.159 72.6737C184.057 67.5935 188.219 61.8517 191.523 55.6158L0.435183 45.4905ZM70.8121 60.6812H67.3085C68.2721 60.6812 69.0612 61.3957 69.0612 62.2666C69.0612 63.1375 68.2721 63.8502 67.3085 63.8502H47.0416C46.0798 63.8502 45.2907 63.1375 45.2907 62.2666C45.2907 61.3957 46.0798 60.6812 47.0416 60.6812H50.547C49.5834 60.6812 48.7961 59.9685 48.7961 59.0976C48.7961 58.2267 49.5834 57.5121 50.547 57.5121H48.0434C47.0798 57.5121 46.2907 56.7994 46.2907 55.9285C46.2907 55.0576 47.0798 54.3431 48.0434 54.3431H68.3103C69.2739 54.3431 70.0612 55.0558 70.0612 55.9285C70.0612 56.8012 69.2739 57.5121 68.3103 57.5121H70.8121C71.7757 57.5121 72.563 58.2249 72.563 59.0976C72.563 59.9703 71.7757 60.6812 70.8121 60.6812Z" fill="#1CA686"/>
<path opacity="0.1" d="M199.378 22.82L5.1126 27.0927C2.74901 32.589 1.18177 38.8034 0.459961 45.2433H195.975C197.247 41.4755 198.191 37.6048 198.796 33.6744C199.38 29.8908 199.613 26.2309 199.378 22.82ZM39.9029 36.8289H36.3993C37.3629 36.8289 38.152 37.5434 38.152 38.4143C38.152 39.2852 37.3629 39.9997 36.3993 39.9997H16.1324C15.1706 39.9997 14.3815 39.2852 14.3815 38.4143C14.3815 37.5434 15.1706 36.8289 16.1324 36.8289H19.6378C18.6742 36.8289 17.8869 36.1162 17.8869 35.2453C17.8869 34.3744 18.6742 33.6598 19.6378 33.6598H17.1342C16.1706 33.6598 15.3815 32.9471 15.3815 32.0762C15.3815 31.2053 16.1706 30.4908 17.1342 30.4908H37.4011C38.3647 30.4908 39.152 31.2035 39.152 32.0762C39.152 32.9489 38.3647 33.6598 37.4011 33.6598H39.9029C40.8665 33.6598 41.6538 34.3744 41.6538 35.2453C41.6538 36.1162 40.8665 36.8289 39.9029 36.8289Z" fill="#1CA686"/>
<path opacity="0.1" d="M99.1036 142.249C143.986 142.249 180.371 138.902 180.371 134.773C180.371 130.644 143.986 127.296 99.1036 127.296C54.2207 127.296 17.8359 130.644 17.8359 134.773C17.8359 138.902 54.2207 142.249 99.1036 142.249Z" fill="#1CA686"/>
<path d="M181.932 73.0209C181.931 73.0082 181.931 72.9955 181.932 72.9828C181.932 72.9628 181.932 72.9446 181.932 72.9264C181.895 72.7182 181.817 72.5196 181.701 72.3428C181.285 71.6768 180.705 71.1285 180.017 70.7501C178.817 70.0919 177.168 69.8101 176.688 68.5538C176.541 68.1647 176.537 67.741 176.464 67.3338C176.337 66.6992 176.045 66.1093 175.618 65.6233C175.191 65.1373 174.643 64.7722 174.03 64.5647C173.459 64.3738 172.843 64.3211 172.288 64.0847C171.048 63.5575 170.394 62.2575 169.839 61.0557C169.122 59.5042 168.404 57.9521 167.686 56.3994C167.141 56.674 166.436 56.5449 165.925 56.2013C165.432 55.8347 165.04 55.3502 164.785 54.7922C164.045 53.3559 163.727 51.7286 162.857 50.3614C161.988 48.9941 160.252 47.9141 158.718 48.5087C158.418 48.6584 158.108 48.7866 157.79 48.8923C156.476 49.1996 155.021 47.6978 153.896 48.4268C153.709 48.5467 153.557 48.7135 153.454 48.9105C153.453 48.8984 153.453 48.8862 153.454 48.8741C153.308 49.1699 153.226 49.4934 153.214 49.8232C153.214 49.8905 153.214 49.9559 153.214 50.0195C153.214 50.0305 153.214 50.0414 153.214 50.0523C153.214 50.3141 153.23 50.5795 153.234 50.845C153.238 51.0679 153.221 51.2907 153.183 51.5104V51.4922C153.162 51.6159 153.13 51.7375 153.089 51.8559C152.796 52.6413 151.985 53.1559 151.605 53.894V53.8577C151.562 53.938 151.525 54.0212 151.494 54.1067C151.426 54.3002 151.391 54.5036 151.39 54.7086C151.358 56.0958 152.829 57.4012 152.999 58.8903C153.121 59.9448 153.363 60.283 154.259 60.8793L154.456 61.0103C154.378 61.0103 154.298 61.0212 154.209 61.023C154.174 61.0236 154.139 61.0273 154.105 61.0339C153.947 60.9903 153.781 60.9824 153.619 61.0107C153.458 61.039 153.304 61.1028 153.17 61.1975C152.483 61.743 150.858 61.323 150.136 61.1975C149.414 61.0721 146.941 61.4103 146.596 62.7811C146.251 64.152 145.658 66.9811 145.658 66.9811C145.658 66.9811 145.658 68.7756 145.438 69.1101C145.429 69.1336 145.429 69.1593 145.438 69.1828C145.438 69.6865 145.456 72.7137 144.969 73.4937C144.849 73.6755 144.858 74.0773 144.947 74.5718C144.434 75.2318 143.952 76.0027 144.038 76.5082C144.194 77.5427 146.292 80.7954 149.3 79.0536C149.3 79.0536 151.01 75.9245 148.858 74.2609L148.95 73.8973C149.601 74.6973 150.083 75.2718 150.083 75.2718C150.083 75.2718 150.109 75.3391 150.149 75.4536H150.083C150.364 76.2182 150.534 77.019 150.589 77.8318C150.58 78.1298 150.526 78.4247 150.429 78.7063H150.485C150.469 78.7681 150.45 78.8299 150.429 78.8881C150.323 79.1951 150.126 79.4623 149.863 79.6536C148.36 80.719 146.638 88.3279 146.638 88.3279C146.638 88.3279 143.227 100.628 142.545 101.328C141.981 101.902 145.523 103.52 148.181 103.328C148.552 103.306 148.919 103.236 149.272 103.12C149.289 103.302 149.307 103.484 149.325 103.649C149.381 104.195 149.44 104.7 149.476 104.859C149.57 105.255 149.758 109.302 149.758 109.302C149.758 109.302 149.374 111.931 149.467 113.76C149.467 113.886 149.483 114.006 149.494 114.124L149.163 114.175C148.661 115.302 150.729 124.707 151.01 125.498C151.197 126.121 151.302 126.766 151.323 127.416C151.323 127.416 151.141 128.085 151.292 128.451C151.386 128.674 151.447 128.91 151.474 129.151C151.474 129.151 151.35 129.758 151.538 130.154C151.725 130.551 151.507 131.245 151.507 131.245C151.507 131.245 151.445 133.985 150.881 135.476C150.728 135.877 150.683 136.312 150.752 136.736C150.82 137.16 151 137.558 151.272 137.891C151.311 137.942 151.354 137.992 151.399 138.038C151.399 138.038 154.509 138.063 155.056 138.038H155.127C155.347 138.007 155.91 135.542 155.409 134.354C154.907 133.167 155.347 131.705 155.347 131.705V129.545C155.347 129.545 155.91 129.025 155.347 127.909C154.783 126.793 154.876 126.455 154.876 126.455C154.876 126.455 155.503 124.658 154.845 124.08C154.187 123.502 154.97 121.309 154.97 121.309L155.192 114C155.076 113.962 154.958 113.932 154.838 113.909C154.825 113.789 154.812 113.666 154.799 113.535C154.67 112.211 154.559 110.411 154.847 109.898C155.134 109.386 155.272 104.909 155.318 101.799L158.183 101.908C158.243 103.362 158.307 104.689 158.347 104.859C158.441 105.255 158.63 109.302 158.63 109.302C158.63 109.302 158.245 111.931 158.338 113.76C158.338 113.886 158.354 114.006 158.365 114.124L158.034 114.175C157.532 115.302 159.599 124.707 159.881 125.498C160.068 126.121 160.174 126.766 160.196 127.416C160.196 127.416 160.014 128.085 160.163 128.451C160.257 128.674 160.318 128.91 160.345 129.151C160.345 129.151 160.221 129.758 160.408 130.154C160.596 130.551 160.378 131.245 160.378 131.245C160.378 131.245 160.316 133.985 159.752 135.476C159.601 135.878 159.559 136.313 159.63 136.736C159.701 137.159 159.882 137.556 160.156 137.887C160.195 137.939 160.237 137.988 160.283 138.034C160.283 138.034 163.392 138.06 163.939 138.034H164.01C164.23 138.003 164.794 135.538 164.292 134.351C163.79 133.163 164.23 131.702 164.23 131.702V129.545C164.23 129.545 164.794 129.025 164.23 127.909C163.667 126.793 163.759 126.455 163.759 126.455C163.759 126.455 164.387 124.658 163.728 124.08C163.07 123.502 163.854 121.309 163.854 121.309L164.079 114C163.96 113.962 163.839 113.931 163.716 113.909C163.703 113.789 163.69 113.666 163.677 113.535C163.548 112.211 163.437 110.411 163.725 109.898C163.956 109.478 164.088 106.773 164.148 104.131C164.148 103.949 164.148 103.768 164.163 103.586C165.479 103.531 166.79 103.384 168.086 103.146C168.086 103.146 166.554 97.726 167.023 96.8442C167.225 96.4642 166.934 94.4406 166.536 92.2606C167.091 92.7101 167.781 92.9598 168.496 92.9697C169.181 94.2878 171.266 97.3205 172.441 97.7878C173.819 98.3332 172.785 93.4969 172.128 92.797C171.818 92.4148 171.556 91.9951 171.35 91.5479C171.368 91.5261 171.388 91.5079 171.406 91.4879C171.425 91.4679 171.439 86.3425 171.125 86.4353C170.81 86.528 170.436 85.6734 170.436 85.6734L169.465 77.1518L169.057 73.5846C169.397 73.8355 169.801 73.9955 170.148 74.2446C171.094 74.9373 171.403 76.1536 171.817 77.23C172.159 78.1154 172.639 78.9936 173.426 79.5499C174.214 80.1063 175.368 80.2535 176.154 79.6899C176.881 79.1608 177.095 78.2063 177.255 77.3354C178.575 77.799 180.177 76.5591 180.006 75.2045C179.964 74.87 179.841 74.5046 180.015 74.2118C180.364 73.6337 181.47 73.97 181.833 73.3991C181.895 73.3004 181.926 73.1862 181.924 73.07C181.93 73.0446 181.932 73.0337 181.932 73.0209ZM164.276 77.7081C164.256 78.0336 164.703 80.6481 165.067 82.7171C164.768 81.4281 164.17 80.0517 162.992 79.1081C162.992 79.1081 162.992 79.0427 162.977 78.9263H162.992C162.992 78.9263 162.943 78.4063 162.936 77.6663C162.938 77.0104 162.986 76.3554 163.081 75.7064V75.69H163.057C163.057 75.6354 163.072 75.5791 163.081 75.5245C163.153 74.9768 163.302 74.4419 163.523 73.9355C163.621 73.737 163.733 73.5462 163.859 73.3646C164.054 75.1227 164.294 77.3791 164.276 77.7081ZM165.254 83.7662C165.414 84.6589 165.528 85.2862 165.528 85.2862L166.494 91.9152V91.9461C165.974 89.1479 165.31 86.1989 165.31 86.1989C165.378 85.3883 165.359 84.5728 165.254 83.7662Z" fill="url(#paint0_linear_367_17008)"/>
<path d="M153.421 59.2539C153.24 57.574 151.421 56.1249 151.967 54.5267C152.263 53.6558 153.191 53.1231 153.503 52.2577C153.711 51.6868 153.618 51.0595 153.62 50.4523C153.621 49.845 153.763 49.1668 154.269 48.8305C155.36 48.1032 156.763 49.5995 158.036 49.2941C158.344 49.1889 158.643 49.0613 158.932 48.9123C160.418 48.3214 162.098 49.3977 162.932 50.7577C163.767 52.1177 164.079 53.7395 164.796 55.1685C165.04 55.7204 165.419 56.2023 165.898 56.5703C166.392 56.9121 167.068 57.0412 167.603 56.7685L169.685 61.4048C170.23 62.5993 170.856 63.8938 172.048 64.4193C172.583 64.6538 173.179 64.7065 173.732 64.8975C174.333 65.1093 174.867 65.4753 175.282 65.9587C175.697 66.4421 175.977 67.026 176.096 67.6519C176.166 68.0592 176.168 68.481 176.312 68.8683C176.776 70.1192 178.37 70.3992 179.532 71.0501C180.204 71.429 180.767 71.9744 181.168 72.6337C181.35 72.9482 181.506 73.3609 181.312 73.67C180.961 74.2373 179.894 73.9027 179.556 74.4791C179.385 74.77 179.505 75.1336 179.556 75.4682C179.721 76.8154 178.17 78.0499 176.894 77.5881C176.739 78.4554 176.53 79.4063 175.828 79.9317C175.074 80.4954 173.956 80.3463 173.194 79.7935C172.432 79.2408 171.97 78.3663 171.639 77.4845C171.237 76.4118 170.937 75.2009 170.023 74.5118C169.692 74.2646 169.296 74.1046 168.972 73.8555C168.245 73.2991 167.881 72.381 167.621 71.4919C167.285 70.3828 167.018 69.2428 166.53 68.1956C166.043 67.1483 165.272 66.1738 164.216 65.6956C163.225 65.2502 162.083 65.2793 161.059 64.9175C159.298 64.2956 157.994 62.8139 156.241 62.1157C155.681 61.8802 155.15 61.58 154.66 61.2212C153.778 60.6412 153.538 60.3048 153.421 59.2539Z" fill="#3F3D56"/>
<g opacity="0.1">
<path d="M153.585 51.9013C153.622 51.8302 153.655 51.7567 153.683 51.6813C153.889 51.1104 153.798 50.4832 153.8 49.8759C153.799 49.6734 153.818 49.4713 153.856 49.2723C153.688 49.6315 153.607 50.025 153.618 50.4213C153.616 50.9104 153.674 51.4231 153.585 51.9013Z" fill="black"/>
<path d="M175.999 79.3608C175.245 79.9226 174.126 79.7753 173.365 79.2208C172.603 78.6663 172.139 77.7954 171.817 76.9099C171.416 75.8372 171.117 74.6264 170.201 73.9373C169.872 73.69 169.474 73.5282 169.152 73.2809C168.425 72.7246 168.061 71.8064 167.799 70.9264C167.463 69.8173 167.198 68.6774 166.708 67.6301C166.219 66.5829 165.452 65.6083 164.394 65.1302C163.405 64.6847 162.263 64.7138 161.239 64.352C159.476 63.7302 158.172 62.2484 156.421 61.5502C155.861 61.314 155.329 61.0138 154.838 60.6557C153.976 60.0612 153.747 59.7248 153.62 58.6757C153.438 57.1012 151.838 55.7285 152.087 54.2449C152.046 54.3252 152.011 54.4077 151.98 54.4922C151.434 56.0921 153.252 57.5412 153.434 59.2194C153.552 60.2684 153.798 60.6048 154.652 61.1993C155.144 61.5575 155.675 61.8576 156.236 62.0939C157.987 62.792 159.29 64.2756 161.054 64.8956C162.078 65.2593 163.219 65.2283 164.208 65.6738C165.267 66.152 166.027 67.1283 166.523 68.1737C167.019 69.2192 167.285 70.3555 167.614 71.47C167.881 72.35 168.232 73.2682 168.967 73.8245C169.296 74.0718 169.694 74.2336 170.016 74.4809C170.925 75.17 171.23 76.3809 171.632 77.4536C171.963 78.3354 172.427 79.2081 173.188 79.7608C173.95 80.3135 175.068 80.4626 175.823 79.9008C176.305 79.5372 176.55 78.9826 176.712 78.3881C176.568 78.7716 176.321 79.1081 175.999 79.3608Z" fill="black"/>
<path d="M179.736 73.9082C179.666 74.0386 179.636 74.1864 179.648 74.3336C180.059 73.9282 180.986 74.1664 181.31 73.6446C181.385 73.5156 181.415 73.3651 181.394 73.2173C180.972 73.6173 180.045 73.3791 179.736 73.9082Z" fill="black"/>
<path d="M177.064 77.0172C177.029 77.199 176.995 77.3936 176.951 77.5827C178.064 77.9299 179.349 77.0372 179.531 75.91C179.089 76.7772 177.998 77.3572 177.064 77.0172Z" fill="black"/>
</g>
<path d="M155.77 60.1285C155.77 60.1285 156.376 61.3502 154.588 61.3757C152.801 61.4012 155.739 69.3101 155.739 69.3101L158.71 73.0918L162.406 71.0919L162.619 65.5756L162.892 62.243C162.892 62.243 159.437 61.1212 160.074 59.6375C160.71 58.1539 155.77 60.1285 155.77 60.1285Z" fill="#FBBEBE"/>
<path d="M166.499 92.3751C166.499 92.3751 168.681 94.5224 171.226 91.6733L169.272 89.5988H166.799L166.499 92.3751Z" fill="#575A89"/>
<path opacity="0.1" d="M166.736 89.5988L166.436 92.3751C166.436 92.3751 168.617 94.5224 171.163 91.6733" fill="black"/>
<path d="M170.406 89.977C170.406 89.977 171.284 92.2806 171.921 92.9769C172.557 93.6733 173.557 98.4914 172.224 97.9459C170.891 97.4005 168.346 93.3406 168.193 92.6442C168.041 91.9479 167.982 89.977 167.982 89.977H170.406Z" fill="#FBBEBE"/>
<path d="M151.347 101.795L163.103 102.25L161.739 97.2787L155.818 97.1587L151.347 101.795Z" fill="#575A89"/>
<path opacity="0.1" d="M152.981 101.795L164.739 102.25L163.376 97.2787L157.452 97.1587L152.981 101.795Z" fill="black"/>
<path d="M155.194 110C154.916 110.518 155.023 112.311 155.149 113.637C155.229 114.48 155.316 115.129 155.316 115.129C155.316 115.129 150.921 116.493 150.256 115.311C150.087 115.011 150.003 114.486 149.974 113.869C149.883 112.051 150.256 109.431 150.256 109.431C150.256 109.431 150.074 105.402 149.983 105.008C149.947 104.849 149.891 104.348 149.836 103.804C149.756 102.997 149.68 102.099 149.68 102.099L155.68 98.9168C155.68 98.9168 155.68 99.5132 155.669 100.431C155.636 103.315 155.54 109.364 155.194 110Z" fill="#FBBEBE"/>
<path opacity="0.1" d="M155.315 115.129C155.315 115.129 150.921 116.493 150.255 115.311C150.086 115.011 150.003 114.486 149.974 113.869C150.883 113.731 153.65 113.349 155.148 113.637C155.228 114.48 155.315 115.129 155.315 115.129Z" fill="black"/>
<path d="M155.466 138.038H155.397C154.868 138.058 151.861 138.038 151.861 138.038C151.817 137.992 151.776 137.943 151.737 137.892C151.472 137.56 151.296 137.164 151.228 136.744C151.159 136.323 151.2 135.892 151.346 135.493C151.892 134.007 151.952 131.28 151.952 131.28C151.952 131.28 152.165 130.584 151.983 130.189C151.801 129.794 151.921 129.189 151.921 129.189C151.893 128.95 151.832 128.715 151.739 128.493C151.588 128.129 151.77 127.462 151.77 127.462C151.749 126.815 151.647 126.174 151.466 125.553C151.194 124.765 149.194 115.402 149.679 114.28C149.679 114.28 153.921 113.553 155.528 114.098L155.315 121.371C155.315 121.371 154.557 123.553 155.194 124.129C155.83 124.705 155.224 126.493 155.224 126.493C155.224 126.493 155.134 126.825 155.679 127.947C156.224 129.069 155.679 129.584 155.679 129.584V131.734C155.679 131.734 155.255 133.189 155.739 134.371C156.223 135.553 155.679 138 155.466 138.038Z" fill="#3F3D56"/>
<path d="M163.792 110C163.514 110.518 163.621 112.311 163.746 113.637C163.826 114.48 163.914 115.129 163.914 115.129C163.914 115.129 159.519 116.493 158.854 115.311C158.685 115.011 158.601 114.486 158.572 113.869C158.481 112.051 158.854 109.431 158.854 109.431C158.854 109.431 158.672 105.402 158.581 105.008C158.532 104.795 158.446 102.766 158.379 100.946C158.323 99.3932 158.277 97.9896 158.277 97.9896L164.277 98.9168C164.277 98.9168 164.277 101.555 164.203 104.266C164.137 106.895 164.015 109.589 163.792 110Z" fill="#FBBEBE"/>
<path opacity="0.1" d="M163.914 115.129C163.914 115.129 159.52 116.493 158.854 115.311C158.685 115.011 158.601 114.486 158.572 113.869C159.481 113.731 162.249 113.349 163.747 113.637C163.827 114.48 163.914 115.129 163.914 115.129Z" fill="black"/>
<path d="M164.065 138.038H163.995C163.466 138.058 160.459 138.038 160.459 138.038C160.415 137.992 160.374 137.943 160.336 137.892C160.07 137.56 159.894 137.164 159.826 136.744C159.757 136.323 159.798 135.892 159.945 135.493C160.49 134 160.545 131.273 160.545 131.273C160.545 131.273 160.757 130.576 160.576 130.182C160.394 129.787 160.514 129.182 160.514 129.182C160.486 128.942 160.425 128.708 160.332 128.485C160.181 128.122 160.363 127.454 160.363 127.454C160.342 126.808 160.24 126.167 160.059 125.545C159.786 124.758 157.786 115.395 158.272 114.273C158.272 114.273 162.514 113.546 164.121 114.091L163.908 121.364C163.908 121.364 163.15 123.545 163.786 124.122C164.423 124.698 163.817 126.485 163.817 126.485C163.817 126.485 163.726 126.818 164.272 127.94C164.817 129.062 164.272 129.576 164.272 129.576V131.727C164.272 131.727 163.848 133.182 164.332 134.363C164.815 135.545 164.277 138 164.065 138.038Z" fill="#3F3D56"/>
<path opacity="0.1" d="M158.134 61.5575C160.494 61.5575 162.407 59.6446 162.407 57.2849C162.407 54.9251 160.494 53.0122 158.134 53.0122C155.774 53.0122 153.861 54.9251 153.861 57.2849C153.861 59.6446 155.774 61.5575 158.134 61.5575Z" fill="black"/>
<path d="M158.134 61.3757C160.494 61.3757 162.407 59.4628 162.407 57.103C162.407 54.7433 160.494 52.8304 158.134 52.8304C155.774 52.8304 153.861 54.7433 153.861 57.103C153.861 59.4628 155.774 61.3757 158.134 61.3757Z" fill="#FBBEBE"/>
<path opacity="0.1" d="M149.68 102.099L155.68 98.9168C155.68 98.9168 155.68 99.5132 155.669 100.431C154.792 100.955 153.471 101.742 152.2 102.486C151.509 102.891 150.834 103.284 150.256 103.613C150.122 103.686 149.981 103.747 149.836 103.795C149.756 102.997 149.68 102.099 149.68 102.099Z" fill="black"/>
<path opacity="0.1" d="M164.277 98.9096C164.277 98.9096 164.277 101.548 164.202 104.259H164.18C163.732 104.275 163.283 104.261 162.837 104.217C162.053 104.133 161.426 103.926 161.2 103.515C160.744 102.715 159.466 101.697 158.386 100.939C158.33 99.3859 158.284 97.9823 158.284 97.9823L164.277 98.9096Z" fill="black"/>
<path d="M163.161 75.8027C163.009 76.9862 162.98 78.1822 163.074 79.3717C165.83 81.6444 165.316 86.4316 165.316 86.4316C165.316 86.4316 167.438 96.1296 166.983 97.0078C166.528 97.8859 168.012 103.28 168.012 103.28C166.748 103.52 165.467 103.667 164.181 103.72C163.733 103.736 163.284 103.722 162.838 103.679C162.054 103.595 161.427 103.388 161.201 102.977C160.354 101.493 156.687 99.2805 156.687 99.2805C156.687 99.2805 154.363 100.673 152.2 101.94C151.509 102.346 150.834 102.739 150.256 103.068C149.787 103.317 149.268 103.459 148.738 103.484C146.165 103.675 142.738 102.064 143.283 101.493C143.951 100.795 147.254 88.5534 147.254 88.5534C147.254 88.5534 148.92 80.9772 150.374 79.9172C150.629 79.7246 150.819 79.4588 150.92 79.1554C151.418 77.7718 150.585 75.5536 150.585 75.5536C150.585 75.5536 145.889 69.7665 146.1 69.4319C146.311 69.0974 146.312 67.3119 146.312 67.3119C146.312 67.3119 146.889 64.4938 147.222 63.1302C147.554 61.7666 149.949 61.4321 150.645 61.5539C151.341 61.6757 152.916 62.0993 153.581 61.5539C154.247 61.0084 155.37 61.7666 155.37 61.7666L158.13 62.5266L160.612 61.0721C160.612 61.0721 163.099 61.1993 163.312 61.5321C163.525 61.8648 166.798 62.5029 166.798 62.5029C168.463 63.6229 168.403 68.9574 168.403 68.9574C168.403 68.9574 164.403 72.4409 163.585 74.23C163.373 74.7326 163.23 75.2617 163.161 75.8027Z" fill="#575A89"/>
<path d="M167.498 68.2192L168.407 68.9465L169.347 77.4009L170.285 85.8862C170.285 85.8862 170.649 86.7352 170.952 86.6443C171.256 86.5534 171.225 91.6733 171.225 91.6733C171.225 91.6733 167.745 89.5334 166.498 92.3751L165.527 85.5225C165.527 85.5225 164.283 78.5227 164.314 77.9772C164.345 77.4318 163.678 71.5228 163.678 71.5228L167.498 68.2192Z" fill="#575A89"/>
<path d="M146.77 68.6137L146.103 69.4319C146.103 69.4319 146.165 72.9464 145.649 73.7955C145.132 74.6445 147.074 79.6136 147.801 79.3099C148.529 79.0063 150.165 71.2501 150.165 71.1592C150.165 71.0682 146.77 68.6137 146.77 68.6137Z" fill="#575A89"/>
<path d="M146.71 73.6136C146.71 73.6136 144.588 75.7645 144.739 76.7954C144.89 77.8263 146.921 81.0644 149.83 79.3245C149.83 79.3245 152.528 74.25 146.71 73.6136Z" fill="#575A89"/>
<path opacity="0.1" d="M155.397 138.043C154.868 138.063 151.861 138.043 151.861 138.043C151.817 137.997 151.776 137.949 151.737 137.898C152.506 137.636 154.168 137.243 155.397 138.043Z" fill="black"/>
<path opacity="0.1" d="M163.999 138.043C163.47 138.063 160.462 138.043 160.462 138.043C160.418 137.997 160.377 137.949 160.339 137.898C161.104 137.636 162.766 137.243 163.999 138.043Z" fill="black"/>
<path opacity="0.1" d="M152.414 84.748C151.95 89.1952 152.103 98.0205 152.199 101.94C151.508 102.346 150.834 102.739 150.256 103.068C149.786 103.317 149.268 103.459 148.737 103.484C148.545 102.299 151.214 90.1224 152.414 84.748Z" fill="black"/>
<path opacity="0.1" d="M152.981 82.2244C152.969 82.288 152.749 83.2553 152.414 84.748C152.545 83.4735 152.727 82.559 152.981 82.2244Z" fill="black"/>
<path opacity="0.1" d="M160.363 81.7444C160.363 81.7444 162.939 97.9259 155.311 99.9259C155.309 99.9186 160.589 99.1168 160.363 81.7444Z" fill="black"/>
<path opacity="0.1" d="M164.181 103.72C163.733 103.736 163.284 103.722 162.837 103.679L160.779 81.5535C162.092 82.4117 163.663 98.1132 164.181 103.72Z" fill="black"/>
<path opacity="0.1" d="M154.952 54.5904C155.089 54.5795 155.226 54.5937 155.358 54.6322C155.551 54.7283 155.724 54.859 155.87 55.0176C156.108 55.2158 156.391 55.3506 156.694 55.4094C156.998 55.4682 157.311 55.4492 157.605 55.354C157.812 55.2613 158.032 55.2 158.258 55.1722C158.605 55.1722 158.905 55.4267 159.085 55.7176C159.265 56.0085 159.358 56.354 159.512 56.6649C159.667 56.9758 159.914 57.2703 160.254 57.3467C160.417 57.353 160.577 57.39 160.727 57.4558C160.818 57.5301 160.889 57.6273 160.93 57.7376C161.214 58.3503 161.439 59.0739 162.045 59.3739C162.268 59.4771 162.51 59.5299 162.756 59.5285C163.005 59.5468 163.256 59.5017 163.483 59.3975C163.707 59.2726 163.892 59.0882 164.018 58.8648C164.396 58.2394 164.439 57.4649 164.35 56.7394C164.239 55.8243 163.913 54.9483 163.399 54.1831C162.858 53.4092 162.121 52.7928 161.263 52.397C160.405 52.0013 159.458 51.8402 158.518 51.9304C158.189 51.9673 157.864 52.0281 157.545 52.1122C156.389 52.4213 155.254 52.9995 154.552 53.9686C154.383 54.2105 154.196 54.4401 153.994 54.6558C154.312 54.6249 154.632 54.5976 154.952 54.5904Z" fill="black"/>
<path d="M154.952 54.4086C155.089 54.3977 155.226 54.4119 155.358 54.4504C155.551 54.5465 155.724 54.6772 155.87 54.8358C156.108 55.034 156.391 55.1688 156.694 55.2276C156.998 55.2864 157.311 55.2673 157.605 55.1722C157.812 55.0795 158.032 55.0182 158.258 54.9904C158.605 54.9904 158.905 55.2449 159.085 55.5358C159.265 55.8267 159.358 56.1722 159.512 56.4831C159.667 56.794 159.914 57.0885 160.254 57.1649C160.417 57.1712 160.577 57.2082 160.727 57.274C160.818 57.3483 160.889 57.4455 160.93 57.5558C161.214 58.1685 161.439 58.8921 162.045 59.1921C162.268 59.2953 162.51 59.3481 162.756 59.3466C163.005 59.365 163.256 59.3199 163.483 59.2157C163.707 59.0907 163.892 58.9064 164.018 58.683C164.396 58.0576 164.439 57.283 164.35 56.5576C164.239 55.6425 163.913 54.7665 163.399 54.0013C162.858 53.2273 162.121 52.611 161.263 52.2152C160.405 51.8195 159.458 51.6584 158.518 51.7486C158.189 51.7855 157.864 51.8463 157.545 51.9304C156.389 52.2395 155.254 52.8177 154.552 53.7868C154.383 54.0286 154.196 54.2583 153.994 54.474C154.312 54.4431 154.632 54.4158 154.952 54.4086Z" fill="#3F3D56"/>
<path opacity="0.1" d="M150.316 64.5829C150.316 64.5829 150.529 66.2811 149.802 66.7047C149.074 67.1283 150.316 64.5829 150.316 64.5829Z" fill="black"/>
<path opacity="0.1" d="M165.739 77.7354C165.739 77.7354 167.466 75.19 167.71 75.9173C167.954 76.6445 165.739 77.7354 165.739 77.7354Z" fill="black"/>
<path opacity="0.1" d="M165.861 78.5827C165.861 78.5827 167.565 76.4918 167.729 77.31C167.892 78.1281 165.861 78.5827 165.861 78.5827Z" fill="black"/>
<path opacity="0.1" d="M160.858 76.0936C160.24 76.1024 159.637 75.9039 159.145 75.53H158.996C158.486 75.996 157.816 76.248 157.125 76.2336C156.766 76.2419 156.409 76.1773 156.075 76.0435C155.742 75.9098 155.439 75.7097 155.185 75.4554H154.987C154.464 75.8818 153.806 76.1089 153.131 76.0966C152.456 76.0843 151.807 75.8333 151.3 75.3882L150.589 75.3754C150.589 75.3754 151.422 77.5936 150.923 78.9772L163.074 79.1936C162.98 78.0041 163.009 76.808 163.161 75.6245V75.6082L162.494 75.5954C162.014 75.9283 161.442 76.1025 160.858 76.0936Z" fill="black"/>
<path opacity="0.1" d="M160.858 76.4572C160.24 76.466 159.637 76.2676 159.145 75.8936H158.996C158.486 76.3597 157.816 76.6116 157.125 76.5972C156.766 76.6056 156.409 76.5409 156.075 76.4071C155.742 76.2734 155.439 76.0733 155.185 75.8191H154.987C154.464 76.2454 153.806 76.4726 153.131 76.4602C152.456 76.4479 151.807 76.1969 151.3 75.7518L150.589 75.7391C150.589 75.7391 151.422 77.9572 150.923 79.3408L163.074 79.5572C162.98 78.3677 163.009 77.1716 163.161 75.9882V75.9718L162.494 75.9591C162.014 76.292 161.442 76.4662 160.858 76.4572Z" fill="black"/>
<path d="M160.858 76.2754C160.24 76.2842 159.637 76.0857 159.145 75.7118H158.996C158.486 76.1778 157.816 76.4298 157.125 76.4154C156.766 76.4237 156.409 76.3591 156.075 76.2253C155.742 76.0916 155.439 75.8915 155.185 75.6372H154.987C154.464 76.0636 153.806 76.2907 153.131 76.2784C152.456 76.2661 151.807 76.0151 151.3 75.57L150.589 75.5573C150.589 75.5573 151.422 77.7754 150.923 79.159L163.074 79.3754C162.98 78.1859 163.009 76.9898 163.161 75.8063V75.79L162.494 75.7772C162.014 76.1101 161.442 76.2844 160.858 76.2754Z" fill="#3F3D56"/>
<path opacity="0.1" d="M160.317 64.152C160.317 64.152 162.876 64.3156 162.892 64.6793C162.908 65.0429 160.317 64.152 160.317 64.152Z" fill="black"/>
<path opacity="0.1" d="M154.103 62.6011C154.103 62.6011 151.545 62.7648 151.528 63.1284C151.512 63.492 154.103 62.6011 154.103 62.6011Z" fill="black"/>
<path opacity="0.1" d="M163.879 70.0355C163.854 70.0174 163.828 70.0028 163.803 69.9865C164.457 70.5755 164.348 71.8628 163.545 72.9246C162.741 73.9864 161.521 74.4282 160.779 73.9518C160.803 73.9718 160.823 73.9937 160.848 74.0137C161.576 74.57 162.848 74.1337 163.688 73.0355C164.528 71.9373 164.61 70.5937 163.879 70.0355Z" fill="black"/>
<path opacity="0.1" d="M149.826 72.7882C149.179 71.621 149.263 70.3319 149.996 69.8428C149.968 69.8555 149.939 69.8665 149.912 69.881C149.108 70.3283 149.003 71.6682 149.668 72.8755C150.334 74.0827 151.534 74.6936 152.337 74.2537C152.364 74.2384 152.389 74.2214 152.414 74.2027C151.612 74.5664 150.474 73.9555 149.826 72.7882Z" fill="black"/>
<path opacity="0.1" d="M150.692 62.9448L150.458 63.3084L149.859 62.9902L150.174 62.5066C150.382 62.6049 150.561 62.756 150.692 62.9448Z" fill="black"/>
<path d="M146.892 76.4009C146.892 76.4009 147.425 73.8955 146.71 73.0991C145.996 72.3028 146.225 68.1283 147.316 68.2192C148.406 68.3101 150.043 71.6119 149.77 72.31C149.497 73.0082 148.466 76.5827 148.466 76.5827L146.892 76.4009Z" fill="#FBBEBE"/>
<path opacity="0.1" d="M163.999 58.3248C163.873 58.5482 163.688 58.7326 163.464 58.8576C163.237 58.9618 162.987 59.0068 162.737 58.9885C162.492 58.9899 162.249 58.9371 162.026 58.8339C161.421 58.5321 161.195 57.8085 160.912 57.1976C160.876 57.0874 160.812 56.9884 160.726 56.9103C160.579 56.8434 160.42 56.8045 160.259 56.7958C159.919 56.7194 159.673 56.4231 159.517 56.114C159.361 55.8049 159.268 55.4631 159.09 55.1667C158.912 54.8704 158.61 54.6104 158.263 54.6213C158.037 54.6512 157.816 54.7156 157.61 54.8122C157.316 54.9066 157.002 54.9251 156.699 54.866C156.396 54.8068 156.113 54.672 155.875 54.474C155.729 54.3153 155.556 54.1847 155.363 54.0886C155.231 54.0501 155.094 54.0359 154.957 54.0467C154.748 54.0467 154.541 54.0667 154.332 54.0831C154.228 54.2189 154.117 54.3488 153.999 54.4722C154.317 54.4449 154.637 54.4176 154.957 54.4104C155.094 54.3995 155.231 54.4137 155.363 54.4522C155.556 54.5484 155.729 54.679 155.875 54.8376C156.113 55.0356 156.396 55.1705 156.699 55.2296C157.002 55.2887 157.316 55.2702 157.61 55.1758C157.816 55.0792 158.037 55.0149 158.263 54.9849C158.61 54.9849 158.91 55.2394 159.09 55.5303C159.27 55.8212 159.363 56.1667 159.517 56.4776C159.672 56.7885 159.919 57.083 160.259 57.1594C160.42 57.1681 160.579 57.207 160.726 57.2739C160.818 57.3483 160.888 57.4455 160.93 57.5558C161.213 58.1685 161.439 58.8921 162.044 59.1921C162.267 59.2953 162.51 59.3481 162.755 59.3466C163.005 59.365 163.255 59.3199 163.482 59.2157C163.706 59.0907 163.891 58.9064 164.017 58.683C164.299 58.1691 164.426 57.584 164.381 56.9994C164.367 57.4663 164.236 57.9222 163.999 58.3248Z" fill="black"/>
<path d="M147.698 78.3881C148.602 78.3881 149.334 77.8916 149.334 77.279C149.334 76.6665 148.602 76.17 147.698 76.17C146.794 76.17 146.062 76.6665 146.062 77.279C146.062 77.8916 146.794 78.3881 147.698 78.3881Z" fill="#575A89"/>
<path d="M94.3604 139.014C125.338 139.014 150.45 113.902 150.45 82.9244C150.45 51.9468 125.338 26.8345 94.3604 26.8345C63.3828 26.8345 38.2705 51.9468 38.2705 82.9244C38.2705 113.902 63.3828 139.014 94.3604 139.014Z" fill="#1CA686"/>
<path d="M123.79 111.111C123.79 119.966 109.871 111.868 94.9473 111.868C80.024 111.868 64.9297 119.631 64.9297 110.777C64.9297 105.728 69.7405 98.7059 76.6422 93.606C81.8421 89.7625 88.2275 87.0098 94.6419 87.0098C101.238 87.0098 107.7 89.9897 112.854 94.0806C119.36 99.2387 123.79 106.169 123.79 111.111Z" fill="#444053"/>
<path d="M112.853 94.0769C104.92 92.8824 90.5732 91.4261 76.6426 93.6024C81.8425 89.7588 88.2278 87.0061 94.6423 87.0061C101.237 87.0061 107.698 89.9861 112.853 94.0769Z" fill="#F6F8FB"/>
<path opacity="0.05" d="M64.9296 43.3306C64.9296 43.3306 48.0336 54.1322 48.1717 71.0283C48.3099 87.9243 64.9296 43.3306 64.9296 43.3306Z" fill="black"/>
<path d="M150.429 12.8239C150.429 12.8239 135.12 11.9021 136.925 22.6291C136.925 22.6291 136.562 24.5236 138.285 25.3854C138.285 25.3854 138.313 24.5909 139.854 24.86C140.404 24.9519 140.962 24.9788 141.518 24.94C142.269 24.8889 142.983 24.594 143.551 24.1C143.551 24.1 147.854 22.3237 149.529 15.2893C149.529 15.2893 150.767 13.7548 150.718 13.362L148.134 14.4638C148.134 14.4638 149.016 16.3274 148.316 17.8765C148.316 17.8765 148.232 14.5329 147.736 14.6038C147.636 14.6202 146.394 15.2493 146.394 15.2493C146.394 15.2493 147.912 18.4965 146.758 20.8546C146.758 20.8546 147.192 16.8547 145.911 15.4838L144.092 16.5456C144.092 16.5456 145.867 19.8983 144.663 22.6346C144.663 22.6346 144.972 18.4383 143.711 16.8038L142.062 18.0892C142.062 18.0892 143.729 21.3946 142.713 23.6637C142.713 23.6637 142.58 18.7783 141.705 18.4092C141.705 18.4092 140.263 19.6819 140.043 20.2037C140.043 20.2037 141.185 22.6019 140.478 23.8673C140.478 23.8673 140.043 20.6128 139.687 20.5946C139.687 20.5946 138.251 22.751 138.1 24.2309C138.1 24.2309 138.163 22.031 139.338 20.3892C139.338 20.3892 137.949 20.6274 137.14 21.5292C137.14 21.5292 137.364 20.0037 139.685 19.871C139.685 19.871 140.873 18.2347 141.191 18.1365C141.191 18.1365 138.873 17.9419 137.467 18.5656C137.467 18.5656 138.703 17.1274 141.614 17.7801L143.251 16.4529C143.251 16.4529 140.2 16.0347 138.905 16.4965C138.905 16.4965 140.394 15.2238 143.689 16.1511L145.462 15.0911C145.462 15.0911 142.86 14.5311 141.309 14.7275C141.309 14.7275 142.945 13.8457 145.98 14.802L147.252 14.2329C147.252 14.2329 145.345 13.8584 144.787 13.8002C144.229 13.742 144.2 13.5857 144.2 13.5857C145.411 13.3887 146.653 13.5329 147.787 14.002C147.787 14.002 150.474 12.9929 150.429 12.8239Z" fill="#1CA686"/>
<path d="M134.727 8.05485C134.727 8.05485 127.818 7.63668 128.625 12.4839C128.625 12.4839 128.463 13.3402 129.24 13.7293C129.24 13.7293 129.251 13.3657 129.949 13.4929C130.197 13.5338 130.449 13.546 130.7 13.5293C131.039 13.5051 131.362 13.3718 131.62 13.1493C131.62 13.1493 133.563 12.3457 134.32 9.16756C134.32 9.16756 134.88 8.47485 134.865 8.29667L133.698 8.79484C133.698 8.79484 134.098 9.63664 133.783 10.3366C133.783 10.3366 133.745 8.82575 133.521 8.86211C133.476 8.86211 132.914 9.15302 132.914 9.15302C132.914 9.15302 133.601 10.6203 133.083 11.6857C133.083 11.6857 133.28 9.87846 132.701 9.25847L131.88 9.73846C131.88 9.73846 132.681 11.2548 132.138 12.4911C132.138 12.4911 132.276 10.5948 131.707 9.85664L130.961 10.4366C130.961 10.4366 131.714 11.9293 131.256 12.9548C131.256 12.9548 131.196 10.7475 130.8 10.5803C130.8 10.5803 130.149 11.1548 130.049 11.3912C130.049 11.3912 130.565 12.482 130.245 13.0475C130.245 13.0475 130.049 11.5766 129.882 11.5712C129.882 11.5712 129.232 12.5439 129.165 13.2075C129.196 12.5899 129.389 11.9913 129.723 11.4712C129.349 11.5419 129.004 11.7208 128.731 11.9857C128.731 11.9857 128.831 11.2966 129.883 11.2366C129.883 11.2366 130.42 10.4984 130.563 10.453C130.563 10.453 129.516 10.3657 128.882 10.6475C128.882 10.6475 129.44 9.99664 130.756 10.2839L131.483 9.68573C131.483 9.68573 130.105 9.50392 129.52 9.70392C129.52 9.70392 130.192 9.12938 131.681 9.54937L132.481 9.06938C132.481 9.06938 131.307 8.81666 130.605 8.90757C130.605 8.90757 131.345 8.50939 132.716 8.94211L133.289 8.68393C133.289 8.68393 132.427 8.51485 132.176 8.48939C131.925 8.46394 131.909 8.39303 131.909 8.39303C132.455 8.30223 133.015 8.36519 133.527 8.57485C133.527 8.57485 134.747 8.13122 134.727 8.05485Z" fill="#1CA686"/>
<path opacity="0.1" d="M195.104 132.963C197.808 132.963 200.001 132.593 200.001 132.136C200.001 131.679 197.808 131.309 195.104 131.309C192.4 131.309 190.208 131.679 190.208 132.136C190.208 132.593 192.4 132.963 195.104 132.963Z" fill="#1CA686"/>
<path opacity="0.1" d="M8.5037 146.725C11.2078 146.725 13.4 146.355 13.4 145.898C13.4 145.441 11.2078 145.071 8.5037 145.071C5.79956 145.071 3.60742 145.441 3.60742 145.898C3.60742 146.355 5.79956 146.725 8.5037 146.725Z" fill="#1CA686"/>
<path opacity="0.1" d="M36.9265 147.763C39.6307 147.763 41.8228 147.393 41.8228 146.936C41.8228 146.479 39.6307 146.109 36.9265 146.109C34.2224 146.109 32.0303 146.479 32.0303 146.936C32.0303 147.393 34.2224 147.763 36.9265 147.763Z" fill="#1CA686"/>
<path d="M184.388 142.238C188.426 142.238 191.699 141.684 191.699 141.002C191.699 140.319 188.426 139.765 184.388 139.765C180.35 139.765 177.077 140.319 177.077 141.002C177.077 141.684 180.35 142.238 184.388 142.238Z" fill="#1CA686"/>
<path d="M187.41 138.982C187.744 138.709 187.987 138.342 188.108 137.929C188.197 137.513 188.019 137.011 187.621 136.858C187.174 136.687 186.696 136.998 186.334 137.311C185.972 137.623 185.556 137.98 185.081 137.914C185.325 137.693 185.508 137.413 185.611 137.1C185.714 136.788 185.735 136.454 185.67 136.131C185.649 135.997 185.593 135.871 185.506 135.767C185.257 135.502 184.808 135.614 184.51 135.823C183.565 136.489 183.301 137.772 183.296 138.929C183.201 138.512 183.281 138.078 183.279 137.656C183.277 137.234 183.159 136.747 182.799 136.523C182.576 136.404 182.325 136.345 182.072 136.353C181.647 136.336 181.174 136.378 180.883 136.689C180.519 137.076 180.616 137.723 180.93 138.143C181.245 138.563 181.721 138.836 182.159 139.129C182.512 139.338 182.813 139.625 183.039 139.967C183.066 140.015 183.088 140.066 183.105 140.118H185.768C186.364 139.815 186.917 139.433 187.41 138.982Z" fill="#1CA686"/>
<path d="M10.7886 123.736C10.7886 123.736 11.7868 125.042 10.3268 127.009C8.86682 128.976 7.66321 130.645 8.14502 131.874C8.14502 131.874 10.3468 128.213 12.1449 128.16C13.9431 128.107 12.7595 125.938 10.7886 123.736Z" fill="#1CA686"/>
<path opacity="0.1" d="M10.7894 123.736C10.876 123.863 10.9446 124 10.993 124.145C12.742 126.2 13.6729 128.118 11.993 128.165C10.4257 128.211 8.53849 131.011 8.09668 131.718C8.11212 131.773 8.13033 131.827 8.15122 131.88C8.15122 131.88 10.353 128.218 12.1512 128.165C13.9493 128.113 12.7602 125.938 10.7894 123.736Z" fill="black"/>
<path d="M12.6459 125.4C12.6459 125.86 12.5932 126.233 12.5296 126.233C12.4659 126.233 12.415 125.869 12.415 125.4C12.415 124.931 12.4787 125.156 12.5441 125.156C12.6096 125.156 12.6459 124.94 12.6459 125.4Z" fill="#FFD037"/>
<path d="M13.2749 125.949C12.8713 126.169 12.5204 126.302 12.4895 126.245C12.4586 126.189 12.7622 125.967 13.1658 125.747C13.5695 125.527 13.4095 125.687 13.4404 125.747C13.4713 125.807 13.6858 125.729 13.2749 125.949Z" fill="#FFD037"/>
<path d="M5.51329 123.736C5.51329 123.736 4.51513 125.042 5.97328 127.009C7.43144 128.976 8.63687 130.645 8.15506 131.874C8.15506 131.874 5.95147 128.213 4.15514 128.16C2.3588 128.107 3.5406 125.938 5.51329 123.736Z" fill="#1CA686"/>
<path opacity="0.1" d="M5.513 123.736C5.42552 123.862 5.35692 124 5.30937 124.145C3.56031 126.2 2.6276 128.118 4.30938 128.165C5.87481 128.211 7.76387 131.011 8.20386 131.718C8.18903 131.773 8.17143 131.827 8.15113 131.88C8.15113 131.88 5.94754 128.218 4.15121 128.165C2.35487 128.113 3.54031 125.938 5.513 123.736Z" fill="black"/>
<path d="M3.65625 125.4C3.65625 125.86 3.70716 126.233 3.77079 126.233C3.83443 126.233 3.88534 125.869 3.88534 125.4C3.88534 124.931 3.8217 125.156 3.75807 125.156C3.69443 125.156 3.65625 124.94 3.65625 125.4Z" fill="#FFD037"/>
<path d="M3.01799 125.949C3.42162 126.169 3.77434 126.302 3.80525 126.245C3.83616 126.189 3.53253 125.967 3.1289 125.747C2.72527 125.527 2.88345 125.687 2.85436 125.747C2.82527 125.807 2.61436 125.729 3.01799 125.949Z" fill="#FFD037"/>
<path d="M3.97461 131.709C3.97461 131.709 6.76729 131.624 7.61091 131.024C8.45453 130.424 11.9072 129.709 12.1163 130.66C12.3254 131.611 16.3126 135.442 13.1599 135.467C10.0072 135.493 5.83458 134.974 4.99459 134.463C4.15461 133.953 3.97461 131.709 3.97461 131.709Z" fill="#A8A8A8"/>
<path opacity="0.2" d="M13.2126 135.142C10.06 135.167 5.8873 134.649 5.04732 134.138C4.40733 133.749 4.15279 132.351 4.06734 131.705H3.97461C3.97461 131.705 4.15642 133.958 4.99096 134.469C5.82549 134.98 10.0036 135.498 13.1563 135.473C14.0653 135.473 14.3799 135.14 14.3635 134.662C14.2362 134.954 13.8908 135.136 13.2126 135.142Z" fill="black"/>
<path d="M74.4189 75.57C75.4862 75.51 80.5097 75.1318 83.7006 73.3118C84.213 73.0104 84.7919 72.8399 85.386 72.8155C86.4005 72.7864 87.5678 73.21 86.8205 75.5809C85.6096 79.459 78.5788 83.8226 74.2153 83.5808C70.019 83.348 65.0409 81.6572 61.7537 75.7118C61.4387 75.1398 61.2836 74.4936 61.3046 73.8409C61.3428 72.641 61.7792 71.1373 64.0318 72.8137C67.0754 75.0773 72.8499 75.5064 74.008 75.57C74.1449 75.5773 74.282 75.5773 74.4189 75.57Z" fill="#444053"/>
<path d="M114.782 75.57C115.849 75.51 120.873 75.1318 124.064 73.3118C124.576 73.0104 125.155 72.8399 125.749 72.8155C126.764 72.7864 127.931 73.21 127.184 75.5809C125.973 79.459 118.942 83.8226 114.579 83.5808C110.382 83.348 105.404 81.6572 102.117 75.7118C101.802 75.1398 101.647 74.4936 101.668 73.8409C101.706 72.641 102.142 71.1373 104.395 72.8137C107.439 75.0773 113.213 75.5064 114.371 75.57C114.508 75.5773 114.645 75.5773 114.782 75.57Z" fill="#444053"/>
</g>
<defs>
<linearGradient id="paint0_linear_367_17008" x1="162.205" y1="138.051" x2="162.205" y2="48.2269" gradientUnits="userSpaceOnUse">
<stop stop-color="#808080" stop-opacity="0.25"/>
<stop offset="0.54" stop-color="#808080" stop-opacity="0.12"/>
<stop offset="1" stop-color="#808080" stop-opacity="0.1"/>
</linearGradient>
<clipPath id="clip0_367_17008">
<rect width="200" height="147.526" fill="white" transform="translate(0 0.236801)"/>
</clipPath>
</defs>
</svg>
