<svg width="200" height="200" viewBox="0 0 200 200" fill="none" xmlns="http://www.w3.org/2000/svg">
<g clip-path="url(#clip0_366_17555)">
<path d="M169.081 126.786C153.852 162.382 113.653 177.672 82.1557 175.065C73.5558 174.353 56.2525 172.921 42.7419 160.144C16.7958 135.608 20.7918 84.3201 45.6296 54.1246C48.8282 50.236 70.9685 24.1831 105.47 24.5318C130.73 24.7871 148.46 39.0562 150.616 40.8338C153.339 43.0795 159.346 48.4159 164.76 56.8817C177.48 76.7736 178.598 104.543 169.081 126.786Z" fill="#E3C891"/>
<path d="M78.2933 115.563C78.2933 115.563 65.726 57.8282 38.081 25.9506C36.2226 23.8078 32.7322 24.5567 31.9333 27.2782C26.5915 45.477 15.9689 100.781 78.2933 115.563Z" fill="#21C49E"/>
<path opacity="0.5" d="M72.6343 111.751C72.7722 111.891 72.5824 112.105 72.4271 111.985C66.7002 107.561 44.6417 85.935 37.127 43.504C37.1029 43.3676 37.3035 43.3195 37.3394 43.4533C39.9785 53.3053 50.8396 89.6538 72.6343 111.751Z" fill="#FBFEFD"/>
<path d="M51.241 28.7044C48.852 43.434 41.1764 110.025 92.4205 135.068C93.4173 135.555 94.5772 134.82 94.557 133.711C94.3435 121.915 91.258 68.4091 53.7944 27.9387C52.9546 27.0315 51.4389 27.4841 51.241 28.7044Z" fill="#21C49E"/>
<path opacity="0.5" d="M56.4407 45.1078C56.4021 44.8532 56.0249 44.8919 56.0416 45.1489C56.8043 56.9194 61.504 93.1421 90.2283 129.253C90.2283 129.253 63.5742 92.1631 56.4407 45.1078Z" fill="#FBFEFD"/>
<path d="M82.8033 69.3066C87.634 69.3066 91.55 65.3906 91.55 60.5599C91.55 55.7293 87.634 51.8132 82.8033 51.8132C77.9727 51.8132 74.0566 55.7293 74.0566 60.5599C74.0566 65.3906 77.9727 69.3066 82.8033 69.3066Z" fill="#D1A347"/>
<path d="M82.8035 69.0157C87.4735 69.0157 91.2594 65.2299 91.2594 60.5599C91.2594 55.8898 87.4735 52.104 82.8035 52.104C78.1335 52.104 74.3477 55.8898 74.3477 60.5599C74.3477 65.2299 78.1335 69.0157 82.8035 69.0157Z" fill="#D1A347"/>
<path opacity="0.78" d="M75.7765 57.3803C75.7439 57.3808 75.7107 57.374 75.6793 57.3588C75.5721 57.3069 75.5273 57.178 75.5792 57.0711C76.9069 54.3273 79.6237 52.591 82.6691 52.54C83.1544 52.5318 83.6418 52.5674 84.1179 52.6459C84.2352 52.6652 84.3147 52.776 84.2954 52.8933C84.276 53.0107 84.1662 53.0918 84.0478 53.0709C83.5972 52.9968 83.1358 52.9631 82.6762 52.9708C79.7944 53.0191 77.2235 54.6622 75.967 57.2586C75.9304 57.3343 75.8553 57.3789 75.7765 57.3803Z" fill="#FBFEFD"/>
<path opacity="0.78" d="M88.0499 65.8018C90.8448 63.0069 90.8448 58.4755 88.0499 55.6806C85.255 52.8857 80.7236 52.8857 77.9288 55.6806C75.1339 58.4755 75.1339 63.0069 77.9288 65.8018C80.7236 68.5967 85.255 68.5967 88.0499 65.8018Z" fill="#FBFEFD"/>
<path d="M82.3772 66.0725L82.3642 65.294C81.552 65.2752 80.746 65.0971 80.1717 64.857C79.9666 64.7713 79.859 64.5446 79.9139 64.3292L80.0995 63.6008C80.1677 63.3335 80.4547 63.1911 80.7107 63.2934C81.2803 63.521 81.9818 63.6969 82.7348 63.6842C83.5164 63.6711 84.095 63.3963 84.0858 62.8531C84.0776 62.3629 83.6223 62.079 82.5309 61.8058C80.9737 61.4078 79.8494 60.7507 79.8265 59.3861C79.8059 58.1539 80.691 57.1981 82.2502 56.9202L82.2371 56.1416C82.2329 55.8911 82.4326 55.6846 82.6831 55.6804L83.1405 55.6727C83.3911 55.6685 83.5976 55.8681 83.6018 56.1187L83.6135 56.8177C84.365 56.8352 84.9138 56.9545 85.3502 57.0996C85.5737 57.174 85.6993 57.4114 85.6414 57.6398L85.4708 58.3135C85.405 58.5733 85.1309 58.7196 84.8787 58.6291C84.4768 58.4847 83.9094 58.3369 83.1754 58.3493C82.2479 58.3649 81.9894 58.7534 81.9952 59.098C82.0023 59.5219 82.5636 59.804 83.7755 60.1548C85.5066 60.6426 86.234 61.346 86.2556 62.6312C86.2754 63.8104 85.4188 64.885 83.7273 65.1784L83.7419 66.0497C83.7461 66.3002 83.5464 66.5067 83.2959 66.511L82.8384 66.5187C82.5879 66.5228 82.3814 66.323 82.3772 66.0725Z" fill="#D1A347"/>
<path d="M175.71 85.7149L174.011 157.624L173.747 168.758C173.747 170.211 172.555 171.401 171.102 171.401H28.1231C26.6696 171.401 25.4777 170.211 25.4777 168.758L25.3162 157.624L24.2881 86.5929C24.2881 85.1395 26.0008 82.3031 29.1375 82.5169L168.872 78.9003C170.697 78.8548 172.462 79.5554 173.754 80.8451C175.046 82.1325 175.753 83.893 175.71 85.7149Z" fill="#1CA686"/>
<g opacity="0.29">
<path d="M170.25 166.51C170.25 167.866 169.117 168.975 167.732 168.975H31.529C30.1437 168.975 29.0103 167.866 29.0103 166.51L27.877 89.8318C27.877 88.476 29.5075 85.8292 32.4958 86.0281L165.608 82.6539C167.346 82.6099 169.027 83.2653 170.258 84.4671C171.489 85.669 172.162 87.3123 172.121 89.0135L170.25 166.51Z" fill="#1CA686"/>
</g>
<path d="M167.651 169.577H152.552C152.451 169.577 152.369 169.495 152.369 169.394C152.369 169.293 152.451 169.212 152.552 169.212H167.651C169.723 169.212 171.167 167.111 171.167 165.225V118.476C171.167 118.375 171.249 118.293 171.349 118.293C171.45 118.293 171.532 118.375 171.532 118.476V165.225C171.532 167.283 169.938 169.577 167.651 169.577Z" fill="#1CA686"/>
<path d="M28.2665 118.293C28.1656 118.293 28.084 118.211 28.084 118.111V90.6372C28.084 87.7329 30.0618 85.625 32.7865 85.625H45.0568C45.1577 85.625 45.2393 85.7067 45.2393 85.8075C45.2393 85.9083 45.1577 85.99 45.0568 85.99H32.7865C30.2731 85.99 28.4489 87.9444 28.4489 90.6372V118.111C28.449 118.211 28.3674 118.293 28.2665 118.293Z" fill="#1CA686"/>
<path d="M62.2114 116.741C62.2114 115.28 61.0272 114.095 59.5663 114.095H42.0436C40.5827 114.095 39.3984 115.28 39.3984 116.741V130.248C39.3984 131.709 40.5827 132.893 42.0436 132.893H59.5663C61.0272 132.893 62.2114 131.709 62.2114 130.248V116.741Z" fill="#D1A347"/>
<path opacity="0.8" d="M53.1962 126.506H47.8678C47.3242 126.506 46.8818 126.064 46.8818 125.52V121.287C46.8818 120.743 47.3242 120.301 47.8678 120.301H53.1962C53.7398 120.301 54.1819 120.743 54.1819 121.287V125.52C54.1819 126.064 53.7397 126.506 53.1962 126.506ZM47.8677 120.666C47.5253 120.666 47.2468 120.944 47.2468 121.287V125.52C47.2468 125.862 47.5253 126.141 47.8677 126.141H53.1961C53.5385 126.141 53.8169 125.862 53.8169 125.52V121.287C53.8169 120.944 53.5385 120.666 53.1961 120.666H47.8677Z" fill="#FBFEFD"/>
<path d="M47.0644 122.308H39.3993C39.2984 122.308 39.2168 122.226 39.2168 122.126C39.2168 122.025 39.2984 121.943 39.3993 121.943H47.0645C47.1653 121.943 47.2469 122.025 47.2469 122.126C47.2469 122.226 47.1653 122.308 47.0644 122.308Z" fill="#FBFEFD"/>
<path d="M47.0644 123.951H39.3993C39.2984 123.951 39.2168 123.869 39.2168 123.768C39.2168 123.667 39.2984 123.586 39.3993 123.586H47.0645C47.1653 123.586 47.2469 123.667 47.2469 123.768C47.2469 123.869 47.1653 123.951 47.0644 123.951Z" fill="#FBFEFD"/>
<path d="M62.394 122.308H53.8163C53.7154 122.308 53.6338 122.226 53.6338 122.126C53.6338 122.025 53.7154 121.943 53.8163 121.943H62.394C62.4948 121.943 62.5764 122.025 62.5764 122.126C62.5764 122.226 62.4948 122.308 62.394 122.308Z" fill="#FBFEFD"/>
<path d="M62.394 123.951H53.8163C53.7154 123.951 53.6338 123.869 53.6338 123.768C53.6338 123.667 53.7154 123.586 53.8163 123.586H62.394C62.4948 123.586 62.5764 123.667 62.5764 123.768C62.5764 123.869 62.4948 123.951 62.394 123.951Z" fill="#FBFEFD"/>
<path d="M48.3591 120.612C48.2764 120.612 48.2015 120.556 48.1817 120.472L46.6251 113.899C46.6018 113.801 46.6625 113.703 46.7606 113.68C46.8584 113.657 46.957 113.717 46.9801 113.815L48.5368 120.388C48.5601 120.486 48.4993 120.584 48.4013 120.608C48.3872 120.611 48.373 120.612 48.3591 120.612Z" fill="#FBFEFD"/>
<path d="M52.5684 120.613C52.5539 120.613 52.5393 120.611 52.5247 120.607C52.4269 120.583 52.367 120.484 52.3911 120.386L54.0055 113.814C54.0293 113.716 54.1288 113.657 54.2261 113.68C54.324 113.704 54.3838 113.803 54.3598 113.901L52.7454 120.474C52.725 120.557 52.6504 120.613 52.5684 120.613Z" fill="#FBFEFD"/>
<path d="M46.8028 132.893C46.7889 132.893 46.7747 132.891 46.7606 132.888C46.6626 132.865 46.6018 132.766 46.6251 132.668L48.1817 126.096C48.2049 125.998 48.3031 125.937 48.4013 125.96C48.4993 125.983 48.5601 126.082 48.5368 126.18L46.9801 132.753C46.9604 132.836 46.8855 132.893 46.8028 132.893Z" fill="#FBFEFD"/>
<path d="M54.1824 132.893C54.1004 132.893 54.0258 132.837 54.0054 132.754L52.3911 126.181C52.367 126.083 52.4269 125.985 52.5247 125.96C52.6222 125.937 52.7215 125.996 52.7453 126.094L54.3597 132.667C54.3838 132.765 54.3239 132.864 54.226 132.888C54.2115 132.891 54.1969 132.893 54.1824 132.893Z" fill="#FBFEFD"/>
<g opacity="0.6">
<path d="M64.2191 143.579C64.2191 145.237 62.8751 146.581 61.2173 146.581H39.4803C37.8225 146.581 36.4785 145.237 36.4785 143.579V143.56C36.4785 141.903 37.8225 140.559 39.4803 140.559H61.2172C62.8751 140.559 64.2191 141.903 64.2191 143.56L64.2191 143.579Z" fill="#136D58"/>
<path d="M95.9749 143.579C95.9749 145.237 94.6309 146.581 92.9731 146.581H71.2362C69.5783 146.581 68.2344 145.237 68.2344 143.579V143.56C68.2344 141.903 69.5784 140.559 71.2362 140.559H92.9731C94.631 140.559 95.9749 141.903 95.9749 143.56V143.579Z" fill="#136D58"/>
<path d="M127.548 143.579C127.548 145.237 126.204 146.581 124.546 146.581H102.809C101.152 146.581 99.8076 145.237 99.8076 143.579V143.56C99.8076 141.903 101.152 140.559 102.809 140.559H124.546C126.204 140.559 127.548 141.903 127.548 143.56V143.579Z" fill="#136D58"/>
<path d="M159.304 143.579C159.304 145.237 157.96 146.581 156.302 146.581H134.565C132.907 146.581 131.563 145.237 131.563 143.579V143.56C131.563 141.903 132.907 140.559 134.565 140.559H156.302C157.96 140.559 159.304 141.903 159.304 143.56V143.579Z" fill="#136D58"/>
</g>
<g opacity="0.6">
<path d="M85.3897 157.199C85.3897 158.491 84.3421 159.539 83.0498 159.539H42.2862C40.9939 159.539 39.9463 158.491 39.9463 157.199V157.134C39.9463 155.841 40.9939 154.794 42.2862 154.794H83.0498C84.3421 154.794 85.3897 155.841 85.3897 157.134V157.199Z" fill="#136D58"/>
<path d="M155.837 156.104C155.837 157.396 154.789 158.444 153.497 158.444H135.729C134.436 158.444 133.389 157.396 133.389 156.104V156.039C133.389 154.746 134.436 153.699 135.729 153.699H153.497C154.789 153.699 155.837 154.746 155.837 156.039L155.837 156.104Z" fill="#136D58"/>
</g>
<path d="M38.9007 100.535C38.9474 100.535 38.9941 100.544 39.0406 100.561C39.0871 100.579 39.1319 100.609 39.1746 100.652L39.9554 101.473C39.6136 101.92 39.1853 102.257 38.6706 102.484C38.1557 102.712 37.5469 102.825 36.8436 102.825C36.1988 102.825 35.6208 102.716 35.11 102.496C34.599 102.277 34.1659 101.974 33.8105 101.587C33.4548 101.2 33.1819 100.742 32.9918 100.212C32.8013 99.6815 32.7061 99.1055 32.7061 98.4838C32.7061 97.8507 32.8148 97.2688 33.0324 96.7385C33.2498 96.2082 33.5539 95.7507 33.9445 95.3661C34.3348 94.9815 34.802 94.6823 35.3459 94.4686C35.8897 94.255 36.49 94.1482 37.1466 94.1482C37.4652 94.1482 37.7654 94.1763 38.047 94.2327C38.3286 94.289 38.592 94.3667 38.8365 94.4658C39.0814 94.5648 39.3066 94.6834 39.5127 94.8212C39.7186 94.9592 39.901 95.1116 40.0604 95.2787L39.3961 96.1703C39.3534 96.2247 39.3028 96.2742 39.2447 96.3189C39.1862 96.3636 39.1048 96.3859 38.9998 96.3859C38.9299 96.3859 38.8638 96.3703 38.8016 96.3392C38.7396 96.3082 38.6735 96.2703 38.6036 96.2256C38.5336 96.181 38.4569 96.1323 38.3735 96.0799C38.2898 96.0274 38.1907 95.9789 38.0762 95.9342C37.9615 95.8895 37.8275 95.8516 37.6741 95.8205C37.5205 95.7894 37.3409 95.7739 37.135 95.7739C36.7776 95.7739 36.4511 95.8371 36.156 95.9633C35.8607 96.0895 35.6072 96.2702 35.3955 96.5053C35.1836 96.7404 35.0186 97.0249 34.9002 97.359C34.7815 97.6931 34.7224 98.068 34.7224 98.4837C34.7224 98.9188 34.7816 99.3054 34.9002 99.6434C35.0186 99.9814 35.1799 100.266 35.384 100.497C35.5878 100.728 35.8258 100.904 36.0978 101.024C36.3696 101.145 36.6611 101.205 36.9719 101.205C37.1505 101.205 37.3138 101.196 37.4613 101.179C37.6089 101.161 37.7458 101.131 37.8723 101.089C37.9985 101.046 38.119 100.99 38.2334 100.922C38.3482 100.855 38.4636 100.77 38.5802 100.669C38.6269 100.63 38.6772 100.598 38.7317 100.573C38.7861 100.548 38.8426 100.535 38.9007 100.535Z" fill="#FBFEFD"/>
<path d="M42.8223 99.591V102.732H40.8525V94.2415H43.6147C44.2285 94.2415 44.7521 94.3046 45.1852 94.4308C45.6183 94.5571 45.9719 94.733 46.2459 94.9582C46.5198 95.1836 46.7187 95.4498 46.8431 95.7566C46.9675 96.0636 47.0297 96.3977 47.0297 96.759C47.0297 97.0349 46.9929 97.2951 46.9191 97.5399C46.8453 97.7847 46.7355 98.0111 46.5897 98.2189C46.4441 98.4268 46.2653 98.6122 46.0536 98.7754C45.8418 98.9385 45.598 99.0726 45.3221 99.1774C45.4544 99.2436 45.5777 99.3252 45.6923 99.4222C45.8069 99.5194 45.9069 99.6378 45.9924 99.7777L47.799 102.732H46.0158C45.6854 102.732 45.4483 102.608 45.3047 102.359L43.8945 99.8942C43.8323 99.7855 43.7594 99.7077 43.676 99.6611C43.5923 99.6145 43.475 99.5912 43.3235 99.5912H42.8223V99.591ZM42.8223 98.2332H43.6147C43.8827 98.2332 44.1109 98.1992 44.2994 98.1313C44.4878 98.0633 44.6424 97.9691 44.7628 97.8486C44.8832 97.7282 44.9707 97.5874 45.025 97.4261C45.0793 97.265 45.1066 97.0911 45.1066 96.9046C45.1066 96.5316 44.985 96.2403 44.7423 96.0305C44.4994 95.8207 44.1237 95.7158 43.6146 95.7158H42.8222L42.8223 98.2332Z" fill="#FBFEFD"/>
<path d="M54.0689 94.2415V95.7565H50.584V97.738H53.253V99.1948H50.584V101.217H54.0689V102.732H48.6025V94.2415H54.0689Z" fill="#FBFEFD"/>
<path d="M62.8924 98.4839C62.8924 99.0978 62.7865 99.664 62.5748 100.183C62.3631 100.701 62.0649 101.15 61.6803 101.529C61.2957 101.908 60.8325 102.203 60.2904 102.415C59.7485 102.626 59.1472 102.732 58.4869 102.732H55.1885V94.2415H58.4869C59.1472 94.2415 59.7486 94.3483 60.2904 94.562C60.8325 94.7757 61.2958 95.0709 61.6803 95.4478C62.065 95.8246 62.3631 96.2723 62.5748 96.791C62.7865 97.3096 62.8924 97.874 62.8924 98.4839ZM60.8761 98.4839C60.8761 98.0644 60.8218 97.6855 60.7131 97.3475C60.6042 97.0095 60.4479 96.7231 60.2438 96.488C60.0397 96.2529 59.7902 96.0722 59.4951 95.946C59.1996 95.8198 58.8636 95.7565 58.4868 95.7565H57.1699V101.217H58.4868C58.8636 101.217 59.1995 101.154 59.4951 101.028C59.7902 100.901 60.0397 100.721 60.2438 100.486C60.4478 100.251 60.6042 99.9641 60.7131 99.6261C60.8217 99.2881 60.8761 98.9074 60.8761 98.4839Z" fill="#FBFEFD"/>
<path d="M65.9921 102.732H64.0107V94.2415H65.9921V102.732Z" fill="#FBFEFD"/>
<path d="M73.7308 94.2415V95.8032H71.3415V102.732H69.3717V95.8032H66.9824V94.2415H73.7308Z" fill="#FBFEFD"/>
<path d="M82.5013 100.535C82.5478 100.535 82.5945 100.544 82.6412 100.561C82.6877 100.579 82.7325 100.609 82.7752 100.652L83.556 101.473C83.214 101.92 82.7859 102.257 82.2712 102.484C81.7563 102.712 81.1473 102.825 80.444 102.825C79.7992 102.825 79.2214 102.716 78.7106 102.496C78.1994 102.277 77.7663 101.974 77.411 101.587C77.0554 101.2 76.7825 100.742 76.5922 100.212C76.4018 99.6815 76.3066 99.1055 76.3066 98.4838C76.3066 97.8507 76.4154 97.2688 76.6328 96.7385C76.8504 96.2082 77.1545 95.7507 77.545 95.3661C77.9353 94.9815 78.4026 94.6823 78.9465 94.4686C79.4903 94.255 80.0906 94.1482 80.7471 94.1482C81.0656 94.1482 81.3657 94.1763 81.6473 94.2327C81.9291 94.289 82.1924 94.3667 82.437 94.4658C82.6817 94.5648 82.907 94.6834 83.1131 94.8212C83.3191 94.9592 83.5016 95.1116 83.6609 95.2787L82.9965 96.1703C82.9537 96.2247 82.9033 96.2742 82.845 96.3189C82.7867 96.3636 82.7053 96.3859 82.6003 96.3859C82.5303 96.3859 82.4643 96.3703 82.4022 96.3392C82.34 96.3082 82.274 96.2703 82.2042 96.2256C82.1341 96.181 82.0573 96.1323 81.9739 96.0799C81.8903 96.0274 81.7912 95.9789 81.6766 95.9342C81.562 95.8895 81.428 95.8516 81.2746 95.8205C81.1209 95.7894 80.9413 95.7739 80.7356 95.7739C80.3781 95.7739 80.0517 95.8371 79.7564 95.9633C79.4613 96.0895 79.2078 96.2702 78.9961 96.5053C78.7842 96.7404 78.6191 97.0249 78.5006 97.359C78.3821 97.6931 78.3229 98.068 78.3229 98.4837C78.3229 98.9188 78.3821 99.3054 78.5006 99.6434C78.6191 99.9814 78.7804 100.266 78.9843 100.497C79.1882 100.728 79.4263 100.904 79.6983 101.024C79.9701 101.145 80.2615 101.205 80.5723 101.205C80.7509 101.205 80.9141 101.196 81.0617 101.179C81.2095 101.161 81.3464 101.131 81.4727 101.089C81.5989 101.046 81.7194 100.99 81.834 100.922C81.9486 100.855 82.0641 100.77 82.1807 100.669C82.2273 100.63 82.2778 100.598 82.3321 100.573C82.3867 100.548 82.443 100.535 82.5013 100.535Z" fill="#FBFEFD"/>
<path d="M92.3554 102.732H90.8286C90.6576 102.732 90.5169 102.692 90.406 102.613C90.2955 102.533 90.2185 102.431 90.1759 102.307L89.6747 100.827H86.4462L85.945 102.307C85.9061 102.415 85.8306 102.514 85.7179 102.601C85.6051 102.688 85.4673 102.732 85.3041 102.732H83.7656L87.0523 94.2415H89.0686L92.3554 102.732ZM86.9008 99.4861H89.2201L88.4393 97.161C88.3888 97.0134 88.3295 96.8396 88.2616 96.6395C88.1935 96.4394 88.1265 96.2227 88.0606 95.9896C87.9983 96.2267 87.9342 96.4463 87.8683 96.6482C87.8021 96.8502 87.7401 97.0251 87.6816 97.1726L86.9008 99.4861Z" fill="#FBFEFD"/>
<path d="M95.0127 99.591V102.732H93.043V94.2415H95.8051C96.4189 94.2415 96.9425 94.3046 97.3756 94.4308C97.8089 94.5571 98.1625 94.733 98.4364 94.9582C98.7102 95.1836 98.9093 95.4498 99.0337 95.7566C99.1579 96.0636 99.2203 96.3977 99.2203 96.759C99.2203 97.0349 99.1832 97.2951 99.1095 97.5399C99.0357 97.7847 98.9259 98.0111 98.7801 98.2189C98.6347 98.4268 98.4557 98.6122 98.244 98.7754C98.0322 98.9385 97.7885 99.0726 97.5127 99.1774C97.6448 99.2436 97.7681 99.3252 97.8829 99.4222C97.9974 99.5194 98.0975 99.6378 98.1831 99.7777L99.9896 102.732H98.2063C97.876 102.732 97.639 102.608 97.4953 102.359L96.085 99.8942C96.023 99.7855 95.9499 99.7077 95.8665 99.6611C95.7829 99.6145 95.6655 99.5912 95.514 99.5912H95.0127V99.591ZM95.0127 98.2332H95.8051C96.0734 98.2332 96.3015 98.1992 96.4899 98.1313C96.6784 98.0633 96.8328 97.9691 96.9533 97.8486C97.0738 97.7282 97.1611 97.5874 97.2156 97.4261C97.2698 97.265 97.2973 97.0911 97.2973 96.9046C97.2973 96.5316 97.1757 96.2403 96.9329 96.0305C96.69 95.8207 96.3141 95.7158 95.8051 95.7158H95.0127V98.2332Z" fill="#FBFEFD"/>
<path d="M108.498 98.4839C108.498 99.0978 108.392 99.664 108.18 100.183C107.969 100.701 107.67 101.15 107.286 101.529C106.901 101.908 106.438 102.203 105.896 102.415C105.354 102.626 104.753 102.732 104.092 102.732H100.794V94.2415H104.092C104.753 94.2415 105.354 94.3483 105.896 94.562C106.438 94.7757 106.901 95.0709 107.286 95.4478C107.67 95.8246 107.969 96.2723 108.18 96.791C108.392 97.3096 108.498 97.874 108.498 98.4839ZM106.482 98.4839C106.482 98.0644 106.427 97.6855 106.318 97.3475C106.21 97.0095 106.053 96.7231 105.849 96.488C105.645 96.2529 105.396 96.0722 105.1 95.946C104.805 95.8198 104.469 95.7565 104.092 95.7565H102.775V101.217H104.092C104.469 101.217 104.805 101.154 105.1 101.028C105.396 100.901 105.645 100.721 105.849 100.486C106.053 100.251 106.21 99.9641 106.318 99.6261C106.427 99.2881 106.482 98.9074 106.482 98.4839Z" fill="#FBFEFD"/>
<path d="M150.329 99.1083C150.299 99.0965 133.812 70.225 131.584 67.508C131.21 67.051 130.63 66.8183 130.043 66.8882L125.441 67.4366L120.035 79.1316L129.041 73.8865C128.15 80.0498 139.72 89.2092 143.688 92.5514C144.09 92.8906 144.123 93.4981 143.76 93.8788L142.175 95.5371C144.776 98.1732 147.777 99.8659 151.164 100.649L150.329 99.1083Z" fill="#ECA1A1"/>
<path d="M143.091 94.6421C143.091 94.6421 142.08 94.9687 141.738 95.8691C141.574 96.2999 141.751 96.7879 142.125 97.0563C143.79 98.249 149.281 102.1 151.816 102.854C152.023 102.916 152.221 102.728 152.174 102.516C152.044 101.927 151.623 100.752 150.268 99.0308L150.39 99.2767C150.544 99.5879 150.205 99.912 149.902 99.7413C148.208 98.7846 144.755 96.6904 143.091 94.6421Z" fill="#020D0B"/>
<path d="M143.908 106.194C143.88 106.176 141.406 100.217 141.379 100.199C139.111 86.3914 133.578 74.566 131.946 71.4543C131.671 70.9309 131.15 70.5856 130.561 70.5353L125.944 70.1411L118.283 80.5L128.164 77.1862C126.044 83.0416 135.521 94.3529 138.73 98.4289C139.056 98.8426 138.965 99.4442 138.532 99.7434L136.645 101.047C138.659 104.155 141.255 106.42 144.414 107.872L143.908 106.194Z" fill="#ECA1A1"/>
<path d="M137.724 100.356C137.724 100.356 136.667 100.471 136.15 101.283C135.902 101.672 135.977 102.186 136.289 102.524C137.678 104.029 142.276 108.912 144.605 110.163C144.796 110.266 145.028 110.122 145.025 109.905C145.017 109.302 144.843 108.066 143.864 106.106L143.933 106.372C144.021 106.708 143.623 106.956 143.362 106.728C141.896 105.448 138.939 102.698 137.724 100.356Z" fill="#020D0B"/>
<path d="M104.33 67.9594C104.33 67.9594 100.153 74.1722 99.8107 77.0061C99.468 79.8401 100.966 80.8202 105.338 81.1816C118.348 82.2571 124.761 78.3579 124.761 78.3579C125.63 72.8161 123.995 70.09 130.842 67.0916C130.968 67.0363 130.931 66.8483 130.793 66.8478C130.05 66.8449 128.34 66.9013 124.45 67.2085C122.427 67.3682 104.33 67.9594 104.33 67.9594Z" fill="#020D0B"/>
<path d="M125.429 46.8939C125.415 46.958 125.36 47.1517 125.41 47.3686C125.423 47.4267 125.442 47.4779 125.47 47.5307C125.265 48.9513 124.238 52.5429 124.026 53.9293C124.267 53.5423 125.811 53.4294 126.031 53.0743C126.985 51.5162 127.404 47.6532 127.789 45.9139C127.789 45.9119 127.789 45.9119 127.79 45.91C127.849 45.7437 127.897 45.571 127.936 45.3859C128.018 44.9983 128.039 44.6094 128.075 44.2076C128.075 44.2076 128.077 44.1448 128.077 44.0859C128.088 43.45 127.865 41.2254 127.248 41.1643C127.015 41.1393 126.803 41.4367 126.573 41.7651C125.336 43.538 125.688 45.8094 125.429 46.8939Z" fill="#ECA1A1"/>
<path d="M124.276 50.3939L126.611 52.206C127.058 52.5643 124.808 56.6616 124.486 57.2369C123.479 59.04 122.374 60.8111 120.924 62.2958C120.34 62.8934 119.669 63.4591 118.856 63.6495C116.788 64.1335 115.268 61.091 114.397 59.6011C113.493 58.0527 113.425 56.2807 113.245 54.5308C113.123 49.2314 116.071 45.7594 119.526 44.6167L119.493 52.9603C119.49 53.5503 119.812 55.2035 120.398 55.2754C120.772 55.3213 121.267 54.0747 121.544 53.7357L124.276 50.3939Z" fill="#1CA686"/>
<path d="M122.643 33.7749C122.643 33.7749 120.071 30.0742 116.594 33.9875C115.964 34.6963 113.882 33.8656 112.946 35.3852C112.463 36.1698 111.543 36.5545 110.656 36.3028C108.448 35.6759 104.779 35.2938 102.633 38.6434C100.995 41.2001 101.915 42.8741 103.213 43.9016C104.167 44.6564 104.404 46.0278 103.69 47.0132C103.006 47.9583 102.767 49.3031 104.135 51.0781C107.2 55.0558 114.516 49.7192 114.516 49.7192L121.074 37.5596L122.643 33.7749Z" fill="#111312"/>
<path d="M114.416 68.1137C114.416 68.1137 119.903 62.3055 122.297 59.2378C123.591 57.5795 123.89 55.337 123.292 53.3204C122.198 49.6376 121.036 46.0503 120.774 45.4887C119.723 43.2341 113.476 45.2446 113.476 45.2446C113.476 45.2446 104.499 65.3686 104.33 67.9596C108.868 69.4418 114.475 68.926 114.416 68.1137Z" fill="#1CA686"/>
<path d="M120.002 38.4545L115.711 44.8955C115.812 46.3996 119.539 46.7942 120.199 45.9642C120.266 45.8797 120.309 45.7787 120.342 45.6757L122.953 41.3478C123.089 40.9146 122.018 39.3101 121.639 39.0601L120.261 38.1508C119.731 37.8007 122.064 37.9977 120.002 38.4545Z" fill="#ECA1A1"/>
<path d="M127.538 37.5601C127.538 37.5601 127.733 39.8917 125.656 42.6364C123.578 45.3811 121.796 45.0798 120.983 43.9541C120.169 42.8283 119.241 40.9936 120.013 38.1331C120.785 35.2726 127.192 34.5775 127.538 37.5601Z" fill="#ECA1A1"/>
<path d="M122.164 38.6553C122.164 38.6553 125.445 35.0986 127.369 38.6515L127.222 39.8021C127.222 39.8021 130.148 39.9414 130.086 37.2265C130.024 34.5115 127.819 32.4524 124.435 33.058C121.051 33.6636 119.026 34.5262 118.437 36.7802C117.848 39.0342 119.753 38.8369 119.753 38.8369C119.753 38.8369 120.616 37.3249 121.489 37.2985C122.361 37.2722 121.931 38.4921 121.931 38.4921L122.164 38.6553Z" fill="#111312"/>
<path d="M121.504 38.4899C121.504 38.4899 123.201 36.6714 121.864 36.1343C120.527 35.5971 120.358 37.931 120.365 38.8059L121.504 38.4899Z" fill="#ECA1A1"/>
<path d="M121.46 42.5894C121.353 43.0005 121.344 43.9601 121.292 44.3393C121.184 45.1429 120.94 46.7977 121.397 47.3119C121.792 47.7567 121.607 47.5442 122.068 47.7822C122.347 47.9263 122.77 48.0562 123.286 47.9508C123.51 47.9051 123.733 47.832 123.952 47.7159C123.952 47.7159 124.411 47.4714 124.778 47.0062C127.685 43.3275 126.473 40.7433 126.473 40.7433C126.199 40.1581 125.604 39.3087 125.087 39.3886C124.408 39.4935 123.73 41.2228 123.177 42.6321C123.092 42.8498 122.911 43.3283 122.708 43.3113C122.462 43.2907 122.373 42.9204 122.36 42.6986C122.335 42.2736 122.561 41.878 122.48 41.4097C122.463 41.312 122.385 41.0253 122.218 40.9851C122.122 40.962 122.026 40.982 121.941 41.0282C121.737 41.5645 121.613 41.9969 121.46 42.5894Z" fill="#ECA1A1"/>
<path d="M119.926 50.0788C120.797 50.4223 121.263 51.4489 122.134 51.792C122.713 50.2272 123.429 48.7161 123.975 47.1405C123.138 46.8581 122.306 46.5612 121.468 46.2827C120.83 47.7855 120.488 48.542 119.926 50.0788Z" fill="#ECA1A1"/>
<path d="M120.035 49.7829C120.035 49.7829 122.297 51.3615 122.297 51.3617C122.861 51.7556 120.173 56.7849 119.857 57.3788C118.573 59.7896 115.409 65.6493 112.041 63.2938C110.477 62.1998 109.36 60.3126 108.655 58.5733C107.885 56.6755 107.341 54.6467 107.435 52.6011C107.528 50.5859 108.497 48.5022 110.012 47.0637C111.424 45.722 113.446 45.2399 113.477 45.2444C113.732 45.2814 114.218 49.0941 114.294 49.4745C114.528 50.6541 114.777 51.8309 115.04 53.0045C115.105 53.2936 115.56 55.9924 116.209 55.0534C117.45 53.2644 118.728 51.5234 120.035 49.7829Z" fill="#1CA686"/>
<path d="M54.1665 173.206C54.1156 174.505 53.0172 175.521 51.7182 175.47L47.5769 175.307C46.2778 175.256 45.2624 174.158 45.3134 172.859C45.3643 171.56 46.4626 170.545 47.7617 170.596L51.903 170.758C53.2021 170.809 54.2175 171.907 54.1665 173.206ZM46.3091 172.898C46.2797 173.648 46.8659 174.282 47.6159 174.312L51.7573 174.474C52.5073 174.504 53.1414 173.917 53.1708 173.167C53.2003 172.417 52.614 171.783 51.864 171.754L47.7226 171.591C46.9727 171.562 46.3385 172.148 46.3091 172.898Z" fill="#B1B9B7"/>
<path d="M66.9502 170.402C67.3446 171.64 66.6577 172.969 65.4189 173.363L61.4696 174.621C60.2308 175.015 58.9022 174.328 58.5078 173.089C58.1134 171.85 58.8004 170.522 60.0392 170.127L63.9885 168.87C65.2272 168.476 66.5558 169.163 66.9502 170.402ZM59.4573 172.787C59.685 173.502 60.4521 173.899 61.1673 173.671L65.1165 172.414C65.8317 172.186 66.2284 171.419 66.0007 170.704C65.773 169.989 65.0059 169.592 64.2907 169.82L60.3415 171.077C59.6262 171.305 59.2296 172.072 59.4573 172.787Z" fill="#B1B9B7"/>
<path d="M78.2216 166.89C78.6594 168.114 78.0196 169.466 76.7954 169.904L72.8929 171.299C71.6688 171.737 70.3168 171.097 69.879 169.873C69.4413 168.649 70.0811 167.297 71.3052 166.859L75.2078 165.464C76.4319 165.026 77.7839 165.666 78.2216 166.89ZM70.8173 169.538C71.0701 170.244 71.8506 170.614 72.5574 170.361L76.46 168.966C77.1667 168.713 77.5361 167.932 77.2833 167.225C77.0306 166.519 76.25 166.149 75.5432 166.402L71.6408 167.797C70.934 168.05 70.5646 168.831 70.8173 169.538Z" fill="#B1B9B7"/>
<path d="M90.4576 158.824C91.2488 159.855 91.0533 161.338 90.0217 162.13L86.7331 164.652C85.7015 165.443 84.2186 165.247 83.4274 164.216C82.6362 163.184 82.8318 161.701 83.8634 160.91L87.152 158.388C88.1836 157.597 89.6665 157.792 90.4576 158.824ZM84.2181 163.609C84.6749 164.205 85.5311 164.318 86.1266 163.861L89.4153 161.339C90.0109 160.882 90.1238 160.026 89.667 159.43C89.2102 158.835 88.354 158.722 87.7585 159.179L84.4698 161.701C83.8742 162.158 83.7612 163.014 84.2181 163.609Z" fill="#B1B9B7"/>
<path d="M101.107 148.098C102.072 148.97 102.147 150.464 101.275 151.428L98.4965 154.503C97.6248 155.468 96.1309 155.543 95.1664 154.671C94.2019 153.8 94.1264 152.306 94.9981 151.341L97.7771 148.266C98.6488 147.302 100.143 147.226 101.107 148.098ZM95.8346 153.932C96.3915 154.435 97.2539 154.392 97.7572 153.835L100.536 150.76C101.04 150.203 100.996 149.341 100.439 148.837C99.8822 148.334 99.0197 148.378 98.5164 148.935L95.7374 152.009C95.2341 152.566 95.2777 153.429 95.8346 153.932Z" fill="#B1B9B7"/>
<path d="M142.387 100.047L142.379 98.7385C142.377 98.3176 142.013 97.9574 141.567 97.9342L136.754 97.6836C136.307 97.6603 135.947 97.9827 135.949 98.4037L135.956 99.7122C135.959 100.133 136.323 100.493 136.769 100.517L141.582 100.767C142.029 100.79 142.389 100.468 142.387 100.047Z" fill="#B1B9B7"/>
<path d="M126.312 113.702C127.455 114.321 127.882 115.755 127.262 116.898L125.288 120.542C124.669 121.685 123.235 122.111 122.092 121.492C120.949 120.873 120.522 119.439 121.142 118.296L123.116 114.652C123.735 113.509 125.169 113.083 126.312 113.702ZM122.566 120.616C123.226 120.974 124.054 120.728 124.412 120.068L126.386 116.424C126.744 115.764 126.498 114.936 125.838 114.578C125.178 114.221 124.35 114.467 123.992 115.127L122.018 118.771C121.66 119.431 121.906 120.258 122.566 120.616Z" fill="#B1B9B7"/>
<path d="M133.389 101.34C134.519 101.983 134.914 103.426 134.27 104.555L132.218 108.156C131.575 109.286 130.132 109.681 129.003 109.037C127.873 108.394 127.478 106.951 128.121 105.822L130.173 102.221C130.817 101.091 132.259 100.696 133.389 101.34ZM129.496 108.172C130.148 108.543 130.981 108.315 131.353 107.663L133.404 104.062C133.776 103.41 133.548 102.577 132.896 102.205C132.243 101.834 131.411 102.062 131.039 102.714L128.987 106.315C128.616 106.967 128.844 107.8 129.496 108.172Z" fill="#B1B9B7"/>
<path d="M111.122 137.034C112.107 137.882 112.218 139.374 111.37 140.359L108.666 143.5C107.818 144.485 106.326 144.596 105.341 143.748C104.356 142.899 104.244 141.408 105.093 140.423L107.797 137.282C108.645 136.297 110.137 136.186 111.122 137.034ZM105.991 142.993C106.56 143.482 107.421 143.418 107.911 142.849L110.615 139.709C111.105 139.14 111.041 138.279 110.472 137.789C109.903 137.299 109.042 137.364 108.552 137.932L105.848 141.073C105.358 141.642 105.422 142.503 105.991 142.993Z" fill="#B1B9B7"/>
<path d="M119.257 125.355C120.324 126.099 120.587 127.571 119.843 128.638L117.473 132.038C116.729 133.104 115.257 133.367 114.19 132.623C113.124 131.88 112.861 130.407 113.605 129.341L115.975 125.941C116.719 124.874 118.191 124.612 119.257 125.355ZM114.76 131.806C115.376 132.235 116.226 132.083 116.655 131.468L119.026 128.068C119.455 127.452 119.303 126.602 118.688 126.173C118.072 125.743 117.222 125.895 116.792 126.511L114.422 129.911C113.993 130.526 114.144 131.376 114.76 131.806Z" fill="#B1B9B7"/>
<path d="M60.9939 173.028C60.8942 173.162 60.7378 173.252 60.5582 173.261L52.3825 173.67C52.063 173.686 51.7911 173.44 51.7752 173.121C51.759 172.801 52.005 172.529 52.3245 172.513L60.5003 172.104C60.8198 172.088 61.0917 172.334 61.1076 172.653C61.1146 172.793 61.0714 172.924 60.9939 173.028Z" fill="#B1B9B7"/>
<path d="M72.3096 169.47C72.2313 169.575 72.117 169.654 71.9794 169.687L65.6605 171.191C65.3494 171.265 65.037 171.072 64.963 170.761C64.8893 170.45 65.0814 170.138 65.3924 170.064L71.7113 168.56C72.0224 168.486 72.3348 168.679 72.4088 168.99C72.45 169.163 72.4085 169.337 72.3096 169.47Z" fill="#B1B9B7"/>
<path d="M85.1924 163.613C85.1411 163.682 85.0735 163.74 84.9917 163.782L76.7129 168.014C76.4282 168.16 76.0792 168.047 75.9337 167.762C75.7881 167.477 75.9011 167.128 76.1857 166.983L84.4646 162.751C84.7493 162.605 85.0982 162.718 85.2437 163.003C85.3476 163.206 85.32 163.442 85.1924 163.613Z" fill="#B1B9B7"/>
<path d="M97.0848 153.767C97.0594 153.801 97.0297 153.833 96.996 153.862L89.2286 160.496C88.9855 160.704 88.6199 160.675 88.4122 160.432C88.2044 160.189 88.2333 159.823 88.4765 159.616L96.2439 152.981C96.487 152.773 96.8526 152.802 97.0603 153.045C97.2392 153.255 97.2426 153.555 97.0848 153.767Z" fill="#B1B9B7"/>
<path d="M107.152 142.274C107.139 142.292 107.124 142.309 107.109 142.325L99.8784 150.01C99.6593 150.243 99.2928 150.254 99.0599 150.035C98.8269 149.816 98.8142 149.451 99.0349 149.216L106.265 141.532C106.484 141.299 106.851 141.287 107.084 141.507C107.3 141.71 107.325 142.041 107.152 142.274Z" fill="#B1B9B7"/>
<path d="M115.918 131.041L110.072 138.89C109.881 139.146 109.518 139.199 109.262 139.008C109.005 138.817 108.952 138.455 109.143 138.198L114.989 130.349C115.18 130.092 115.543 130.039 115.8 130.23C116.056 130.422 116.109 130.784 115.918 131.041Z" fill="#B1B9B7"/>
<path d="M118.547 127.511C118.362 127.76 118.011 127.819 117.754 127.642C117.491 127.46 117.425 127.099 117.607 126.836L122.748 119.396C122.932 119.131 123.291 119.067 123.554 119.249C123.817 119.431 123.883 119.791 123.701 120.054L118.56 127.494C118.556 127.5 118.551 127.506 118.547 127.511Z" fill="#B1B9B7"/>
<path d="M125.519 115.591C125.339 115.833 124.999 115.897 124.741 115.732C124.472 115.559 124.395 115.2 124.568 114.931L129.655 107.022C129.829 106.755 130.186 106.675 130.455 106.848C130.724 107.021 130.802 107.38 130.629 107.649L125.542 115.558C125.535 115.569 125.527 115.58 125.519 115.591Z" fill="#B1B9B7"/>
<path d="M132.944 102.888C132.813 102.997 132.592 102.956 132.44 102.79C132.28 102.617 132.255 102.374 132.384 102.246L136.164 98.5004C136.293 98.3746 136.526 98.41 136.685 98.583C136.844 98.756 136.869 98.9995 136.741 99.1269L132.961 102.873C132.956 102.878 132.95 102.883 132.944 102.888Z" fill="#B1B9B7"/>
<path d="M129.904 56.9466L140.569 56.2769L140.806 59.4252L151.11 59.0916L151.122 66.1569L136.928 63.0386L136.619 59.4517L129.904 56.9466Z" fill="#C02626"/>
<path d="M129.325 48.8787L134.517 39.8165L137.004 41.7033L145.029 31.7935L150.174 37.8636L138.093 47.4391L134.988 44.3001L129.325 48.8787Z" fill="#C02626"/>
<path d="M102.409 48.276L94.3207 44.5086L95.6618 39.6891L84.7713 30.8594L82.8027 39.5371L91.3932 43.2301L90.4425 49.5323L102.409 48.276Z" fill="#C02626"/>
<path d="M68.2341 78.5844C74.9665 78.5844 80.4242 73.1267 80.4242 66.3942C80.4242 59.6618 74.9665 54.2041 68.2341 54.2041C61.5017 54.2041 56.0439 59.6618 56.0439 66.3942C56.0439 73.1267 61.5017 78.5844 68.2341 78.5844Z" fill="#D1A347"/>
<path d="M68.2349 78.1789C74.7435 78.1789 80.0197 72.9027 80.0197 66.3941C80.0197 59.8856 74.7435 54.6094 68.2349 54.6094C61.7264 54.6094 56.4502 59.8856 56.4502 66.3941C56.4502 72.9027 61.7264 78.1789 68.2349 78.1789Z" fill="#D1A347"/>
<path opacity="0.78" d="M58.44 61.889C58.4057 61.8895 58.3708 61.8824 58.3378 61.8663C58.2252 61.8118 58.1781 61.6764 58.2327 61.5641C60.0708 57.7652 63.832 55.3614 68.0485 55.2906C68.7214 55.2794 69.3963 55.3286 70.0544 55.4374C70.1778 55.4576 70.2614 55.5741 70.241 55.6976C70.2206 55.8209 70.1043 55.9058 69.9808 55.884C69.3494 55.7799 68.7018 55.7326 68.0562 55.7434C64.0116 55.8112 60.4036 58.1172 58.6402 61.7611C58.6017 61.8407 58.5228 61.8876 58.44 61.889Z" fill="#FBFEFD"/>
<path opacity="0.78" d="M75.5472 73.6996C79.4424 69.8044 79.4424 63.4891 75.5472 59.5939C71.6521 55.6987 65.3367 55.6987 61.4415 59.5939C57.5463 63.4891 57.5463 69.8044 61.4415 73.6996C65.3367 77.5948 71.6521 77.5948 75.5472 73.6996Z" fill="#FBFEFD"/>
<path d="M67.6413 74.0772L67.6231 72.9922C66.4912 72.9659 65.368 72.7177 64.5676 72.3832C64.2817 72.2637 64.1318 71.9477 64.2083 71.6475L64.4669 70.6323C64.5618 70.2598 64.9618 70.0613 65.3187 70.2039C66.1125 70.5211 67.0901 70.7662 68.1396 70.7486C69.229 70.7303 70.0353 70.3473 70.0226 69.5903C70.0111 68.9071 69.3765 68.5115 67.8555 68.1306C65.6853 67.576 64.1183 66.6602 64.0864 64.7584C64.0576 63.0411 65.2913 61.709 67.4642 61.3217L67.446 60.2366C67.4401 59.8874 67.7185 59.5996 68.0676 59.5938L68.7051 59.5831C69.0542 59.5772 69.3421 59.8556 69.3479 60.2047L69.3642 61.1789C70.4115 61.2033 71.1764 61.3694 71.7846 61.5717C72.0962 61.6753 72.2711 62.0062 72.1904 62.3246L71.9526 63.2635C71.8609 63.6256 71.479 63.8295 71.1275 63.7033C70.5674 63.5021 69.7766 63.2961 68.7536 63.3133C67.461 63.335 67.1008 63.8766 67.1088 64.3567C67.1187 64.9476 67.901 65.3408 69.59 65.8297C72.0026 66.5095 73.0164 67.4899 73.0464 69.281C73.074 70.9244 71.8801 72.422 69.5228 72.831L69.5431 74.0453C69.549 74.3944 69.2707 74.6822 68.9216 74.6881L68.284 74.6987C67.9349 74.7047 67.6472 74.4263 67.6413 74.0772Z" fill="#D1A347"/>
<path d="M50.7712 89.2041C58.2663 89.2041 64.3423 83.1281 64.3423 75.6331C64.3423 68.138 58.2663 62.062 50.7712 62.062C43.2762 62.062 37.2002 68.138 37.2002 75.6331C37.2002 83.1281 43.2762 89.2041 50.7712 89.2041Z" fill="#D1A347"/>
<path d="M50.7711 88.753C58.017 88.753 63.8909 82.8791 63.8909 75.6332C63.8909 68.3874 58.017 62.5134 50.7711 62.5134C43.5253 62.5134 37.6514 68.3874 37.6514 75.6332C37.6514 82.8791 43.5253 88.753 50.7711 88.753Z" fill="#D1A347"/>
<path opacity="0.78" d="M39.867 70.6103C39.8299 70.611 39.7921 70.6032 39.7564 70.5859C39.6346 70.5269 39.5838 70.3804 39.6427 70.2588C41.6879 66.0321 45.8727 63.3576 50.5642 63.2789C51.3128 63.2663 52.0637 63.3212 52.7961 63.4421C52.9296 63.4641 53.0199 63.5901 52.998 63.7237C52.9759 63.857 52.8509 63.9481 52.7164 63.9253C52.0129 63.8094 51.2916 63.7566 50.5724 63.7687C46.0668 63.8442 42.0478 66.4128 40.0836 70.472C40.0419 70.5582 39.9566 70.6088 39.867 70.6103Z" fill="#FBFEFD"/>
<path opacity="0.78" d="M58.913 83.7659C63.2495 79.4295 63.2495 72.3987 58.913 68.0622C54.5765 63.7257 47.5457 63.7257 43.2093 68.0622C38.8728 72.3987 38.8728 79.4295 43.2093 83.7659C47.5457 88.1024 54.5765 88.1024 58.913 83.7659Z" fill="#FBFEFD"/>
<path d="M50.1115 84.1865L50.0912 82.9786C48.8311 82.9493 47.5807 82.673 46.6896 82.3006C46.3713 82.1676 46.2044 81.8158 46.2896 81.4816L46.5775 80.3513C46.6832 79.9366 47.1285 79.7156 47.5258 79.8744C48.4095 80.2276 49.4979 80.5004 50.6662 80.4809C51.879 80.4605 52.7767 80.0342 52.7625 79.1913C52.7497 78.4307 52.0433 77.9902 50.35 77.5663C47.9338 76.9488 46.1894 75.9294 46.1539 73.812C46.1218 71.9002 47.4953 70.4172 49.9144 69.986L49.8941 68.7779C49.8876 68.3892 50.1974 68.0688 50.5861 68.0623L51.2958 68.0504C51.6845 68.0439 52.0049 68.3537 52.0114 68.7424L52.0296 69.827C53.1956 69.8541 54.0471 70.0391 54.7242 70.2644C55.0711 70.3797 55.2658 70.7481 55.176 71.1025L54.9113 72.1478C54.8092 72.5509 54.384 72.7778 53.9927 72.6373C53.369 72.4134 52.4887 72.1841 51.3498 72.2032C49.9108 72.2273 49.5098 72.8303 49.5187 73.3648C49.5298 74.0226 50.4007 74.4603 52.281 75.0046C54.9669 75.7615 56.0955 76.8529 56.1289 78.8469C56.1596 80.6765 54.8305 82.3438 52.2062 82.7991L52.2289 84.1509C52.2354 84.5397 51.9256 84.86 51.5368 84.8666L50.827 84.8785C50.4385 84.8851 50.118 84.5752 50.1115 84.1865Z" fill="#D1A347"/>
</g>
<defs>
<clipPath id="clip0_366_17555">
<rect width="200" height="200" fill="white"/>
</clipPath>
</defs>
</svg>
