<svg width="200" height="86" viewBox="0 0 200 86" fill="none" xmlns="http://www.w3.org/2000/svg">
<path d="M124.429 21.4443C124.429 21.5806 124.582 21.6899 124.772 21.6899H183.646C183.836 21.6899 183.989 21.5806 183.989 21.4443C183.989 21.3081 183.836 21.1987 183.646 21.1987H124.772C124.582 21.1987 124.429 21.3081 124.429 21.4443Z" fill="#444B49"/>
<path d="M76.5472 56.5186L77.1299 71.9592H75.7117V73.7072H79.6756V71.9592H78.5195L78.6021 56.5186H76.5472Z" fill="#020D0B"/>
<path d="M75.0183 69.4829C75.6216 69.4829 76.1108 69.972 76.1108 70.5754V75.0911C76.1108 75.6944 75.6216 76.1836 75.0183 76.1836C74.4149 76.1836 73.9258 75.6944 73.9258 75.0911V70.5754C73.9258 69.972 74.4149 69.4829 75.0183 69.4829Z" fill="#020D0B"/>
<path d="M80.5534 69.4829C81.1568 69.4829 81.6459 69.972 81.6459 70.5754V75.0911C81.6459 75.6944 81.1568 76.1836 80.5534 76.1836C79.9501 76.1836 79.4609 75.6944 79.4609 75.0911V70.5754C79.4609 69.972 79.9501 69.4829 80.5534 69.4829Z" fill="#020D0B"/>
<path d="M89.4387 46.8979L67.0061 45.8782L70.5021 44.2759L90.1671 44.5672L89.4387 46.8979Z" fill="#1CA686"/>
<path d="M0 49.1622L2.70917 48.1426L86.8172 50.3276L90.3132 48.7252L88.8565 58.6306L22.0458 51.5114L0 49.1622Z" fill="#1CA686"/>
<path d="M21.6311 54.9159L22.0455 51.5112L88.8561 58.6304L88.492 63.6559L21.6311 54.9159Z" fill="#020D0B"/>
<path d="M66.5693 64.9672C70.3906 64.9672 73.4885 61.6737 73.4885 57.611C73.4885 53.5483 70.3906 50.2549 66.5693 50.2549C62.748 50.2549 59.6501 53.5483 59.6501 57.611C59.6501 61.6737 62.748 64.9672 66.5693 64.9672Z" fill="#020D0B"/>
<path d="M66.5693 61.3983C69.385 61.3983 71.6676 59.1157 71.6676 56.3C71.6676 53.4843 69.385 51.2017 66.5693 51.2017C63.7535 51.2017 61.4709 53.4843 61.4709 56.3C61.4709 59.1157 63.7535 61.3983 66.5693 61.3983Z" fill="#1CA686"/>
<path d="M123.453 56.5186L122.87 71.9592H124.288V73.7072H120.324V71.9592H121.48L121.398 56.5186H123.453Z" fill="#020D0B"/>
<path d="M124.981 69.4829H124.981C124.378 69.4829 123.889 69.972 123.889 70.5754V75.0911C123.889 75.6944 124.378 76.1836 124.981 76.1836H124.981C125.585 76.1836 126.074 75.6944 126.074 75.0911V70.5754C126.074 69.972 125.585 69.4829 124.981 69.4829Z" fill="#020D0B"/>
<path d="M119.446 69.4829H119.446C118.843 69.4829 118.354 69.972 118.354 70.5754V75.0911C118.354 75.6944 118.843 76.1836 119.446 76.1836H119.446C120.05 76.1836 120.539 75.6944 120.539 75.0911V70.5754C120.539 69.972 120.05 69.4829 119.446 69.4829Z" fill="#020D0B"/>
<path d="M110.561 46.8979L132.994 45.8782L129.498 44.2759L109.833 44.5672L110.561 46.8979Z" fill="#1CA686"/>
<path d="M102.531 43.7598L101.512 21.3271L99.9094 24.8231L100.201 44.4881L102.531 43.7598Z" fill="#1CA686"/>
<path d="M200 49.1622L197.291 48.1426L113.183 50.3276L109.687 48.7252L111.143 58.6306L177.954 51.5114L200 49.1622Z" fill="#1CA686"/>
<path d="M178.369 54.9159L177.955 51.5112L111.144 58.6304L111.508 63.6559L178.369 54.9159Z" fill="#020D0B"/>
<path d="M133.43 64.9672C137.251 64.9672 140.349 61.6737 140.349 57.611C140.349 53.5483 137.251 50.2549 133.43 50.2549C129.609 50.2549 126.511 53.5483 126.511 57.611C126.511 61.6737 129.609 64.9672 133.43 64.9672Z" fill="#020D0B"/>
<path d="M133.43 61.3983C136.246 61.3983 138.529 59.1157 138.529 56.3C138.529 53.4843 136.246 51.2017 133.43 51.2017C130.615 51.2017 128.332 53.4843 128.332 56.3C128.332 59.1157 130.615 61.3983 133.43 61.3983Z" fill="#1CA686"/>
<path d="M112.71 44.1038L112.379 46.5403L112.207 59.6561C112.194 60.6321 112.076 61.5964 111.855 62.5316C111.217 65.2556 109.727 67.7333 107.526 69.5294C105.529 71.1609 102.805 72.3961 99.1993 72.1776C89.5853 71.595 88.7361 63.4129 88.7361 63.4129L89.0988 48.5753L89.1483 46.5403L89.5853 42.8685C89.5853 42.8685 90.7507 32.5262 101.53 32.8176C112.309 33.1089 112.71 44.1038 112.71 44.1038Z" fill="#1CA686"/>
<path d="M91.9158 40.6835L94.1008 37.1875L96.8684 36.3135H106.337L108.667 37.1875L110.782 40.6835L106.919 38.9355H96.0828L91.9158 40.6835Z" fill="#444B49"/>
<path d="M99.9284 65.8174L100.302 75.7227H99.3923V76.8441H101.935V75.7227H101.194L101.247 65.8174H99.9284Z" fill="#020D0B"/>
<path d="M98.9469 74.1343C99.334 74.1343 99.6478 74.4481 99.6478 74.8351V77.732C99.6478 78.119 99.334 78.4328 98.9469 78.4328C98.5599 78.4328 98.2461 78.119 98.2461 77.732V74.8351C98.2461 74.4481 98.5599 74.1343 98.9469 74.1343Z" fill="#020D0B"/>
<path d="M102.498 74.1343C102.885 74.1343 103.199 74.4481 103.199 74.8351V77.732C103.199 78.119 102.885 78.4328 102.498 78.4328C102.111 78.4328 101.797 78.119 101.797 77.732V74.8351C101.797 74.4481 102.111 74.1343 102.498 74.1343Z" fill="#020D0B"/>
<path d="M97.2163 34.1661L95.2039 41.4116L95.5916 41.5193L97.6041 34.2739L97.2163 34.1661Z" fill="#1CA686"/>
<path d="M106.343 35.3223L105.948 35.3999L107.397 42.7786L107.792 42.701L106.343 35.3223Z" fill="#1CA686"/>
<path d="M147.81 23.7475C149.255 23.7475 150.426 22.5761 150.426 21.1311C150.426 19.6861 149.255 18.5146 147.81 18.5146C146.365 18.5146 145.194 19.6861 145.194 21.1311C145.194 22.5761 146.365 23.7475 147.81 23.7475Z" fill="#1CA686"/>
<path d="M75.393 32.3114C76.838 32.3114 78.0094 31.14 78.0094 29.695C78.0094 28.25 76.838 27.0786 75.393 27.0786C73.948 27.0786 72.7766 28.25 72.7766 29.695C72.7766 31.14 73.948 32.3114 75.393 32.3114Z" fill="#1CA686"/>
<path d="M16.1501 78.8037C16.1501 78.9399 16.3029 79.0493 16.4931 79.0493H75.3668C75.557 79.0493 75.7098 78.9399 75.7098 78.8037C75.7098 78.6675 75.557 78.5581 75.3668 78.5581H16.4931C16.3029 78.5581 16.1501 78.6675 16.1501 78.8037Z" fill="#444B49"/>
<path d="M39.5312 81.1073C40.9762 81.1073 42.1476 79.9359 42.1476 78.4909C42.1476 77.0459 40.9762 75.8745 39.5312 75.8745C38.0862 75.8745 36.9148 77.0459 36.9148 78.4909C36.9148 79.9359 38.0862 81.1073 39.5312 81.1073Z" fill="#1CA686"/>
</svg>
