<svg width="300" height="126" viewBox="0 0 300 126" fill="none" xmlns="http://www.w3.org/2000/svg">
<g clip-path="url(#clip0_319_11862)">
<path d="M128.33 95.3866L103.141 101.069C103.141 101.069 98.0046 100.484 102.875 93.3127C103.313 92.6669 103.832 91.9721 104.442 91.2174L117.497 84.8124L117.375 83.9508L114.596 64.3492L113.522 56.7625L121.715 49.1454L123.279 47.6902L144.073 66.9232L143.923 67.197L135.233 82.9088L128.33 95.3866Z" fill="#ECA1A1"/>
<path d="M119.016 89.674L93.8266 95.3561C93.4483 95.3133 93.0834 95.1907 92.756 94.9964C92.4286 94.8021 92.1462 94.5405 91.9274 94.229C91.7085 93.9175 91.5583 93.563 91.4866 93.1891C91.4149 92.8152 91.4234 92.4304 91.5114 92.06C91.6334 91.3274 91.8628 90.6168 92.1924 89.9512C92.9923 88.3583 93.9777 86.8654 95.1278 85.5036L108.182 79.0986L106.582 67.8097L105.785 62.1796L105.268 58.5396L104.207 51.0484L113.965 41.9761L124.592 51.8035L134.76 61.2106L133.387 63.6872L131.751 66.6463L123.9 80.8459L122.3 83.7383L119.016 89.674Z" fill="#ECA1A1"/>
<path d="M162.809 85.7055C162.809 85.7055 153.37 85.0774 149.84 78.6918C148.723 76.5787 148.292 74.1695 148.608 71.7999L144.761 64.1963L139.286 53.3609L125.32 51.1555L124.591 51.802L114.464 60.7994L111.365 63.5524L106.581 67.8074L83.378 88.4226C82.4542 90.0685 81.2671 91.552 79.8639 92.8143C78.5747 94.0115 77.1559 95.061 75.6339 95.9434C71.2066 98.5126 64.5885 100.51 55.0705 99.461L4.90302 112.813L0 79.1668L42.0784 65.3319L103.789 24.9661L145.447 35.6269L164.765 63.0568L162.809 85.7055Z" fill="#ECA1A1"/>
<path d="M291.969 82.4593L171.373 125.097C168.391 126.146 165.115 125.971 162.263 124.609C159.411 123.247 157.215 120.809 156.158 117.83L135.439 59.235C134.39 56.2535 134.565 52.9774 135.927 50.1251C137.289 47.2728 139.727 45.0772 142.706 44.0199L263.303 1.38188C266.285 0.33197 269.561 0.507356 272.413 1.86957C275.265 3.23178 277.461 5.66962 278.518 8.6484L299.235 67.2427C300.285 70.2242 300.11 73.5003 298.747 76.3526C297.385 79.2048 294.947 81.4005 291.968 82.4578L291.969 82.4593Z" fill="#1CA686"/>
<path opacity="0.096" d="M299.236 67.2427L299.346 67.5528C299.844 68.9628 300.06 70.4571 299.981 71.9504C299.902 73.4437 299.529 74.9068 298.884 76.2562C298.24 77.6055 297.335 78.8146 296.223 79.8145C295.111 80.8144 293.813 81.5854 292.403 82.0836L171.204 124.934C168.357 125.94 165.227 125.774 162.502 124.473C159.777 123.171 157.681 120.841 156.674 117.994L156.564 117.684L299.236 67.2427Z" fill="#F7F8F8"/>
<path d="M163.847 57.6228C155.853 62.8828 145.608 58.9244 142.025 53.158L142.597 52.8332C149.402 48.5921 159.508 50.9556 163.847 57.6228Z" fill="#F7F8F8"/>
<path d="M264.02 72.5461C262.063 73.2379 260.302 73.2057 258.783 72.4517C255.351 70.7463 253.743 65.6905 252.447 61.6268C252.07 60.4451 251.715 59.3285 251.353 58.4161L251.348 58.4019C250.718 56.5917 250.827 54.6062 251.653 52.8765C252.478 51.1468 253.953 49.8127 255.757 49.164L271.977 43.4291C273.931 42.738 275.691 42.7695 277.206 43.5235C280.638 45.2262 282.249 50.281 283.544 54.342C283.921 55.5263 284.279 56.6451 284.642 57.5587C285.275 59.3704 285.167 61.3587 284.342 63.0913C283.516 64.8238 282.04 66.1604 280.235 66.8104L264.02 72.5461ZM252.026 58.1576C252.396 59.094 252.755 60.2177 253.135 61.4081C254.387 65.341 255.946 70.2354 259.104 71.8044C260.459 72.4787 261.988 72.4974 263.778 71.8648L279.995 66.1313C281.619 65.547 282.947 64.3456 283.691 62.788C284.434 61.2304 284.534 59.4423 283.967 57.8119C283.6 56.8886 283.239 55.7586 282.858 54.5618C281.604 50.6308 280.044 45.7379 276.887 44.1711C275.533 43.4987 274.006 43.4796 272.219 44.1112L256 49.8457C254.378 50.4298 253.051 51.6299 252.308 53.1858C251.565 54.7417 251.465 56.5278 252.03 58.1569L252.026 58.1576Z" fill="#F7F8F8"/>
<path d="M160.485 59.5176C157.634 60.506 154.564 60.6747 151.622 60.0046C147.326 59.0625 143.426 56.4964 141.447 53.3111L141.249 52.9916L142.141 52.4849C149.049 48.1823 159.408 50.515 163.878 57.3838L164.074 57.6834L163.774 57.8812C162.748 58.5579 161.643 59.1074 160.485 59.5176ZM142.266 53.2456C144.204 56.1249 147.809 58.4273 151.777 59.2985C155.635 60.1993 159.691 59.5445 163.07 57.4759C158.696 51.1495 149.007 49.0509 142.517 53.1018L142.266 53.2456Z" fill="#444B49"/>
<path d="M164.721 101.572C163.709 101.973 162.606 102.091 161.532 101.913C160.457 101.735 159.452 101.267 158.623 100.561C157.653 99.7129 156.917 98.6296 156.487 97.415C156.058 96.2005 155.948 94.8958 156.169 93.6265C156.373 92.534 156.877 91.5195 157.623 90.6955C158.369 89.8716 159.328 89.2703 160.395 88.9583L182.007 81.3172C183.033 80.8919 184.157 80.7581 185.254 80.9307C186.351 81.1032 187.379 81.5755 188.225 82.2952C189.194 83.1435 189.929 84.2271 190.358 85.4416C190.787 86.6561 190.896 87.9606 190.675 89.2295C190.248 91.46 188.744 93.1029 186.447 93.8891L164.835 101.53L164.721 101.572ZM160.529 89.6771C159.607 89.9617 158.78 90.4921 158.137 91.2115C157.493 91.9308 157.058 92.8118 156.878 93.7598C156.679 94.9033 156.777 96.0787 157.164 97.1729C157.551 98.2671 158.214 99.2432 159.088 100.007C159.837 100.642 160.747 101.057 161.718 101.206C162.688 101.355 163.681 101.232 164.586 100.851L186.208 93.2062C187.152 92.9341 188.003 92.4059 188.665 91.68C189.328 90.9542 189.777 90.0591 189.962 89.0939C190.161 87.9505 190.062 86.775 189.675 85.6808C189.288 84.5865 188.626 83.6105 187.752 82.8466C187.001 82.2126 186.09 81.7979 185.119 81.6483C184.148 81.4987 183.155 81.6199 182.248 81.9985L160.623 89.6445L160.524 89.679L160.529 89.6771Z" fill="#F7F8F8"/>
<path d="M264.164 55.3065L257.35 57.7157C257.126 57.7948 256.889 57.829 256.652 57.8164C256.415 57.8039 256.183 57.7447 255.969 57.6424C255.755 57.5401 255.563 57.3966 255.404 57.2201C255.245 57.0436 255.123 56.8375 255.044 56.6137C254.965 56.3899 254.93 56.1527 254.943 55.9157C254.956 55.6786 255.015 55.4464 255.117 55.2322C255.219 55.018 255.363 54.8261 255.539 54.6674C255.716 54.5087 255.922 54.3863 256.146 54.3072L262.959 51.898C263.411 51.7382 263.908 51.7646 264.34 51.9713C264.773 52.1779 265.106 52.5479 265.266 52.9999C265.425 53.4519 265.399 53.9489 265.192 54.3814C264.986 54.814 264.616 55.1468 264.164 55.3065Z" fill="#C1C8C6"/>
<path d="M266.091 60.7572L259.278 63.1664C258.826 63.3261 258.329 63.2997 257.897 63.0931C257.464 62.8864 257.131 62.5164 256.971 62.0644C256.812 61.6124 256.838 61.1155 257.045 60.6829C257.251 60.2503 257.621 59.9176 258.073 59.7578L264.887 57.3487C265.339 57.1889 265.836 57.2153 266.268 57.4219C266.701 57.6286 267.034 57.9986 267.193 58.4506C267.353 58.9026 267.327 59.3996 267.12 59.8321C266.913 60.2647 266.543 60.5974 266.091 60.7572Z" fill="#C1C8C6"/>
<path d="M268.018 66.2074L261.205 68.6166C260.981 68.6957 260.744 68.7299 260.507 68.7173C260.27 68.7047 260.037 68.6456 259.823 68.5433C259.609 68.441 259.417 68.2974 259.258 68.1209C259.1 67.9444 258.977 67.7384 258.898 67.5146C258.819 67.2908 258.785 67.0536 258.797 66.8166C258.81 66.5795 258.869 66.3473 258.971 66.1331C259.074 65.9189 259.217 65.727 259.394 65.5683C259.57 65.4095 259.776 65.2871 260 65.208L266.813 62.7989C267.265 62.6391 267.762 62.6655 268.195 62.8721C268.628 63.0788 268.96 63.4488 269.12 63.9008C269.28 64.3528 269.253 64.8498 269.047 65.2823C268.84 65.7149 268.47 66.0476 268.018 66.2074Z" fill="#C1C8C6"/>
<path d="M276.087 51.0907L269.274 53.4999C268.822 53.6596 268.325 53.6332 267.893 53.4266C267.46 53.2199 267.127 52.8499 266.968 52.3979C266.808 51.9459 266.834 51.449 267.041 51.0164C267.247 50.5838 267.618 50.2511 268.07 50.0913L274.883 47.6822C275.335 47.5224 275.832 47.5488 276.264 47.7554C276.697 47.9621 277.03 48.3321 277.189 48.7841C277.349 49.2361 277.323 49.7331 277.116 50.1656C276.909 50.5982 276.539 50.9309 276.087 51.0907Z" fill="#C1C8C6"/>
<path d="M278.014 56.5414L271.201 58.9505C270.977 59.0296 270.74 59.0639 270.503 59.0513C270.266 59.0387 270.034 58.9796 269.819 58.8773C269.605 58.7749 269.413 58.6314 269.255 58.4549C269.096 58.2784 268.973 58.0724 268.894 57.8486C268.815 57.6248 268.781 57.3876 268.794 57.1505C268.806 56.9135 268.865 56.6813 268.968 56.4671C269.07 56.2529 269.213 56.061 269.39 55.9022C269.566 55.7435 269.772 55.6211 269.996 55.542L276.81 53.1328C277.262 52.9731 277.759 52.9995 278.191 53.2061C278.624 53.4128 278.956 53.7828 279.116 54.2348C279.276 54.6868 279.25 55.1837 279.043 55.6163C278.836 56.0489 278.466 56.3816 278.014 56.5414Z" fill="#C1C8C6"/>
<path d="M279.941 61.9914L273.128 64.4002C272.904 64.4793 272.667 64.5136 272.43 64.501C272.193 64.4884 271.96 64.4293 271.746 64.327C271.532 64.2247 271.34 64.0811 271.181 63.9046C271.023 63.7281 270.9 63.5221 270.821 63.2983C270.742 63.0745 270.708 62.8373 270.72 62.6002C270.733 62.3632 270.792 62.131 270.894 61.9168C270.997 61.7026 271.14 61.5107 271.317 61.3519C271.493 61.1932 271.699 61.0708 271.923 60.9917L278.736 58.5825C278.96 58.5034 279.197 58.4692 279.434 58.4818C279.671 58.4944 279.904 58.5535 280.118 58.6558C280.332 58.7581 280.524 58.9017 280.683 59.0782C280.841 59.2547 280.964 59.4607 281.043 59.6845C281.122 59.9083 281.156 60.1455 281.144 60.3825C281.131 60.6196 281.072 60.8518 280.97 61.066C280.867 61.2802 280.724 61.4721 280.547 61.6309C280.371 61.7896 280.165 61.9123 279.941 61.9914Z" fill="#C1C8C6"/>
<path d="M283.049 21.4567L140.359 71.8457L140.6 72.527L283.29 22.138L283.049 21.4567Z" fill="#444B49"/>
<path d="M291.969 82.4593L171.373 125.097C168.391 126.146 165.115 125.971 162.263 124.609C159.411 123.247 157.215 120.809 156.158 117.83L135.439 59.235C134.39 56.2535 134.565 52.9774 135.927 50.1251C137.289 47.2728 139.727 45.0772 142.706 44.0199L263.303 1.38188C266.285 0.33197 269.561 0.507356 272.413 1.86957C275.265 3.23178 277.461 5.66962 278.518 8.6484L299.235 67.2427C300.285 70.2242 300.11 73.5003 298.747 76.3526C297.385 79.2048 294.947 81.4005 291.968 82.4578L291.969 82.4593ZM142.948 44.6997C140.149 45.6927 137.858 47.7555 136.578 50.4354C135.299 53.1152 135.134 56.1934 136.121 58.9945L156.838 117.589C157.831 120.388 159.893 122.678 162.573 123.958C165.253 125.238 168.331 125.403 171.132 124.416L291.728 81.7776C294.527 80.7846 296.818 78.7219 298.098 76.0421C299.378 73.3623 299.542 70.2842 298.556 67.4832L277.838 8.89073C276.846 6.0914 274.784 3.80007 272.104 2.51951C269.424 1.23895 266.346 1.07377 263.544 2.06021L142.948 44.6997Z" fill="#444B49"/>
<path opacity="0.15" d="M107.317 91.6986L106.936 90.8371L122.483 83.9421L126.189 70.9399L120.603 66.4234L121.195 65.6904L127.267 70.5994L123.268 84.6238L107.317 91.6986Z" fill="#020D0B"/>
<path opacity="0.1" d="M92.1923 89.9525L88.1058 91.943L79.8654 92.8157C78.5753 94.0124 77.1557 95.0615 75.6329 95.9433L68.4061 95.7039L56.2002 95.3219L97.4646 60.1362L105.783 62.1795C105.783 62.1795 91.8069 90.774 92.1923 89.9525Z" fill="#020D0B"/>
<path d="M149.84 78.6924C148.757 78.901 147.57 79.0737 146.257 79.2059C139.482 79.8831 125.162 80.7835 123.899 80.8468C115.416 81.2461 110.083 81.2413 110.083 81.2413L92.1916 89.9524L88.1051 91.9429L54.9814 95.451L99.8338 57.2056L105.267 58.5394L114.464 60.801L124.595 63.2918L133.386 63.6874L144.761 64.1975L153.956 64.6095C155.549 64.6649 157.055 65.3483 158.146 66.5105C159.237 67.6728 159.823 69.2194 159.778 70.8127C159.634 73.8466 157.53 77.1979 149.84 78.6924Z" fill="#ECA1A1"/>
<path opacity="0.15" d="M153.328 76.3865C153.181 76.3415 149.726 75.2549 148.631 72.2142C147.893 70.1698 148.412 67.7779 150.172 65.1042L150.959 65.6223C149.373 68.0315 148.886 70.1402 149.514 71.8887C150.446 74.4844 153.572 75.4755 153.603 75.4845L153.328 76.3865Z" fill="#020D0B"/>
<path opacity="0.15" d="M108.635 81.4203L92.8066 89.1321L93.2192 89.979L109.048 82.2672L108.635 81.4203Z" fill="#020D0B"/>
<path opacity="0.15" d="M102.726 59.5616L125.148 50.7185L125.493 51.595L106.117 59.2361L122.585 62.312L122.411 63.2379L102.726 59.5616Z" fill="#020D0B"/>
</g>
<defs>
<clipPath id="clip0_319_11862">
<rect width="300" height="125.077" fill="white" transform="translate(0 0.700928)"/>
</clipPath>
</defs>
</svg>
