<svg width="200" height="188" viewBox="0 0 200 188" fill="none" xmlns="http://www.w3.org/2000/svg">
<g clip-path="url(#clip0_332_14136)">
<path d="M134.814 132.993H63.0686C57.038 132.993 52.1318 128.087 52.1318 122.056V50.3108C52.1318 44.2802 57.038 39.374 63.0686 39.374H134.814C140.845 39.374 145.751 44.2802 145.751 50.3108V122.056C145.751 128.087 140.845 132.993 134.814 132.993ZM63.0686 41.1239C57.9948 41.1239 53.8817 45.237 53.8817 50.3108V122.056C53.8817 127.13 57.9948 131.243 63.0686 131.243H113.325C130.267 131.243 144.001 117.509 144.001 100.567V50.3108C144.001 45.237 139.888 41.1239 134.814 41.1239L63.0686 41.1239Z" fill="#F2F2F2"/>
<path d="M70.8031 48.585C67.4074 48.585 64.645 51.3473 64.645 54.743V64.3817C64.645 67.7773 67.4074 70.5397 70.8031 70.5397H80.4417C83.8374 70.5397 86.5997 67.7773 86.5997 64.3817V54.743C86.5997 51.3473 83.8374 48.585 80.4417 48.585H70.8031Z" fill="#F2F2F2"/>
<path d="M70.8031 75.7188C67.4074 75.7188 64.645 78.4811 64.645 81.8768V91.5154C64.645 94.9111 67.4074 97.6735 70.8031 97.6735H80.4417C83.8374 97.6735 86.5997 94.9111 86.5997 91.5154V81.8768C86.5997 78.4811 83.8374 75.7188 80.4417 75.7188H70.8031Z" fill="#F2F2F2"/>
<path d="M70.8031 102.853C67.4074 102.853 64.645 105.615 64.645 109.011V118.649C64.645 122.045 67.4074 124.807 70.8031 124.807H80.4417C83.8374 124.807 86.5997 122.045 86.5997 118.649V109.011C86.5997 105.615 83.8374 102.853 80.4417 102.853H70.8031Z" fill="#F2F2F2"/>
<path d="M77.1949 25.0684C72.9162 25.0684 69.4355 28.549 69.4355 32.8277V44.9727C69.4355 49.2513 72.9162 52.732 77.1949 52.732H89.3398C93.6185 52.732 97.0991 49.2513 97.0991 44.9727V32.8277C97.0991 28.549 93.6185 25.0684 89.3398 25.0684H77.1949Z" fill="#1CA686"/>
<path d="M117.179 59.0088C112.901 59.0088 109.42 62.4895 109.42 66.7681V78.9131C109.42 83.1917 112.901 86.6724 117.179 86.6724H129.324C133.603 86.6724 137.084 83.1917 137.084 78.9131V66.7681C137.084 62.4895 133.603 59.0088 129.324 59.0088H117.179Z" fill="#1CA686"/>
<path d="M99.7963 181.253L97.329 181.232L96.2368 171.493L99.8783 171.524L99.7963 181.253Z" fill="#A0616A"/>
<path d="M91.8931 185.176C91.8878 185.783 92.3773 186.283 92.9868 186.288L97.8923 186.329L98.7511 184.589L99.0665 186.338L100.917 186.355L100.45 180.115L99.8061 180.072L97.1794 179.891L96.332 179.834L96.3171 181.6L92.3765 184.272C92.0767 184.476 91.8961 184.813 91.8931 185.176Z" fill="#2F2E41"/>
<path d="M112.349 181.253L109.882 181.232L108.79 171.493L112.431 171.524L112.349 181.253Z" fill="#A0616A"/>
<path d="M104.446 185.176C104.441 185.783 104.931 186.283 105.54 186.288L110.446 186.329L111.304 184.589L111.62 186.338L113.471 186.355L113.003 180.115L112.359 180.072L109.733 179.891L108.885 179.834L108.87 181.6L104.93 184.272C104.63 184.476 104.449 184.813 104.446 185.176Z" fill="#2F2E41"/>
<path d="M90.1145 102.518L100.116 102.833L109.59 104.939C109.59 104.939 108.643 106.097 111.801 109.255C111.801 109.255 116.012 116.624 113.064 123.783L111.801 152.418C111.801 152.418 115.484 172.603 112.67 179.028L108.951 179.26L102.657 152.651L99.5892 123.994L98.1154 152.207C98.1154 152.207 103.754 171.572 100.193 179.26L96.165 179.028L89.2723 152.207C89.2723 152.207 86.3247 121.256 86.7458 115.361C87.1669 109.466 90.1145 102.518 90.1145 102.518Z" fill="#2F2E41"/>
<path d="M123.7 57.2698C122.333 57.6238 121.511 59.0191 121.865 60.3862C122.028 61.0127 122.41 61.5223 122.906 61.859L122.906 61.8625L122.712 66.5603L126.307 68.2239L126.594 60.9949L126.569 60.9956C126.881 60.4403 126.989 59.7694 126.816 59.1042C126.462 57.7371 125.067 56.9158 123.7 57.2698Z" fill="#A0616A"/>
<path d="M103.608 74.0356C102.852 73.2871 102.414 72.2722 102.398 71.1685C102.376 69.688 103.118 68.3442 104.383 67.574C105.839 66.687 107.66 66.7768 109.022 67.8024L120.311 76.302L122.323 64.0576L126.641 65.4478L125.611 81.3918C125.539 82.5071 124.909 83.4895 123.925 84.0199C122.941 84.5503 121.774 84.537 120.803 83.9844L104.488 74.7027C104.161 74.5162 103.866 74.2914 103.608 74.0356Z" fill="#3F3D56"/>
<path d="M86.3945 50.4208C87.1162 51.6348 86.7171 53.2039 85.5031 53.9255C84.9469 54.2562 84.3166 54.349 83.7269 54.2385L83.7246 54.2411L80.5548 57.7137L76.8306 56.3641L81.7164 51.0284L81.7337 51.0466C81.9033 50.4327 82.2991 49.8805 82.8898 49.5294C84.1037 48.8077 85.6729 49.2068 86.3945 50.4208Z" fill="#A0616A"/>
<path d="M87.7634 76.3264L69.6432 71.4318C68.5643 71.1403 67.7262 70.328 67.401 69.2587C67.0758 68.1895 67.3199 67.048 68.0539 66.2052L78.5476 54.1572L82.5932 56.2105L75.4009 66.322L89.4018 68.234C91.0913 68.4647 92.4479 69.6833 92.8576 71.3386C93.2135 72.7759 92.7943 74.2526 91.7363 75.2885C90.9476 76.0607 89.9219 76.473 88.8586 76.4728C88.4953 76.4728 88.1275 76.4247 87.7634 76.3264Z" fill="#3F3D56"/>
<path d="M113.597 106.729L88.258 107.892C87.5621 106.835 87.7505 105.246 88.7251 103.256C92.405 95.7425 89.6103 81.5288 87.7303 74.1276C87.2028 72.051 88.6188 69.9866 90.7507 69.7734L93.1398 69.5345L95.3483 62.793H103.083L106.292 66.4588L111.737 69.767C110.746 79.9769 106.523 94.3941 112.539 101.624C113.855 103.206 114.228 104.916 113.597 106.729Z" fill="#3F3D56"/>
<path d="M98.232 62.9493C102.393 62.9493 105.766 59.5763 105.766 55.4156C105.766 51.2548 102.393 47.8818 98.232 47.8818C94.0712 47.8818 90.6982 51.2548 90.6982 55.4156C90.6982 59.5763 94.0712 62.9493 98.232 62.9493Z" fill="#A0616A"/>
<path d="M106.757 50.5927C107.805 46.7712 96.3811 43.4942 94.1611 46.5717C93.8524 46.1341 92.7116 45.8684 92.1882 46.0026C91.6647 46.1368 91.2245 46.4723 90.795 46.7971C90.2045 47.2508 89.5925 47.7205 89.2301 48.3728C88.865 49.0224 88.8087 49.9082 89.2999 50.4719C89.6891 50.9202 90.373 53.3023 90.9582 53.4204C91.3662 53.5036 91.7098 53.5707 92.0051 53.6191C92.2681 53.2352 92.939 52.753 92.8906 52.2887C93.2879 52.5517 93.1428 53.0145 93.0627 53.4875C92.796 55.0626 86.787 67.2555 90.2286 63.6625C90.5696 63.8638 90.991 64.0517 91.4768 64.2235C92.3009 62.9807 92.9773 61.5151 93.4229 59.9823L93.4261 60.0107C93.5795 61.3426 94.5529 62.4356 95.8408 62.8087C101.007 64.3053 105.186 62.1092 106.623 58.1489C106.097 57.0805 105.868 57.1966 105.915 57.1648C106.572 56.722 107.475 57.0116 107.757 57.7518C107.84 57.97 107.916 58.1563 107.981 58.2965C108.73 55.6176 109.621 56.0042 106.757 50.5927Z" fill="#2F2E41"/>
<path d="M103.193 47.8205L102.665 45.1227C102.621 44.8959 102.579 44.6498 102.681 44.4426C102.812 44.1764 103.15 44.066 103.444 44.1084C103.738 44.1509 103.958 44.4193 104.25 44.471C105.267 44.6507 106.61 43.6466 106.974 46.1867C107.126 47.2458 108.816 47.3577 109.381 48.2666C109.945 49.1755 110.014 50.4875 109.244 51.23C108.629 51.8231 107.641 51.8915 106.842 51.5886C106.043 51.2856 105.402 50.6737 104.842 50.0284C104.282 49.3831 103.774 48.6848 103.128 48.1256" fill="#2F2E41"/>
<path d="M107.159 51.9234C105.098 51.6355 103.693 50.8857 102.983 49.6952C102.054 48.1369 102.676 46.4209 102.703 46.3486L103.139 46.5106C103.133 46.5264 102.568 48.0971 103.385 49.4612C104.019 50.5223 105.311 51.1958 107.223 51.463L107.159 51.9234Z" fill="#1CA686"/>
<path d="M116.833 22.7731C110.773 22.7731 105.842 17.8419 105.842 11.7816C105.842 5.7212 110.773 0.790039 116.833 0.790039C122.894 0.790039 127.825 5.7212 127.825 11.7816C127.825 17.8419 122.894 22.7731 116.833 22.7731ZM116.833 5.18665C113.197 5.18665 110.238 8.14492 110.238 11.7816C110.238 15.4182 113.197 18.3765 116.833 18.3765C120.47 18.3765 123.428 15.4182 123.428 11.7816C123.428 8.14492 120.47 5.18665 116.833 5.18665Z" fill="#1CA686"/>
<path d="M133.745 30.2427C133.206 30.2427 132.666 30.0463 132.242 29.648L121.926 19.98C121.039 19.1503 120.994 17.7591 121.825 16.8736C122.653 15.9848 124.045 15.9408 124.931 16.7727L135.247 26.4407C136.134 27.2705 136.179 28.6616 135.348 29.5471C134.916 30.0098 134.331 30.2427 133.745 30.2427Z" fill="#1CA686"/>
<path d="M180.37 181.006C181.117 181.053 181.53 180.124 180.965 179.583L180.909 179.359C180.916 179.341 180.924 179.324 180.931 179.306C181.687 177.503 184.249 177.516 184.998 179.321C185.663 180.923 186.51 182.528 186.719 184.222C186.812 184.969 186.77 185.731 186.604 186.465C188.163 183.06 188.983 179.342 188.983 175.604C188.983 174.664 188.931 173.725 188.826 172.788C188.74 172.021 188.621 171.26 188.466 170.505C187.632 166.425 185.826 162.539 183.221 159.293C181.968 158.608 180.923 157.538 180.293 156.255C180.066 155.793 179.888 155.295 179.804 154.788C179.947 154.807 180.342 152.636 180.234 152.503C180.433 152.201 180.788 152.051 181.005 151.757C182.084 150.294 183.571 150.55 184.347 152.538C186.005 153.374 186.021 154.762 185.003 156.096C184.356 156.946 184.267 158.094 183.7 159.003C183.758 159.078 183.819 159.151 183.877 159.225C184.948 160.599 185.875 162.076 186.656 163.628C186.435 161.903 186.761 159.826 187.317 158.487C187.949 156.961 189.135 155.676 190.179 154.357C191.433 152.773 194.004 153.464 194.225 155.473C194.227 155.492 194.229 155.512 194.231 155.531C194.076 155.618 193.924 155.711 193.776 155.81C192.929 156.369 193.222 157.681 194.225 157.836L194.248 157.84C194.191 158.398 194.096 158.952 193.955 159.496C195.295 164.676 192.403 166.562 188.275 166.647C188.184 166.694 188.095 166.74 188.004 166.785C188.422 167.962 188.756 169.171 189.004 170.395C189.226 171.477 189.38 172.57 189.467 173.669C189.574 175.054 189.565 176.447 189.448 177.83L189.455 177.781C189.752 176.258 190.579 174.835 191.78 173.849C193.569 172.379 196.097 171.838 198.027 170.656C198.957 170.087 200.147 170.822 199.985 171.9L199.977 171.951C199.69 172.068 199.409 172.204 199.138 172.356C198.983 172.443 198.831 172.536 198.683 172.634C197.837 173.194 198.129 174.506 199.132 174.661L199.155 174.664C199.171 174.667 199.185 174.669 199.201 174.671C198.708 175.842 198.021 176.929 197.161 177.866C196.324 182.387 192.727 182.816 188.88 181.499H188.878C188.457 183.331 187.843 185.121 187.053 186.827H180.533C180.51 186.755 180.489 186.68 180.468 186.607C181.071 186.645 181.678 186.61 182.272 186.5C181.788 185.906 181.304 185.308 180.821 184.715C180.809 184.703 180.8 184.691 180.79 184.679C180.545 184.376 180.297 184.074 180.052 183.771L180.052 183.77C180.036 182.838 180.148 181.908 180.37 181.006Z" fill="#F2F2F2"/>
<path d="M0 186.847C0 187.085 0.191758 187.277 0.430549 187.277H199.519C199.758 187.277 199.949 187.085 199.949 186.847C199.949 186.608 199.758 186.416 199.519 186.416H0.430549C0.191758 186.416 0 186.608 0 186.847Z" fill="#CCCCCC"/>
</g>
<defs>
<clipPath id="clip0_332_14136">
<rect width="200" height="186.487" fill="white" transform="translate(0 0.790039)"/>
</clipPath>
</defs>
</svg>
