<svg width="79" height="105" viewBox="0 0 79 105" fill="none" xmlns="http://www.w3.org/2000/svg">
<path d="M39.3023 104.068C61.0084 104.068 78.6046 86.4717 78.6046 64.7657C78.6046 43.0596 61.0084 25.4634 39.3023 25.4634C17.5962 25.4634 0 43.0596 0 64.7657C0 86.4717 17.5962 104.068 39.3023 104.068Z" fill="#1CA686"/>
<path d="M35.406 79.7579C34.5218 79.7594 33.6612 79.4733 32.9538 78.9428L32.9115 78.9098L23.675 71.8443C22.82 71.1788 22.2627 70.2023 22.1247 69.1276C21.9868 68.053 22.2793 66.9674 22.9385 66.1075C23.5977 65.2476 24.5701 64.6833 25.6438 64.5375C26.7174 64.3917 27.8051 64.6763 28.6698 65.3292L34.6526 69.9172L48.79 51.4733C49.1176 51.0455 49.5263 50.6863 49.9927 50.4165C50.4592 50.1466 50.9742 49.9713 51.5085 49.9007C52.0427 49.83 52.5856 49.8653 53.1062 50.0046C53.6268 50.1438 54.1148 50.3843 54.5424 50.7123L54.4549 50.8341L54.5449 50.7123C55.4079 51.375 55.9728 52.3531 56.1154 53.4318C56.2581 54.5105 55.967 55.6017 55.3059 56.466L38.677 78.1505C38.2923 78.6501 37.7977 79.0544 37.2315 79.3319C36.6654 79.6095 36.0428 79.753 35.4123 79.7512L35.406 79.7579Z" fill="#FBFEFD"/>
<path d="M13.0439 35.474C12.6651 35.4728 12.3022 35.3217 12.0345 35.0538C11.7667 34.7859 11.6159 34.4229 11.6149 34.0442C11.6132 33.9317 11.6259 33.8195 11.6525 33.7102L19.0512 1.11744C19.1073 0.871901 19.2269 0.645402 19.398 0.46063C19.5692 0.275857 19.7859 0.139298 20.0264 0.064627C20.267 -0.0100435 20.5229 -0.0202034 20.7686 0.0351647C21.0143 0.0905327 21.2411 0.209485 21.4264 0.380109L45.958 23.0954C46.1426 23.2665 46.279 23.4831 46.3537 23.7235C46.4283 23.9639 46.4385 24.2197 46.3832 24.4652C46.328 24.7108 46.2092 24.9376 46.0388 25.1228C45.8683 25.3081 45.6523 25.4454 45.4121 25.5209L13.4751 35.4098C13.3354 35.4524 13.19 35.4741 13.0439 35.474Z" fill="#0B4135"/>
<path d="M33.1079 11.6477L17.6987 8.58129L17.9414 7.51123L31.566 10.2196L33.1079 11.6477Z" fill="#FBFEFD"/>
<path d="M45.2419 22.8876L15.7803 17.0253L16.023 15.9497L43.6975 21.4535L45.2419 22.8876Z" fill="#FBFEFD"/>
<path d="M34.7023 28.4911L32.4911 29.1747L13.8667 25.4686L14.109 24.3931L34.7023 28.4911Z" fill="#FBFEFD"/>
</svg>
