<svg width="338" height="234" viewBox="0 0 338 234" fill="none" xmlns="http://www.w3.org/2000/svg">
<path d="M254.46 129.799C255.71 130.249 257.088 129.601 257.538 128.351C257.988 127.1 257.34 125.722 256.09 125.272C254.84 124.822 253.461 125.471 253.011 126.721C252.561 127.971 253.21 129.349 254.46 129.799Z" fill="#E37272"/>
<path d="M256.565 156.64C257.815 157.09 259.193 156.441 259.643 155.191C260.093 153.941 259.444 152.563 258.194 152.113C256.944 151.663 255.566 152.312 255.116 153.562C254.666 154.812 255.314 156.19 256.565 156.64Z" fill="#1CA686"/>
<path d="M240.376 95.0546C242.693 96.0573 244.739 97.5949 246.347 99.5412C247.954 101.487 249.078 103.787 249.625 106.251C249.776 106.948 250.016 107.74 249.517 108.353C249.335 108.59 249.077 108.759 248.786 108.831C248.495 108.903 248.188 108.875 247.916 108.75C247.592 108.549 247.342 108.247 247.207 107.89C247.072 107.534 247.058 107.142 247.168 106.777C247.278 106.411 247.505 106.093 247.815 105.87C248.124 105.647 248.498 105.532 248.88 105.543C250.776 105.434 252.043 107.114 253.072 108.462C255.414 111.531 258.129 114.521 261.743 116.076C265.089 117.515 269.24 117.494 272.211 115.213C272.73 114.816 272.077 114.036 271.56 114.434C268.613 116.698 264.419 116.38 261.265 114.731C259.401 113.708 257.725 112.372 256.312 110.784C255.57 109.982 254.875 109.14 254.207 108.276C253.59 107.405 252.896 106.589 252.135 105.84C250.837 104.666 248.802 103.989 247.222 105.047C245.746 106.033 245.708 108.545 247.232 109.521C247.57 109.723 247.953 109.838 248.347 109.856C248.74 109.874 249.132 109.794 249.488 109.624C249.843 109.453 250.15 109.197 250.382 108.878C250.614 108.56 250.764 108.188 250.817 107.798C250.936 106.947 250.619 105.959 250.391 105.146C249.707 102.699 248.484 100.436 246.81 98.5245C245.136 96.6128 243.055 95.1009 240.72 94.1C240.116 93.8485 239.774 94.8045 240.376 95.0546Z" fill="#C1C8C6"/>
<path d="M308.296 81.3593C306.454 80.5619 304.827 79.3392 303.548 77.7915C302.269 76.2438 301.376 74.415 300.94 72.4552C300.82 71.9006 300.629 71.2704 301.026 70.7842C301.171 70.5952 301.376 70.461 301.607 70.4035C301.839 70.3461 302.082 70.3688 302.299 70.468C302.556 70.6283 302.753 70.8686 302.86 71.152C302.967 71.4353 302.978 71.746 302.89 72.036C302.803 72.326 302.623 72.5793 302.378 72.7568C302.132 72.9342 301.835 73.0261 301.533 73.0181C300.025 73.1043 299.017 71.7688 298.198 70.6971C296.336 68.2561 294.177 65.8776 291.3 64.6405C288.641 63.4962 285.337 63.512 282.975 65.3267C282.561 65.6442 283.081 66.2635 283.493 65.9462C285.836 64.1465 289.172 64.3965 291.68 65.7095C293.163 66.5236 294.496 67.5856 295.62 68.8494C296.21 69.4867 296.763 70.1571 297.294 70.8447C297.785 71.5382 298.336 72.1868 298.942 72.7827C299.974 73.7163 301.591 74.2543 302.848 73.4131C303.126 73.2063 303.351 72.9375 303.505 72.6282C303.66 72.3189 303.74 71.9777 303.74 71.6318C303.739 71.286 303.657 70.9451 303.501 70.6364C303.345 70.3278 303.119 70.0599 302.841 69.8543C302.572 69.6933 302.267 69.6014 301.954 69.5871C301.641 69.5727 301.329 69.6362 301.046 69.772C300.764 69.9077 300.519 70.1114 300.335 70.3649C300.15 70.6183 300.031 70.9136 299.989 71.2242C299.964 71.9426 300.079 72.659 300.328 73.3333C300.872 75.2801 301.845 77.08 303.177 78.6006C304.509 80.1212 306.165 81.3236 308.023 82.1194C308.503 82.3196 308.776 81.5587 308.296 81.3593Z" fill="#C1C8C6"/>
<path d="M301.363 106.054L299.1 105.239L296.422 112.677L298.686 113.491L301.363 106.054Z" fill="#C1C8C6"/>
<path d="M266.622 87.6904L268.763 86.6824L265.451 79.6492L263.31 80.6572L266.622 87.6904Z" fill="#B1B9B7"/>
<path d="M237.219 167.39L238.228 169.531L245.261 166.219L244.253 164.078L237.219 167.39Z" fill="#E37272"/>
<path d="M72.9221 142.117C74.668 141.681 75.7304 139.913 75.2951 138.167C74.8598 136.421 73.0916 135.359 71.3458 135.794C69.5999 136.23 68.5374 137.998 68.9727 139.744C69.408 141.49 71.1762 142.552 72.9221 142.117Z" fill="#1CA686"/>
<path d="M43.9541 64.9132C45.2011 64.6023 45.9599 63.3394 45.649 62.0924C45.3381 60.8454 44.0752 60.0866 42.8282 60.3975C41.5812 60.7084 40.8224 61.9713 41.1333 63.2183C41.4442 64.4653 42.7071 65.2242 43.9541 64.9132Z" fill="#E37272"/>
<path d="M57.3535 125.852C58.6005 125.541 59.3593 124.278 59.0484 123.031C58.7375 121.784 57.4746 121.025 56.2276 121.336C54.9806 121.647 54.2218 122.91 54.5327 124.157C54.8436 125.404 56.1065 126.163 57.3535 125.852Z" fill="#1CA686"/>
<path d="M69.2959 162.206C70.5429 161.896 71.3017 160.633 70.9908 159.386C70.6799 158.139 69.417 157.38 68.17 157.691C66.923 158.002 66.1642 159.265 66.4751 160.512C66.786 161.759 68.0489 162.517 69.2959 162.206Z" fill="#D1D6D5"/>
<path d="M29.3838 86.7775C30.6308 86.4666 31.3896 85.2037 31.0787 83.9567C30.7678 82.7097 29.5049 81.9508 28.2579 82.2618C27.0109 82.5727 26.252 83.8356 26.563 85.0826C26.8739 86.3296 28.1368 87.0884 29.3838 86.7775Z" fill="#C1C8C6"/>
<path d="M90.9626 128.431C89.1241 127.806 87.4598 126.754 86.1063 125.362C84.7527 123.97 83.7483 122.276 83.1756 120.421C83.0159 119.894 82.7835 119.303 83.1278 118.803C83.253 118.61 83.4401 118.464 83.6586 118.391C83.8771 118.318 84.1141 118.32 84.3307 118.399C84.5909 118.534 84.7996 118.75 84.9247 119.015C85.0498 119.28 85.0844 119.578 85.023 119.865C84.9616 120.151 84.8077 120.409 84.5851 120.599C84.3624 120.79 84.0833 120.902 83.7909 120.918C82.3436 121.119 81.2667 119.909 80.3951 118.94C78.4072 116.734 76.1415 114.608 73.2722 113.64C70.6166 112.744 67.4348 113.017 65.2987 114.951C64.9252 115.29 65.4744 115.845 65.8476 115.508C67.9658 113.59 71.2036 113.572 73.7228 114.641C75.2159 115.31 76.5835 116.23 77.7663 117.36C78.3846 117.928 78.9698 118.531 79.5359 119.152C80.0636 119.782 80.6462 120.364 81.2768 120.892C82.3447 121.711 83.9455 122.104 85.0931 121.195C85.3441 120.974 85.5399 120.697 85.6649 120.387C85.7898 120.076 85.8405 119.741 85.8127 119.408C85.785 119.075 85.6797 118.752 85.5052 118.467C85.3307 118.182 85.0919 117.941 84.8078 117.765C84.5359 117.63 84.2349 117.565 83.9317 117.576C83.6285 117.586 83.3327 117.672 83.0707 117.825C82.8088 117.978 82.5888 118.193 82.4306 118.452C82.2724 118.711 82.1809 119.005 82.1643 119.308C82.196 120.002 82.3629 120.684 82.6555 121.315C83.332 123.149 84.4114 124.809 85.8143 126.171C87.2171 127.533 88.9077 128.563 90.7615 129.185C91.2399 129.34 91.4431 128.586 90.9657 128.431L90.9626 128.431Z" fill="#C1C8C6"/>
<path d="M34.7387 112.605L36.6992 113.783L40.5697 107.342L38.6092 106.164L34.7387 112.605Z" fill="#B1B9B7"/>
<path d="M34.4475 166.935C36.1934 166.5 37.2558 164.732 36.8205 162.986C36.3852 161.24 34.617 160.177 32.8711 160.613C31.1253 161.048 30.0628 162.816 30.4981 164.562C30.9334 166.308 32.7016 167.37 34.4475 166.935Z" fill="#1CA686"/>
<path d="M169.302 168.568C191.008 168.568 208.605 150.972 208.605 129.266C208.605 107.56 191.008 89.9634 169.302 89.9634C147.596 89.9634 130 107.56 130 129.266C130 150.972 147.596 168.568 169.302 168.568Z" fill="#1CA686"/>
<path d="M165.405 144.258C164.521 144.26 163.661 143.974 162.953 143.443L162.911 143.41L153.675 136.345C152.819 135.679 152.262 134.703 152.124 133.628C151.986 132.553 152.279 131.468 152.938 130.608C153.597 129.748 154.57 129.184 155.643 129.038C156.717 128.892 157.805 129.177 158.669 129.829L164.652 134.417L178.79 115.974C179.117 115.546 179.526 115.187 179.992 114.917C180.459 114.647 180.974 114.472 181.508 114.401C182.042 114.33 182.585 114.366 183.106 114.505C183.626 114.644 184.114 114.885 184.542 115.213L184.454 115.334L184.544 115.213C185.407 115.875 185.972 116.853 186.115 117.932C186.258 119.011 185.966 120.102 185.305 120.966L168.677 142.651C168.292 143.15 167.797 143.555 167.231 143.832C166.665 144.11 166.042 144.253 165.412 144.251L165.405 144.258Z" fill="#FBFEFD"/>
<path d="M143.043 99.9743C142.665 99.973 142.302 99.822 142.034 99.5541C141.766 99.2862 141.615 98.9232 141.614 98.5444C141.613 98.4319 141.625 98.3197 141.652 98.2104L149.051 65.6177C149.107 65.3721 149.226 65.1456 149.398 64.9609C149.569 64.7761 149.785 64.6395 150.026 64.5649C150.266 64.4902 150.522 64.48 150.768 64.5354C151.014 64.5908 151.241 64.7097 151.426 64.8804L175.957 87.5956C176.142 87.7667 176.279 87.9833 176.353 88.2237C176.428 88.4641 176.438 88.7199 176.383 88.9655C176.327 89.2111 176.209 89.4378 176.038 89.6231C175.868 89.8083 175.652 89.9456 175.412 90.0211L143.475 99.91C143.335 99.9527 143.19 99.9743 143.043 99.9743Z" fill="#0B4135"/>
<path d="M163.108 76.148L147.699 73.0815L147.942 72.0115L161.566 74.7198L163.108 76.148Z" fill="#FBFEFD"/>
<path d="M175.242 87.3878L145.78 81.5255L146.023 80.45L173.697 85.9537L175.242 87.3878Z" fill="#FBFEFD"/>
<path d="M164.703 92.9913L162.492 93.675L143.867 89.9689L144.109 88.8933L164.703 92.9913Z" fill="#FBFEFD"/>
</svg>
