<svg width="162" height="76" viewBox="0 0 162 76" fill="none" xmlns="http://www.w3.org/2000/svg">
<path d="M142.003 36.3615L150.104 39.129L150.104 46.2267L146.295 51.1784M142.003 36.3615L132.307 39.3783M142.003 36.3615L131.876 32.4829L129.721 35.9306L132.307 39.3783M132.307 39.3783L137.773 48.1359L146.295 51.1784M132.307 39.3783L128.644 40.8866L127.974 44.6371L146.295 51.1784" stroke="#FBFEFD" stroke-width="2.15481"/>
<path d="M138.308 47.5647L143.752 55.3137L138.831 60.8713L132.738 62.6342M138.308 47.5647L128.149 44.6989M138.308 47.5647L132.672 39.5406L128.446 40.8696L128.149 44.6989M128.149 44.6989L127.584 55.2979L132.738 62.6342M128.149 44.6989L124.189 43.6994L121.658 46.8612L132.738 62.6342" stroke="#FBFEFD" stroke-width="2.15482"/>
<path d="M128.083 54.4577L127.89 63.7821L120.523 65.3894L114.473 63.2903M128.083 54.4577L121.482 46.3197M128.083 54.4577L128.283 44.8021L124.024 43.4312L121.482 46.3197M121.482 46.3197L114.657 54.4623L114.473 63.2903M121.482 46.3197L118.838 43.2411L114.867 44.3103L114.473 63.2903" stroke="#FBFEFD" stroke-width="2.15481"/>
<path d="M114.842 15.2245L114.873 5.89807L122.211 4.16276L128.296 6.15623M114.842 15.2245L121.584 23.2463M114.842 15.2245L114.81 24.882L119.093 26.1786L121.584 23.2463M121.584 23.2463L128.267 14.986L128.296 6.15623M121.584 23.2463L124.281 26.2784L128.233 25.1402L128.296 6.15623" stroke="#FBFEFD" stroke-width="2.15482"/>
<path d="M127.096 15.9446L132.852 8.6062L139.851 11.5632L143.546 16.7227M127.096 15.9446L127.618 26.2463M127.096 15.9446L121.136 23.5434L123.801 27.0905L127.618 26.2463M127.618 26.2463L138.097 23.6702L143.546 16.7227M127.618 26.2463L127.935 30.228L131.83 31.6599L143.546 16.7227" stroke="#FBFEFD" stroke-width="2.15481"/>
<path d="M137.207 23.824L146.25 21.0124L150.391 27.2871L150.391 33.56M137.207 23.824L131.876 32.4826M137.207 23.824L127.844 26.7355L128.024 31.1005L131.876 32.4826M131.876 32.4826L142.004 36.3613L150.391 33.56M131.876 32.4826L129.721 35.9303L132.307 39.378L141.357 36.5768L150.391 33.56" stroke="#FBFEFD" stroke-width="2.15481"/>
<path d="M65.9126 33.2783C65.5991 33.2783 65.3379 33.1738 65.1289 32.9648C64.9199 32.7558 64.8154 32.4946 64.8154 32.1811C64.8154 31.8676 64.9199 31.6063 65.1289 31.3973C65.3379 31.1883 65.5991 31.0838 65.9126 31.0838C66.2261 31.0838 66.4874 31.1883 66.6964 31.3973C66.9054 31.6063 67.0099 31.8676 67.0099 32.1811C67.0099 32.4946 66.9054 32.7558 66.6964 32.9648C66.4874 33.1738 66.2261 33.2783 65.9126 33.2783Z" fill="#FBFEFD"/>
<path d="M52.0933 28.2666L52.0933 26.2028H68.859C68.8241 26.255 68.7806 26.3073 68.7283 26.3595C68.6935 26.3943 68.6587 26.4379 68.6238 26.4901L68.6238 18.7835H70.6877L70.6877 25.8893C70.6877 26.3421 70.5744 26.7514 70.348 27.1171C70.1216 27.4654 69.8256 27.7441 69.4598 27.9531C69.0941 28.1621 68.6935 28.2666 68.2581 28.2666H52.0933Z" fill="#FBFEFD"/>
<path d="M81.7296 16.3155C81.4161 16.3155 81.1549 16.211 80.9459 16.002C80.7369 15.793 80.6324 15.5318 80.6324 15.2183C80.6324 14.9048 80.7369 14.6436 80.9459 14.4346C81.1549 14.2256 81.4161 14.1211 81.7296 14.1211C82.0431 14.1211 82.3044 14.2256 82.5133 14.4346C82.7223 14.6436 82.8268 14.9048 82.8268 15.2183C82.8268 15.5318 82.7223 15.793 82.5133 16.002C82.3044 16.211 82.0431 16.3155 81.7296 16.3155ZM86.1185 16.3155C85.805 16.3155 85.5438 16.211 85.3348 16.002C85.1258 15.793 85.0213 15.5318 85.0213 15.2183C85.0213 14.9048 85.1258 14.6436 85.3348 14.4346C85.5438 14.2256 85.805 14.1211 86.1185 14.1211C86.432 14.1211 86.6932 14.2256 86.9022 14.4346C87.1112 14.6436 87.2157 14.9048 87.2157 15.2183C87.2157 15.5318 87.1112 15.793 86.9022 16.002C86.6932 16.211 86.432 16.3155 86.1185 16.3155Z" fill="#FBFEFD"/>
<path d="M81.5796 28.2666C81.1442 28.2666 80.7262 28.1882 80.3256 28.0315C79.9425 27.8747 79.6029 27.6657 79.3068 27.4045C78.9411 27.0562 78.6624 26.6208 78.4708 26.0983C78.2967 25.5758 78.2618 25.0446 78.3663 24.5047C78.4882 23.9474 78.7756 23.451 79.2284 23.0156C79.8728 22.406 80.4389 21.8836 80.9265 21.4482C81.4316 21.0128 81.8931 20.5251 82.3111 19.9852C82.7291 19.4453 83.1122 18.7487 83.4606 17.8953L85.3937 18.7051C85.0106 19.5063 84.6274 20.1942 84.2443 20.7689C83.8611 21.3262 83.4693 21.8139 83.0687 22.2319C82.6855 22.6499 82.2937 23.033 81.8931 23.3814C81.4925 23.7297 81.092 24.0954 80.6914 24.4786C80.4476 24.7572 80.3431 25.0185 80.3779 25.2623C80.4127 25.5061 80.5259 25.7151 80.7175 25.8893C80.9265 26.0983 81.2139 26.2028 81.5796 26.2028H85.5505C85.4982 26.255 85.4547 26.2986 85.4199 26.3334C85.385 26.3682 85.3415 26.4118 85.2892 26.464L85.2892 19.097H87.3269L87.3269 25.8631C87.3269 26.316 87.2224 26.7252 87.0134 27.091C86.8045 27.4567 86.5171 27.7441 86.1513 27.9531C85.803 28.1621 85.4025 28.2666 84.9496 28.2666H81.5796Z" fill="#FBFEFD"/>
<path d="M92.5808 9.53013C92.2499 9.63462 91.9277 9.59108 91.6142 9.3995C91.3007 9.22534 91.1439 8.89444 91.1439 8.40679L91.1439 6.2646H92.2673L92.2673 8.35454L93.6518 7.8843L93.6518 5.35025H94.8536L94.8536 7.91043C94.8536 8.22392 94.7404 8.47645 94.514 8.66803C94.305 8.8596 94.0785 8.99893 93.8347 9.08601L92.5808 9.53013ZM94.8536 8.7464L94.8536 7.44019L96.3165 6.91771L96.3165 4.38366H97.4399L97.4399 6.96995C97.4399 7.28344 97.3441 7.53598 97.1525 7.72756C96.9609 7.90172 96.7606 8.03234 96.5516 8.11942L94.8536 8.7464Z" fill="#FBFEFD"/>
<path d="M94.2819 13.7059C93.9684 13.7059 93.7072 13.6014 93.4982 13.3924C93.2892 13.1834 93.1847 12.9221 93.1847 12.6086C93.1847 12.2951 93.2892 12.0339 93.4982 11.8249C93.7072 11.6159 93.9684 11.5114 94.2819 11.5114C94.5954 11.5114 94.8566 11.6159 95.0656 11.8249C95.2746 12.0339 95.3791 12.2951 95.3791 12.6086C95.3791 12.9221 95.2746 13.1834 95.0656 13.3924C94.8566 13.6014 94.5954 13.7059 94.2819 13.7059Z" fill="#FBFEFD"/>
<path d="M87.3171 28.2666L87.3171 26.2028H97.166C97.1137 26.255 97.0702 26.2986 97.0353 26.3334C97.0005 26.3682 96.957 26.4118 96.9047 26.464L96.9047 19.9591C96.9047 19.5237 96.8002 19.1492 96.5912 18.8357C96.3822 18.5223 96.1123 18.2871 95.7814 18.1304C95.555 17.9214 95.2676 17.7821 94.9193 17.7124C94.5884 17.6253 94.2401 17.6079 93.8743 17.6602C93.526 17.7124 93.2038 17.8343 92.9077 18.0259C92.6116 18.2175 92.3591 18.5048 92.1501 18.888C91.9411 19.2711 91.8192 19.6891 91.7844 20.142C91.767 20.5774 91.8715 20.9866 92.0979 21.3698C92.3939 21.84 92.7423 22.1796 93.1428 22.3886C93.5608 22.5976 94.1443 22.7108 94.8932 22.7282C95.6595 22.7457 96.6783 22.7195 97.9497 22.6499L97.9497 24.2173C97.2705 24.2696 96.5651 24.3218 95.8336 24.3741C95.1196 24.4263 94.4142 24.4263 93.7176 24.3741C93.0209 24.3218 92.3765 24.1477 91.7844 23.8516C91.2096 23.5555 90.722 23.0766 90.3214 22.4148C89.9731 21.84 89.7728 21.2566 89.7206 20.6644C89.6857 20.0549 89.7554 19.4714 89.9296 18.9141C90.1037 18.3568 90.3563 17.8517 90.6872 17.3989C91.0181 16.9461 91.3925 16.5804 91.8105 16.3017C92.2807 16.0056 92.8119 15.7966 93.4041 15.6747C93.9962 15.5528 94.5971 15.5354 95.2066 15.6225C95.8336 15.7095 96.4171 15.9098 96.957 16.2233C97.5143 16.5368 97.9758 16.9809 98.3416 17.5557C98.5331 17.8866 98.6899 18.261 98.8118 18.679C98.9337 19.0796 98.9947 19.5063 98.9947 19.9591L98.9947 25.8109C98.9947 26.2289 98.8902 26.6295 98.6812 27.0126C98.4722 27.3784 98.1761 27.6831 97.7929 27.927C97.4272 28.1534 97.0005 28.2666 96.5129 28.2666H87.3171Z" fill="#FBFEFD"/>
<path d="M99.0016 28.2666L99.0016 26.2028H102.685C102.65 26.255 102.607 26.2986 102.554 26.3334C102.52 26.3682 102.485 26.4118 102.45 26.464L102.45 11.9651H104.514L104.514 25.8631C104.514 26.2986 104.409 26.6991 104.2 27.0649C103.991 27.4306 103.704 27.7267 103.338 27.9531C102.972 28.1621 102.554 28.2666 102.084 28.2666H99.0016Z" fill="#FBFEFD"/>
<path d="M14.5064 58.6528H13.2328L13.2328 54.7832H14.5064L14.5064 58.6528ZM13.7226 58.6528H7.94265C7.09362 58.6528 6.30989 58.4569 5.59147 58.065C4.90571 57.6405 4.3669 57.0854 3.97504 56.3996C3.58318 55.7138 3.38725 54.9628 3.38725 54.1464L3.38725 28.0875H7.25689L7.25689 55.273C7.19158 55.175 7.10994 55.0934 7.01198 55.0281C6.94667 54.9628 6.88136 54.8811 6.81605 54.7832H13.7226L13.7226 58.6528ZM19.3583 67.7101C18.7705 67.7101 18.2807 67.5142 17.8889 67.1223C17.497 66.7304 17.3011 66.2406 17.3011 65.6528C17.3011 65.065 17.497 64.5752 17.8889 64.1833C18.2807 63.7915 18.7705 63.5955 19.3583 63.5955C19.9461 63.5955 20.436 63.7915 20.8278 64.1833C21.2197 64.5752 21.4156 65.065 21.4156 65.6528C21.4156 66.2406 21.2197 66.7304 20.8278 67.1223C20.436 67.5142 19.9461 67.7101 19.3583 67.7101ZM27.5875 67.7101C26.9997 67.7101 26.5098 67.5142 26.118 67.1223C25.7261 66.7304 25.5302 66.2406 25.5302 65.6528C25.5302 65.065 25.7261 64.5752 26.118 64.1833C26.5098 63.7915 26.9997 63.5955 27.5875 63.5955C28.1753 63.5955 28.6651 63.7915 29.0569 64.1833C29.4488 64.5752 29.6447 65.065 29.6447 65.6528C29.6447 66.2406 29.4488 66.7304 29.0569 67.1223C28.6651 67.5142 28.1753 67.7101 27.5875 67.7101ZM13.7146 58.6528L13.7146 54.7832H28.9973C28.9319 54.8811 28.8503 54.9791 28.7523 55.0771C28.687 55.1424 28.6217 55.224 28.5564 55.322L28.5564 40.872H32.4261L32.4261 54.1954C32.4261 55.0444 32.2138 55.8118 31.7893 56.4976C31.3648 57.1507 30.8096 57.6732 30.1239 58.065C29.4381 58.4569 28.687 58.6528 27.8706 58.6528H13.7146ZM34.6663 68.4494L34.6663 64.5797H39.1237C40.4952 64.5797 41.5239 64.1062 42.2096 63.1592C42.928 62.2122 43.2872 60.9387 43.2872 59.3386L43.2872 51.9422C43.2872 51.2891 43.4505 50.8482 43.7771 50.6196C44.1363 50.3584 44.5934 50.2114 45.1486 50.1788C45.7364 50.1461 46.4058 50.1298 47.1569 50.1298L47.1569 59.3386C47.1569 60.9387 46.8467 62.4245 46.2262 63.796C45.6058 65.2002 44.6914 66.3268 43.4832 67.1758C42.3076 68.0249 40.8544 68.4494 39.1237 68.4494H34.6663ZM66.4944 58.6528L66.4944 54.7832H73.7439L73.7439 58.6528H66.4944ZM50.477 68.4494L50.477 64.5797H59.9307C60.8777 64.5797 61.7104 64.3348 62.4288 63.845C63.1799 63.3552 63.7514 62.7021 64.1432 61.8857C64.5677 61.0693 64.78 60.2039 64.78 59.2896L64.78 48.5134C64.78 47.5337 64.5514 46.7663 64.0942 46.2112C63.6697 45.656 63.0493 45.3785 62.2329 45.3785C61.3839 45.3785 60.4695 45.6397 59.4899 46.1622C58.5429 46.652 57.7101 47.3704 56.9917 48.3174C56.2733 49.2644 55.8325 50.44 55.6692 51.8442C55.6365 52.53 55.9141 53.1994 56.5019 53.8525C57.1224 54.4729 57.9061 54.7832 58.8531 54.7832H66.5924L66.5924 58.6528H58.8531C57.5142 58.6528 56.306 58.3263 55.2283 57.6732C54.1507 57.0201 53.3017 56.1547 52.6812 55.0771C52.0608 53.9668 51.7832 52.7912 51.8485 51.5503C52.0118 49.9828 52.42 48.5787 53.0731 47.3378C53.7262 46.0969 54.5426 45.0519 55.5222 44.2029C56.5346 43.3212 57.6122 42.6517 58.7551 42.1946C59.9307 41.7374 61.0736 41.5088 62.1839 41.5088C63.2942 41.4762 64.3392 41.7047 65.3188 42.1946C66.2985 42.6844 67.0822 43.4028 67.67 44.3498C68.2904 45.2968 68.6007 46.4724 68.6007 47.8766L68.6007 59.3386C68.6007 60.4489 68.3884 61.5428 67.9639 62.6204C67.572 63.7307 67.0006 64.7104 66.2495 65.5594C65.4984 66.4411 64.5841 67.1432 63.5065 67.6657C62.4615 68.1881 61.2696 68.4494 59.9307 68.4494H50.477ZM73.0298 58.6528L73.0298 54.7832H82.9733C82.8754 54.8811 82.7937 54.9628 82.7284 55.0281C82.6631 55.0934 82.5815 55.175 82.4835 55.273L82.4835 40.872H86.3531L86.3531 54.1954C86.3531 55.0444 86.1409 55.8118 85.7164 56.4976C85.3245 57.1507 84.7857 57.6732 84.0999 58.065C83.4142 58.4569 82.6468 58.6528 81.7977 58.6528H73.0298ZM86.0103 58.6528L86.0103 54.7832H91.7413C91.6433 54.8811 91.5616 54.9628 91.4963 55.0281C91.431 55.0934 91.3494 55.175 91.2514 55.273L91.2514 40.872H95.0721L95.0721 54.1954C95.0721 55.0444 94.8598 55.8118 94.4353 56.4976C94.0434 57.1507 93.5046 57.6732 92.8189 58.065C92.1331 58.4569 91.382 58.6528 90.5657 58.6528H86.0103ZM94.7292 58.6528L94.7292 54.7832H100.509C100.411 54.8811 100.33 54.9628 100.264 55.0281C100.199 55.0934 100.117 55.175 100.019 55.273L100.019 40.872H103.84L103.84 54.1954C103.84 55.0444 103.628 55.8118 103.203 56.4976C102.811 57.1507 102.273 57.6732 101.587 58.065C100.934 58.4569 100.183 58.6528 99.3336 58.6528H94.7292Z" fill="#FBFEFD"/>
</svg>
