<svg width="32" height="32" viewBox="0 0 32 32" fill="none" xmlns="http://www.w3.org/2000/svg">
<path d="M16.0001 29.3333C23.3639 29.3333 29.3334 23.3638 29.3334 16C29.3334 8.63619 23.3639 2.66666 16.0001 2.66666C8.63628 2.66666 2.66675 8.63619 2.66675 16C2.66675 23.3638 8.63628 29.3333 16.0001 29.3333Z" stroke="#1CA686" stroke-width="2"/>
<path d="M13.5 11.8333C13.5 10.4526 14.6193 9.33334 16 9.33334C17.3807 9.33334 18.5 10.4526 18.5 11.8333C18.5 12.7499 18.0067 13.5513 17.2712 13.9865C16.6373 14.3615 16 14.9303 16 15.6667V17.3333" stroke="#1CA686" stroke-width="2" stroke-linecap="round"/>
<path d="M16.0001 22.6667C16.7365 22.6667 17.3334 22.0697 17.3334 21.3333C17.3334 20.597 16.7365 20 16.0001 20C15.2637 20 14.6667 20.597 14.6667 21.3333C14.6667 22.0697 15.2637 22.6667 16.0001 22.6667Z" fill="#1CA686"/>
</svg>
