<svg width="32" height="32" viewBox="0 0 32 32" fill="none" xmlns="http://www.w3.org/2000/svg">
<path d="M12.0001 13.3332C14.9456 13.3332 17.3334 10.9454 17.3334 7.99984C17.3334 5.05432 14.9456 2.6665 12.0001 2.6665C9.05456 2.6665 6.66675 5.05432 6.66675 7.99984C6.66675 10.9454 9.05456 13.3332 12.0001 13.3332Z" stroke="#1CA686" stroke-width="2"/>
<path d="M20 12C22.2092 12 24 10.2091 24 8C24 5.79087 22.2092 4 20 4" stroke="#1CA686" stroke-width="2" stroke-linecap="round"/>
<path d="M12.0001 28.0002C17.1547 28.0002 21.3334 25.6123 21.3334 22.6668C21.3334 19.7213 17.1547 17.3335 12.0001 17.3335C6.84542 17.3335 2.66675 19.7213 2.66675 22.6668C2.66675 25.6123 6.84542 28.0002 12.0001 28.0002Z" stroke="#1CA686" stroke-width="2"/>
<path d="M24 18.6665C26.3389 19.1794 28 20.4784 28 21.9998C28 23.3722 26.6484 24.5637 24.6667 25.1604" stroke="#1CA686" stroke-width="2" stroke-linecap="round"/>
</svg>
