<svg width="32" height="32" viewBox="0 0 32 32" fill="none" xmlns="http://www.w3.org/2000/svg">
<path d="M26.6666 16.0002C26.6666 21.8912 21.891 26.6668 15.9999 26.6668C10.1089 26.6668 5.33325 21.8912 5.33325 16.0002C5.33325 10.1091 10.1089 5.3335 15.9999 5.3335C21.891 5.3335 26.6666 10.1091 26.6666 16.0002Z" stroke="#1CA686" stroke-width="2"/>
<path d="M20 16C20 18.2092 18.2092 20 16 20C13.7908 20 12 18.2092 12 16C12 13.7908 13.7908 12 16 12C18.2092 12 20 13.7908 20 16Z" stroke="#1CA686" stroke-width="2"/>
<path d="M2.66656 16H5.33323" stroke="#1CA686" stroke-width="2" stroke-linecap="round"/>
<path d="M26.6666 16H29.3332" stroke="#1CA686" stroke-width="2" stroke-linecap="round"/>
<path d="M16 5.33317V2.6665" stroke="#1CA686" stroke-width="2" stroke-linecap="round"/>
<path d="M16 29.3332V26.6665" stroke="#1CA686" stroke-width="2" stroke-linecap="round"/>
</svg>
