<svg width="32" height="32" viewBox="0 0 32 32" fill="none" xmlns="http://www.w3.org/2000/svg">
<path d="M19.3333 25.9998H12.6667M19.3333 25.9998C19.3333 25.0485 19.3333 24.5728 19.3841 24.2572C19.5479 23.2393 19.5765 23.1752 20.2256 22.3741C20.4268 22.1258 21.174 21.4568 22.6683 20.1188C24.7132 18.2877 26 15.6273 26 12.6665C26 7.14365 21.5228 2.6665 16 2.6665C10.4771 2.6665 6 7.14365 6 12.6665C6 15.6273 7.2868 18.2877 9.33168 20.1188C10.8259 21.4568 11.5732 22.1258 11.7744 22.3741C12.4235 23.1752 12.4521 23.2393 12.6159 24.2572C12.6667 24.5728 12.6667 25.0485 12.6667 25.9998M19.3333 25.9998C19.3333 27.246 19.3333 27.869 19.0653 28.3332C18.8899 28.6372 18.6373 28.8897 18.3333 29.0652C17.8692 29.3332 17.2461 29.3332 16 29.3332C14.7539 29.3332 14.1308 29.3332 13.6667 29.0652C13.3627 28.8897 13.1101 28.6372 12.9346 28.3332C12.6667 27.869 12.6667 27.246 12.6667 25.9998" stroke="#1CA686" stroke-width="2"/>
<path d="M16 22.6667V20" stroke="#1CA686" stroke-width="2" stroke-linecap="round"/>
<path d="M18.3099 18.6665C17.8489 19.4636 16.9871 19.9998 16.0001 19.9998C15.013 19.9998 14.1513 19.4636 13.6902 18.6665" stroke="#1CA686" stroke-width="2" stroke-linecap="round"/>
</svg>
