<svg width="32" height="32" viewBox="0 0 32 32" fill="none" xmlns="http://www.w3.org/2000/svg">
<path d="M6.66675 10.6665C8.87589 10.6665 10.6667 8.87564 10.6667 6.6665C10.6667 4.45736 8.87589 2.6665 6.66675 2.6665C4.45761 2.6665 2.66675 4.45736 2.66675 6.6665C2.66675 8.87564 4.45761 10.6665 6.66675 10.6665Z" stroke="#1CA686" stroke-width="2"/>
<path d="M25.3333 29.3335C27.5424 29.3335 29.3333 27.5426 29.3333 25.3335C29.3333 23.1244 27.5424 21.3335 25.3333 21.3335C23.1241 21.3335 21.3333 23.1244 21.3333 25.3335C21.3333 27.5426 23.1241 29.3335 25.3333 29.3335Z" stroke="#1CA686" stroke-width="2"/>
<path d="M14.6669 5.6665C14.1146 5.6665 13.6669 6.11422 13.6669 6.6665C13.6669 7.21878 14.1146 7.6665 14.6669 7.6665V5.6665ZM17.3335 25.3332L18.0406 26.0402C18.4311 25.6497 18.4311 25.0166 18.0406 24.6261L17.3335 25.3332ZM16.0406 22.6261C15.6502 22.2356 15.017 22.2356 14.6265 22.6261C14.2359 23.0166 14.2359 23.6497 14.6265 24.0402L16.0406 22.6261ZM14.6265 26.6261C14.2359 27.0166 14.2359 27.6497 14.6265 28.0402C15.017 28.4308 15.6502 28.4308 16.0406 28.0402L14.6265 26.6261ZM21.5094 5.6665H14.6669V7.6665H21.5094V5.6665ZM17.3335 24.3332H10.4911V26.3332H17.3335V24.3332ZM22.4042 10.7393L8.52252 19.573L9.59628 21.2604L23.4779 12.4266L22.4042 10.7393ZM18.0406 24.6261L16.0406 22.6261L14.6265 24.0402L16.6265 26.0402L18.0406 24.6261ZM16.6265 24.6261L14.6265 26.6261L16.0406 28.0402L18.0406 26.0402L16.6265 24.6261ZM10.4911 24.3332C8.82365 24.3332 8.18953 22.1556 9.59628 21.2604L8.52252 19.573C5.42772 21.5425 6.82273 26.3332 10.4911 26.3332V24.3332ZM21.5094 7.6665C23.1769 7.6665 23.8109 9.84408 22.4042 10.7393L23.4779 12.4266C26.5727 10.4572 25.1777 5.6665 21.5094 5.6665V7.6665Z" fill="#1CA686"/>
</svg>
