<svg width="32" height="32" viewBox="0 0 32 32" fill="none" xmlns="http://www.w3.org/2000/svg">
<path d="M16.0001 29.3332C23.3639 29.3332 29.3334 23.3636 29.3334 15.9998C29.3334 8.63604 23.3639 2.6665 16.0001 2.6665C8.63628 2.6665 2.66675 8.63604 2.66675 15.9998C2.66675 23.3636 8.63628 29.3332 16.0001 29.3332Z" stroke="#1CA686" stroke-width="2"/>
<path d="M17.3653 19.4135C14.2856 20.6453 12.7457 21.2613 11.8662 20.6636C11.6577 20.5219 11.4778 20.342 11.3361 20.1335C10.7384 19.254 11.3543 17.7141 12.5862 14.6344C12.849 13.9775 12.9804 13.6491 13.2063 13.3913C13.2639 13.3257 13.3257 13.2639 13.3913 13.2063C13.6491 12.9804 13.9775 12.849 14.6344 12.5862C17.7141 11.3543 19.254 10.7384 20.1335 11.3361C20.342 11.4778 20.5219 11.6577 20.6636 11.8662C21.2613 12.7457 20.6453 14.2856 19.4135 17.3653C19.1507 18.0221 19.0193 18.3507 18.7933 18.6083C18.7357 18.674 18.674 18.7357 18.6083 18.7933C18.3507 19.0193 18.0221 19.1507 17.3653 19.4135Z" stroke="#1CA686" stroke-width="2"/>
</svg>
