<svg width="16" height="17" viewBox="0 0 16 17" fill="none" xmlns="http://www.w3.org/2000/svg">
<path d="M8 1.83301C11.6818 1.83305 14.667 4.81815 14.667 8.5C14.667 12.1819 11.6819 15.1669 8 15.167C4.3181 15.167 1.33301 12.1819 1.33301 8.5C1.33303 4.81812 4.31812 1.83301 8 1.83301ZM10.6875 6.47949C10.5168 6.30885 10.2526 6.2873 10.0586 6.41504L9.98047 6.47949L7 9.45898L6.02051 8.47949L5.94238 8.41504C5.74842 8.28695 5.48435 8.30891 5.31348 8.47949C5.14265 8.65031 5.12096 8.91433 5.24902 9.1084L5.31348 9.18652L6.64648 10.5195L6.72559 10.584C6.91964 10.7119 7.18274 10.6903 7.35352 10.5195L10.6875 7.18652L10.751 7.1084C10.8791 6.91439 10.8582 6.65034 10.6875 6.47949Z" fill="#1CA686"/>
</svg>
