<svg width="32" height="32" viewBox="0 0 32 32" fill="none" xmlns="http://www.w3.org/2000/svg">
<path d="M10.7112 4.87712C11.1724 3.70762 12.8276 3.70763 13.2888 4.87713L14.7181 8.50132C14.8589 8.85837 15.1416 9.14101 15.4987 9.28183L19.1229 10.7112C20.2924 11.1724 20.2924 12.8276 19.1229 13.2888L15.4987 14.7181C15.1416 14.8589 14.8589 15.1416 14.7181 15.4987L13.2888 19.1229C12.8276 20.2924 11.1724 20.2924 10.7112 19.1229L9.28183 15.4987C9.141 15.1416 8.85837 14.8589 8.50132 14.7181L4.87712 13.2888C3.70762 12.8276 3.70763 11.1724 4.87713 10.7112L8.50132 9.28183C8.85837 9.141 9.14101 8.85837 9.28183 8.50132L10.7112 4.87712Z" stroke="#1CA686" stroke-width="2"/>
<path d="M21.9846 17.7975C22.2286 17.1787 23.1046 17.1787 23.3486 17.7975L24.416 20.5041C24.4906 20.6931 24.6402 20.8427 24.8291 20.9172L27.5358 21.9847C28.1546 22.2287 28.1546 23.1047 27.5358 23.3487L24.8291 24.4161C24.6402 24.4907 24.4906 24.6403 24.416 24.8292L23.3486 27.5359C23.1046 28.1547 22.2286 28.1547 21.9846 27.5359L20.9171 24.8292C20.8426 24.6403 20.693 24.4907 20.504 24.4161L17.7974 23.3487C17.1786 23.1047 17.1786 22.2287 17.7974 21.9847L20.504 20.9172C20.693 20.8427 20.8426 20.6931 20.9171 20.5041L21.9846 17.7975Z" stroke="#1CA686" stroke-width="2"/>
</svg>
