<svg width="32" height="32" viewBox="0 0 32 32" fill="none" xmlns="http://www.w3.org/2000/svg">
<g clip-path="url(#clip0_305_23209)">
<path d="M31.7955 7.25334C31.7274 6.82074 31.5294 6.41906 31.2278 6.10156C30.9262 5.78407 30.5352 5.56575 30.1066 5.47556L24.8888 4.3289C24.3293 4.20686 23.7501 4.2064 23.1903 4.32755C22.6306 4.4487 22.1034 4.68863 21.6444 5.03112L6.22217 16.2667L1.90217 16.0889C1.5549 16.0765 1.21254 16.1738 0.923711 16.367C0.634886 16.5602 0.414285 16.8395 0.293242 17.1653C0.172198 17.491 0.156866 17.8466 0.249423 18.1815C0.34198 18.5165 0.53772 18.8138 0.808841 19.0311L5.25329 22.5245C5.78662 23.1733 6.14217 23.0489 14.9688 18.24L15.7955 26.6133C15.8093 26.8418 15.8876 27.0616 16.0213 27.2473C16.1551 27.4329 16.3388 27.5768 16.5511 27.6622C16.7038 27.7226 16.8668 27.7528 17.0311 27.7511C17.3617 27.741 17.6774 27.6116 17.92 27.3867L20.0444 25.4489C20.2559 25.2529 20.3992 24.9944 20.4533 24.7111L22.4 14.1333C25.5733 12.3556 28.5777 10.6845 30.72 9.46667C31.1032 9.25109 31.4115 8.92366 31.6037 8.52815C31.7959 8.13264 31.8628 7.68789 31.7955 7.25334ZM29.84 7.92001C27.6177 9.18223 24.5066 10.9511 21.1644 12.7822L20.8 12.9867L18.7288 24.2489L17.4222 25.44L16.4444 15.3956L15.2622 16C8.88884 19.5556 6.7644 20.5867 6.03551 20.9067L2.21329 17.8756L6.72884 18.0711L22.7288 6.46223C22.9803 6.27421 23.2687 6.14139 23.575 6.07246C23.8814 6.00353 24.1988 6.00005 24.5066 6.06223L29.7066 7.18223C29.7867 7.19676 29.8601 7.2365 29.9161 7.29566C29.9721 7.35482 30.0077 7.43031 30.0177 7.51112C30.036 7.58933 30.0286 7.67136 29.9966 7.74502C29.9646 7.81868 29.9096 7.88005 29.84 7.92001Z" fill="#1CA686"/>
<path d="M6.2223 11.1466L9.38675 12.0355L10.8445 10.9777L7.28897 9.94664L8.88897 8.96886L13.7512 8.82664L15.7956 7.34219L8.88897 7.55553C8.67123 7.54375 8.45483 7.5963 8.26675 7.70664L5.92897 9.06664C5.7357 9.18113 5.58064 9.35028 5.48335 9.55276C5.38605 9.75524 5.35087 9.98198 5.38224 10.2044C5.41361 10.4269 5.51013 10.635 5.65962 10.8027C5.80912 10.9704 6.0049 11.0901 6.2223 11.1466Z" fill="#1CA686"/>
</g>
<defs>
<clipPath id="clip0_305_23209">
<rect width="32" height="32" fill="white"/>
</clipPath>
</defs>
</svg>
