<svg width="32" height="32" viewBox="0 0 32 32" fill="none" xmlns="http://www.w3.org/2000/svg">
<path d="M2.66675 18.6667C2.66675 13.6384 2.66675 11.1242 4.22884 9.56209C5.79095 8 8.30509 8 13.3334 8H18.6667C23.695 8 26.2093 8 27.7713 9.56209C29.3334 11.1242 29.3334 13.6384 29.3334 18.6667C29.3334 23.6949 29.3334 26.2092 27.7713 27.7712C26.2093 29.3333 23.695 29.3333 18.6667 29.3333H13.3334C8.30509 29.3333 5.79095 29.3333 4.22884 27.7712C2.66675 26.2092 2.66675 23.6949 2.66675 18.6667Z" stroke="#1CA686" stroke-width="2"/>
<path d="M21.3334 7.99999C21.3334 5.48583 21.3334 4.22875 20.5523 3.44771C19.7713 2.66666 18.5142 2.66666 16.0001 2.66666C13.4859 2.66666 12.2288 2.66666 11.4478 3.44771C10.6667 4.22875 10.6667 5.48583 10.6667 7.99999" stroke="#1CA686" stroke-width="2"/>
<path d="M13.3334 20H8.00008C7.37155 20 7.05727 20 6.86201 20.1952C6.66675 20.3905 6.66675 20.7048 6.66675 21.3333V22.6667C6.66675 23.2952 6.66675 23.6095 6.86201 23.8048C7.05727 24 7.37155 24 8.00008 24H13.3334C13.9619 24 14.2762 24 14.4715 23.8048C14.6667 23.6095 14.6667 23.2952 14.6667 22.6667V21.3333C14.6667 20.7048 14.6667 20.3905 14.4715 20.1952C14.2762 20 13.9619 20 13.3334 20Z" stroke="#1CA686" stroke-width="2" stroke-linejoin="round"/>
<path d="M8 8.66666V20M8 28.6667V24.6667" stroke="#1CA686" stroke-width="2" stroke-linecap="round"/>
<path d="M24 8.66666V28.6667" stroke="#1CA686" stroke-width="2" stroke-linecap="round"/>
</svg>
