<svg width="32" height="32" viewBox="0 0 32 32" fill="none" xmlns="http://www.w3.org/2000/svg">
<path d="M4 13.3333C4 8.305 4 5.79086 5.56209 4.22875C7.1242 2.66666 9.63835 2.66666 14.6667 2.66666H17.3333C22.3616 2.66666 24.8759 2.66666 26.4379 4.22875C28 5.79086 28 8.305 28 13.3333V18.6667C28 23.6949 28 26.2092 26.4379 27.7712C24.8759 29.3333 22.3616 29.3333 17.3333 29.3333H14.6667C9.63835 29.3333 7.1242 29.3333 5.56209 27.7712C4 26.2092 4 23.6949 4 18.6667V13.3333Z" stroke="#1CA686" stroke-width="2"/>
<path d="M10.6667 16H21.3334" stroke="#1CA686" stroke-width="2" stroke-linecap="round"/>
<path d="M10.6667 10.6667H21.3334" stroke="#1CA686" stroke-width="2" stroke-linecap="round"/>
<path d="M10.6667 21.3333H17.3334" stroke="#1CA686" stroke-width="2" stroke-linecap="round"/>
</svg>
