<svg width="32" height="32" viewBox="0 0 32 32" fill="none" xmlns="http://www.w3.org/2000/svg">
<path d="M28 21.4545V14.7967C28 9.07854 28 6.21946 26.2427 4.44306C24.4853 2.66666 21.6568 2.66666 16 2.66666C10.3431 2.66666 7.51472 2.66666 5.75736 4.44306C4 6.21946 4 9.07854 4 14.7967V21.4545C4 25.5833 4 27.6477 4.97881 28.5497C5.44561 28.98 6.03487 29.2503 6.66256 29.322C7.97869 29.4727 9.51564 28.1132 12.5895 25.3944C13.9483 24.1927 14.6277 23.5917 15.4137 23.4335C15.8008 23.3555 16.1992 23.3555 16.5863 23.4335C17.3723 23.5917 18.0517 24.1927 19.4104 25.3944C22.4844 28.1132 24.0213 29.4727 25.3375 29.322C25.9652 29.2503 26.5544 28.98 27.0212 28.5497C28 27.6477 28 25.5833 28 21.4545Z" stroke="#1CA686" stroke-width="2"/>
<path d="M20 8H12" stroke="#1CA686" stroke-width="2" stroke-linecap="round"/>
</svg>
