<svg width="32" height="32" viewBox="0 0 32 32" fill="none" xmlns="http://www.w3.org/2000/svg">
<path d="M16 2.66699C21.6567 2.66699 24.4848 2.66705 26.2422 4.44336C27.9995 6.21976 28 9.07876 28 14.7969V21.4541C28 25.5827 28.0002 27.6477 27.0215 28.5498C26.5548 28.98 25.9655 29.2505 25.3379 29.3223C24.0218 29.4729 22.4842 28.1133 19.4102 25.3945C18.0515 24.1928 17.3719 23.5919 16.5859 23.4336C16.1991 23.3557 15.8009 23.3557 15.4141 23.4336C14.6281 23.5919 13.9485 24.1929 12.5898 25.3945C9.51594 28.1133 7.97824 29.4729 6.66211 29.3223C6.03457 29.2505 5.44521 28.98 4.97852 28.5498C3.99983 27.6477 4 25.5827 4 21.4541V14.7969C4 9.07876 4.00045 6.21976 5.75781 4.44336C7.51518 2.66704 10.3432 2.66699 16 2.66699ZM12 7C11.4477 7 11 7.44772 11 8C11 8.55228 11.4477 9 12 9H20L20.1025 8.99512C20.6067 8.94379 21 8.51768 21 8C21 7.48232 20.6067 7.05621 20.1025 7.00488L20 7H12Z" fill="#1CA686"/>
</svg>
