<svg width="32" height="32" viewBox="0 0 32 32" fill="none" xmlns="http://www.w3.org/2000/svg">
<path fill-rule="evenodd" clip-rule="evenodd" d="M14.5974 1.66666H17.4027C18.6007 1.66662 19.5997 1.66659 20.3927 1.7732C21.2298 1.88575 21.9855 2.13331 22.5927 2.7406C23.2001 3.3479 23.4477 4.10363 23.5602 4.94068C23.5905 5.16611 23.6122 5.40816 23.6277 5.6667C24.4135 5.66715 25.0779 5.67227 25.6254 5.72798C26.2567 5.79219 26.8425 5.9318 27.3705 6.2846C27.7709 6.55212 28.1146 6.89587 28.3821 7.29623C28.7349 7.82423 28.8746 8.41006 28.9387 9.04135C29.0001 9.64447 29.0001 10.3894 29.0001 11.2822V28.3333H29.3334C29.8857 28.3333 30.3334 28.7811 30.3334 29.3333C30.3334 29.8856 29.8857 30.3333 29.3334 30.3333H2.66675C2.11447 30.3333 1.66675 29.8856 1.66675 29.3333C1.66675 28.7811 2.11447 28.3333 2.66675 28.3333H3.00008V11.2822C3.00005 10.3894 3.00004 9.64446 3.06139 9.04135C3.12561 8.41006 3.26523 7.82423 3.61803 7.29623C3.88553 6.89587 4.22929 6.55212 4.62965 6.2846C5.15765 5.9318 5.74348 5.79219 6.37477 5.72798C6.92228 5.67227 7.58668 5.66715 8.37244 5.6667C8.38796 5.40816 8.40965 5.16611 8.43996 4.94068C8.55251 4.10363 8.80007 3.3479 9.40736 2.7406C10.0147 2.13331 10.7704 1.88575 11.6074 1.7732C12.4005 1.66659 13.3994 1.66662 14.5974 1.66666ZM8.33345 7.6668C7.55664 7.66766 7.00789 7.67388 6.57719 7.7177C6.10403 7.76583 5.8854 7.85092 5.7408 7.94755C5.55881 8.06914 5.40256 8.22539 5.28096 8.40738C5.18435 8.55198 5.09925 8.7706 5.05112 9.24376C5.00129 9.73363 5.00008 10.3762 5.00008 11.3333V28.3333H8.33341V19.6667H7.33341C6.78113 19.6667 6.33341 19.2189 6.33341 18.6667C6.33341 18.1144 6.78113 17.6667 7.33341 17.6667H8.33341V15.6667H7.33341C6.78113 15.6667 6.33341 15.2189 6.33341 14.6667C6.33341 14.1144 6.78113 13.6667 7.33341 13.6667H8.33341V11.6667H7.33341C6.78113 11.6667 6.33341 11.219 6.33341 10.6667C6.33341 10.1144 6.78113 9.66666 7.33341 9.66666H8.33341V7.93067C8.33341 7.84162 8.3334 7.75366 8.33345 7.6668ZM10.3334 28.3333H15.0001V25.3333C15.0001 24.7811 15.4478 24.3333 16.0001 24.3333C16.5523 24.3333 17.0001 24.7811 17.0001 25.3333V28.3333H21.6667V7.99999C21.6667 6.71464 21.6646 5.85123 21.5781 5.20718C21.4953 4.5919 21.3523 4.32858 21.1786 4.15482C21.0049 3.98106 20.7415 3.8381 20.1262 3.75538C19.4822 3.66879 18.6187 3.66666 17.3334 3.66666H14.6667C13.3814 3.66666 12.518 3.66879 11.8739 3.75538C11.2587 3.8381 10.9953 3.98106 10.8216 4.15482C10.6478 4.32858 10.5049 4.5919 10.4221 5.20718C10.3355 5.85123 10.3334 6.71464 10.3334 7.99999V28.3333ZM23.6667 11.6667H24.6667C25.219 11.6667 25.6667 11.219 25.6667 10.6667C25.6667 10.1144 25.219 9.66666 24.6667 9.66666H23.6667V7.93067C23.6667 7.84162 23.6667 7.75366 23.6667 7.6668C24.4435 7.66766 24.9922 7.67388 25.423 7.7177C25.8961 7.76583 26.1147 7.85092 26.2594 7.94755C26.4413 8.06914 26.5975 8.22539 26.7191 8.40738C26.8158 8.55198 26.9009 8.7706 26.949 9.24376C26.9989 9.73363 27.0001 10.3762 27.0001 11.3333V28.3333H23.6667V19.6667H24.6667C25.219 19.6667 25.6667 19.2189 25.6667 18.6667C25.6667 18.1144 25.219 17.6667 24.6667 17.6667H23.6667V15.6667H24.6667C25.219 15.6667 25.6667 15.2189 25.6667 14.6667C25.6667 14.1144 25.219 13.6667 24.6667 13.6667H23.6667V11.6667ZM16.0001 7.66666C15.0795 7.66666 14.3334 8.41286 14.3334 9.33332C14.3334 10.2538 15.0795 11 16.0001 11C16.9206 11 17.6667 10.2538 17.6667 9.33332C17.6667 8.41286 16.9206 7.66666 16.0001 7.66666ZM12.3334 9.33332C12.3334 7.30828 13.975 5.66666 16.0001 5.66666C18.0251 5.66666 19.6667 7.30828 19.6667 9.33332C19.6667 11.3584 18.0251 13 16.0001 13C13.975 13 12.3334 11.3584 12.3334 9.33332ZM12.3334 16C12.3334 15.4477 12.7811 15 13.3334 15H18.6667C19.219 15 19.6667 15.4477 19.6667 16C19.6667 16.5523 19.219 17 18.6667 17H13.3334C12.7811 17 12.3334 16.5523 12.3334 16ZM12.3334 20C12.3334 19.4477 12.7811 19 13.3334 19H18.6667C19.219 19 19.6667 19.4477 19.6667 20C19.6667 20.5523 19.219 21 18.6667 21H13.3334C12.7811 21 12.3334 20.5523 12.3334 20Z" fill="#1CA686"/>
</svg>
