<svg width="32" height="32" viewBox="0 0 32 32" fill="none" xmlns="http://www.w3.org/2000/svg">
<path d="M8.34674 28.5179H8.00016C6.74308 28.5179 6.11455 28.5179 5.72402 28.1273C5.3335 27.7368 5.3335 27.1083 5.3335 25.8512V24.3685C5.3335 23.6772 5.3335 23.3316 5.51107 23.0229C5.68864 22.7141 5.95652 22.5584 6.4923 22.2468C10.0196 20.1952 15.0288 19.0404 18.3723 21.0345C18.5968 21.1685 18.799 21.3303 18.9715 21.5241C19.7156 22.36 19.6615 23.6215 18.8039 24.37C18.6227 24.528 18.4298 24.648 18.2354 24.6896C18.3951 24.6711 18.5482 24.6499 18.6943 24.6265C19.9095 24.4327 20.9295 23.7833 21.8634 23.0779L24.273 21.2577C25.1224 20.616 26.3832 20.6159 27.2328 21.2573C27.9978 21.8349 28.2316 22.7859 27.748 23.5609C27.1842 24.4649 26.3896 25.6213 25.6267 26.3279C24.8627 27.0355 23.7254 27.6672 22.7968 28.1153C21.7682 28.6119 20.6319 28.8979 19.476 29.0851C17.1319 29.4644 14.689 29.4065 12.3686 28.9285C11.0569 28.6583 9.69455 28.5179 8.34674 28.5179Z" fill="#1CA686"/>
<path d="M8.78126 3.44773C8.29222 3.93676 8.10938 4.61241 8.04102 5.66641C9.66547 5.64474 10.9783 4.33196 10.9999 2.70749C9.94594 2.77585 9.27028 2.95869 8.78126 3.44773Z" fill="#1CA686"/>
<path d="M23.2192 3.44773C22.7301 2.95869 22.0545 2.77585 21.0005 2.70749C21.0221 4.33194 22.3349 5.64474 23.9594 5.66641C23.891 4.61241 23.7082 3.93676 23.2192 3.44773Z" fill="#1CA686"/>
<path d="M23.2192 12.5523C22.7301 13.0413 22.0545 13.2241 21.0005 13.2925C21.0222 11.668 22.3349 10.3553 23.9594 10.3336C23.891 11.3876 23.7082 12.0632 23.2192 12.5523Z" fill="#1CA686"/>
<path d="M8.78126 12.5523C9.27028 13.0413 9.94594 13.2241 10.9999 13.2925C10.9783 11.6681 9.66547 10.3553 8.04102 10.3336C8.10938 11.3876 8.29222 12.0632 8.78126 12.5523Z" fill="#1CA686"/>
<path fill-rule="evenodd" clip-rule="evenodd" d="M8.00049 7.66666C10.7619 7.66666 13.0005 5.42808 13.0005 2.66666H19.0005C19.0005 5.42808 21.239 7.66666 24.0005 7.66666V8.33332C21.239 8.33332 19.0005 10.5719 19.0005 13.3333H13.0005C13.0005 10.5719 10.7619 8.33332 8.00049 8.33332V7.66666ZM16.0005 9.33332C16.7369 9.33332 17.3338 8.73636 17.3338 7.99999C17.3338 7.26362 16.7369 6.66666 16.0005 6.66666C15.2641 6.66666 14.6672 7.26362 14.6672 7.99999C14.6672 8.73636 15.2641 9.33332 16.0005 9.33332Z" fill="#1CA686"/>
</svg>
