<svg width="32" height="32" viewBox="0 0 32 32" fill="none" xmlns="http://www.w3.org/2000/svg">
<path fill-rule="evenodd" clip-rule="evenodd" d="M19.0998 5.00023C18.9609 5.00003 18.8165 5 18.6665 5H13.3331C13.183 5 13.0386 5.00003 12.8997 5.00023C12.502 6.95917 10.9589 8.5022 8.99997 8.89995C8.99978 9.03887 8.99976 9.18323 8.99976 9.33333C8.99976 9.48345 8.99978 9.62781 8.99997 9.76673C10.9589 10.1645 12.502 11.7075 12.8997 13.6664C13.0386 13.6667 13.183 13.6667 13.3331 13.6667H18.6665C18.8165 13.6667 18.9609 13.6667 19.0998 13.6664C19.4975 11.7075 21.0406 10.1645 22.9995 9.76673C22.9997 9.62781 22.9998 9.48345 22.9998 9.33333C22.9998 9.18323 22.9997 9.03887 22.9995 8.89995C21.0406 8.5022 19.4975 6.95917 19.0998 5.00023ZM19.9058 3.00436C19.5397 2.99997 19.1497 2.99999 18.7358 3H13.2638C12.8499 2.99999 12.4598 2.99997 12.0937 3.00436C12.0628 3.00148 12.0315 3 11.9998 3C11.9579 3 11.9166 3.00257 11.8761 3.00757C11.2724 3.01829 10.7379 3.04416 10.2738 3.10655C9.43673 3.21909 8.681 3.46665 8.0737 4.07395C7.46641 4.68124 7.21885 5.43698 7.1063 6.27403C7.04392 6.73809 7.01804 7.27268 7.00732 7.87637C7.00233 7.91689 6.99976 7.95815 6.99976 8C6.99976 8.03169 7.00124 8.06304 7.00412 8.09397C6.99973 8.46004 6.99974 8.85015 6.99976 9.264V9.40267C6.99974 9.81652 6.99973 10.2066 7.00412 10.5727C7.00124 10.6036 6.99976 10.635 6.99976 10.6667C6.99976 10.7085 7.00233 10.7498 7.00732 10.7903C7.01804 11.394 7.04392 11.9286 7.1063 12.3926C7.21885 13.2297 7.46641 13.9855 8.0737 14.5927C8.681 15.2 9.43673 15.4476 10.2738 15.5601C10.7379 15.6225 11.2724 15.6484 11.8761 15.6591C11.9166 15.6641 11.9579 15.6667 11.9998 15.6667C12.0315 15.6667 12.0628 15.6652 12.0937 15.6623C12.4598 15.6667 12.8499 15.6667 13.2638 15.6667H18.7358C19.1497 15.6667 19.5397 15.6667 19.9058 15.6623C19.9367 15.6652 19.9681 15.6667 19.9998 15.6667C20.0417 15.6667 20.0829 15.6641 20.1234 15.6591C20.7271 15.6484 21.2617 15.6225 21.7257 15.5601C22.5627 15.4476 23.3185 15.2 23.9258 14.5927C24.5331 13.9855 24.7806 13.2297 24.8931 12.3926C24.9555 11.9286 24.9814 11.394 24.9922 10.7903C24.9971 10.7498 24.9998 10.7085 24.9998 10.6667C24.9998 10.635 24.9983 10.6036 24.9954 10.5727C24.9998 10.2066 24.9998 9.81652 24.9998 9.40267V9.26401C24.9998 8.85015 24.9998 8.46004 24.9954 8.09397C24.9983 8.06304 24.9998 8.03169 24.9998 8C24.9998 7.95815 24.9971 7.91689 24.9922 7.87639C24.9814 7.27268 24.9555 6.73809 24.8931 6.27403C24.7806 5.43698 24.5331 4.68124 23.9258 4.07395C23.3185 3.46665 22.5627 3.21909 21.7257 3.10655C21.2617 3.04416 20.7271 3.01829 20.1234 3.00757C20.0829 3.00257 20.0417 3 19.9998 3C19.9681 3 19.9367 3.00148 19.9058 3.00436ZM21.1918 5.05861C21.4957 5.86389 22.1358 6.50413 22.9411 6.80788C22.9325 6.71463 22.9225 6.62565 22.911 6.54052C22.8283 5.92524 22.6854 5.66192 22.5115 5.48816C22.3378 5.3144 22.0745 5.17144 21.4593 5.08872C21.3741 5.07727 21.2851 5.06731 21.1918 5.05861ZM22.9411 11.8588C22.1358 12.1625 21.4957 12.8028 21.1918 13.608C21.2851 13.5993 21.3741 13.5895 21.4593 13.578C22.0745 13.4952 22.3378 13.3523 22.5115 13.1785C22.6854 13.0048 22.8283 12.7414 22.911 12.1261C22.9225 12.041 22.9325 11.9521 22.9411 11.8588ZM10.8076 13.608C10.5039 12.8028 9.86365 12.1625 9.05837 11.8588C9.06705 11.9521 9.07702 12.041 9.08848 12.1261C9.1712 12.7414 9.31416 13.0048 9.48792 13.1785C9.66166 13.3523 9.925 13.4952 10.5403 13.578C10.6254 13.5895 10.7144 13.5993 10.8076 13.608ZM9.05837 6.80788C9.86365 6.50413 10.5039 5.86389 10.8076 5.05861C10.7144 5.06731 10.6254 5.07727 10.5403 5.08872C9.925 5.17144 9.66166 5.3144 9.48792 5.48816C9.31416 5.66192 9.1712 5.92524 9.08848 6.54052C9.07702 6.62565 9.06705 6.71463 9.05837 6.80788ZM15.9998 9C15.8157 9 15.6665 9.14924 15.6665 9.33333C15.6665 9.51743 15.8157 9.66667 15.9998 9.66667C16.1838 9.66667 16.3331 9.51743 16.3331 9.33333C16.3331 9.14924 16.1838 9 15.9998 9ZM13.6665 9.33333C13.6665 8.04467 14.7111 7 15.9998 7C17.2885 7 18.3331 8.04467 18.3331 9.33333C18.3331 10.622 17.2885 11.6667 15.9998 11.6667C14.7111 11.6667 13.6665 10.622 13.6665 9.33333ZM11.5783 19.2643C14.0661 18.7823 16.7291 18.8904 18.8841 20.1757C19.1867 20.3563 19.4705 20.5812 19.7181 20.8592C20.2191 21.4221 20.4781 22.1217 20.4902 22.8232C20.7453 22.6587 21.0007 22.476 21.2602 22.28L23.6698 20.4597C24.8759 19.5487 26.6287 19.5485 27.835 20.4593C28.9497 21.3009 29.3939 22.8113 28.5961 24.0903C28.029 24.9993 27.175 26.2567 26.3058 27.0616C25.4273 27.8753 24.1769 28.5595 23.2311 29.016C22.0825 29.5704 20.8418 29.8769 19.6355 30.0721C17.1699 30.4713 14.6043 30.4103 12.1664 29.908C10.9205 29.6512 9.62582 29.5179 8.34633 29.5179H5.33309C4.78081 29.5179 4.33309 29.0701 4.33309 28.5179C4.33309 27.9656 4.78081 27.5179 5.33309 27.5179H8.34633C9.76248 27.5179 11.1924 27.6653 12.57 27.9491C14.7727 28.4029 17.0933 28.4576 19.3159 28.0979C20.4211 27.9189 21.4531 27.6533 22.3617 27.2148C23.2729 26.7749 24.2974 26.1957 24.9469 25.5943C25.6035 24.986 26.3385 23.9305 26.8993 23.0317C27.0685 22.7604 27.045 22.3689 26.6299 22.0555C26.1369 21.6832 25.3682 21.6833 24.8753 22.0556L22.4658 23.8759C21.5038 24.6024 20.3199 25.3799 18.8514 25.6141C18.7031 25.6377 18.5489 25.6593 18.3887 25.6784C18.3123 25.6923 18.2329 25.7013 18.1507 25.7044C17.401 25.7789 16.5327 25.7963 15.5747 25.7057C15.0249 25.6539 14.6213 25.166 14.6731 24.6161C14.7251 24.0663 15.213 23.6627 15.7627 23.7147C16.5994 23.7936 17.3499 23.7761 17.9867 23.7108C17.9997 23.7095 18.0125 23.7081 18.0253 23.7068C18.0519 23.6913 18.0925 23.6632 18.1458 23.6167C18.5718 23.2448 18.6098 22.6223 18.2242 22.1891C18.1265 22.0793 18.0062 21.9808 17.8595 21.8933C16.2847 20.954 14.1814 20.7971 11.9587 21.2277C9.74866 21.6559 7.55297 22.6423 5.91157 23.8063C5.46106 24.1257 4.83688 24.0195 4.51738 23.5691C4.1979 23.1185 4.30412 22.4944 4.75461 22.1748C6.6191 20.8527 9.07789 19.7487 11.5783 19.2643Z" fill="#1CA686"/>
</svg>
