<svg width="16" height="17" viewBox="0 0 16 17" fill="none" xmlns="http://www.w3.org/2000/svg">
<path d="M11.3333 7.16658H12.6666C13.9999 7.16658 14.6666 6.49992 14.6666 5.16659V3.83325C14.6666 2.49992 13.9999 1.83325 12.6666 1.83325H11.3333C9.99992 1.83325 9.33325 2.49992 9.33325 3.83325V5.16659C9.33325 6.49992 9.99992 7.16658 11.3333 7.16658Z" stroke="#020D0B" stroke-miterlimit="10" stroke-linecap="round" stroke-linejoin="round"/>
<path d="M3.33325 15.1666H4.66659C5.99992 15.1666 6.66658 14.4999 6.66658 13.1666V11.8333C6.66658 10.4999 5.99992 9.83325 4.66659 9.83325H3.33325C1.99992 9.83325 1.33325 10.4999 1.33325 11.8333V13.1666C1.33325 14.4999 1.99992 15.1666 3.33325 15.1666Z" stroke="#020D0B" stroke-miterlimit="10" stroke-linecap="round" stroke-linejoin="round"/>
<path d="M3.99992 7.16658C5.47268 7.16658 6.66658 5.97268 6.66658 4.49992C6.66658 3.02716 5.47268 1.83325 3.99992 1.83325C2.52716 1.83325 1.33325 3.02716 1.33325 4.49992C1.33325 5.97268 2.52716 7.16658 3.99992 7.16658Z" stroke="#020D0B" stroke-miterlimit="10" stroke-linecap="round" stroke-linejoin="round"/>
<path d="M11.9999 15.1666C13.4727 15.1666 14.6666 13.9727 14.6666 12.4999C14.6666 11.0272 13.4727 9.83325 11.9999 9.83325C10.5272 9.83325 9.33325 11.0272 9.33325 12.4999C9.33325 13.9727 10.5272 15.1666 11.9999 15.1666Z" stroke="#020D0B" stroke-miterlimit="10" stroke-linecap="round" stroke-linejoin="round"/>
</svg>
