<svg width="32" height="32" viewBox="0 0 32 32" fill="none" xmlns="http://www.w3.org/2000/svg">
<path d="M22.6665 13.3333H25.3332C27.9998 13.3333 29.3332 12 29.3332 9.33332V6.66666C29.3332 3.99999 27.9998 2.66666 25.3332 2.66666H22.6665C19.9998 2.66666 18.6665 3.99999 18.6665 6.66666V9.33332C18.6665 12 19.9998 13.3333 22.6665 13.3333Z" stroke="#17876D" stroke-opacity="0.5" stroke-width="2" stroke-miterlimit="10" stroke-linecap="round" stroke-linejoin="round"/>
<path d="M6.6665 29.3333H9.33317C11.9998 29.3333 13.3332 28 13.3332 25.3333V22.6667C13.3332 20 11.9998 18.6667 9.33317 18.6667H6.6665C3.99984 18.6667 2.6665 20 2.6665 22.6667V25.3333C2.6665 28 3.99984 29.3333 6.6665 29.3333Z" stroke="#17876D" stroke-opacity="0.5" stroke-width="2" stroke-miterlimit="10" stroke-linecap="round" stroke-linejoin="round"/>
<path d="M7.99984 13.3333C10.9454 13.3333 13.3332 10.9455 13.3332 7.99999C13.3332 5.05447 10.9454 2.66666 7.99984 2.66666C5.05432 2.66666 2.6665 5.05447 2.6665 7.99999C2.6665 10.9455 5.05432 13.3333 7.99984 13.3333Z" stroke="#17876D" stroke-opacity="0.5" stroke-width="2" stroke-miterlimit="10" stroke-linecap="round" stroke-linejoin="round"/>
<path d="M23.9998 29.3333C26.9453 29.3333 29.3332 26.9455 29.3332 24C29.3332 21.0545 26.9453 18.6667 23.9998 18.6667C21.0544 18.6667 18.6665 21.0545 18.6665 24C18.6665 26.9455 21.0544 29.3333 23.9998 29.3333Z" stroke="#17876D" stroke-opacity="0.5" stroke-width="2" stroke-miterlimit="10" stroke-linecap="round" stroke-linejoin="round"/>
</svg>
