<svg width="32" height="32" viewBox="0 0 32 32" fill="none" xmlns="http://www.w3.org/2000/svg">
<path d="M20.9076 19.4492C25.561 19.4492 29.3333 15.6923 29.3333 11.0579C29.3333 6.42355 25.561 2.66666 20.9076 2.66666C16.2542 2.66666 12.482 6.42355 12.482 11.0579C12.482 13.2045 13.4617 14.7657 13.4617 14.7657L3.27251 24.9132C2.81529 25.3685 2.1752 26.5524 3.27251 27.6452L4.44817 28.8161C4.90536 29.2064 6.05488 29.7528 6.99543 28.8161L8.36704 27.4501C9.73867 28.8161 11.3062 28.0356 11.8941 27.2549C12.8738 25.8889 11.6981 24.5229 11.6981 24.5229L12.09 24.1327C13.971 26.006 15.617 24.9132 16.2049 24.1327C17.1846 22.7667 16.2049 21.4007 16.2049 21.4007C15.813 20.62 15.0293 20.62 16.0089 19.6444L17.1846 18.4735C18.1252 19.254 20.0585 19.4492 20.9076 19.4492Z" stroke="#1CA686" stroke-width="2" stroke-linejoin="round"/>
<path d="M23.847 11.058C23.847 12.6747 22.5312 13.9852 20.908 13.9852C19.2846 13.9852 17.9688 12.6747 17.9688 11.058C17.9688 9.44141 19.2846 8.13086 20.908 8.13086C22.5312 8.13086 23.847 9.44141 23.847 11.058Z" stroke="#1CA686" stroke-width="2"/>
</svg>
