<svg width="32" height="32" viewBox="0 0 32 32" fill="none" xmlns="http://www.w3.org/2000/svg">
<path fill-rule="evenodd" clip-rule="evenodd" d="M15.9998 29.3333C9.71444 29.3333 6.57174 29.3333 4.61913 27.3807C2.6665 25.4281 2.6665 22.2853 2.6665 16C2.6665 9.71459 2.6665 6.5719 4.61913 4.61928C6.57174 2.66666 9.71444 2.66666 15.9998 2.66666C22.2852 2.66666 25.428 2.66666 27.3805 4.61928C29.3332 6.5719 29.3332 9.71459 29.3332 16C29.3332 22.2853 29.3332 25.4281 27.3805 27.3807C25.428 29.3333 22.2852 29.3333 15.9998 29.3333ZM21.3736 11.9595C21.7641 12.3501 21.7641 12.9832 21.3736 13.3737L14.7069 20.0404C14.3164 20.4309 13.6833 20.4309 13.2927 20.0404L10.6261 17.3737C10.2355 16.9832 10.2355 16.3501 10.6261 15.9596C11.0166 15.5691 11.6498 15.5691 12.0403 15.9596L13.9998 17.9191L19.9594 11.9595C20.35 11.569 20.983 11.569 21.3736 11.9595Z" fill="#1CA686"/>
</svg>
