<svg width="32" height="32" viewBox="0 0 32 32" fill="none" xmlns="http://www.w3.org/2000/svg">
<path d="M15.9995 3.66666C19.1704 3.66666 21.4488 3.66897 23.1821 3.90201C24.7801 4.11689 25.7829 4.5135 26.5278 5.18814L26.6733 5.32681C27.4328 6.08633 27.869 7.11365 28.0981 8.81802C28.3312 10.5513 28.3335 12.8289 28.3335 15.9997C28.3335 19.1706 28.3312 21.449 28.0981 23.1823C27.8833 24.7801 27.4866 25.7831 26.812 26.528L26.6733 26.6735C25.9139 27.433 24.8864 27.8691 23.1821 28.0983C21.4488 28.3313 19.1704 28.3336 15.9995 28.3336C12.8287 28.3336 10.5511 28.3313 8.81787 28.0983C7.21999 27.8835 6.21713 27.4867 5.47217 26.8122L5.32666 26.6735C4.5672 25.9141 4.13104 24.8866 3.90186 23.1823C3.66882 21.449 3.6665 19.1706 3.6665 15.9997C3.6665 12.8289 3.66883 10.5513 3.90186 8.81802C4.11671 7.22004 4.51341 6.21729 5.18799 5.47232L5.32666 5.32681C6.08618 4.56728 7.11339 4.13118 8.81787 3.90201C10.5511 3.66898 12.8287 3.66666 15.9995 3.66666ZM22.0806 11.2526C21.3483 10.5203 20.1894 10.4741 19.4038 11.1149L19.2524 11.2526L13.9995 16.5045L12.7476 15.2526C11.9665 14.4715 10.6995 14.4715 9.91846 15.2526C9.18643 15.9849 9.14088 17.1439 9.78174 17.9294L9.91846 18.0807H9.91943L12.5854 20.7477C13.3178 21.48 14.4766 21.5254 15.2622 20.8844L15.4136 20.7477L22.0806 14.0807C22.8616 13.2997 22.8616 12.0336 22.0806 11.2526Z" stroke="#1CA686" stroke-width="2"/>
</svg>
