<svg width="20" height="20" viewBox="0 0 20 20" fill="none" xmlns="http://www.w3.org/2000/svg">
<path d="M17.7087 9.99996C17.7087 14.2571 14.2575 17.7083 10.0003 17.7083V18.9583C14.9479 18.9583 18.9587 14.9475 18.9587 9.99996H17.7087ZM10.0003 17.7083C5.74313 17.7083 2.29199 14.2571 2.29199 9.99996H1.04199C1.04199 14.9475 5.05277 18.9583 10.0003 18.9583V17.7083ZM2.29199 9.99996C2.29199 5.74277 5.74313 2.29163 10.0003 2.29163V1.04163C5.05277 1.04163 1.04199 5.05241 1.04199 9.99996H2.29199ZM12.917 11.875C10.2707 11.875 8.12532 9.72962 8.12532 7.08329H6.87532C6.87532 10.42 9.58024 13.125 12.917 13.125V11.875ZM17.0214 9.55746C16.1813 10.9477 14.6572 11.875 12.917 11.875V13.125C15.1127 13.125 17.0342 11.9532 18.0913 10.2039L17.0214 9.55746ZM8.12532 7.08329C8.12532 5.34314 9.05257 3.81896 10.4428 2.97885L9.79641 1.909C8.04707 2.96604 6.87532 4.88753 6.87532 7.08329H8.12532ZM10.0003 2.29163C9.92657 2.29163 9.84007 2.25836 9.77732 2.19303C9.72416 2.13768 9.71182 2.08533 9.70891 2.06415C9.70541 2.03818 9.70716 1.96293 9.79641 1.909L10.4428 2.97885C10.8622 2.7255 10.997 2.26161 10.9477 1.89685C10.8965 1.51768 10.5975 1.04163 10.0003 1.04163V2.29163ZM18.0913 10.2039C18.0373 10.2931 17.9621 10.2949 17.9362 10.2914C17.915 10.2885 17.8626 10.2761 17.8072 10.223C17.7419 10.1602 17.7087 10.0737 17.7087 9.99996H18.9587C18.9587 9.40279 18.4826 9.10379 18.1034 9.05262C17.7387 9.00329 17.2747 9.13812 17.0214 9.55746L18.0913 10.2039Z" fill="#1CA686"/>
</svg>
