<svg width="20" height="20" viewBox="0 0 20 20" fill="none" xmlns="http://www.w3.org/2000/svg">
<path d="M11.9845 7.52272C12.4809 7.3493 13.0152 7.25494 13.5717 7.25494C14.1173 7.25494 14.6414 7.34561 15.1296 7.51252M15.1296 7.51252C16.9945 8.15024 18.3337 9.90096 18.3337 11.9608C18.3337 14.5598 16.2017 16.6667 13.5717 16.6667H5.23842C3.26598 16.6667 1.66699 15.0865 1.66699 13.1373C1.66699 11.188 3.26598 9.60787 5.23842 9.60787C5.47518 9.60787 5.70657 9.63062 5.93046 9.67412M15.1296 7.51252C14.8646 5.16147 12.8469 3.33337 10.3972 3.33337C7.76722 3.33337 5.63524 5.44027 5.63524 8.03926C5.63524 8.61412 5.73954 9.16487 5.93046 9.67412M5.93046 9.67412C6.40082 9.76537 6.83806 9.94787 7.22255 10.2022" stroke="#1CA686" stroke-width="1.25" stroke-linecap="round"/>
</svg>
