<svg width="32" height="32" viewBox="0 0 32 32" fill="none" xmlns="http://www.w3.org/2000/svg">
<path d="M29.3332 16C29.3332 17.7509 28.9882 19.4848 28.3182 21.1024C27.6481 22.7201 26.6661 24.19 25.428 25.4281C24.1898 26.6663 22.72 27.6483 21.1022 28.3184C19.4846 28.9884 17.7508 29.3333 15.9998 29.3333C14.2489 29.3333 12.5151 28.9884 10.8974 28.3184C9.27972 27.6483 7.80986 26.6663 6.57174 25.4281C5.33364 24.19 4.3515 22.7201 3.68144 21.1024C3.01138 19.4848 2.6665 17.7509 2.6665 16C2.6665 14.2491 3.01138 12.5152 3.68145 10.8975C4.3515 9.27987 5.33364 7.81002 6.57174 6.5719C7.80986 5.33379 9.27972 4.35166 10.8974 3.68159C12.5151 3.01154 14.2489 2.66666 15.9998 2.66666C17.7508 2.66666 19.4846 3.01154 21.1022 3.6816C22.72 4.35166 24.1898 5.33379 25.428 6.5719C26.6661 7.81002 27.6481 9.27987 28.3182 10.8975C28.9882 12.5152 29.3332 14.2491 29.3332 16Z" stroke="#17876D" stroke-opacity="0.5" stroke-width="2"/>
<path d="M21.3332 16C21.3332 17.7509 21.1952 19.4848 20.9272 21.1024C20.6592 22.7201 20.2664 24.19 19.771 25.4281C19.2758 26.6663 18.6878 27.6483 18.0408 28.3184C17.3937 28.9884 16.7002 29.3333 15.9998 29.3333C15.2994 29.3333 14.606 28.9884 13.9589 28.3184C13.3118 27.6483 12.7239 26.6663 12.2286 25.4281C11.7334 24.19 11.3405 22.7201 11.0725 21.1024C10.8045 19.4848 10.6665 17.7509 10.6665 16C10.6665 14.2491 10.8045 12.5152 11.0725 10.8975C11.3405 9.27987 11.7334 7.81002 12.2286 6.5719C12.7239 5.33379 13.3118 4.35166 13.9589 3.68159C14.606 3.01154 15.2994 2.66666 15.9998 2.66666C16.7002 2.66666 17.3937 3.01154 18.0408 3.6816C18.6878 4.35166 19.2758 5.33379 19.771 6.5719C20.2664 7.81002 20.6592 9.27987 20.9272 10.8975C21.1952 12.5152 21.3332 14.2491 21.3332 16Z" stroke="#17876D" stroke-opacity="0.5" stroke-width="2"/>
<path d="M2.6665 16H29.3332" stroke="#17876D" stroke-opacity="0.5" stroke-width="2" stroke-linecap="round"/>
</svg>
