<svg width="32" height="32" viewBox="0 0 32 32" fill="none" xmlns="http://www.w3.org/2000/svg">
<path d="M10.6667 16H10.6787M15.9881 16H16.0001M21.3214 16H21.3334" stroke="#1CA686" stroke-width="2.66667" stroke-linecap="round" stroke-linejoin="round"/>
<path d="M16.0001 29.3333C23.3638 29.3333 29.3334 23.3637 29.3334 16C29.3334 8.63619 23.3638 2.66666 16.0001 2.66666C8.63628 2.66666 2.66675 8.63619 2.66675 16C2.66675 18.1329 3.16757 20.1488 4.05803 21.9367C4.29467 22.4117 4.37343 22.9548 4.23624 23.4675L3.44209 26.4356C3.09735 27.724 4.27609 28.9027 5.56455 28.558L8.5326 27.7639C9.04532 27.6267 9.58836 27.7055 10.0635 27.942C11.8512 28.8325 13.8671 29.3333 16.0001 29.3333Z" stroke="#1CA686" stroke-width="2"/>
</svg>
