<svg width="32" height="32" viewBox="0 0 32 32" fill="none" xmlns="http://www.w3.org/2000/svg">
<path d="M19.7196 25.2995C11.3298 28.6553 7.13493 30.3333 4.73888 28.7051C4.17077 28.3191 3.68078 27.8291 3.29473 27.2609C1.66652 24.8649 3.34448 20.67 6.7004 12.2802C7.41621 10.4907 7.7741 9.59592 8.38968 8.89396C8.54653 8.7151 8.71494 8.54668 8.89381 8.38983C9.59577 7.77426 10.4905 7.41636 12.2801 6.70055C20.6698 3.34463 24.8648 1.66667 27.2608 3.29488C27.8289 3.68092 28.3189 4.17092 28.7049 4.73903C30.3332 7.13508 28.6552 11.33 25.2993 19.7197C24.5834 21.5093 24.2256 22.4041 23.61 23.106C23.4532 23.2849 23.2848 23.4533 23.1058 23.6101C22.404 24.2257 21.5092 24.5836 19.7196 25.2995Z" fill="#1CA686"/>
<path d="M16 20C18.2091 20 20 18.2091 20 16C20 13.7909 18.2091 12 16 12C13.7909 12 12 13.7909 12 16C12 18.2091 13.7909 20 16 20Z" stroke="#FBFEFD" stroke-width="2"/>
</svg>
