<svg width="32" height="32" viewBox="0 0 32 32" fill="none" xmlns="http://www.w3.org/2000/svg">
<path d="M24.24 10.7191L24.858 10.1012C25.8818 9.07739 27.5418 9.07739 28.5655 10.1012C29.5894 11.125 29.5894 12.7849 28.5655 13.8087L27.9476 14.4267M24.24 10.7191C24.24 10.7191 24.3174 12.0322 25.4759 13.1908C26.6346 14.3493 27.9476 14.4267 27.9476 14.4267M24.24 10.7191L18.5592 16.3999C18.1744 16.7847 17.982 16.9771 17.8166 17.1892C17.6215 17.4395 17.4542 17.7103 17.3176 17.9967C17.2019 18.2396 17.1158 18.4976 16.9438 19.0139L16.3928 20.6667L16.2146 21.2013M27.9476 14.4267L22.2668 20.1075C21.882 20.4923 21.6896 20.6847 21.4775 20.8501C21.2272 21.0452 20.9564 21.2125 20.67 21.3491C20.4271 21.4648 20.1691 21.5509 19.6528 21.7229L18 22.2739L17.4654 22.4521M16.2146 21.2013L16.0363 21.7361C15.9516 21.9901 16.0178 22.2703 16.2071 22.4596C16.3964 22.6489 16.6766 22.7151 16.9306 22.6304L17.4654 22.4521M16.2146 21.2013L17.4654 22.4521" stroke="#1CA686" stroke-width="2"/>
<path d="M10.6667 17.3333H14.0001" stroke="#1CA686" stroke-width="2" stroke-linecap="round"/>
<path d="M10.6667 12H19.3334" stroke="#1CA686" stroke-width="2" stroke-linecap="round"/>
<path d="M10.6667 22.6667H12.6667" stroke="#1CA686" stroke-width="2" stroke-linecap="round"/>
<path d="M26.4379 4.22875C24.8759 2.66666 22.3616 2.66666 17.3333 2.66666H14.6667C9.63835 2.66666 7.1242 2.66666 5.56209 4.22875C4 5.79086 4 8.305 4 13.3333V18.6667C4 23.6949 4 26.2092 5.56209 27.7712C7.1242 29.3333 9.63835 29.3333 14.6667 29.3333H17.3333C22.3616 29.3333 24.8759 29.3333 26.4379 27.7712C27.6953 26.5137 27.9405 24.6395 27.9884 21.3333" stroke="#1CA686" stroke-width="2" stroke-linecap="round"/>
</svg>
