<svg width="32" height="32" viewBox="0 0 32 32" fill="none" xmlns="http://www.w3.org/2000/svg">
<path fill-rule="evenodd" clip-rule="evenodd" d="M13.2584 4.33334H18.7422C21.1926 4.33332 23.1334 4.3333 24.6523 4.53753C26.2155 4.74769 27.4809 5.19052 28.4787 6.18833C29.4765 7.18616 29.9193 8.45142 30.1295 10.0147C30.2501 10.9118 30.2995 11.9561 30.3197 13.1657C30.3289 13.2202 30.3337 13.2762 30.3337 13.3333C30.3337 13.3804 30.3305 13.4265 30.3242 13.4719C30.3337 14.2261 30.3337 15.0424 30.3337 15.9248V16.0752C30.3337 18.5256 30.3337 20.4664 30.1295 21.9853C29.9193 23.5485 29.4765 24.8139 28.4787 25.8117C27.4809 26.8095 26.2155 27.2523 24.6523 27.4625C23.1334 27.6667 21.1926 27.6667 18.7422 27.6667H13.2584C10.8081 27.6667 8.86725 27.6667 7.3483 27.4625C5.78507 27.2523 4.51981 26.8095 3.52198 25.8117C2.52417 24.8139 2.08134 23.5485 1.87118 21.9853C1.66695 20.4664 1.66697 18.5256 1.66699 16.0752V15.9248C1.66698 15.0424 1.66698 14.2261 1.67651 13.4719C1.67023 13.4265 1.66699 13.3803 1.66699 13.3333C1.66699 13.2762 1.67178 13.2202 1.68098 13.1657C1.70118 11.9562 1.75055 10.9118 1.87118 10.0147C2.08134 8.45142 2.52417 7.18616 3.52198 6.18833C4.51981 5.19052 5.78507 4.74769 7.3483 4.53753C8.86725 4.3333 10.8081 4.33332 13.2584 4.33334ZM3.66965 14.3333C3.66711 14.8512 3.66699 15.4055 3.66699 16C3.66699 18.5424 3.66911 20.3487 3.85334 21.7189C4.03369 23.0603 4.37191 23.8332 4.93619 24.3975C5.50047 24.9617 6.27334 25.3 7.61479 25.4803C8.98501 25.6645 10.7912 25.6667 13.3337 25.6667H18.667C21.2094 25.6667 23.0157 25.6645 24.3859 25.4803C25.7273 25.3 26.5002 24.9617 27.0645 24.3975C27.6287 23.8332 27.967 23.0603 28.1473 21.7189C28.3315 20.3487 28.3337 18.5424 28.3337 16C28.3337 15.4055 28.3335 14.8512 28.331 14.3333H3.66965ZM28.2989 12.3333H3.70175C3.72785 11.551 3.77349 10.8751 3.85334 10.2811C4.03369 8.93969 4.37191 8.16682 4.93619 7.60254C5.50047 7.03826 6.27334 6.70004 7.61479 6.51969C8.98501 6.33546 10.7912 6.33334 13.3337 6.33334H18.667C21.2094 6.33334 23.0157 6.33546 24.3859 6.51969C25.7273 6.70004 26.5002 7.03826 27.0645 7.60254C27.6287 8.16682 27.967 8.93969 28.1473 10.2811C28.2271 10.8751 28.2729 11.551 28.2989 12.3333ZM21.2741 16.3333H21.3933C21.9705 16.3332 22.4995 16.3332 22.9299 16.3911C23.4039 16.4548 23.9049 16.6047 24.3169 17.0168C24.729 17.4288 24.8789 17.9297 24.9426 18.4037C25.0005 18.8341 25.0005 19.3632 25.0003 19.9404V20.0596C25.0005 20.6368 25.0005 21.1659 24.9426 21.5963C24.8789 22.0703 24.729 22.5712 24.3169 22.9832C23.9049 23.3953 23.4039 23.5452 22.9299 23.6089C22.4995 23.6668 21.9705 23.6668 21.3933 23.6667H21.2741C20.6969 23.6668 20.1678 23.6668 19.7374 23.6089C19.2634 23.5452 18.7625 23.3953 18.3505 22.9832C17.9383 22.5712 17.7885 22.0703 17.7247 21.5963C17.6669 21.1659 17.6669 20.6368 17.667 20.0596V19.9404C17.6669 19.3632 17.6669 18.8341 17.7247 18.4037C17.7885 17.9297 17.9383 17.4288 18.3505 17.0168C18.7625 16.6047 19.2634 16.4548 19.7374 16.3911C20.1678 16.3332 20.6969 16.3332 21.2741 16.3333ZM19.7679 18.4292L19.7646 18.4309L19.7629 18.4343C19.7615 18.4368 19.7593 18.4412 19.7566 18.448C19.7446 18.4769 19.7242 18.5415 19.7069 18.6703C19.6691 18.9512 19.667 19.3432 19.667 20C19.667 20.6568 19.6691 21.0488 19.7069 21.3297C19.7242 21.4585 19.7446 21.5231 19.7566 21.552C19.7577 21.5548 19.7587 21.5572 19.7597 21.5592C19.761 21.5621 19.7621 21.5643 19.7629 21.5657L19.7646 21.5691L19.7679 21.5708C19.7705 21.5721 19.7749 21.5744 19.7817 21.5771C19.8106 21.5891 19.8751 21.6095 20.0039 21.6268C20.2849 21.6645 20.6769 21.6667 21.3337 21.6667C21.9905 21.6667 22.3825 21.6645 22.6634 21.6268C22.7922 21.6095 22.8567 21.5891 22.8857 21.5771C22.8925 21.5744 22.8969 21.5721 22.8994 21.5708L22.9027 21.5691L22.9045 21.5657C22.9058 21.5632 22.9081 21.5588 22.9107 21.552C22.9227 21.5231 22.9431 21.4585 22.9605 21.3297C22.9982 21.0488 23.0003 20.6568 23.0003 20C23.0003 19.3432 22.9982 18.9512 22.9605 18.6703C22.9431 18.5415 22.9227 18.4769 22.9107 18.448C22.9091 18.444 22.9078 18.4409 22.9066 18.4384C22.9058 18.4367 22.9051 18.4353 22.9045 18.4343L22.9027 18.4309L22.8994 18.4292C22.8969 18.4279 22.8925 18.4256 22.8857 18.4229C22.8567 18.4109 22.7922 18.3905 22.6634 18.3732C22.3825 18.3355 21.9905 18.3333 21.3337 18.3333C20.6769 18.3333 20.2849 18.3355 20.0039 18.3732C19.8751 18.3905 19.8106 18.4109 19.7817 18.4229C19.7749 18.4256 19.7705 18.4279 19.7679 18.4292ZM7.00033 18C7.00033 17.4477 7.44805 17 8.00033 17H10.667C11.2193 17 11.667 17.4477 11.667 18C11.667 18.5523 11.2193 19 10.667 19H8.00033C7.44805 19 7.00033 18.5523 7.00033 18ZM19.7646 21.5691C19.7641 21.5685 19.7643 21.5685 19.7646 21.5691C19.7651 21.5693 19.7653 21.5696 19.7646 21.5691ZM22.9027 21.5691C22.9025 21.5693 22.9026 21.5691 22.9027 21.5691V21.5691ZM7.00033 22C7.00033 21.4477 7.44805 21 8.00033 21H13.3337C13.8859 21 14.3337 21.4477 14.3337 22C14.3337 22.5523 13.8859 23 13.3337 23H8.00033C7.44805 23 7.00033 22.5523 7.00033 22Z" fill="#1CA686"/>
</svg>
