<svg width="32" height="32" viewBox="0 0 32 32" fill="none" xmlns="http://www.w3.org/2000/svg">
<path d="M18.6664 5.33334H13.3331C8.30474 5.33334 5.79059 5.33334 4.22848 6.89544C3.10376 8.02016 2.78886 9.63844 2.70068 12.3333H29.2988C29.2107 9.63844 28.8957 8.02016 27.7709 6.89544C26.2089 5.33334 23.6947 5.33334 18.6664 5.33334Z" fill="#1CA686"/>
<path fill-rule="evenodd" clip-rule="evenodd" d="M18.6665 26.6667H13.3332C8.30485 26.6667 5.7907 26.6667 4.2286 25.1045C2.6665 23.5425 2.6665 21.0283 2.6665 16C2.6665 15.4108 2.6665 14.856 2.66902 14.3333H29.3306C29.3332 14.856 29.3332 15.4108 29.3332 16C29.3332 21.0283 29.3332 23.5425 27.771 25.1045C26.209 26.6667 23.6948 26.6667 18.6665 26.6667ZM21.3928 16.3333C21.97 16.3332 22.499 16.3332 22.9294 16.3911C23.4034 16.4548 23.9044 16.6047 24.3164 17.0168C24.7285 17.4288 24.8784 17.9297 24.9421 18.4037C25 18.8341 25 19.3632 24.9998 19.9404V20.0596C25 20.6368 25 21.1659 24.9421 21.5963C24.8784 22.0703 24.7285 22.5712 24.3164 22.9832C23.9044 23.3953 23.4034 23.5452 22.9294 23.6089C22.499 23.6668 21.97 23.6668 21.3928 23.6667H21.3332H21.2736C20.6964 23.6668 20.1673 23.6668 19.7369 23.6089C19.2629 23.5452 18.762 23.3953 18.35 22.9832C17.9378 22.5712 17.788 22.0703 17.7242 21.5963C17.6664 21.1659 17.6664 20.6368 17.6665 20.0596V20V19.9404C17.6664 19.3632 17.6664 18.8341 17.7242 18.4037C17.788 17.9297 17.9378 17.4288 18.35 17.0168C18.762 16.6047 19.2629 16.4548 19.7369 16.3911C20.1673 16.3332 20.6964 16.3332 21.2736 16.3333H21.3928ZM6.99984 18C6.99984 17.4477 7.44756 17 7.99984 17H10.6665C11.2188 17 11.6665 17.4477 11.6665 18C11.6665 18.5523 11.2188 19 10.6665 19H7.99984C7.44756 19 6.99984 18.5523 6.99984 18ZM6.99984 22C6.99984 21.4477 7.44756 21 7.99984 21H13.3332C13.8854 21 14.3332 21.4477 14.3332 22C14.3332 22.5523 13.8854 23 13.3332 23H7.99984C7.44756 23 6.99984 22.5523 6.99984 22Z" fill="#1CA686"/>
<path d="M19.7642 18.4309L19.7674 18.4292C19.77 18.4279 19.7744 18.4256 19.7812 18.4229C19.8101 18.4109 19.8746 18.3905 20.0034 18.3732C20.2844 18.3355 20.6764 18.3333 21.3332 18.3333C21.99 18.3333 22.382 18.3355 22.6629 18.3732C22.7917 18.3905 22.8562 18.4109 22.8852 18.4229C22.892 18.4256 22.8964 18.4279 22.8989 18.4292L22.9022 18.4309L22.904 18.4343C22.9053 18.4368 22.9076 18.4412 22.9102 18.448C22.9222 18.4769 22.9426 18.5415 22.96 18.6703C22.9977 18.9512 22.9998 19.3432 22.9998 20C22.9998 20.6568 22.9977 21.0488 22.96 21.3297C22.9426 21.4585 22.9222 21.5231 22.9102 21.552C22.9076 21.5588 22.9053 21.5632 22.904 21.5657L22.9022 21.5691L22.8989 21.5708C22.8964 21.5721 22.892 21.5744 22.8852 21.5771C22.8562 21.5891 22.7917 21.6095 22.6629 21.6268C22.382 21.6645 21.99 21.6667 21.3332 21.6667C20.6764 21.6667 20.2844 21.6645 20.0034 21.6268C19.8746 21.6095 19.8101 21.5891 19.7812 21.5771C19.7744 21.5744 19.77 21.5721 19.7674 21.5708L19.7641 21.5691L19.7624 21.5657C19.761 21.5632 19.7588 21.5588 19.7561 21.552C19.7441 21.5231 19.7237 21.4585 19.7064 21.3297C19.6686 21.0488 19.6665 20.6568 19.6665 20C19.6665 19.3432 19.6686 18.9512 19.7064 18.6703C19.7237 18.5415 19.7441 18.4769 19.7561 18.448C19.7588 18.4412 19.761 18.4368 19.7624 18.4343L19.7642 18.4309Z" fill="#1CA686"/>
</svg>
