<svg width="116" height="132" viewBox="0 0 116 132" fill="none" xmlns="http://www.w3.org/2000/svg">
<path d="M81.9656 64.5994L96.1422 69.4426L96.1422 81.8635L89.4754 90.529M81.9656 64.5994L64.9965 69.8787M81.9656 64.5994L64.2423 57.8118L60.4713 63.8453L64.9965 69.8787M64.9965 69.8787L74.5632 85.2047L89.4754 90.529M64.9965 69.8787L58.5859 72.5184L57.4142 79.0817L89.4754 90.529" stroke="#0E5343" stroke-width="3.77093"/>
<path d="M75.4994 84.2053L85.0249 97.766L76.4132 107.492L65.7505 110.577M75.4994 84.2053L57.7211 79.1902M75.4994 84.2053L65.6356 70.1632L58.2408 72.4888L57.7211 79.1902M57.7211 79.1902L56.7322 97.7385L65.7505 110.577M57.7211 79.1902L50.7901 77.4409L46.3612 82.9742L65.7505 110.577" stroke="#0E5343" stroke-width="3.77093"/>
<path d="M57.6048 96.2684L57.2664 112.586L44.374 115.399L33.7881 111.725M57.6048 96.2684L46.0533 82.027M57.6048 96.2684L57.9551 79.3712L50.5019 76.9721L46.0533 82.027M46.0533 82.027L34.1085 96.2766L33.7881 111.725M46.0533 82.027L41.4263 76.6394L34.4769 78.5104L33.7881 111.725" stroke="#0E5343" stroke-width="3.77093"/>
<path d="M34.4335 27.6103L34.4876 11.2891L47.329 8.25227L57.9773 11.7408M34.4335 27.6103L46.2313 41.6484M34.4335 27.6103L34.3775 44.511L41.8713 46.78L46.2313 41.6484M46.2313 41.6484L57.9261 27.1929L57.9773 11.7408M46.2313 41.6484L50.9514 46.9546L57.8672 44.9628L57.9773 11.7408" stroke="#1CA686" stroke-width="3.77093"/>
<path d="M55.8777 28.8704L65.9508 16.0283L78.1994 21.203L84.665 30.2321M55.8777 28.8704L56.7901 46.8984M55.8777 28.8704L45.4471 42.1685L50.1118 48.3759L56.7901 46.8984M56.7901 46.8984L75.1284 42.3903L84.665 30.2321M56.7901 46.8984L57.3458 53.8664L64.1613 56.3723L84.665 30.2321" stroke="#1CA686" stroke-width="3.77093"/>
<path d="M73.5719 42.6592L89.3965 37.7388L96.6431 48.7196L96.6432 59.6972M73.5719 42.6592L64.2427 57.8117M73.5719 42.6592L57.1855 47.7543L57.5008 55.3931L64.2427 57.8117M64.2427 57.8117L81.9661 64.5994L96.6432 59.6972M64.2427 57.8117L60.4712 63.8452L64.9969 69.8787L80.8348 64.9765L96.6432 59.6972" stroke="#1CA686" stroke-width="3.77093"/>
</svg>
