<svg width="32" height="32" viewBox="0 0 32 32" fill="none" xmlns="http://www.w3.org/2000/svg">
<path d="M21.3337 2.6665V7.99984M10.667 2.6665V7.99984" stroke="#1CA686" stroke-width="2" stroke-linecap="round" stroke-linejoin="round"/>
<path d="M17.3333 5.3335H14.6667C9.63835 5.3335 7.1242 5.3335 5.56209 6.89559C4 8.4577 4 10.9718 4 16.0002V18.6668C4 23.6951 4 26.2094 5.56209 27.7714C7.1242 29.3335 9.63835 29.3335 14.6667 29.3335H17.3333C22.3616 29.3335 24.8759 29.3335 26.4379 27.7714C28 26.2094 28 23.6951 28 18.6668V16.0002C28 10.9718 28 8.4577 26.4379 6.89559C24.8759 5.3335 22.3616 5.3335 17.3333 5.3335Z" stroke="#1CA686" stroke-width="2" stroke-linecap="round" stroke-linejoin="round"/>
<path d="M4 13.3335H28" stroke="#1CA686" stroke-width="2" stroke-linecap="round" stroke-linejoin="round"/>
<path d="M15.9943 18.6665H16.0063M15.9943 23.9998H16.0063M21.3217 18.6665H21.3337M10.667 18.6665H10.679M10.667 23.9998H10.679" stroke="#1CA686" stroke-width="2" stroke-linecap="round" stroke-linejoin="round"/>
</svg>
