<svg width="32" height="32" viewBox="0 0 32 32" fill="none" xmlns="http://www.w3.org/2000/svg">
<path fill-rule="evenodd" clip-rule="evenodd" d="M15.9998 3.6665C9.18833 3.6665 3.6665 9.18833 3.6665 15.9998C3.6665 22.8113 9.18833 28.3332 15.9998 28.3332C22.8113 28.3332 28.3332 22.8113 28.3332 15.9998C28.3332 9.18833 22.8113 3.6665 15.9998 3.6665ZM1.6665 15.9998C1.6665 8.08376 8.08376 1.6665 15.9998 1.6665C23.916 1.6665 30.3332 8.08376 30.3332 15.9998C30.3332 23.916 23.916 30.3332 15.9998 30.3332C8.08376 30.3332 1.6665 23.916 1.6665 15.9998ZM15.9998 9.6665C16.5521 9.6665 16.9998 10.1142 16.9998 10.6665V15.5856L20.0402 18.6261C20.4308 19.0166 20.4308 19.6497 20.0402 20.0402C19.6497 20.4308 19.0166 20.4308 18.6261 20.0402L15.2928 16.7069C15.1052 16.5194 14.9998 16.265 14.9998 15.9998V10.6665C14.9998 10.1142 15.4476 9.6665 15.9998 9.6665Z" fill="#1CA686"/>
</svg>
