<svg width="30" height="30" viewBox="0 0 30 30" fill="none" xmlns="http://www.w3.org/2000/svg">
<path d="M5.01533 19.7022L7.1272 13.3666C8.08472 10.4941 8.56348 9.05778 9.6963 8.79036C10.8291 8.52293 11.8997 9.59347 14.0407 11.7345L18.2645 15.9582C20.4055 18.0994 21.4761 19.1699 21.2086 20.3027C20.9412 21.4355 19.505 21.9142 16.6324 22.8719L10.2968 24.9837C6.84003 26.136 5.11165 26.7121 4.1993 25.7997C3.28695 24.8874 3.86307 23.159 5.01533 19.7022Z" stroke="#1CA686" stroke-width="1.875" stroke-linecap="round"/>
<path d="M15.294 22.9326C15.294 22.9326 14.3464 20.0811 14.3464 18.194C14.3464 16.3067 15.294 13.4554 15.294 13.4554M10.0816 24.3541C10.0816 24.3541 9.28117 20.9142 9.13387 18.6679C8.89048 14.9562 10.0816 9.19067 10.0816 9.19067" stroke="#1CA686" stroke-width="1.875" stroke-linecap="round"/>
<path d="M18.1367 12.5076L18.3167 11.6077C18.4983 10.6991 19.1531 9.95746 20.0321 9.66444C20.9112 9.37143 21.5658 8.62984 21.7476 7.72121L21.9276 6.82129" stroke="#1CA686" stroke-width="1.875" stroke-linecap="round"/>
<path d="M21.9609 15.3166L22.2271 15.4703C23.0484 15.9445 24.0812 15.8399 24.7908 15.2106C25.4334 14.6408 26.3486 14.4963 27.1356 14.8404L27.4999 14.9996" stroke="#1CA686" stroke-width="1.875" stroke-linecap="round"/>
<path d="M13.1692 3.75C12.7473 4.44008 12.853 5.3293 13.425 5.90121L13.5473 6.02356C14.0388 6.51501 14.22 7.23699 14.0189 7.90227" stroke="#1CA686" stroke-width="1.875" stroke-linecap="round"/>
<path d="M16.9513 5.4956C17.2026 5.24427 17.3283 5.11861 17.4735 5.07255C17.5965 5.0336 17.7284 5.0336 17.8513 5.07255C17.9966 5.11861 18.1223 5.24427 18.3736 5.4956C18.6249 5.74691 18.7505 5.87257 18.7966 6.01787C18.8356 6.14077 18.8356 6.27271 18.7966 6.3956C18.7505 6.5409 18.6249 6.66656 18.3736 6.91788C18.1223 7.1692 17.9966 7.29486 17.8513 7.34092C17.7284 7.37988 17.5965 7.37988 17.4735 7.34092C17.3283 7.29486 17.2026 7.1692 16.9513 6.91788C16.7 6.66656 16.5743 6.5409 16.5283 6.3956C16.4893 6.27271 16.4893 6.14077 16.5283 6.01787C16.5743 5.87257 16.7 5.74691 16.9513 5.4956Z" fill="#1CA686"/>
<path d="M24.3353 9.33527C24.642 9.02853 24.7954 8.87517 24.9684 8.80851C25.1709 8.7305 25.3951 8.7305 25.5976 8.80851C25.7706 8.87517 25.924 9.02853 26.2307 9.33527C26.5375 9.64202 26.6909 9.79538 26.7575 9.9684C26.8355 10.1709 26.8355 10.3951 26.7575 10.5976C26.6909 10.7706 26.5375 10.924 26.2307 11.2307C25.924 11.5374 25.7706 11.6908 25.5976 11.7575C25.3951 11.8355 25.1709 11.8355 24.9684 11.7575C24.7954 11.6908 24.642 11.5374 24.3353 11.2307C24.0285 10.924 23.8751 10.7706 23.8085 10.5976C23.7305 10.3951 23.7305 10.1709 23.8085 9.9684C23.8751 9.79538 24.0285 9.64202 24.3353 9.33527Z" fill="#1CA686"/>
<path d="M8.65878 4.92599C8.92062 4.66415 9.34514 4.66415 9.60697 4.92599C9.86881 5.18783 9.86881 5.61235 9.60697 5.87419C9.34514 6.13603 8.92062 6.13603 8.65878 5.87419C8.39694 5.61235 8.39694 5.18783 8.65878 4.92599Z" fill="#1CA686"/>
<path d="M23.8224 19.1417C24.0841 18.8798 24.5088 18.8798 24.7705 19.1417C25.0324 19.4035 25.0324 19.828 24.7705 20.0898C24.5088 20.3517 24.0841 20.3517 23.8224 20.0898C23.5605 19.828 23.5605 19.4035 23.8224 19.1417Z" fill="#1CA686"/>
<path d="M21.8751 12.1768C22.137 11.915 22.5615 11.915 22.8234 12.1768C23.0851 12.4387 23.0851 12.8631 22.8234 13.125C22.5615 13.3869 22.137 13.3869 21.8751 13.125C21.6132 12.8631 21.6132 12.4387 21.8751 12.1768Z" fill="#1CA686"/>
</svg>
