<svg width="20" height="20" viewBox="0 0 20 20" fill="none" xmlns="http://www.w3.org/2000/svg">
<path d="M2.24138 5.58709C2.1054 5.26983 1.73798 5.12285 1.42071 5.25883C1.10344 5.3948 0.956468 5.76223 1.09244 6.07949L2.24138 5.58709ZM7.53479 11.448C7.72304 11.1588 7.64111 10.7716 7.35179 10.5834C7.06246 10.3951 6.67531 10.477 6.48705 10.7664L7.53479 11.448ZM5.30971 12.5758C5.12145 12.865 5.20339 13.2522 5.49271 13.4405C5.78204 13.6287 6.16919 13.5468 6.35744 13.2575L5.30971 12.5758ZM18.9081 6.07949C19.044 5.76223 18.8971 5.3948 18.5797 5.25883C18.2625 5.12285 17.8951 5.26983 17.7591 5.58709L18.9081 6.07949ZM16.6417 10.966C16.8857 11.21 17.2814 11.21 17.5255 10.966C17.7696 10.7219 17.7696 10.3261 17.5255 10.082L16.6417 10.966ZM9.37524 13.75C9.37524 14.0951 9.65508 14.375 10.0002 14.375C10.3454 14.375 10.6252 14.0951 10.6252 13.75H9.37524ZM13.6431 13.2575C13.8313 13.5468 14.2185 13.6287 14.5077 13.4405C14.7971 13.2522 14.879 12.865 14.6907 12.5758L13.6431 13.2575ZM4.60885 9.71596C4.85293 9.47187 4.85293 9.07613 4.60885 8.83204C4.36478 8.58796 3.96904 8.58796 3.72497 8.83204L4.60885 9.71596ZM2.47497 10.082C2.23089 10.3261 2.23089 10.7219 2.47497 10.966C2.71904 11.21 3.11478 11.21 3.35885 10.966L2.47497 10.082ZM10.0002 11.0416C7.31367 11.0416 5.38469 9.70379 4.10408 8.32468C3.46395 7.63532 2.99462 6.94399 2.68574 6.42508C2.53165 6.16621 2.41847 5.95189 2.34474 5.80443C2.3079 5.73076 2.28099 5.67392 2.2638 5.63672C2.25522 5.61813 2.24907 5.60446 2.24534 5.59607C2.24347 5.59188 2.24204 5.5886 2.24138 5.58709C2.24136 5.58706 2.2414 5.58716 2.24138 5.58709C2.24146 5.58728 2.24138 5.58709 1.66691 5.83329C1.09244 6.07949 1.09232 6.07921 1.09244 6.07949C1.09249 6.07962 1.09286 6.08046 1.09297 6.08071C1.09318 6.0812 1.09344 6.08179 1.09373 6.08246C1.0943 6.08381 1.09504 6.08551 1.09594 6.08756C1.09773 6.09165 1.10014 6.09714 1.10319 6.10398C1.10927 6.11767 1.11787 6.13675 1.12902 6.16088C1.1513 6.20914 1.18379 6.27763 1.22671 6.36345C1.31249 6.53501 1.44019 6.77642 1.61163 7.06442C1.95379 7.63926 2.47404 8.40629 3.18808 9.17521C4.6158 10.7128 6.85349 12.2916 10.0002 12.2916V11.0416ZM12.7607 10.5256C11.952 10.844 11.035 11.0416 10.0002 11.0416V12.2916C11.1987 12.2916 12.2707 12.0618 13.2185 11.6888L12.7607 10.5256ZM6.48705 10.7664L5.30971 12.5758L6.35744 13.2575L7.53479 11.448L6.48705 10.7664ZM18.3336 5.83329C17.7591 5.58709 17.759 5.58721 17.7591 5.58709C17.7592 5.58696 17.7595 5.5862 17.7595 5.58629C17.7594 5.58646 17.7592 5.58706 17.7587 5.58809C17.7577 5.59015 17.7561 5.59392 17.7537 5.59933C17.7488 5.61015 17.741 5.62753 17.7301 5.651C17.7082 5.69793 17.6741 5.76908 17.6274 5.86052C17.5341 6.04352 17.3911 6.30688 17.1964 6.61929C16.806 7.24593 16.2138 8.05993 15.4058 8.81829L16.2613 9.72971C17.1688 8.87788 17.8267 7.97152 18.2573 7.28034C18.4732 6.93386 18.6336 6.63896 18.741 6.42842C18.7947 6.32308 18.8352 6.23865 18.863 6.17918C18.8768 6.14945 18.8875 6.12594 18.895 6.10916C18.8987 6.10077 18.9017 6.09406 18.9039 6.08909C18.905 6.08661 18.9058 6.08457 18.9066 6.08296C18.9069 6.08216 18.9072 6.08147 18.9074 6.08089C18.9076 6.0806 18.908 6.07973 18.9081 6.07949C18.9081 6.07955 18.9082 6.07938 18.9081 6.07949C18.9082 6.07935 18.9081 6.07949 18.3336 5.83329ZM15.4058 8.81829C14.69 9.49012 13.8118 10.1119 12.7607 10.5256L13.2185 11.6888C14.4465 11.2055 15.4557 10.4858 16.2613 9.72971L15.4058 8.81829ZM15.3917 9.71596L16.6417 10.966L17.5255 10.082L16.2755 8.83204L15.3917 9.71596ZM9.37524 11.6666V13.75H10.6252V11.6666H9.37524ZM12.4657 11.448L13.6431 13.2575L14.6907 12.5758L13.5134 10.7664L12.4657 11.448ZM3.72497 8.83204L2.47497 10.082L3.35885 10.966L4.60885 9.71596L3.72497 8.83204Z" fill="#B1B9B7"/>
</svg>
