<svg width="20" height="20" viewBox="0 0 20 20" fill="none" xmlns="http://www.w3.org/2000/svg">
<path d="M2.72891 12.7465C2.02064 11.8263 1.6665 11.3662 1.6665 10C1.6665 8.63387 2.02064 8.17382 2.72891 7.25365C4.14314 5.41634 6.51493 3.33337 9.99984 3.33337C13.4848 3.33337 15.8565 5.41634 17.2708 7.25365C17.979 8.17382 18.3332 8.63387 18.3332 10C18.3332 11.3662 17.979 11.8263 17.2708 12.7465C15.8565 14.5837 13.4848 16.6667 9.99984 16.6667C6.51493 16.6667 4.14314 14.5837 2.72891 12.7465Z" stroke="#B1B9B7" stroke-width="1.25"/>
<path d="M12.5 10C12.5 11.3807 11.3807 12.5 10 12.5C8.61925 12.5 7.5 11.3807 7.5 10C7.5 8.61925 8.61925 7.5 10 7.5C11.3807 7.5 12.5 8.61925 12.5 10Z" stroke="#B1B9B7" stroke-width="1.25"/>
</svg>
