<svg width="32" height="32" viewBox="0 0 32 32" fill="none" xmlns="http://www.w3.org/2000/svg">
<path d="M16.0003 7.33415L15.2798 8.02761C15.4683 8.22348 15.7285 8.33415 16.0003 8.33415C16.2722 8.33415 16.5323 8.22348 16.7209 8.02761L16.0003 7.33415ZM12.5684 24.4292C10.5475 22.8361 8.33775 21.2804 6.58471 19.3064C4.86595 17.3709 3.66699 15.1126 3.66699 12.1828H1.66699C1.66699 15.7368 3.14766 18.4481 5.08929 20.6344C6.99663 22.7821 9.42802 24.5002 11.3302 25.9998L12.5684 24.4292ZM3.66699 12.1828C3.66699 9.31495 5.28749 6.91 7.49947 5.89889C9.64842 4.91661 12.5359 5.17675 15.2798 8.02761L16.7209 6.64068C13.465 3.258 9.68578 2.70049 6.66801 4.07992C3.71327 5.43053 1.66699 8.56668 1.66699 12.1828H3.66699ZM11.3302 25.9998C12.0132 26.5382 12.7464 27.1124 13.4894 27.5465C14.2322 27.9805 15.0798 28.3333 16.0003 28.3333V26.3333C15.5875 26.3333 15.1018 26.1724 14.4985 25.8197C13.8954 25.4673 13.2698 24.9821 12.5684 24.4292L11.3302 25.9998ZM20.6705 25.9998C22.5726 24.5002 25.0041 22.7821 26.9114 20.6344C28.853 18.4481 30.3337 15.7368 30.3337 12.1828H28.3337C28.3337 15.1126 27.1347 17.3709 25.4159 19.3064C23.6629 21.2804 21.4531 22.8361 19.4323 24.4292L20.6705 25.9998ZM30.3337 12.1828C30.3337 8.56668 28.2874 5.43053 25.3326 4.07992C22.3149 2.70049 18.5357 3.258 15.2798 6.64068L16.7209 8.02761C19.4647 5.17675 22.3522 4.91661 24.5011 5.89889C26.7131 6.91 28.3337 9.31495 28.3337 12.1828H30.3337ZM19.4323 24.4292C18.7309 24.9821 18.1053 25.4673 17.5022 25.8197C16.8989 26.1724 16.4131 26.3333 16.0003 26.3333V28.3333C16.9209 28.3333 17.7685 27.9805 18.5113 27.5465C19.2543 27.1124 19.9874 26.5382 20.6705 25.9998L19.4323 24.4292Z" fill="#1CA686"/>
</svg>
