<svg width="32" height="32" viewBox="0 0 32 32" fill="none" xmlns="http://www.w3.org/2000/svg">
<path d="M2.6665 16.2719C2.6665 13.2206 2.6665 11.695 3.35877 10.4303C4.05104 9.1656 5.31577 8.38067 7.84521 6.81083L10.5119 5.15582C13.1857 3.49638 14.5226 2.66666 15.9998 2.66666C17.477 2.66666 18.814 3.49638 21.4878 5.15582L24.1545 6.81082C26.684 8.38067 27.9486 9.1656 28.6409 10.4303C29.3332 11.695 29.3332 13.2206 29.3332 16.2719V18.3C29.3332 23.5011 29.3332 26.1017 27.771 27.7175C26.209 29.3333 23.6948 29.3333 18.6665 29.3333H13.3332C8.30485 29.3333 5.7907 29.3333 4.2286 27.7175C2.6665 26.1017 2.6665 23.5011 2.6665 18.3V16.2719Z" fill="#1CA686"/>
<path d="M20 24H12" stroke="#FBFEFD" stroke-width="2" stroke-linecap="round"/>
</svg>
