<svg width="49" height="49" viewBox="0 0 49 49" fill="none" xmlns="http://www.w3.org/2000/svg">
<path d="M44.5 44.5H4.5" stroke="#1CA686" stroke-width="3" stroke-linecap="round"/>
<path d="M42.5 44.5V12.5C42.5 8.72876 42.5 6.84314 41.3286 5.67158C40.157 4.5 38.2714 4.5 34.5 4.5H30.5C26.7288 4.5 24.8432 4.5 23.6716 5.67158C22.7286 6.61466 22.5446 8.02044 22.5088 10.5" stroke="#1CA686" stroke-width="3"/>
<path d="M30.5 44.5V18.5C30.5 14.7288 30.5 12.8431 29.3284 11.6716C28.1568 10.5 26.2712 10.5 22.5 10.5H14.5C10.7288 10.5 8.84314 10.5 7.67158 11.6716C6.5 12.8431 6.5 14.7288 6.5 18.5V44.5" stroke="#1CA686" stroke-width="3"/>
<path d="M18.5 44.5V38.5" stroke="#1CA686" stroke-width="3" stroke-linecap="round"/>
<path d="M12.5 16.5H24.5" stroke="#1CA686" stroke-width="3" stroke-linecap="round"/>
<path d="M12.5 22.5H24.5" stroke="#1CA686" stroke-width="3" stroke-linecap="round"/>
<path d="M12.5 28.5H24.5" stroke="#1CA686" stroke-width="3" stroke-linecap="round"/>
</svg>
