<svg width="32" height="32" viewBox="0 0 32 32" fill="none" xmlns="http://www.w3.org/2000/svg">
<path d="M24 10.6667C24 12.1394 22.8061 13.3333 21.3333 13.3333C19.8605 13.3333 18.6666 12.1394 18.6666 10.6667C18.6666 9.19391 19.8605 8 21.3333 8C22.8061 8 24 9.19391 24 10.6667Z" fill="#1CA686"/>
<path fill-rule="evenodd" clip-rule="evenodd" d="M16.0765 1.66666H15.9234C12.8456 1.66664 10.4335 1.66663 8.55157 1.91966C6.62525 2.17864 5.10523 2.7191 3.91215 3.91218C2.71907 5.10526 2.17861 6.62528 1.91963 8.5516C1.6666 10.4336 1.66661 12.8456 1.66663 15.9235V16.0765C1.66661 19.1544 1.6666 21.5664 1.91963 23.4484C2.17861 25.3747 2.71907 26.8948 3.91215 28.0879C5.10523 29.2809 6.62525 29.8213 8.55157 30.0804C10.4335 30.3333 12.8456 30.3333 15.9234 30.3333H16.0765C19.1544 30.3333 21.5664 30.3333 23.4484 30.0804C25.3746 29.8213 26.8948 29.2809 28.0878 28.0879C29.2809 26.8948 29.8213 25.3747 30.0804 23.4484C30.3333 21.5664 30.3333 19.1544 30.3333 16.0765V15.9235C30.3333 12.8456 30.3333 10.4336 30.0804 8.5516C29.8213 6.62528 29.2809 5.10526 28.0878 3.91218C26.8948 2.7191 25.3746 2.17864 23.4484 1.91966C21.5664 1.66663 19.1544 1.66664 16.0765 1.66666ZM5.32636 5.32639C6.08589 4.56684 7.11352 4.13099 8.81807 3.90182C10.5514 3.66878 12.829 3.66666 16 3.66666C19.1709 3.66666 21.4485 3.66878 23.1818 3.90182C24.8864 4.13099 25.914 4.56684 26.6736 5.32639C27.4332 6.08592 27.869 7.11355 28.0981 8.8181C28.3312 10.5514 28.3333 12.829 28.3333 16C28.3333 16.6003 28.3332 17.1685 28.3316 17.7072L28.0354 17.6663C24.2437 17.1412 20.774 19.1124 19.0072 22.0835C16.7278 16.3168 10.7045 12.3841 3.97427 13.3505L3.67325 13.3939C3.6884 11.5199 3.7382 10.0349 3.90179 8.8181C4.13096 7.11355 4.56681 6.08592 5.32636 5.32639Z" fill="#1CA686"/>
</svg>
