<svg width="20" height="20" viewBox="0 0 20 20" fill="none" xmlns="http://www.w3.org/2000/svg">
<path fill-rule="evenodd" clip-rule="evenodd" d="M9.99967 1.66669C6.31777 1.66669 3.33301 5.00217 3.33301 8.75002C3.33301 12.4685 5.46077 16.5104 8.78059 18.062C9.55442 18.4238 10.4449 18.4238 11.2188 18.062C14.5386 16.5104 16.6663 12.4685 16.6663 8.75002C16.6663 5.00217 13.6816 1.66669 9.99967 1.66669ZM9.99967 10C10.9202 10 11.6663 9.25385 11.6663 8.33335C11.6663 7.41288 10.9202 6.66669 9.99967 6.66669C9.07917 6.66669 8.33301 7.41288 8.33301 8.33335C8.33301 9.25385 9.07917 10 9.99967 10Z" fill="#DA4444"/>
</svg>
