<svg width="32" height="38" viewBox="0 0 32 38" fill="none" xmlns="http://www.w3.org/2000/svg">
<g filter="url(#filter0_d_164_4689)">
<path d="M5.3335 14.5244C5.3335 8.52786 10.1091 3.66669 16.0002 3.66669C21.8912 3.66669 26.6668 8.52786 26.6668 14.5244C26.6668 20.474 23.2624 27.4166 17.9507 29.8992C16.7126 30.478 15.2878 30.478 14.0496 29.8992C8.73792 27.4166 5.3335 20.474 5.3335 14.5244Z" stroke="#1CA686" stroke-width="2"/>
<path d="M16 18.3333C18.2091 18.3333 20 16.5425 20 14.3333C20 12.1242 18.2091 10.3333 16 10.3333C13.7909 10.3333 12 12.1242 12 14.3333C12 16.5425 13.7909 18.3333 16 18.3333Z" stroke="#1CA686" stroke-width="2"/>
</g>
<defs>
<filter id="filter0_d_164_4689" x="-4" y="-1" width="40" height="40" filterUnits="userSpaceOnUse" color-interpolation-filters="sRGB">
<feFlood flood-opacity="0" result="BackgroundImageFix"/>
<feColorMatrix in="SourceAlpha" type="matrix" values="0 0 0 0 0 0 0 0 0 0 0 0 0 0 0 0 0 0 127 0" result="hardAlpha"/>
<feOffset dy="2"/>
<feGaussianBlur stdDeviation="2"/>
<feComposite in2="hardAlpha" operator="out"/>
<feColorMatrix type="matrix" values="0 0 0 0 0.00784314 0 0 0 0 0.0509804 0 0 0 0 0.0431373 0 0 0 0.2 0"/>
<feBlend mode="normal" in2="BackgroundImageFix" result="effect1_dropShadow_164_4689"/>
<feBlend mode="normal" in="SourceGraphic" in2="effect1_dropShadow_164_4689" result="shape"/>
</filter>
</defs>
</svg>
