<svg width="32" height="32" viewBox="0 0 32 32" fill="none" xmlns="http://www.w3.org/2000/svg">
<path d="M7.29289 16.7071C6.90237 16.3165 6.90237 15.6835 7.29289 15.2929L9.95956 12.6262C10.3501 12.2357 10.9832 12.2357 11.3738 12.6262C11.7643 13.0168 11.7643 13.6499 11.3738 14.0404L10.4142 15H20C20.5523 15 21 15.4477 21 16C21 16.5523 20.5523 17 20 17H10.4142L11.3738 17.9596C11.7643 18.3501 11.7643 18.9832 11.3738 19.3737C10.9832 19.7643 10.3501 19.7643 9.95956 19.3737L7.29289 16.7071Z" fill="#1CA686"/>
<path fill-rule="evenodd" clip-rule="evenodd" d="M18.5937 1.66666H20.0735C21.8969 1.66663 23.3667 1.6666 24.5227 1.82202C25.7228 1.98338 26.7333 2.32856 27.5359 3.13112C28.3384 3.93368 28.6836 4.94418 28.8449 6.14432C29.0004 7.30028 29.0003 8.77004 29.0003 10.5935V21.4065C29.0003 23.23 29.0004 24.6997 28.8449 25.8557C28.6836 27.0559 28.3384 28.0663 27.5359 28.8689C26.7333 29.6715 25.7228 30.0167 24.5227 30.178C23.3667 30.3333 21.8969 30.3333 20.0735 30.3333H18.5937C16.7704 30.3333 15.3005 30.3333 14.1447 30.178C12.9445 30.0167 11.934 29.6715 11.1314 28.8689C10.5995 28.3369 10.2676 27.7125 10.0574 26.9997C8.78891 26.9981 7.73208 26.9841 6.87585 26.8691C5.85725 26.7321 4.97413 26.4357 4.26921 25.7308C3.56428 25.0259 3.26791 24.1428 3.13096 23.1241C2.99995 22.1497 2.99997 20.9153 3 19.4049V12.5951C2.99997 11.0846 2.99995 9.85031 3.13096 8.87584C3.26791 7.85724 3.56428 6.97412 4.26921 6.26919C4.97413 5.56427 5.85725 5.2679 6.87585 5.13095C7.73208 5.01583 8.78891 5.00188 10.0574 5.00022C10.2676 4.28748 10.5995 3.66304 11.1314 3.13112C11.934 2.32856 12.9445 1.98338 14.1447 1.82202C15.3005 1.6666 16.7704 1.66663 18.5937 1.66666ZM9.66929 22.6723C9.67407 23.5316 9.68827 24.3057 9.73713 24.9988C8.62448 24.9945 7.79733 24.9749 7.14235 24.8869C6.34552 24.7797 5.95481 24.588 5.68343 24.3165C5.41204 24.0452 5.22025 23.6545 5.11312 22.8576C5.00213 22.0321 5 20.9329 5 19.3333V12.6667C5 11.067 5.00213 9.96792 5.11312 9.14234C5.22025 8.34551 5.41204 7.95479 5.68343 7.6834C5.95481 7.41202 6.34552 7.22024 7.14235 7.11311C7.79733 7.02506 8.62448 7.00552 9.73713 7.0012C9.68827 7.6943 9.67407 8.46838 9.66929 9.32776C9.66621 9.88003 10.1114 10.3302 10.6637 10.3333C11.216 10.3364 11.6662 9.89116 11.6693 9.3389C11.6774 7.8809 11.7152 6.84746 11.8593 6.06312C11.9981 5.30738 12.221 4.86994 12.5456 4.54534C12.9147 4.17632 13.4328 3.93572 14.4111 3.80419C15.4183 3.66878 16.7531 3.66666 18.6669 3.66666H20.0003C21.9141 3.66666 23.2489 3.66878 24.2561 3.80419C25.2345 3.93572 25.7525 4.17632 26.1216 4.54534C26.4907 4.91435 26.7312 5.43246 26.8628 6.41082C26.9981 7.41795 27.0003 8.75278 27.0003 10.6667V21.3333C27.0003 23.2472 26.9981 24.582 26.8628 25.5892C26.7312 26.5676 26.4907 27.0856 26.1216 27.4547C25.7525 27.8237 25.2345 28.0643 24.2561 28.1959C23.2489 28.3312 21.9141 28.3333 20.0003 28.3333H18.6669C16.7531 28.3333 15.4183 28.3312 14.4111 28.1959C13.4328 28.0643 12.9147 27.8237 12.5456 27.4547C12.221 27.13 11.9981 26.6927 11.8593 25.9369C11.7152 25.1525 11.6774 24.1191 11.6693 22.6611C11.6662 22.1088 11.216 21.6636 10.6637 21.6667C10.1114 21.6697 9.66621 22.12 9.66929 22.6723Z" fill="#1CA686"/>
</svg>
