<svg width="32" height="32" viewBox="0 0 32 32" fill="none" xmlns="http://www.w3.org/2000/svg">
<path d="M14.8612 9.36335C15.3679 8.45445 15.6212 8 16 8C16.3788 8 16.6321 8.45445 17.1388 9.36335L17.2699 9.59849C17.4137 9.85677 17.4857 9.98592 17.598 10.0711C17.7103 10.1563 17.85 10.188 18.1296 10.2512L18.3841 10.3088C19.368 10.5314 19.86 10.6427 19.9771 11.0191C20.0941 11.3955 19.7587 11.7876 19.088 12.572L18.9144 12.7749C18.7239 12.9978 18.6285 13.1092 18.5856 13.2471C18.5428 13.3849 18.5572 13.5336 18.586 13.8311L18.6123 14.1017C18.7136 15.1483 18.7644 15.6715 18.458 15.9041C18.1515 16.1367 17.6909 15.9247 16.7697 15.5005L16.5315 15.3908C16.2696 15.2703 16.1388 15.21 16 15.21C15.8612 15.21 15.7304 15.2703 15.4685 15.3908L15.2303 15.5005C14.3091 15.9247 13.8485 16.1367 13.542 15.9041C13.2356 15.6715 13.2863 15.1483 13.3877 14.1017L13.414 13.8311C13.4428 13.5336 13.4572 13.3849 13.4144 13.2471C13.3715 13.1092 13.2762 12.9978 13.0856 12.7749L12.912 12.572C12.2413 11.7876 11.9059 11.3955 12.023 11.0191C12.14 10.6427 12.6319 10.5314 13.6159 10.3088L13.8704 10.2512C14.15 10.188 14.2897 10.1563 14.402 10.0711C14.5143 9.98592 14.5863 9.85677 14.7301 9.59849L14.8612 9.36335Z" stroke="#1CA686" stroke-width="2"/>
<path d="M25.3334 12C25.3334 17.1547 21.1547 21.3333 16.0001 21.3333C10.8454 21.3333 6.66675 17.1547 6.66675 12C6.66675 6.84534 10.8454 2.66666 16.0001 2.66666C21.1547 2.66666 25.3334 6.84534 25.3334 12Z" stroke="#1CA686" stroke-width="2"/>
<path d="M9.80148 20L8.95232 23.0973C8.11453 26.1531 7.69564 27.6809 8.25463 28.5175C8.45053 28.8105 8.71333 29.0459 9.01829 29.2011C9.88847 29.6441 11.232 28.9441 13.9191 27.544C14.8132 27.0781 15.2603 26.8452 15.7352 26.7945C15.9113 26.7757 16.0887 26.7757 16.2648 26.7945C16.7397 26.8452 17.1868 27.0781 18.0809 27.544C20.768 28.9441 22.1116 29.6441 22.9817 29.2011C23.2867 29.0459 23.5495 28.8105 23.7453 28.5175C24.3044 27.6809 23.8855 26.1531 23.0477 23.0973L22.1985 20" stroke="#1CA686" stroke-width="2" stroke-linecap="round"/>
</svg>
