<svg width="32" height="32" viewBox="0 0 32 32" fill="none" xmlns="http://www.w3.org/2000/svg">
<path d="M15.9998 1.67856C19.1114 1.67856 21.5462 1.67663 23.4421 1.93149C25.3666 2.19026 26.8859 2.7298 28.0779 3.92172L28.2937 4.14926C29.3362 5.30535 29.8255 6.75319 30.0681 8.55747C30.323 10.4534 30.321 12.888 30.321 15.9998C30.321 19.1116 30.323 21.5463 30.0681 23.4422C29.8255 25.2465 29.3362 26.6944 28.2937 27.8504L28.0779 28.078C26.8859 29.2699 25.3666 29.8094 23.4421 30.0682C21.5462 30.3231 19.1114 30.3211 15.9998 30.3211C12.8881 30.3211 10.4533 30.3231 8.55737 30.0682C6.75323 29.8256 5.3052 29.3362 4.14917 28.2938L3.92163 28.078C2.72971 26.886 2.19017 25.3667 1.9314 23.4422C1.6765 21.5463 1.67847 19.1116 1.67847 15.9998C1.67847 12.888 1.67649 10.4534 1.9314 8.55747C2.19017 6.63293 2.72969 5.11374 3.92163 3.92172L4.14917 3.7059C5.30521 2.66348 6.7532 2.17411 8.55737 1.93149C10.4533 1.67659 12.8881 1.67856 15.9998 1.67856ZM12.0037 15.0008C11.4518 15.0008 11.0046 15.448 11.0046 15.9998C11.0046 16.5517 11.4518 16.9989 12.0037 16.9989H19.9968L20.0994 16.994C20.603 16.9426 20.9958 16.517 20.9958 15.9998C20.9958 15.4827 20.603 15.0571 20.0994 15.0057L19.9968 15.0008H12.0037Z" fill="#1CA686"/>
</svg>
