<svg width="32" height="32" viewBox="0 0 32 32" fill="none" xmlns="http://www.w3.org/2000/svg">
<path d="M24.9988 12.9461V12.0066C24.9988 6.8483 20.9699 2.66666 16 2.66666C11.0301 2.66666 7.00116 6.8483 7.00116 12.0066V12.9461C7.00116 14.0736 6.67963 15.1757 6.07707 16.1139L4.60048 18.4127C3.25176 20.5124 4.2814 23.3665 6.62715 24.0305C12.7637 25.7676 19.2364 25.7676 25.3728 24.0305C27.7187 23.3665 28.7483 20.5124 27.3995 18.4127L25.9229 16.1139C25.3204 15.1757 24.9988 14.0736 24.9988 12.9461Z" stroke="#1CA686" stroke-width="2"/>
<path d="M10 25.3333C10.8734 27.6637 13.2299 29.3333 16 29.3333C18.77 29.3333 21.1267 27.6637 22 25.3333" stroke="#1CA686" stroke-width="2" stroke-linecap="round"/>
</svg>
