<svg width="20" height="20" viewBox="0 0 20 20" fill="none" xmlns="http://www.w3.org/2000/svg">
<path d="M11.9845 9.18933C12.4809 9.01592 13.0152 8.92158 13.5717 8.92158C14.1173 8.92158 14.6414 9.01225 15.1296 9.17917M15.1296 9.17917C16.9945 9.81683 18.3337 11.5676 18.3337 13.6274C18.3337 16.2264 16.2017 18.3333 13.5717 18.3333H5.23842C3.26598 18.3333 1.66699 16.7532 1.66699 14.8039C1.66699 12.8547 3.26598 11.2745 5.23842 11.2745C5.47518 11.2745 5.70657 11.2972 5.93046 11.3407M15.1296 9.17917C14.8646 6.82809 12.8469 5 10.3972 5C7.76722 5 5.63524 7.10689 5.63524 9.70592C5.63524 10.2807 5.73954 10.8315 5.93046 11.3407M5.93046 11.3407C6.40081 11.432 6.83806 11.6145 7.22255 11.8688" stroke="#1CA686" stroke-width="1.25" stroke-linecap="round"/>
<path d="M6.66667 3.75C5.05583 3.75 3.75 5.05583 3.75 6.66667C3.75 7.83017 4.43127 8.83458 5.41667 9.30267M6.66667 3.75C7.28635 3.75 7.8609 3.94326 8.33333 4.27278M6.66667 3.75C6.04698 3.75 5.47243 3.94326 5 4.27278M6.66667 3.75C7.46137 3.75 8.18185 4.06784 8.70792 4.58333M6.66667 3.75C5.87196 3.75 5.15148 4.06784 4.62542 4.58333M6.66667 3.75C7.72763 3.75 8.65633 4.31649 9.16667 5.16351" stroke="#1CA686" stroke-width="1.25"/>
<path d="M6.25 1.66663V2.08329" stroke="#1CA686" stroke-width="1.25" stroke-linecap="round"/>
<path d="M2.08366 6.25H1.66699" stroke="#1CA686" stroke-width="1.25" stroke-linecap="round"/>
<path d="M9.49063 3.0094L9.31055 3.18945" stroke="#1CA686" stroke-width="1.25" stroke-linecap="round"/>
<path d="M3.18884 9.31079L3.00879 9.49079" stroke="#1CA686" stroke-width="1.25" stroke-linecap="round"/>
<path d="M3.18884 3.18933L3.00879 3.00928" stroke="#1CA686" stroke-width="1.25" stroke-linecap="round"/>
</svg>
