<svg width="16" height="17" viewBox="0 0 16 17" fill="none" xmlns="http://www.w3.org/2000/svg">
<path d="M8 1.83301C11.6818 1.83305 14.667 4.81815 14.667 8.5C14.667 12.1819 11.6819 15.1669 8 15.167C4.3181 15.167 1.33301 12.1819 1.33301 8.5C1.33303 4.81812 4.31812 1.83301 8 1.83301ZM8 5.33301C7.72398 5.33301 7.5002 5.55703 7.5 5.83301V8.5C7.50009 8.6324 7.55291 8.75984 7.64648 8.85352L9.31348 10.5195L9.3916 10.584C9.58567 10.7121 9.84967 10.6904 10.0205 10.5195C10.1909 10.3487 10.2119 10.0855 10.084 9.8916L10.0205 9.8125L8.5 8.29199V5.83301C8.4998 5.55703 8.27602 5.33301 8 5.33301Z" fill="#D1A347"/>
</svg>
