<svg width="32" height="32" viewBox="0 0 32 32" fill="none" xmlns="http://www.w3.org/2000/svg">
<path d="M15.9998 1.67856C19.1113 1.67856 21.5462 1.67664 23.4421 1.93149C25.3666 2.19026 26.8859 2.72982 28.0779 3.92172L28.2937 4.14926C29.3362 5.30535 29.8255 6.7532 30.0681 8.55747C30.323 10.4534 30.321 12.888 30.321 15.9998C30.321 19.1116 30.323 21.5463 30.0681 23.4422C29.8255 25.2465 29.3362 26.6944 28.2937 27.8504L28.0779 28.078C26.8859 29.2699 25.3666 29.8094 23.4421 30.0682C21.5462 30.3231 19.1113 30.3211 15.9998 30.3211C12.8881 30.3211 10.4533 30.3231 8.55737 30.0682C6.75326 29.8256 5.30518 29.3362 4.14917 28.2938L3.92163 28.078C2.72973 26.886 2.19017 25.3667 1.9314 23.4422C1.6765 21.5463 1.67847 19.1116 1.67847 15.9998C1.67847 12.888 1.6765 10.4534 1.9314 8.55747C2.19016 6.63295 2.72972 5.11374 3.92163 3.92172L4.14917 3.7059C5.30519 2.66349 6.75324 2.17411 8.55737 1.93149C10.4533 1.67659 12.8881 1.67856 15.9998 1.67856ZM15.9998 11.0038C15.4481 11.0038 15.0009 11.4511 15.0007 12.0028V15.0008H12.0037C11.4518 15.0008 11.0046 15.448 11.0046 15.9998C11.0047 16.5516 11.4519 16.9989 12.0037 16.9989H15.0007V19.9959L15.0056 20.0985C15.0569 20.6022 15.4826 20.9949 15.9998 20.995C16.517 20.995 16.9426 20.6022 16.9939 20.0985L16.9988 19.9959V16.9989H19.9968L20.0994 16.994C20.6029 16.9426 20.9958 16.5169 20.9958 15.9998C20.9958 15.4827 20.6029 15.0571 20.0994 15.0057L19.9968 15.0008H16.9988V12.0028C16.9986 11.4511 16.5515 11.0038 15.9998 11.0038Z" fill="#1CA686"/>
</svg>
