<svg width="32" height="32" viewBox="0 0 32 32" fill="none" xmlns="http://www.w3.org/2000/svg">
<path d="M19.1468 5.43839L20.3825 4.20255C22.4301 2.15494 25.75 2.15494 27.7976 4.20255C29.8452 6.25015 29.8452 9.56998 27.7976 11.6176L26.5617 12.8534M19.1468 5.43839C19.1468 5.43839 19.3012 8.06455 21.6184 10.3817C23.9356 12.6989 26.5617 12.8534 26.5617 12.8534M19.1468 5.43839L7.78505 16.8C7.01551 17.5696 6.63073 17.9543 6.29982 18.3786C5.90946 18.8791 5.57481 19.4206 5.30175 19.9935C5.07027 20.4792 4.8982 20.9955 4.55404 22.0279L3.09571 26.403M26.5617 12.8534L15.2001 24.2151C14.4305 24.9846 14.0458 25.3694 13.6216 25.7003C13.1211 26.0907 12.5795 26.4254 12.0066 26.6984C11.5209 26.9299 11.0047 27.1019 9.9722 27.446L5.59718 28.9044M3.09571 26.403L2.73923 27.4724C2.56987 27.9804 2.70209 28.5406 3.0808 28.9194C3.45951 29.298 4.01966 29.4303 4.52774 29.261L5.59718 28.9044M3.09571 26.403L5.59718 28.9044" stroke="#1CA686" stroke-width="2"/>
</svg>
