<svg width="32" height="32" viewBox="0 0 32 32" fill="none" xmlns="http://www.w3.org/2000/svg">
<path d="M4 13.8889C4 9.62542 4 7.4937 4.50336 6.77654C5.00671 6.05938 7.01109 5.37327 11.0199 4.00104L11.7836 3.73962C13.8733 3.02431 14.9181 2.66666 16 2.66666C17.0819 2.66666 18.1267 3.02431 20.2164 3.73962L20.9801 4.00104C24.9889 5.37327 26.9933 6.05938 27.4967 6.77654C28 7.4937 28 9.62542 28 13.8889C28 14.5328 28 15.2312 28 15.9885C28 23.5059 22.348 27.154 18.8019 28.7031C17.84 29.1232 17.3591 29.3333 16 29.3333C14.6409 29.3333 14.16 29.1232 13.1981 28.7031C9.65195 27.154 4 23.5059 4 15.9885C4 15.2312 4 14.5328 4 13.8889Z" stroke="#1CA686" stroke-width="2"/>
<path d="M16 10.6667V16" stroke="#1CA686" stroke-width="2" stroke-linecap="round"/>
<path d="M16 21.3333C16.7363 21.3333 17.3333 20.7364 17.3333 20C17.3333 19.2636 16.7363 18.6667 16 18.6667C15.2636 18.6667 14.6666 19.2636 14.6666 20C14.6666 20.7364 15.2636 21.3333 16 21.3333Z" fill="#1CA686"/>
</svg>
