<svg width="20" height="20" viewBox="0 0 20 20" fill="none" xmlns="http://www.w3.org/2000/svg">
<path d="M11.9845 6.68934C12.4809 6.51593 13.0152 6.42157 13.5717 6.42157C14.1173 6.42157 14.6414 6.51223 15.1296 6.67915M15.1296 6.67915C14.8646 4.32809 12.8469 2.5 10.3972 2.5C7.76722 2.5 5.63524 4.60689 5.63524 7.20588C5.63524 7.78073 5.73954 8.3315 5.93046 8.84075M15.1296 6.67915C16.9945 7.31687 18.3337 9.06758 18.3337 11.1274C18.3337 12.7449 17.5079 14.1717 16.2503 15.0188M5.93046 8.84075C5.70657 8.79725 5.47518 8.7745 5.23842 8.7745C3.26598 8.7745 1.66699 10.3547 1.66699 12.3039C1.66699 13.3955 2.16848 14.3714 2.95619 15.0188M5.93046 8.84075C6.40082 8.932 6.83806 9.1145 7.22255 9.36883" stroke="#1CA686" stroke-width="1.25" stroke-linecap="round"/>
<path d="M14.1667 15.8334L12.5 17.5" stroke="#1CA686" stroke-width="1.25" stroke-linecap="round"/>
<path d="M13.3337 12.9166L11.667 14.5833" stroke="#1CA686" stroke-width="1.25" stroke-linecap="round"/>
<path d="M9.99967 16.6666L8.33301 18.3333" stroke="#1CA686" stroke-width="1.25" stroke-linecap="round"/>
<path d="M9.58366 12.9166L7.91699 14.5833" stroke="#1CA686" stroke-width="1.25" stroke-linecap="round"/>
<path d="M6.24967 15.8334L4.58301 17.5" stroke="#1CA686" stroke-width="1.25" stroke-linecap="round"/>
</svg>
