<svg width="32" height="32" viewBox="0 0 32 32" fill="none" xmlns="http://www.w3.org/2000/svg">
<path d="M25.1201 2V28.7764L16.0293 23.9492L15.5596 23.7002L15.0908 23.9492L6 28.7764V2H25.1201Z" stroke="#1CA686" stroke-width="2"/>
<path d="M20.157 13.232H18.239L17.693 14.758H19.765L19.345 15.99H17.259L16.293 18.72H15.019L15.971 15.99H14.333L13.367 18.72H12.093L13.073 15.99H11.043L11.463 14.758H13.507L14.039 13.232H11.855L12.275 11.986H14.487L15.467 9.228H16.741L15.761 11.986H17.399L18.379 9.228H19.667L18.673 11.986H20.591L20.157 13.232ZM15.313 13.232L14.781 14.758H16.419L16.965 13.232H15.313Z" fill="#1CA686"/>
</svg>
