<svg width="32" height="32" viewBox="0 0 32 32" fill="none" xmlns="http://www.w3.org/2000/svg">
<path d="M12.4963 7.88726C14.0552 5.09064 14.8347 3.69232 16.0001 3.69232C17.1655 3.69232 17.945 5.09062 19.5039 7.88724L19.9072 8.61076C20.3503 9.40547 20.5717 9.80284 20.9171 10.065C21.2625 10.3272 21.6925 10.4245 22.5528 10.6192L23.3361 10.7964C26.3633 11.4813 27.877 11.8238 28.2372 12.9818C28.5973 14.1398 27.5654 15.3466 25.5015 17.7599L24.9676 18.3843C24.3811 19.0701 24.0879 19.413 23.9559 19.8372C23.8241 20.2614 23.8684 20.7189 23.957 21.634L24.0378 22.467C24.3498 25.6869 24.5058 27.2969 23.5631 28.0126C22.6202 28.7283 21.2029 28.0757 18.3685 26.7707L17.6352 26.433C16.8298 26.0622 16.427 25.8767 16.0001 25.8767C15.5731 25.8767 15.1704 26.0622 14.365 26.433L13.6317 26.7707C10.7972 28.0757 9.38 28.7283 8.43719 28.0126C7.49438 27.2969 7.6504 25.6869 7.96242 22.467L8.04313 21.634C8.13181 20.7189 8.17614 20.2614 8.04422 19.8372C7.9123 19.413 7.61907 19.0701 7.0326 18.3843L6.49867 17.7599C4.43485 15.3466 3.40293 14.1398 3.76306 12.9818C4.12318 11.8238 5.63683 11.4813 8.66413 10.7964L9.44733 10.6192C10.3076 10.4245 10.7377 10.3272 11.0831 10.065C11.4285 9.80284 11.65 9.40549 12.093 8.61076L12.4963 7.88726Z" stroke="#1CA686" stroke-width="2"/>
</svg>
