<svg width="12" height="12" viewBox="0 0 12 12" fill="none" xmlns="http://www.w3.org/2000/svg">
<path d="M4.68622 2.95774C5.27082 1.90901 5.56312 1.38464 6.00015 1.38464C6.43718 1.38464 6.72947 1.90901 7.31405 2.95774L7.4653 3.22906C7.63145 3.52707 7.71448 3.67608 7.84404 3.7744C7.97354 3.87272 8.13481 3.90921 8.45742 3.9822L8.75114 4.04865C9.88634 4.30551 10.454 4.43394 10.589 4.86821C10.7241 5.30246 10.3371 5.75499 9.56317 6.65998L9.36296 6.89411C9.14304 7.15128 9.03305 7.27987 8.98357 7.43896C8.93414 7.59805 8.95076 7.76961 8.98399 8.11276L9.01427 8.42513C9.13127 9.6326 9.18979 10.2363 8.83625 10.5047C8.48267 10.7731 7.95121 10.5284 6.88828 10.039L6.6133 9.91239C6.31127 9.77333 6.16025 9.70377 6.00015 9.70377C5.84004 9.70377 5.68902 9.77333 5.38699 9.91239L5.11201 10.039C4.04908 10.5284 3.51762 10.7731 3.16406 10.5047C2.81051 10.2363 2.86902 9.6326 2.98603 8.42513L3.01629 8.11276C3.04955 7.76961 3.06617 7.59805 3.0167 7.43896C2.96723 7.27987 2.85727 7.15128 2.63734 6.89411L2.43712 6.65998C1.66319 5.75499 1.27622 5.30246 1.41127 4.86821C1.54631 4.43394 2.11393 4.30551 3.24917 4.04865L3.54287 3.9822C3.86546 3.90921 4.02676 3.87272 4.15627 3.7744C4.28579 3.67608 4.36885 3.52708 4.53498 3.22906L4.68622 2.95774Z" fill="#D1A347"/>
</svg>
