<svg width="16" height="17" viewBox="0 0 16 17" fill="none" xmlns="http://www.w3.org/2000/svg">
<path d="M8 1.83301C11.6818 1.83305 14.667 4.81815 14.667 8.5C14.667 12.1819 11.6819 15.1669 8 15.167C4.3181 15.167 1.33301 12.1819 1.33301 8.5C1.33303 4.81812 4.31812 1.83301 8 1.83301ZM10.0195 6.47949C9.82425 6.28473 9.50761 6.28445 9.3125 6.47949L7.99902 7.79199L6.68652 6.47949L6.6084 6.41504C6.41437 6.28714 6.15026 6.30878 5.97949 6.47949C5.80874 6.65025 5.78715 6.91435 5.91504 7.1084L5.97949 7.18652L7.29199 8.49902L5.97949 9.8125C5.78439 10.0076 5.7847 10.3242 5.97949 10.5195C6.17475 10.7148 6.49126 10.7148 6.68652 10.5195L7.99902 9.20605L9.3125 10.5195L9.3916 10.584C9.58565 10.7119 9.84875 10.6903 10.0195 10.5195C10.1903 10.3488 10.2119 10.0856 10.084 9.8916L10.0195 9.8125L8.70605 8.49902L10.0195 7.18652C10.2147 6.99126 10.2148 6.67473 10.0195 6.47949Z" fill="#C02626"/>
</svg>
