<svg width="32" height="32" viewBox="0 0 32 32" fill="none" xmlns="http://www.w3.org/2000/svg">
<path d="M6.66663 19.4455H7.66663C7.66663 19.048 7.43123 18.6882 7.067 18.5291L6.66663 19.4455ZM25.3333 19.4455L24.9329 18.5291C24.5686 18.6882 24.3333 19.048 24.3333 19.4455H25.3333ZM21 9.33351C21 9.88579 21.4477 10.3335 22 10.3335C22.5522 10.3335 23 9.88579 23 9.33351H21ZM8.99996 9.33351C8.99996 9.88579 9.44768 10.3335 9.99996 10.3335C10.5522 10.3335 11 9.88579 11 9.33351H8.99996ZM9.33329 5.66684C5.09911 5.66684 1.66663 9.09932 1.66663 13.3335H3.66663C3.66663 10.2039 6.20368 7.66684 9.33329 7.66684V5.66684ZM22.6666 7.66684C25.7962 7.66684 28.3333 10.2039 28.3333 13.3335H30.3333C30.3333 9.09932 26.9008 5.66684 22.6666 5.66684V7.66684ZM20 28.3335H12V30.3335H20V28.3335ZM12 28.3335C10.7146 28.3335 9.8512 28.3314 9.20715 28.2448C8.59187 28.162 8.32853 28.0191 8.15479 27.8454L6.74057 29.2595C7.34787 29.8668 8.1036 30.1144 8.94065 30.227C9.74895 30.3356 10.7711 30.3335 12 30.3335V28.3335ZM5.66663 24.0002C5.66663 25.229 5.66451 26.2512 5.77317 27.0595C5.88572 27.8966 6.13328 28.6523 6.74057 29.2595L8.15479 27.8454C7.98103 27.6716 7.83807 27.4083 7.75535 26.793C7.66875 26.149 7.66663 25.2855 7.66663 24.0002H5.66663ZM24.3333 24.0002C24.3333 25.2855 24.3312 26.149 24.2446 26.793C24.1618 27.4083 24.0189 27.6716 23.8452 27.8454L25.2593 29.2595C25.8666 28.6523 26.1142 27.8966 26.2268 27.0595C26.3354 26.2512 26.3333 25.229 26.3333 24.0002H24.3333ZM20 30.3335C21.2288 30.3335 22.251 30.3356 23.0593 30.227C23.8964 30.1144 24.6521 29.8668 25.2593 29.2595L23.8452 27.8454C23.6714 28.0191 23.4081 28.162 22.7928 28.2448C22.1488 28.3314 21.2853 28.3335 20 28.3335V30.3335ZM9.33329 7.66684C9.61823 7.66684 9.89764 7.68779 10.1702 7.72808L10.4627 5.74957C10.0936 5.69503 9.71641 5.66684 9.33329 5.66684V7.66684ZM16 1.66684C12.9193 1.66684 10.3059 3.65631 9.36941 6.41767L11.2635 7.05999C11.933 5.08553 13.8021 3.66684 16 3.66684V1.66684ZM9.36941 6.41767C9.12959 7.12487 8.99996 7.88175 8.99996 8.66684H11C11 8.10304 11.0929 7.563 11.2635 7.05999L9.36941 6.41767ZM22.6666 5.66684C22.2836 5.66684 21.9064 5.69503 21.5373 5.74957L21.8297 7.72808C22.1022 7.68779 22.3817 7.66684 22.6666 7.66684V5.66684ZM16 3.66684C18.1978 3.66684 20.0669 5.08553 20.7365 7.05999L22.6305 6.41767C21.6941 3.65631 19.0806 1.66684 16 1.66684V3.66684ZM20.7365 7.05999C20.907 7.563 21 8.10304 21 8.66684H23C23 7.88175 22.8704 7.12487 22.6305 6.41767L20.7365 7.05999ZM7.66663 24.0002V19.4455H5.66663V24.0002H7.66663ZM7.067 18.5291C5.06355 17.6538 3.66663 15.6556 3.66663 13.3335H1.66663C1.66663 16.4788 3.56063 19.1796 6.26625 20.3618L7.067 18.5291ZM24.3333 19.4455V24.0002H26.3333V19.4455H24.3333ZM28.3333 13.3335C28.3333 15.6556 26.9364 17.6538 24.9329 18.5291L25.7337 20.3618C28.4393 19.1796 30.3333 16.4788 30.3333 13.3335H28.3333ZM21 8.66684V9.33351H23V8.66684H21ZM8.99996 8.66684V9.33351H11V8.66684H8.99996Z" fill="#1CA686"/>
<path d="M12 24H20" stroke="#1CA686" stroke-width="2" stroke-linecap="round" stroke-linejoin="round"/>
</svg>
