<svg width="32" height="32" viewBox="0 0 32 32" fill="none" xmlns="http://www.w3.org/2000/svg">
<path d="M6.30399 21.5159C4.24329 19.4552 3.21293 18.4248 2.82954 17.088C2.44614 15.7512 2.77379 14.3314 3.4291 11.4917L3.80701 9.85412C4.35831 7.4651 4.63398 6.27058 5.45194 5.45261C6.26991 4.63465 7.46443 4.35898 9.85345 3.80768L11.491 3.42977C14.3307 2.77446 15.7506 2.44681 17.0874 2.83021C18.4242 3.2136 19.4546 4.24396 21.5152 6.30466L23.9547 8.74418C27.54 12.3295 29.3327 14.1222 29.3327 16.3498C29.3327 18.5774 27.54 20.37 23.9547 23.9554C20.3694 27.5407 18.5767 29.3334 16.3491 29.3334C14.1215 29.3334 12.3288 27.5407 8.74351 23.9554L6.30399 21.5159Z" stroke="#1CA686" stroke-width="2"/>
<path d="M13.3619 13.7242C14.4033 12.6828 14.4033 10.9943 13.3619 9.95294C12.3205 8.91155 10.6321 8.91155 9.5907 9.95294C8.5493 10.9943 8.5493 12.6828 9.5907 13.7242C10.6321 14.7656 12.3205 14.7656 13.3619 13.7242Z" stroke="#1CA686" stroke-width="2"/>
<path d="M15.3887 24.6667L24.6941 15.3611" stroke="#1CA686" stroke-width="2" stroke-linecap="round"/>
</svg>
