<svg width="12" height="13" viewBox="0 0 12 13" fill="none" xmlns="http://www.w3.org/2000/svg">
<path d="M6 11.5C7.5188 11.5 8.75 10.2688 8.75 8.75C8.75 7.8818 8.3477 7.1076 7.7193 6.6036C7.58745 6.49785 7.5 6.34285 7.5 6.17385V3C7.5 2.17157 6.82845 1.5 6 1.5C5.17155 1.5 4.5 2.17157 4.5 3V6.17385C4.5 6.34285 4.41252 6.49785 4.2807 6.6036C3.65232 7.1076 3.25 7.8818 3.25 8.75C3.25 10.2688 4.48122 11.5 6 11.5Z" stroke="#020D0B" stroke-width="0.75"/>
<path d="M7.25 8.75C7.25 9.44035 6.69035 10 6 10C5.30965 10 4.75 9.44035 4.75 8.75C4.75 8.05965 5.30965 7.5 6 7.5C6.69035 7.5 7.25 8.05965 7.25 8.75Z" stroke="#020D0B" stroke-width="0.75"/>
<path d="M6 7.5V3" stroke="#020D0B" stroke-width="0.75" stroke-linecap="round"/>
</svg>
