<svg width="32" height="32" viewBox="0 0 32 32" fill="none" xmlns="http://www.w3.org/2000/svg">
<path fill-rule="evenodd" clip-rule="evenodd" d="M16 11C13.2386 11 11 13.2386 11 16C11 18.7615 13.2386 21 16 21C18.7615 21 21 18.7615 21 16C21 13.2386 18.7615 11 16 11ZM13 16C13 14.3432 14.3432 13 16 13C17.6568 13 19 14.3432 19 16C19 17.6568 17.6568 19 16 19C14.3432 19 13 17.6568 13 16Z" fill="#1CA686"/>
<path fill-rule="evenodd" clip-rule="evenodd" d="M16 1.66666C15.0605 1.66666 14.2025 1.92478 13.2648 2.36048C12.3574 2.78207 11.3072 3.40404 9.99276 4.18246L8.98864 4.7771C7.67377 5.55575 6.62361 6.17764 5.81435 6.77258C4.97753 7.38776 4.33569 8.01747 3.87112 8.84282C3.40731 9.66684 3.19788 10.5479 3.09741 11.5934C2.99999 12.6072 2.99999 13.8487 3 15.408V16.592C2.99999 18.1513 2.99999 19.3928 3.09741 20.4065C3.19788 21.4521 3.40731 22.3332 3.87112 23.1572C4.33569 23.9825 4.97753 24.6123 5.81435 25.2275C6.62361 25.8224 7.67377 26.4443 8.98864 27.2229L9.9928 27.8176C11.3072 28.596 12.3575 29.218 13.2648 29.6395C14.2025 30.0752 15.0605 30.3333 16 30.3333C16.9395 30.3333 17.7975 30.0752 18.7352 29.6395C19.6425 29.2179 20.6928 28.596 22.0072 27.8176L23.0113 27.2229C24.3261 26.4443 25.3764 25.8224 26.1856 25.2275C27.0225 24.6123 27.6643 23.9825 28.1289 23.1572C28.5927 22.3332 28.8021 21.4521 28.9025 20.4065C29 19.3928 29 18.1513 29 16.5921V15.408C29 13.8488 29 12.6072 28.9025 11.5934C28.8021 10.5479 28.5927 9.66684 28.1289 8.84282C27.6643 8.01747 27.0225 7.38776 26.1856 6.77258C25.3764 6.17764 24.3263 5.55576 23.0113 4.77712L22.0072 4.18246C20.6928 3.40403 19.6425 2.78207 18.7352 2.36048C17.7975 1.92478 16.9395 1.66666 16 1.66666ZM10.967 5.92991C12.3365 5.11888 13.3014 4.5488 14.1076 4.17424C14.8936 3.809 15.4543 3.66666 16 3.66666C16.5457 3.66666 17.1064 3.809 17.8924 4.17424C18.6985 4.5488 19.6635 5.11888 21.0331 5.92991L21.9479 6.47171C23.3172 7.28262 24.2812 7.85486 25.0011 8.38399C25.7023 8.89955 26.108 9.32994 26.386 9.82383C26.6648 10.319 26.8265 10.8985 26.9117 11.7847C26.9989 12.6918 27 13.8373 27 15.4583V16.5417C27 18.1627 26.9989 19.3083 26.9117 20.2152C26.8265 21.1015 26.6648 21.6809 26.386 22.1761C26.108 22.67 25.7023 23.1004 25.0011 23.616C24.2812 24.1452 23.3172 24.7173 21.9479 25.5283L21.0331 26.0701C19.6635 26.8811 18.6985 27.4512 17.8924 27.8257C17.1064 28.1909 16.5457 28.3333 16 28.3333C15.4543 28.3333 14.8936 28.1909 14.1076 27.8257C13.3014 27.4512 12.3365 26.8811 10.967 26.0701L10.0521 25.5283C8.6828 24.7173 7.71875 24.1452 6.99897 23.616C6.29768 23.1004 5.892 22.67 5.614 22.1761C5.33527 21.6809 5.1734 21.1015 5.08824 20.2152C5.00107 19.3083 5 18.1627 5 16.5417V15.4583C5 13.8373 5.00107 12.6918 5.08824 11.7847C5.1734 10.8985 5.33527 10.319 5.614 9.82383C5.892 9.32994 6.29768 8.89955 6.99897 8.38399C7.71875 7.85486 8.6828 7.28262 10.0521 6.47171L10.967 5.92991Z" fill="#1CA686"/>
</svg>
