<svg width="20" height="20" viewBox="0 0 20 20" fill="none" xmlns="http://www.w3.org/2000/svg">
<path d="M5.23842 15.8333C3.26598 15.8333 1.66699 14.2532 1.66699 12.3039C1.66699 10.3547 3.26598 8.7745 5.23842 8.7745C5.47518 8.7745 5.70657 8.79725 5.93046 8.84075M5.93046 8.84075C5.73954 8.3315 5.63524 7.78072 5.63524 7.20588C5.63524 4.60689 7.76722 2.5 10.3972 2.5C12.8469 2.5 14.8646 4.32809 15.1296 6.67915M5.93046 8.84075C6.40082 8.932 6.83806 9.1145 7.22255 9.36883M11.9845 6.68934C12.4809 6.51592 13.0152 6.42157 13.5717 6.42157C14.1173 6.42157 14.6414 6.51223 15.1296 6.67915M15.1296 6.67915C16.9945 7.31687 18.3337 9.06758 18.3337 11.1274C18.3337 13.3832 16.7275 15.2684 14.5837 15.7268" stroke="#1CA686" stroke-width="1.25" stroke-linecap="round"/>
<path d="M10.0005 12.5V18.3333" stroke="#1CA686" stroke-width="1.25" stroke-linecap="round"/>
<path d="M7.50244 13.9429L12.5013 16.829" stroke="#1CA686" stroke-width="1.25" stroke-linecap="round"/>
<path d="M12.4989 13.9429L7.5 16.829" stroke="#1CA686" stroke-width="1.25" stroke-linecap="round"/>
</svg>
