<svg width="14" height="14" viewBox="0 0 14 14" fill="none" xmlns="http://www.w3.org/2000/svg">
<path d="M5.807 1.31403C6.17269 0.144916 7.82731 0.144916 8.193 1.31403L8.90912 3.60346C9.07381 4.13 9.56422 4.4863 10.1159 4.48023L12.5145 4.45382C13.7394 4.44034 14.2508 6.01397 13.2519 6.72304L11.2958 8.11158C10.8459 8.43093 10.6586 9.00743 10.8348 9.53021L11.6012 11.8033C11.9925 12.9641 10.6539 13.9367 9.67086 13.2058L7.74582 11.7745C7.30309 11.4453 6.69691 11.4453 6.25418 11.7745L4.32914 13.2058C3.3461 13.9367 2.00748 12.9641 2.39882 11.8033L3.16517 9.53021C3.34141 9.00743 3.1541 8.43093 2.70422 8.11158L0.748139 6.72304C-0.250753 6.01397 0.260552 4.44034 1.48545 4.45382L3.88412 4.48023C4.43578 4.4863 4.92619 4.13 5.09088 3.60346L5.807 1.31403Z" fill="#D1D6D5"/>
</svg>
