<svg width="32" height="32" viewBox="0 0 32 32" fill="none" xmlns="http://www.w3.org/2000/svg">
<path d="M23.9957 18.3893L6.82136 29.1909C6.64626 29.301 6.4321 29.3301 6.23396 29.2707C6.10811 29.2329 5.97431 29.2305 5.84718 29.2636L5.59343 29.3298C5.5109 29.3514 5.42307 29.3311 5.35832 29.2756C5.31114 29.2352 5.25105 29.2129 5.18892 29.2129H5.01793C4.7484 29.2129 4.50127 29.0629 4.37691 28.8238L4.34093 28.7546C4.28209 28.6414 4.19856 28.5429 4.09652 28.4664L3.24308 27.8263L2.52587 27.293C2.36318 27.172 2.14564 27.1548 1.96589 27.2485L1.90599 27.2798C1.7672 27.3522 1.59958 27.341 1.47168 27.2507C1.33756 27.156 1.27129 26.9916 1.30229 26.8304L1.46716 25.9731C1.49035 25.8525 1.46307 25.7276 1.39168 25.6276C1.30408 25.505 1.28392 25.3466 1.33802 25.2059L1.37841 25.1009C1.45447 24.9032 1.40693 24.6792 1.25712 24.5294L1.1389 24.4111C1.11406 24.3863 1.1001 24.3526 1.1001 24.3175C1.1001 24.26 1.13714 24.2091 1.19181 24.1914L1.71799 24.0212C1.87448 23.9705 2.01393 23.8777 2.12097 23.7528L2.25983 23.5908L2.7206 23.1597C2.90648 22.9858 2.94181 22.7041 2.80459 22.4897C2.7017 22.3289 2.69361 22.1251 2.78343 21.9567L2.86342 21.8067C2.97296 21.6013 3.18678 21.473 3.41956 21.473H4.22199C4.24152 21.473 4.26088 21.4694 4.27911 21.4624L4.29789 21.4552C4.41315 21.4109 4.42769 21.2537 4.32252 21.1889C4.27841 21.1618 4.25154 21.1137 4.25154 21.0619V20.9674C4.25154 20.8584 4.30732 20.7569 4.39939 20.6985L5.09021 20.2605C5.21883 20.1789 5.32929 20.0717 5.41471 19.9456L5.50745 19.8087C5.6946 19.5325 5.70335 19.1724 5.52985 18.8874C5.48468 18.8131 5.42842 18.7463 5.36303 18.6891L4.88875 18.2741C4.86737 18.2554 4.84778 18.2347 4.83023 18.2124L4.74447 18.1032C4.65022 17.9833 4.66047 17.8118 4.76834 17.7039C4.82486 17.6474 4.85661 17.5707 4.85661 17.4908V17.3366C4.85661 17.2289 4.79777 17.1297 4.70319 17.0782C4.62486 17.0354 4.53137 17.0305 4.449 17.0649L4.11494 17.2041C3.83347 17.3213 3.5149 17.3104 3.24216 17.174L2.97166 17.0387C2.93461 17.0202 2.89376 17.0106 2.85235 17.0106C2.72715 17.0106 2.6188 16.9235 2.59183 16.8013L2.35656 15.7347C2.29326 15.4477 2.3089 15.149 2.40183 14.8702L2.43631 14.7667C2.56832 14.2387 2.55545 13.6848 2.39904 13.1635L2.31254 12.8751C2.27749 12.7583 2.23039 12.6454 2.17199 12.5384L2.07735 12.3649C1.99857 12.2204 1.95729 12.0585 1.95729 11.894C1.95729 11.7929 1.9729 11.6923 2.00358 11.5959L2.0837 11.3441C2.11597 11.2426 2.11024 11.1329 2.06758 11.0354C2.00015 10.8813 2.02687 10.7022 2.13637 10.5744L2.25983 10.4304L2.30199 10.391C2.48188 10.2231 2.76742 10.2473 2.91655 10.443C2.99521 10.5463 3.11757 10.6069 3.24736 10.6069H3.3372C3.545 10.6069 3.73786 10.4989 3.84645 10.3217L4.08709 9.92906C4.12876 9.86107 4.18753 9.8052 4.25753 9.76702C4.36645 9.7076 4.44647 9.60637 4.47911 9.48667L4.52119 9.33241C4.55926 9.1928 4.63311 9.06555 4.73542 8.96323L4.81562 8.88304C4.93872 8.75994 5.10569 8.69078 5.27979 8.69078H5.43014C5.55979 8.69078 5.68055 8.62485 5.75066 8.51578C5.82182 8.4051 5.83083 8.26553 5.7745 8.14661L5.69212 7.9727C5.65642 7.89733 5.60802 7.82865 5.54905 7.76968L5.53409 7.75472C5.37473 7.59536 5.28521 7.37923 5.28521 7.15386V7.13461C5.28521 6.98128 5.32455 6.83051 5.39947 6.69672L5.48646 6.54138C5.58593 6.36375 5.63817 6.16357 5.63817 5.95998V5.66803C5.63817 5.49108 5.71861 5.32372 5.85679 5.21318C5.96007 5.13055 6.08968 5.08553 6.22195 5.08553C6.34953 5.08553 6.4749 5.12691 6.57696 5.20346L6.75588 5.33765C6.7982 5.36939 6.82311 5.4192 6.82311 5.47211C6.82311 5.56493 6.89836 5.64018 6.99119 5.64018H7.03817C7.13461 5.64018 7.21926 5.70439 7.24526 5.79726L7.27454 5.90184C7.33041 6.10135 7.54337 6.21202 7.73875 6.14306L8.04105 6.03637C8.16731 5.99181 8.30416 5.98681 8.43333 6.02204L8.74588 6.10728C9.12319 6.21018 9.52691 6.1321 9.83865 5.89594L9.88996 5.85706C10.0757 5.71634 10.3024 5.64018 10.5354 5.64018C10.681 5.64018 10.8251 5.61044 10.9588 5.55276L11.9538 5.12353C12.0124 5.09824 12.0689 5.06824 12.1227 5.03382L12.2096 4.97821C12.4975 4.79395 12.8598 4.77046 13.1691 4.91601L13.3745 5.01263C13.4739 5.05942 13.5875 5.06614 13.6918 5.03139C13.8267 4.98643 13.9751 5.01144 14.0878 5.09813L15.1222 5.8938C15.1752 5.9346 15.2513 5.92419 15.2915 5.87067C15.3337 5.81445 15.4149 5.80628 15.4674 5.85296L15.5379 5.91566C15.5758 5.94933 15.6247 5.96793 15.6754 5.96793H16.5539C16.6197 5.96793 16.6836 5.94553 16.735 5.90441L16.7706 5.87592C16.8516 5.81115 16.9659 5.80852 17.0497 5.86951C17.1304 5.92819 17.2397 5.92819 17.3204 5.86951L17.3484 5.84909C17.4201 5.79701 17.5122 5.78219 17.5965 5.80917L17.8008 5.87456C17.9869 5.93409 18.1893 5.91329 18.3594 5.81718L18.4643 5.75787C18.5981 5.68222 18.7556 5.65997 18.9052 5.69558C19.092 5.74006 19.2888 5.69387 19.4363 5.57094L19.5275 5.49499C19.6122 5.42439 19.7099 5.37103 19.8151 5.33792L20.93 4.98693C20.9878 4.96873 21.048 4.95947 21.1086 4.95947C21.2297 4.95947 21.3478 4.92256 21.4473 4.85367L22.4883 4.13298C22.5646 4.08016 22.6552 4.05186 22.748 4.05186C22.8516 4.05186 22.9521 4.0166 23.033 3.95189L23.3078 3.73208C23.4538 3.61526 23.6443 3.56971 23.8274 3.60785L23.9517 3.63375C24.072 3.65881 24.197 3.62421 24.2873 3.54086C24.3989 3.43786 24.561 3.4111 24.6998 3.47277L25.3289 3.75238C25.5114 3.83348 25.7089 3.87538 25.9085 3.87538H26.2864C26.5704 3.87538 26.8528 3.83164 27.1235 3.74569L28.1324 3.4254C28.242 3.39061 28.3608 3.39991 28.4637 3.45133C28.5852 3.51211 28.728 3.51355 28.8508 3.45524L29.5573 3.11965C29.6279 3.08613 29.6892 3.03595 29.7361 2.97344C29.7884 2.90373 29.8586 2.84949 29.9392 2.8165L30.1565 2.72762C30.2848 2.67513 30.4323 2.70933 30.5244 2.81294C30.556 2.8485 30.5794 2.89053 30.5931 2.9361L30.711 3.32908C30.7193 3.35669 30.7343 3.38182 30.7547 3.40221L30.7933 3.44083C30.8492 3.49674 30.8415 3.58946 30.7772 3.63542C30.7436 3.65943 30.7236 3.69821 30.7236 3.73953V3.92388C30.7236 4.08303 30.6457 4.2321 30.5151 4.32299L30.3139 4.46297C30.2018 4.54095 30.1077 4.64206 30.038 4.75947L29.8865 5.01449C29.7403 5.26085 29.5443 5.47407 29.3112 5.6406C29.1942 5.72413 29.0863 5.81965 28.9892 5.92559L28.7091 6.23114C28.444 6.52042 28.1026 6.72912 27.7243 6.8333L27.619 6.86228C26.9659 7.04214 26.458 7.55639 26.2864 8.21176L26.1913 8.80616C26.1215 9.24235 26.1694 9.68927 26.3302 10.1007L26.3551 10.1645C26.585 10.7531 26.5649 11.4101 26.2994 11.9835L26.2444 12.1023C26.1392 12.3296 26.0847 12.577 26.0847 12.8275V12.9834C26.0847 13.1612 26.0414 13.3363 25.9586 13.4936C25.8758 13.6509 25.8326 13.826 25.8326 14.0037V15.3757C25.8326 15.9676 25.676 16.5491 25.3788 17.061L25.1129 17.5675C24.944 17.8892 24.6555 18.1318 24.3096 18.243C24.1992 18.2784 24.0938 18.3276 23.9957 18.3893Z" fill="#1CA686"/>
</svg>
