<svg width="20" height="20" viewBox="0 0 20 20" fill="none" xmlns="http://www.w3.org/2000/svg">
<path d="M5.23842 15C3.26598 15 1.66699 13.4198 1.66699 11.4705C1.66699 9.52129 3.26598 7.94113 5.23842 7.94113C5.47518 7.94113 5.70657 7.9639 5.93046 8.00735M5.93046 8.00735C5.73954 7.49813 5.63524 6.94735 5.63524 6.37251C5.63524 3.77352 7.76722 1.66663 10.3972 1.66663C12.8469 1.66663 14.8646 3.49472 15.1296 5.84578M5.93046 8.00735C6.40082 8.09862 6.83806 8.28113 7.22255 8.53546M11.9845 5.85597C12.4809 5.68255 13.0152 5.58819 13.5717 5.58819C14.1173 5.58819 14.6414 5.67886 15.1296 5.84578M15.1296 5.84578C16.9945 6.48349 18.3337 8.23423 18.3337 10.294C18.3337 12.5499 16.7275 14.435 14.5837 14.8935" stroke="#1CA686" stroke-width="1.25" stroke-linecap="round"/>
<path d="M8.33301 18.3335L11.9044 15.2565H8.33301L11.9044 12.1793" stroke="#1CA686" stroke-width="1.25" stroke-linecap="round" stroke-linejoin="round"/>
</svg>
