<svg width="32" height="32" viewBox="0 0 32 32" fill="none" xmlns="http://www.w3.org/2000/svg">
<path d="M18.6667 14.6667C18.6667 13.9303 19.2637 13.3333 20.0001 13.3333C20.7365 13.3333 21.3334 13.9303 21.3334 14.6667V17.3333C21.3334 18.0697 20.7365 18.6667 20.0001 18.6667C19.2637 18.6667 18.6667 18.0697 18.6667 17.3333V14.6667Z" stroke="#1CA686" stroke-width="2"/>
<path d="M18.6849 22.6667L19.6849 22.6696V22.6667H18.6849ZM18.6849 9.33334H19.6849V9.33044L18.6849 9.33334ZM19.6772 25.3401L19.6849 22.6696L17.6849 22.6637L17.6772 25.3343L19.6772 25.3401ZM20.0216 22.3333C20.2099 22.3333 20.3583 22.4849 20.3583 22.6667H22.3583C22.3583 21.3756 21.3097 20.3333 20.0216 20.3333V22.3333ZM20.0216 20.3333C18.7335 20.3333 17.6849 21.3756 17.6849 22.6667H19.6849C19.6849 22.4849 19.8333 22.3333 20.0216 22.3333V20.3333ZM13.3267 6.33334H18.0069V4.33334H13.3267V6.33334ZM17.3439 25.6667H13.3267V27.6667H17.3439V25.6667ZM13.3267 25.6667C10.7781 25.6667 8.96696 25.6645 7.59293 25.4803C6.2474 25.2999 5.4718 24.9613 4.90568 24.3965L3.49322 25.8125C4.49308 26.8099 5.76069 27.2524 7.32708 27.4625C8.86496 27.6688 10.8345 27.6667 13.3267 27.6667V25.6667ZM13.3267 4.33334C10.8345 4.33334 8.86496 4.33122 7.32708 4.53748C5.76069 4.74756 4.49308 5.19008 3.49322 6.18745L4.90568 7.60342C5.4718 7.0387 6.2474 6.70018 7.59293 6.51973C8.96696 6.33546 10.7781 6.33334 13.3267 6.33334V4.33334ZM3.44989 14.5447C3.96416 14.8319 4.30677 15.3773 4.30677 16H6.30677C6.30677 14.6219 5.54481 13.4237 4.42502 12.7985L3.44989 14.5447ZM3.6799 12.028C3.78394 9.55326 4.12196 8.3852 4.90568 7.60342L3.49322 6.18745C2.12049 7.55678 1.78684 9.44248 1.68166 11.944L3.6799 12.028ZM4.30677 16C4.30677 16.6227 3.96416 17.1681 3.44989 17.4553L4.42502 19.2016C5.54481 18.5763 6.30677 17.3781 6.30677 16H4.30677ZM1.68166 20.056C1.78684 22.5576 2.12049 24.4432 3.49322 25.8125L4.90568 24.3965C4.12196 23.6148 3.78394 22.4468 3.6799 19.972L1.68166 20.056ZM27.6932 16C27.6932 15.3773 28.0359 14.8319 28.5501 14.5447L27.5749 12.7985C26.4552 13.4237 25.6932 14.6219 25.6932 16H27.6932ZM30.3184 11.944C30.2132 9.44248 29.8795 7.55678 28.5068 6.18745L27.0943 7.60342C27.878 8.3852 28.2161 9.55326 28.3201 12.028L30.3184 11.944ZM28.5501 17.4553C28.0359 17.1681 27.6932 16.6227 27.6932 16H25.6932C25.6932 17.3781 26.4552 18.5763 27.5749 19.2016L28.5501 17.4553ZM28.3201 19.972C28.2161 22.4468 27.878 23.6148 27.0943 24.3965L28.5068 25.8125C29.8795 24.4432 30.2132 22.5576 30.3184 20.056L28.3201 19.972ZM27.5749 19.2016C27.9536 19.4129 28.2009 19.5515 28.3681 19.6569C28.4505 19.7089 28.4871 19.7365 28.498 19.7457C28.5173 19.7617 28.45 19.7128 28.3856 19.5977L30.1308 18.6208C30.0204 18.4236 29.8724 18.2872 29.7739 18.2056C29.6671 18.1171 29.5484 18.0368 29.4352 17.9655C29.2116 17.8244 28.9072 17.6548 28.5501 17.4553L27.5749 19.2016ZM30.3184 20.056C30.328 19.8275 30.3388 19.5916 30.3301 19.3944C30.3213 19.1945 30.2904 18.906 30.1308 18.6208L28.3856 19.5977C28.3181 19.4772 28.3281 19.3943 28.332 19.4823C28.3337 19.5205 28.334 19.5763 28.3317 19.6619C28.3296 19.7472 28.3253 19.8463 28.3201 19.972L30.3184 20.056ZM28.5501 14.5447C28.9072 14.3452 29.2116 14.1756 29.4352 14.0345C29.5484 13.9632 29.6671 13.8829 29.7739 13.7944C29.8724 13.7128 30.0204 13.5764 30.1308 13.3792L28.3856 12.4022C28.45 12.2873 28.5173 12.2383 28.498 12.2543C28.4871 12.2634 28.4505 12.2911 28.3681 12.343C28.2009 12.4485 27.9536 12.5871 27.5749 12.7985L28.5501 14.5447ZM28.3201 12.028C28.3253 12.1537 28.3296 12.2528 28.3317 12.3381C28.334 12.4237 28.3337 12.4795 28.332 12.5177C28.3281 12.6057 28.3181 12.5227 28.3856 12.4022L30.1308 13.3792C30.2904 13.0941 30.3213 12.8055 30.3301 12.6056C30.3388 12.4085 30.328 12.1726 30.3184 11.944L28.3201 12.028ZM3.44989 17.4553C3.0928 17.6548 2.78841 17.8244 2.56478 17.9655C2.45164 18.0368 2.33296 18.1171 2.2261 18.2056C2.12756 18.2872 1.97966 18.4236 1.86921 18.6208L3.61438 19.5977C3.55001 19.7128 3.48265 19.7617 3.50198 19.7457C3.513 19.7365 3.54954 19.7089 3.63184 19.6569C3.79906 19.5515 4.04644 19.4129 4.42502 19.2016L3.44989 17.4553ZM3.6799 19.972C3.67461 19.8463 3.67048 19.7472 3.66828 19.6619C3.66606 19.5763 3.66632 19.5205 3.668 19.4823C3.67186 19.3943 3.68184 19.4772 3.61438 19.5977L1.86921 18.6208C1.70962 18.906 1.67872 19.1945 1.66993 19.3944C1.66125 19.5916 1.67205 19.8275 1.68166 20.056L3.6799 19.972ZM4.42502 12.7985C4.04644 12.5871 3.79906 12.4485 3.63182 12.343C3.54953 12.2911 3.513 12.2634 3.50198 12.2543C3.48265 12.2383 3.55002 12.2873 3.6144 12.4022L1.86921 13.3792C1.97965 13.5764 2.12754 13.7128 2.22609 13.7944C2.33296 13.8829 2.45164 13.9632 2.56477 14.0345C2.78841 14.1756 3.0928 14.3452 3.44989 14.5447L4.42502 12.7985ZM1.68166 11.944C1.67205 12.1726 1.66125 12.4085 1.66993 12.6056C1.67872 12.8055 1.70962 13.0941 1.86921 13.3792L3.6144 12.4022C3.68185 12.5228 3.67186 12.6057 3.668 12.5177C3.66632 12.4795 3.66606 12.4237 3.66828 12.3381C3.67048 12.2528 3.67461 12.1537 3.6799 12.028L1.68166 11.944ZM19.6849 9.33044L19.6752 5.99517L17.6752 6.00098L17.6849 9.33625L19.6849 9.33044ZM20.0216 9.66668C19.8333 9.66668 19.6849 9.51509 19.6849 9.33334H17.6849C17.6849 10.6244 18.7335 11.6667 20.0216 11.6667V9.66668ZM20.3583 9.33334C20.3583 9.51509 20.2099 9.66668 20.0216 9.66668V11.6667C21.3097 11.6667 22.3583 10.6244 22.3583 9.33334H20.3583ZM20.3583 6.02158V9.33334H22.3583V6.02158H20.3583ZM22.0112 6.35821C24.9288 6.43346 26.2369 6.74833 27.0943 7.60342L28.5068 6.18745C27.0235 4.7078 24.9252 4.4327 22.0628 4.35888L22.0112 6.35821ZM22.3583 6.02158C22.3583 6.20801 22.2045 6.3632 22.0112 6.35821L22.0628 4.35888C21.1239 4.33466 20.3583 5.09114 20.3583 6.02158H22.3583ZM18.0069 6.33334C17.8264 6.33334 17.6757 6.18704 17.6752 6.00098L19.6752 5.99517C19.6725 5.07426 18.9241 4.33334 18.0069 4.33334V6.33334ZM22.7537 27.618C25.2532 27.5124 27.1373 27.1787 28.5068 25.8125L27.0943 24.3965C26.3113 25.1775 25.1417 25.5153 22.6693 25.6197L22.7537 27.618ZM20.3583 22.6667V25.302H22.3583V22.6667H20.3583ZM17.6772 25.3343C17.6767 25.4947 17.6763 25.6181 17.6733 25.7235C17.6704 25.8295 17.6653 25.8923 17.66 25.9308C17.6548 25.9685 17.6528 25.9559 17.6684 25.9183C17.6872 25.8727 17.7215 25.8156 17.7732 25.764L19.1853 27.1803C19.4995 26.8669 19.6013 26.4945 19.6415 26.2028C19.6776 25.9397 19.6764 25.6253 19.6772 25.3401L17.6772 25.3343ZM17.3439 27.6667C17.6291 27.6667 17.9435 27.6688 18.2065 27.6335C18.4985 27.5943 18.8712 27.4935 19.1853 27.1803L17.7732 25.764C17.8249 25.7124 17.8821 25.6783 17.9277 25.6596C17.9655 25.6441 17.9781 25.6461 17.9404 25.6512C17.9019 25.6564 17.8389 25.6613 17.7331 25.664C17.6277 25.6667 17.5043 25.6667 17.3439 25.6667V27.6667ZM22.6693 25.6197C22.5083 25.6265 22.3852 25.6317 22.2801 25.6333C22.1747 25.6349 22.1132 25.6325 22.0767 25.6289C22.0412 25.6255 22.0568 25.6233 22.0979 25.6389C22.1471 25.6577 22.2048 25.6913 22.2556 25.74L20.8715 27.1837C21.1971 27.4959 21.5773 27.5895 21.8811 27.6193C22.1503 27.6459 22.4691 27.63 22.7537 27.618L22.6693 25.6197ZM20.3583 25.302C20.3583 25.5937 20.356 25.9165 20.3933 26.1863C20.4351 26.4873 20.5427 26.8685 20.8715 27.1837L22.2556 25.74C22.3084 25.7907 22.3445 25.8484 22.3649 25.8961C22.3817 25.9355 22.3797 25.9496 22.3744 25.9116C22.3691 25.8728 22.3639 25.8088 22.3611 25.7004C22.3583 25.5927 22.3583 25.4663 22.3583 25.302H20.3583Z" fill="#1CA686"/>
</svg>
