<svg width="32" height="32" viewBox="0 0 32 32" fill="none" xmlns="http://www.w3.org/2000/svg">
<path d="M9.837 16.7408L9.08837 17.4037C9.26875 17.6075 9.52433 17.7288 9.79619 17.7399C10.068 17.7511 10.3327 17.6509 10.5291 17.4625L9.837 16.7408ZM12.6923 15.3885C13.091 15.0063 13.1043 14.3732 12.7221 13.9745C12.3399 13.576 11.7068 13.5627 11.3082 13.9448L12.6923 15.3885ZM8.74889 14.0037C8.38273 13.5903 7.75073 13.5519 7.33728 13.918C6.92381 14.2841 6.88547 14.9161 7.25161 15.3296L8.74889 14.0037ZM19.9092 12.0124C20.2843 12.4178 20.9169 12.4425 21.3223 12.0674C21.7277 11.6924 21.7524 11.0597 21.3773 10.6543L19.9092 12.0124ZM16.0585 8.33334C12.0776 8.33334 8.837 11.5373 8.837 15.5061H10.837C10.837 12.6567 13.1673 10.3333 16.0585 10.3333V8.33334ZM8.837 15.5061V16.7408H10.837V15.5061H8.837ZM10.5291 17.4625L12.6923 15.3885L11.3082 13.9448L9.14493 16.0189L10.5291 17.4625ZM10.5856 16.0777L8.74889 14.0037L7.25161 15.3296L9.08837 17.4037L10.5856 16.0777ZM21.3773 10.6543C20.0577 9.22788 18.1619 8.33334 16.0585 8.33334V10.3333C17.5841 10.3333 18.9541 10.9801 19.9092 12.0124L21.3773 10.6543Z" fill="#1CA686"/>
<path d="M22.1586 15.2591L22.9062 14.5949C22.7255 14.3916 22.4699 14.2707 22.1982 14.2599C21.9264 14.2491 21.662 14.3495 21.4659 14.5379L22.1586 15.2591ZM19.3075 16.6108C18.9091 16.9933 18.8964 17.6264 19.279 18.0247C19.6615 18.4231 20.2946 18.4359 20.6928 18.0533L19.3075 16.6108ZM23.2526 17.9963C23.6194 18.4091 24.2515 18.4464 24.6643 18.0796C25.0772 17.7128 25.1146 17.0808 24.7478 16.6679L23.2526 17.9963ZM12.0627 20.0063C11.6847 19.6036 11.0519 19.5835 10.6492 19.9615C10.2465 20.3393 10.2264 20.9723 10.6043 21.3749L12.0627 20.0063ZM15.9132 23.6665C19.9036 23.6665 23.1586 20.4661 23.1586 16.4937H21.1586C21.1586 19.3396 18.8212 21.6665 15.9132 21.6665V23.6665ZM23.1586 16.4937V15.2591H21.1586V16.4937H23.1586ZM21.4659 14.5379L19.3075 16.6108L20.6928 18.0533L22.8512 15.9804L21.4659 14.5379ZM21.411 15.9233L23.2526 17.9963L24.7478 16.6679L22.9062 14.5949L21.411 15.9233ZM10.6043 21.3749C11.9274 22.7847 13.8182 23.6665 15.9132 23.6665V21.6665C14.3895 21.6665 13.0208 21.0272 12.0627 20.0063L10.6043 21.3749Z" fill="#1CA686"/>
<path d="M16.0001 29.3333C23.3639 29.3333 29.3334 23.3638 29.3334 16C29.3334 8.63619 23.3639 2.66666 16.0001 2.66666C8.63628 2.66666 2.66675 8.63619 2.66675 16C2.66675 23.3638 8.63628 29.3333 16.0001 29.3333Z" stroke="#1CA686" stroke-width="2"/>
</svg>
