<svg width="20" height="20" viewBox="0 0 20 20" fill="none" xmlns="http://www.w3.org/2000/svg">
<path d="M10 2.5C5.85787 2.5 2.5 3.05964 2.5 3.75C2.5 4.44036 5.85787 5 10 5C14.1422 5 17.5 4.44036 17.5 3.75C17.5 3.31661 16.1767 2.93473 14.1667 2.71049" stroke="#1CA686" stroke-width="1.25" stroke-linecap="round"/>
<path d="M16.6663 6.66663C16.6663 6.66663 14.3404 7.49996 9.76976 7.49996C5.19916 7.49996 3.33301 6.66663 3.33301 6.66663" stroke="#1CA686" stroke-width="1.25" stroke-linecap="round"/>
<path d="M13.3337 11.6666C13.3337 11.6666 12.2857 12.0833 10.0003 12.0833C7.71501 12.0833 6.66699 11.6666 6.66699 11.6666" stroke="#1CA686" stroke-width="1.25" stroke-linecap="round"/>
<path d="M13.333 13.75C12.7101 13.9628 11.9593 14.1667 10.833 14.1667C9.70667 14.1667 8.88092 14.0655 8.33301 13.9628" stroke="#1CA686" stroke-width="1.25" stroke-linecap="round"/>
<path d="M9.76562 16.2175C10.0858 16.2378 10.4414 16.25 10.8335 16.25C11.3115 16.25 11.7218 16.2134 12.0835 16.1548" stroke="#1CA686" stroke-width="1.25" stroke-linecap="round"/>
<path d="M15 9.16663C15 9.16663 14.5707 9.99996 10 9.99996M5 9.16663C5 9.16663 5.18253 9.52088 6.5765 9.76746" stroke="#1CA686" stroke-width="1.25" stroke-linecap="round"/>
<path d="M10.833 18.3334C10.833 18.3334 11.0869 18.3334 11.2497 18.3334" stroke="#1CA686" stroke-width="1.25" stroke-linecap="round"/>
</svg>
