<svg width="32" height="32" viewBox="0 0 32 32" fill="none" xmlns="http://www.w3.org/2000/svg">
<path d="M15.9999 3.66666C14.6953 3.66666 13.5827 4.50003 13.1704 5.66656C12.9864 6.18728 12.415 6.46022 11.8943 6.27616C11.3736 6.09211 11.1007 5.52079 11.2847 5.00008C11.9706 3.05944 13.8214 1.66666 15.9999 1.66666C18.1786 1.66666 20.0293 3.05944 20.7153 5.00008C20.8993 5.52079 20.6263 6.09211 20.1057 6.27616C19.5849 6.46022 19.0135 6.18728 18.8295 5.66656C18.4173 4.50003 17.3046 3.66666 15.9999 3.66666Z" fill="#1CA686"/>
<path d="M3.66675 8C3.66675 7.44772 4.11447 7 4.66675 7H27.3335C27.8858 7 28.3335 7.44772 28.3335 8C28.3335 8.55228 27.8858 9 27.3335 9H4.66675C4.11447 9 3.66675 8.55228 3.66675 8Z" fill="#1CA686"/>
<path d="M7.88673 11.2668C7.85 10.7157 7.37349 10.2988 6.82244 10.3355C6.27137 10.3723 5.85442 10.8488 5.89117 11.3998L6.5091 20.6688C6.62309 22.3792 6.71517 23.7607 6.93113 24.8448C7.15566 25.9719 7.53756 26.9133 8.32636 27.6512C9.11514 28.3892 10.0799 28.7076 11.2194 28.8567C12.3155 29 13.7001 29 15.4142 29H16.586C18.3001 29 19.6846 29 20.7808 28.8567C21.9202 28.7076 22.885 28.3892 23.6738 27.6512C24.4626 26.9133 24.8445 25.9719 25.069 24.8448C25.2849 23.7607 25.377 22.3792 25.491 20.6688L26.109 11.3998C26.1457 10.8488 25.7288 10.3723 25.1777 10.3355C24.6266 10.2988 24.1501 10.7157 24.1134 11.2668L23.5001 20.4656C23.3804 22.2628 23.2949 23.5132 23.1076 24.454C22.9257 25.3667 22.672 25.8497 22.3074 26.1908C21.9429 26.5317 21.444 26.7529 20.5213 26.8736C19.5701 26.998 18.3168 27 16.5157 27H15.4845C13.6834 27 12.43 26.998 11.4788 26.8736C10.5562 26.7529 10.0573 26.5317 9.69272 26.1908C9.32817 25.8497 9.0744 25.3667 8.8926 24.454C8.70517 23.5132 8.6198 22.2628 8.5 20.4656L7.88673 11.2668Z" fill="#1CA686"/>
<path d="M12.5673 13.6716C13.1169 13.6167 13.6068 14.0176 13.6619 14.5672L14.3286 21.2339C14.3835 21.7833 13.9826 22.2735 13.433 22.3284C12.8835 22.3833 12.3934 21.9824 12.3385 21.4328L11.6718 14.7661C11.6168 14.2167 12.0178 13.7265 12.5673 13.6716Z" fill="#1CA686"/>
<path d="M20.3286 14.7661C20.3835 14.2167 19.9826 13.7265 19.433 13.6716C18.8835 13.6167 18.3934 14.0176 18.3384 14.5672L17.6718 21.2339C17.6168 21.7833 18.0178 22.2735 18.5674 22.3284C19.1168 22.3833 19.6068 21.9824 19.6619 21.4328L20.3286 14.7661Z" fill="#1CA686"/>
</svg>
