<svg width="32" height="32" viewBox="0 0 32 32" fill="none" xmlns="http://www.w3.org/2000/svg">
<path d="M4 11.6125C4 9.64778 4 8.66542 4.52352 8.09246C4.70939 7.88903 4.93529 7.72621 5.18705 7.61421C5.89617 7.29874 6.82812 7.60939 8.69201 8.23069C10.115 8.70502 10.8265 8.94219 11.5455 8.91763C11.8095 8.90862 12.072 8.87348 12.3291 8.81269C13.0292 8.64721 13.6532 8.23119 14.9013 7.39915L16.7444 6.17037C18.3432 5.10457 19.1425 4.57168 20.0601 4.4488C20.9777 4.32592 21.8891 4.62971 23.7119 5.23731L25.2649 5.75498C26.5849 6.19499 27.2449 6.41501 27.6225 6.93878C28 7.46256 28 8.15828 28 9.54972V20.3876C28 22.3523 28 23.3347 27.4765 23.9076C27.2907 24.1111 27.0647 24.2739 26.8129 24.3859C26.1039 24.7013 25.1719 24.3907 23.308 23.7693C21.8849 23.2951 21.1735 23.0579 20.4545 23.0824C20.1905 23.0915 19.928 23.1265 19.6709 23.1873C18.9708 23.3528 18.3468 23.7688 17.0987 24.6009L15.2556 25.8296C13.6568 26.8955 12.8575 27.4284 11.9399 27.5512C11.0223 27.6741 10.1109 27.3703 8.28812 26.7627L6.73509 26.2451C5.41505 25.8051 4.75503 25.5851 4.37752 25.0612C4 24.5375 4 23.8417 4 22.4503V11.6125Z" fill="#1CA686"/>
<path d="M12 8.85156V27.3333V8.85156Z" fill="#1CA686"/>
<path d="M12 8.85156V27.3333" stroke="#FBFEFD" stroke-width="2"/>
<path d="M20 4V22.6667V4Z" fill="#1CA686"/>
<path d="M20 4V22.6667" stroke="#FBFEFD" stroke-width="2"/>
</svg>
