<svg width="32" height="32" viewBox="0 0 32 32" fill="none" xmlns="http://www.w3.org/2000/svg">
<path d="M29.3331 16.9304C29.3311 18.8899 29.3162 20.5553 29.2049 21.9219C29.0757 23.5077 28.8109 24.8328 28.2182 25.9333C27.9569 26.4187 27.6357 26.8535 27.2446 27.2445C26.1347 28.3543 24.7207 28.8571 22.9289 29.098C21.1781 29.3333 18.9343 29.3333 16.0713 29.3333H15.9289C13.0658 29.3333 10.822 29.3333 9.07135 29.098C7.27943 28.8571 5.86544 28.3543 4.7556 27.2445C3.77169 26.2605 3.26359 25.036 2.99339 23.5168C2.72796 22.0245 2.6794 20.1679 2.66931 17.8623C2.66675 17.2759 2.66675 16.6556 2.66675 16.0012V15.9288C2.66673 13.0657 2.66672 10.822 2.9021 9.07127C3.14302 7.27935 3.64576 5.86537 4.7556 4.75553C5.86544 3.64569 7.27943 3.14294 9.07135 2.90202C10.6282 2.6927 12.6314 2.66954 15.0694 2.66699C15.5831 2.66645 16.0001 3.08315 16.0001 3.5969C16.0001 4.11066 15.583 4.52694 15.0693 4.52749C12.5967 4.5301 10.7568 4.55262 9.31924 4.74589C7.73363 4.95907 6.77769 5.36453 6.07115 6.07107C5.3646 6.77762 4.95915 7.73355 4.74596 9.31917C4.52919 10.9316 4.52721 13.0503 4.52721 16C4.52721 16.3603 4.52721 16.7085 4.52764 17.0459L5.76936 15.9595C6.89961 14.9704 8.60308 15.0272 9.66504 16.0891L14.9857 21.4097C15.8381 22.2621 17.1798 22.3783 18.1661 21.6852L18.5359 21.4252C19.9551 20.4279 21.8753 20.5435 23.1646 21.7039L26.6753 24.8635C27.0286 24.1213 27.2385 23.1463 27.3505 21.7708C27.4561 20.4748 27.4706 18.9007 27.4726 16.9305C27.4731 16.4168 27.8894 16 28.4031 16C28.9169 16 29.3337 16.4167 29.3331 16.9304Z" fill="#1CA686"/>
<path fill-rule="evenodd" clip-rule="evenodd" d="M23.3333 14.6667C20.5049 14.6667 19.0906 14.6667 18.2119 13.788C17.3333 12.9093 17.3333 11.4951 17.3333 8.66666C17.3333 5.83823 17.3333 4.42402 18.2119 3.54532C19.0906 2.66666 20.5049 2.66666 23.3333 2.66666C26.1617 2.66666 27.5759 2.66666 28.4546 3.54532C29.3333 4.42402 29.3333 5.83823 29.3333 8.66666C29.3333 11.4951 29.3333 12.9093 28.4546 13.788C27.5759 14.6667 26.1617 14.6667 23.3333 14.6667ZM26.0403 7.29288L24.0403 5.29288C23.6498 4.90236 23.0167 4.90236 22.6262 5.29288L20.6262 7.29288C20.2357 7.6834 20.2357 8.31658 20.6262 8.7071C21.0167 9.09762 21.6498 9.09762 22.0403 8.7071L22.3333 8.4142V11.3333C22.3333 11.8856 22.781 12.3333 23.3333 12.3333C23.8855 12.3333 24.3333 11.8856 24.3333 11.3333V8.4142L24.6262 8.7071C25.0167 9.09762 25.6498 9.09762 26.0403 8.7071C26.4309 8.31658 26.4309 7.6834 26.0403 7.29288Z" fill="#1CA686"/>
</svg>
