<svg width="32" height="32" viewBox="0 0 32 32" fill="none" xmlns="http://www.w3.org/2000/svg">
<path fill-rule="evenodd" clip-rule="evenodd" d="M11.9999 8.33334C9.97488 8.33334 8.33325 9.97497 8.33325 12C8.33325 14.0251 9.97488 15.6667 11.9999 15.6667C14.025 15.6667 15.6666 14.0251 15.6666 12C15.6666 9.97497 14.025 8.33334 11.9999 8.33334ZM10.3333 12C10.3333 11.0795 11.0795 10.3333 11.9999 10.3333C12.9204 10.3333 13.6666 11.0795 13.6666 12C13.6666 12.9205 12.9204 13.6667 11.9999 13.6667C11.0795 13.6667 10.3333 12.9205 10.3333 12Z" fill="#1CA686"/>
<path fill-rule="evenodd" clip-rule="evenodd" d="M12 16.3333C10.4056 16.3333 8.91276 16.6543 7.7815 17.22C6.71006 17.7557 5.66662 18.6808 5.66662 20L5.66644 20.0833C5.6644 20.7637 5.66096 21.9096 6.74692 22.6957C7.25086 23.0604 7.91582 23.2931 8.73954 23.4413C9.57088 23.5909 10.6362 23.6667 12 23.6667C13.3637 23.6667 14.429 23.5909 15.2604 23.4413C16.0841 23.2931 16.749 23.0604 17.253 22.6957C18.3389 21.9096 18.3356 20.7637 18.3334 20.0833L18.3333 20C18.3333 18.6808 17.2898 17.7557 16.2184 17.22C15.0872 16.6543 13.5944 16.3333 12 16.3333ZM7.66662 20C7.66662 19.8464 7.81708 19.4383 8.67592 19.0088C9.47495 18.6093 10.6488 18.3333 12 18.3333C13.3512 18.3333 14.5249 18.6093 15.324 19.0088C16.1828 19.4383 16.3333 19.8464 16.3333 20C16.3333 20.806 16.2819 20.9296 16.0802 21.0756C15.9176 21.1933 15.5825 21.3512 14.9062 21.4729C14.2376 21.5932 13.3029 21.6667 12 21.6667C10.697 21.6667 9.76235 21.5932 9.0937 21.4729C8.41743 21.3512 8.08238 21.1933 7.91964 21.0756C7.71794 20.9296 7.66662 20.806 7.66662 20Z" fill="#1CA686"/>
<path d="M25.3333 17C25.8856 17 26.3333 16.5523 26.3333 16C26.3333 15.4477 25.8856 15 25.3333 15H20C19.4477 15 19 15.4477 19 16C19 16.5523 19.4477 17 20 17H25.3333Z" fill="#1CA686"/>
<path d="M26.3334 12C26.3334 12.5523 25.8857 13 25.3334 13H18.6667C18.1145 13 17.6667 12.5523 17.6667 12C17.6667 11.4477 18.1145 11 18.6667 11H25.3334C25.8857 11 26.3334 11.4477 26.3334 12Z" fill="#1CA686"/>
<path d="M25.3333 21C25.8855 21 26.3333 20.5523 26.3333 20C26.3333 19.4477 25.8855 19 25.3333 19H21.3333C20.781 19 20.3333 19.4477 20.3333 20C20.3333 20.5523 20.781 21 21.3333 21H25.3333Z" fill="#1CA686"/>
<path fill-rule="evenodd" clip-rule="evenodd" d="M13.2582 4.33334H18.7419C21.1923 4.33332 23.1331 4.3333 24.6521 4.53753C26.2153 4.74769 27.4806 5.19052 28.4785 6.18833C29.4762 7.18616 29.919 8.45142 30.1293 10.0147C30.3334 11.5336 30.3334 13.4744 30.3334 15.9247V16.0752C30.3334 18.5256 30.3334 20.4664 30.1293 21.9853C29.919 23.5485 29.4762 24.8139 28.4785 25.8117C27.4806 26.8095 26.2153 27.2523 24.6521 27.4625C23.1331 27.6667 21.1923 27.6667 18.7421 27.6667H13.2582C10.8079 27.6667 8.86699 27.6667 7.34806 27.4625C5.78483 27.2523 4.51956 26.8095 3.52174 25.8117C2.52392 24.8139 2.0811 23.5485 1.87094 21.9853C1.66671 20.4664 1.66672 18.5256 1.66675 16.0752V15.9248C1.66672 13.4744 1.66671 11.5336 1.87094 10.0147C2.0811 8.45142 2.52392 7.18616 3.52174 6.18833C4.51956 5.19052 5.78483 4.74769 7.34806 4.53753C8.867 4.3333 10.8079 4.33332 13.2582 4.33334ZM7.61455 6.51969C6.27309 6.70005 5.50023 7.03826 4.93595 7.60254C4.37167 8.16682 4.03346 8.93969 3.8531 10.2811C3.66887 11.6514 3.66675 13.4576 3.66675 16C3.66675 18.5424 3.66887 20.3487 3.8531 21.7189C4.03346 23.0603 4.37167 23.8332 4.93595 24.3975C5.50023 24.9617 6.27309 25.3 7.61455 25.4803C8.98476 25.6645 10.791 25.6667 13.3334 25.6667H18.6667C21.2091 25.6667 23.0154 25.6645 24.3857 25.4803C25.727 25.3 26.4999 24.9617 27.0642 24.3975C27.6285 23.8332 27.9667 23.0603 28.147 21.7189C28.3313 20.3487 28.3334 18.5424 28.3334 16C28.3334 13.4576 28.3313 11.6514 28.147 10.2811C27.9667 8.93969 27.6285 8.16682 27.0642 7.60254C26.4999 7.03826 25.727 6.70005 24.3857 6.51969C23.0154 6.33546 21.2091 6.33334 18.6667 6.33334H13.3334C10.791 6.33334 8.98476 6.33546 7.61455 6.51969Z" fill="#1CA686"/>
</svg>
